<svg xmlns="http://www.w3.org/2000/svg" width="158" height="35" viewBox="0 0 158 35" fill="none"><g clip-path="url(#clip0_2020_2628)"><path fill-rule="evenodd" clip-rule="evenodd" d="M118.56 12.7038C119.128 12.7038 119.247 13.0432 119.247 13.3286V14.3792H118.162C117.618 14.3792 117.504 14.056 117.504 13.7849V12.7048H118.56V12.7038ZM118.467 16.146C118.918 16.146 119.156 16.3719 119.156 16.8007V25.6192H118.177V25.5848C117.826 25.5534 117.596 25.2999 117.596 24.934V16.146H118.467ZM66.6572 23.0219C66.9925 23.3249 67.0887 23.4512 67.0921 23.4566L67.1311 23.5081L67.0867 23.5548C65.5768 25.13 64.0605 25.8019 62.016 25.8019C58.3463 25.8019 55.5785 22.9669 55.5785 19.2074C55.5785 15.4922 58.4198 12.582 62.0466 12.582C64.5358 12.582 65.9091 13.5585 67.0226 14.6135L67.0768 14.6646L67.0265 14.7196C67.0241 14.7226 66.7469 15.029 66.4737 15.3012C66.1631 15.6455 65.741 15.561 65.4826 15.3355C64.4283 14.4544 63.3267 14.0438 62.016 14.0438C59.2699 14.0438 57.1993 16.2378 57.1993 19.1461C57.1993 22.041 59.3153 24.3092 62.016 24.3092C63.377 24.3092 64.3997 23.9261 65.5452 22.9865C65.8273 22.737 66.3012 22.6673 66.6572 23.0219ZM89.9049 15.9024C92.1027 15.9024 93.4676 17.367 93.4676 19.7251V25.5583H92.6569C92.0238 25.5583 91.9385 25.1654 91.9385 24.7813V20.0297C91.9385 18.2968 91.0854 17.3037 89.5992 17.3037C88.3432 17.3037 87.0759 18.1745 87.0759 20.121V25.5583H86.2352C85.7914 25.5583 85.5468 25.3147 85.5468 24.8726V19.9992C85.5468 18.3111 84.6725 17.3037 83.2079 17.3037C81.7459 17.3037 80.6852 18.5011 80.6852 20.1515V24.8726C80.6852 25.4203 80.4441 25.5278 80.0274 25.5278H79.1561V16.0546H79.9968C80.4534 16.0546 80.7153 16.3149 80.7153 16.7703V17.4397C81.3021 16.6195 82.1305 15.8419 83.6665 15.8419C85.4516 15.8419 86.3042 16.9097 86.6745 17.6264C87.5015 16.4672 88.5602 15.9024 89.9049 15.9024ZM100.945 15.9328C103.146 15.9328 105.486 17.6568 105.486 20.8519C105.486 24.0475 103.146 25.7715 100.944 25.7715C99.5255 25.7715 98.3785 25.1747 97.4431 23.9482V28.4523H96.5717C96.1413 28.4523 95.9139 28.215 95.9139 27.7666V16.1155H96.6635C97.1733 16.1155 97.4426 16.3734 97.4426 16.8616V17.839C98.379 16.5566 99.5265 15.9328 100.945 15.9328ZM103.895 20.8519C103.895 18.5223 102.272 17.3037 100.669 17.3037C99.0383 17.3037 97.3513 18.6195 97.3513 20.8214C97.3513 23.0425 99.0378 24.3702 100.669 24.3702C102.569 24.3702 103.895 22.9237 103.895 20.8519ZM129.247 16.8012C129.247 16.3395 129.671 16.0851 129.965 16.0851H130.806V23.8677C130.806 26.8005 129.05 28.4822 125.99 28.4822C124.386 28.4822 122.942 28.0367 121.695 27.1585L121.641 27.1207L121.671 27.0623C121.675 27.0549 121.767 26.8722 122.01 26.4778C122.141 26.2666 122.308 26.1683 122.494 26.1708C122.647 26.1747 122.817 26.241 123.064 26.3918C123.949 26.884 124.945 27.1423 125.959 27.1423C128.068 27.1423 129.277 25.9596 129.277 23.8981V23.0194C128.275 24.2351 127.097 24.8269 125.684 24.8269C123.512 24.8269 121.204 23.2626 121.204 20.3642C121.204 19.0714 121.697 17.9019 122.593 17.0718C123.417 16.309 124.543 15.8714 125.684 15.8714C127.482 15.8714 128.599 16.7742 129.247 17.6052V16.8012ZM129.308 20.4256C129.308 18.3975 127.582 17.3032 125.96 17.3032C124.125 17.3032 122.794 18.6038 122.794 20.3951C122.794 22.1751 124.155 23.517 125.96 23.517C127.606 23.517 129.308 22.3608 129.308 20.4256ZM138.008 15.9328C140.228 15.9328 141.662 17.4211 141.662 19.7247V25.5883H140.729C140.302 25.5883 140.103 25.381 140.103 24.934V20.0601C140.103 18.3528 139.16 17.3341 137.58 17.3341C135.968 17.3341 134.843 18.5051 134.843 20.1819L134.874 25.5883H133.314V16.1155H134.155C134.513 16.1155 134.874 16.3179 134.874 16.7703V17.5768C135.62 16.4854 136.673 15.9328 138.008 15.9328ZM111.22 15.9937C113.822 15.9937 115.271 17.3395 115.303 19.7851V25.5583H114.461C114.013 25.5583 113.803 25.3599 113.803 24.934V24.293C112.966 25.2616 111.823 25.7715 110.486 25.7715C108.038 25.7715 106.923 24.2159 106.923 22.7709C106.923 20.8642 108.411 19.7708 111.006 19.7708H112.58V20.3037C112.58 20.7443 112.355 20.9585 111.892 20.9585H111.128C109.422 20.9585 108.482 21.5916 108.482 22.7404C108.482 23.9649 109.663 24.5224 110.76 24.5224C112.524 24.5224 113.803 23.491 113.803 22.0705V19.816C113.803 18.2344 112.842 17.3641 111.097 17.3641C110.311 17.3641 109.602 17.5036 108.801 17.816C108.509 17.9127 108.155 17.9044 108.029 17.5905C107.933 17.3473 107.841 17.1027 107.753 16.8567L107.729 16.7909L107.793 16.7614C108.967 16.2305 110.024 15.9937 111.22 15.9937ZM72.7185 15.9937C75.3202 15.9937 76.7704 17.3395 76.8015 19.7851V25.5583H75.9602C75.5115 25.5583 75.3024 25.3599 75.3024 24.934V24.293C74.4651 25.2616 73.3226 25.7715 71.9848 25.7715C69.537 25.7715 68.422 24.2159 68.422 22.7709C68.422 20.8642 69.9102 19.7708 72.505 19.7708H74.0681V20.3037C74.0681 20.7443 73.8428 20.9585 73.3803 20.9585H72.6268C70.9206 20.9585 69.9817 21.5916 69.9817 22.7404C69.9817 23.9649 71.1627 24.5224 72.2599 24.5224C74.0233 24.5224 75.3024 23.491 75.3024 22.0705V19.816C75.3024 18.2344 74.3413 17.3641 72.5962 17.3641C71.8097 17.3641 71.1016 17.5036 70.2998 17.816C70.0069 17.9137 69.6538 17.9044 69.5286 17.5905C69.4326 17.3474 69.3405 17.1028 69.2524 16.8567L69.2278 16.7899L69.2934 16.7614C70.2012 16.3626 71.2441 15.9937 72.7185 15.9937ZM157.381 19.5115C157.725 19.7522 157.9 20.0498 157.9 20.3951V20.5665C157.896 20.8332 157.8 21.2085 157.381 21.5223L157.379 21.5233C157.177 21.6672 155.119 23.0872 152.941 24.5912C150.809 26.0622 148.408 27.7199 148.115 27.9267V28.1659L147.972 27.9272C147.965 27.9149 147.959 27.9046 147.966 27.8879H147.962V26.6394C147.962 26.2135 148.009 26.0087 148.485 25.6929C148.882 25.4385 155.173 21.0931 156.008 20.5174C155.18 19.9442 148.97 15.6499 148.544 15.3395L148.494 15.3031C148.179 15.0762 147.932 14.8974 147.932 14.4249V12.9386L148.051 13.0221C148.422 13.2795 157.138 19.3302 157.381 19.5115ZM151.933 21.1923C151.718 21.1923 151.504 21.1176 151.279 20.9688C150.735 20.6068 147.943 18.6726 147.914 18.6529L147.882 18.6303V17.6765C147.882 17.4574 147.977 17.284 148.143 17.2C148.321 17.1097 148.543 17.1391 148.737 17.2796C149.158 17.5488 153.221 20.3573 153.262 20.3863L153.354 20.4496L153.26 20.512C153.26 20.512 152.986 20.6942 152.681 20.9064C152.42 21.097 152.176 21.1923 151.933 21.1923ZM22.2235 23.4173C22.5218 23.7144 22.6747 23.8372 22.6762 23.8387L22.7378 23.8878L22.6865 23.9477C21.9434 24.8107 20.8349 25.8019 18.8363 25.8019C16.1469 25.8019 13.9585 23.5951 13.9585 20.8823C13.9585 18.1067 16.101 15.9328 18.8363 15.9328C20.3733 15.9328 21.5415 16.4476 22.6234 17.6018L22.6707 17.6529L22.6239 17.7045C22.4538 17.8921 22.2797 18.0763 22.1012 18.256C21.8014 18.5537 21.4868 18.5365 21.0805 18.1996C20.5321 17.7565 19.8314 17.3032 18.8057 17.3032C16.9798 17.3032 15.5487 18.8622 15.5487 20.8519C15.5487 22.8421 17.0197 24.4011 18.897 24.4011C19.7634 24.4011 20.5588 24.0794 21.2619 23.4458C21.4685 23.2807 21.898 23.0931 22.2235 23.4178V23.4173ZM32.3835 12.7043C32.8017 12.7043 33.0714 12.9853 33.0714 13.4205V14.3797H31.9861C31.4427 14.3797 31.3283 14.0565 31.3283 13.7854V12.7048H32.3835V12.7043ZM32.2612 16.1465C32.7115 16.1465 32.9491 16.3724 32.9491 16.8012V25.6197H31.9708V25.5853C31.6197 25.5539 31.3894 25.3004 31.3894 24.9345V16.146L32.2612 16.1465ZM42.3128 16.6489C42.4632 16.2894 42.7364 16.115 43.1477 16.115H44.2128L44.1659 16.2216C44.1284 16.3071 40.4331 24.7547 40.2817 25.0863C40.1214 25.438 39.8902 25.5883 39.509 25.5883H39.3251C38.9316 25.5883 38.687 25.5131 38.5208 25.1153C38.3704 24.7852 34.6745 16.2766 34.6375 16.1907L34.5912 16.0841H35.6859C36.1036 16.0841 36.395 16.2747 36.5518 16.6489C36.6628 16.9805 38.9799 22.5803 39.4168 23.6368C39.8547 22.5808 42.1752 16.978 42.3128 16.6489ZM51.894 20.2885C51.9827 20.2885 52.0483 20.2649 52.0863 20.2183C52.1395 20.1559 52.1523 20.0424 52.1242 19.8902C51.998 18.3214 50.8609 17.2722 49.2943 17.2722C47.74 17.2722 46.5264 18.5468 46.343 20.3715C46.3425 20.3769 46.3129 20.5871 46.3129 20.8819C46.3129 21.1471 46.3425 21.3568 46.3425 21.3588C46.5378 23.2154 47.8342 24.461 49.5694 24.461C50.5769 24.461 51.4003 24.1589 52.0868 23.5366C52.2692 23.3549 52.6159 23.2424 52.9813 23.5332C53.2278 23.7483 53.4418 23.931 53.4418 23.931L53.502 23.9821L53.4487 24.0401C52.3338 25.2582 51.1282 25.8014 49.5389 25.8014C46.8282 25.8014 44.7838 23.6732 44.7838 20.8519C44.7838 18.0296 46.7493 15.9019 49.3554 15.9019C51.7347 15.9019 53.4857 17.508 53.713 19.9C53.751 20.4113 53.6351 20.8268 53.3777 21.1029C53.1282 21.3706 52.7525 21.5066 52.2608 21.5066C51.4245 21.5066 49.4057 21.5096 47.667 21.5371L47.5896 21.5381V20.9428C47.5896 20.5331 47.8352 20.288 48.2469 20.288L51.894 20.2885ZM7.92723 13.1739C8.10869 13.5658 13.4392 25.3618 13.4935 25.4807L13.5418 25.5883H12.6285C12.4343 25.5883 11.8435 25.5883 11.6108 25.0868C11.4421 24.7218 7.5426 15.9058 6.9706 14.6125L4.18353 20.8367H8.3089V21.5223C8.3089 21.9688 7.98344 22.2684 7.49872 22.2684H3.56468C3.41625 22.5946 2.49956 24.602 2.33092 24.9655C2.09423 25.4036 1.81808 25.5888 1.40535 25.5888H0.400391L0.448715 25.4807C0.502958 25.3608 5.89364 13.416 6.01445 13.1449C6.18211 12.8433 6.45184 12.6734 6.75708 12.6734H7.12395C7.53669 12.6734 7.73886 12.7996 7.92624 13.1724L7.92723 13.1739ZM29.1211 24.2474C29.2074 24.3112 29.31 24.4399 29.31 24.6894C29.31 25.0249 29.2804 25.2955 29.2794 25.3073L29.2745 25.3481L29.2375 25.3667C28.7523 25.6089 27.9766 25.771 27.307 25.771C25.5618 25.771 24.6008 24.8132 24.6008 23.0749V12.7343H25.3503C25.8237 12.7343 26.1294 13.0152 26.1294 13.4504V16.146H28.2858C28.6758 16.146 29.096 16.3699 29.096 16.8616V17.5163H26.1299L26.1605 22.8623C26.1605 23.8426 26.6595 24.3397 27.6433 24.3397C27.9663 24.3397 28.198 24.2832 28.5407 24.1904C28.7676 24.1226 28.9796 24.1427 29.1211 24.2474Z" fill="#133459"></path></g><defs><clipPath id="clip0_2020_2628"><rect width="157.5" height="34.2" fill="white" transform="translate(0.400391 0.200195)"></rect></clipPath></defs></svg>