<svg xmlns="http://www.w3.org/2000/svg" width="136" height="38" viewBox="0 0 136 38" fill="none"><path d="M42.9308 15.2685C42.0772 18.869 36.2805 30.999 29.2377 35.331C29.7891 34.9429 30.2915 34.4152 30.7279 33.7324C34.4663 27.9031 29.6587 17.6727 22.8897 11.2606C22.8806 11.2478 22.8638 11.2362 22.8535 11.2234C25.7086 5.81935 29.8924 1.70898 34.403 1.70898C35.4309 1.70898 36.4742 1.92417 37.5241 2.38273C43.2923 4.91248 44.1046 10.3345 42.9308 15.2685Z" fill="#133459"></path><path d="M22.889 11.2592C29.658 17.6713 34.4656 27.9018 30.726 33.7311C30.2895 34.4138 29.7872 34.9415 29.2345 35.3296C29.2229 35.3386 29.2074 35.345 29.197 35.354C29.0188 35.4551 28.8368 35.5474 28.656 35.6332C28.3835 35.7664 28.1111 35.8791 27.8347 35.9688C27.7727 35.9906 27.712 36.0123 27.6475 36.0328C27.5945 36.0482 27.539 36.061 27.4848 36.0764C27.3479 36.1161 27.2084 36.1507 27.0703 36.1776C27.0509 36.1814 27.0302 36.1865 27.0083 36.1904C26.9424 36.1993 26.8727 36.2083 26.8043 36.2147C26.125 36.2788 25.4096 36.2365 24.6723 36.0943C24.6516 36.0892 24.631 36.0853 24.6103 36.0789C23.9673 35.8855 23.3281 35.5474 22.6953 35.0465C17.2679 30.721 18.5011 19.5004 22.827 11.2682C22.8361 11.2528 22.8438 11.2374 22.8516 11.2246C22.8619 11.2349 22.8787 11.2464 22.889 11.2592Z" fill="#3778C1"></path><path d="M29.1967 35.3608C29.0172 35.4594 28.8351 35.5517 28.6582 35.6375C28.8377 35.5478 29.0198 35.4556 29.1993 35.3544C29.2109 35.3455 29.2238 35.339 29.238 35.3301C29.2212 35.339 29.2109 35.3519 29.1967 35.3608Z" fill="#FF3C35"></path><path d="M27.6504 36.0341C27.7137 36.0162 27.7769 35.9944 27.8389 35.9727C27.7769 35.997 27.7137 36.0162 27.6504 36.0341Z" fill="#FF3C35"></path><path d="M24.6778 36.0999C24.6559 36.0935 24.6327 36.0884 24.6133 36.0781C24.6327 36.0845 24.652 36.0884 24.674 36.0935C25.4113 36.2357 26.1254 36.2779 26.8046 36.2113C26.1254 36.2818 25.4113 36.2357 24.6778 36.0999Z" fill="#133459"></path><path d="M24.6119 36.0818C16.5399 34.2194 7.12888 24.5909 5.15576 21.4617C2.44659 17.1644 1.45358 11.7718 6.09712 7.53594C7.64928 6.11928 9.45453 5.49805 11.3773 5.49805C15.0963 5.49805 19.2478 7.81901 22.8544 11.2275C22.8454 11.2403 22.8389 11.2556 22.8286 11.271C18.5027 19.5033 17.2695 30.7238 22.6995 35.0494C23.3283 35.5502 23.9688 35.8884 24.6119 36.0818Z" fill="#1F548E"></path><path d="M62.2666 31.5527H61.4453V36.1985H62.2666V31.5527Z" fill="#133459"></path><path d="M68.1097 31.5352V34.827L65.7156 31.5352H64.875V36.1771H65.695V32.7956L68.1368 36.1771H68.931V31.5352" fill="#133459"></path><path d="M71.3738 34.8976C71.6966 35.2396 72.2015 35.5381 72.8549 35.5381C73.5277 35.5381 73.7963 35.2114 73.7963 34.904C73.7963 34.4865 73.2966 34.3596 72.7284 34.2162C71.9639 34.0279 71.0652 33.8012 71.0652 32.8226C71.0652 32.0579 71.7457 31.4648 72.7697 31.4648C73.5006 31.4648 74.0907 31.6954 74.5259 32.1104L74.0558 32.7188C73.6891 32.3563 73.192 32.1873 72.7013 32.1873C72.2157 32.1873 71.9071 32.4178 71.9071 32.7649C71.9071 33.1274 72.3849 33.2478 72.9389 33.3862C73.7111 33.5821 74.6305 33.8191 74.6305 34.8272C74.6305 35.6021 74.083 36.2605 72.8201 36.2605C71.9562 36.2605 71.3312 35.962 70.918 35.5253" fill="#133459"></path><path d="M76.6582 31.5352H77.4872V34.3198C77.4872 35.055 77.9004 35.5379 78.6868 35.5379C79.4668 35.5379 79.88 35.055 79.88 34.3198V31.5352H80.709V34.339C80.709 35.4944 80.0414 36.2603 78.6868 36.2603C77.3258 36.2603 76.6582 35.488 76.6582 34.3441" fill="#133459"></path><path d="M84.5931 34.4428H83.7783V36.1771H82.957V31.5352H85.0141C85.9412 31.5352 86.5456 32.1308 86.5456 32.989C86.5456 33.819 85.9968 34.2622 85.4351 34.3544L86.5804 36.1771H85.6326L84.5931 34.4428ZM84.9017 32.2512H83.7783V33.7268H84.9017C85.3653 33.7268 85.6998 33.4347 85.6998 32.989C85.6998 32.5432 85.3653 32.2512 84.9017 32.2512Z" fill="#133459"></path><path d="M90.163 31.5352L88.3242 36.1771H89.223L89.5665 35.2856H91.7836L92.1284 36.1771H93.0259L91.1871 31.5352H90.163ZM90.6757 32.223L91.5512 34.5696H89.7976" fill="#133459"></path><path d="M98.0954 31.5352V34.827L95.7013 31.5352H94.8594V36.1771H95.6806V32.7956L98.1238 36.1771H98.9167V31.5352" fill="#133459"></path><path d="M100.752 33.8574C100.752 32.4318 101.825 31.457 103.173 31.457C104.155 31.457 104.738 31.9425 105.091 32.4984L104.387 32.8558C104.162 32.4715 103.713 32.1795 103.173 32.1795C102.28 32.1795 101.593 32.8827 101.593 33.8574C101.593 34.8322 102.28 35.5367 103.173 35.5367C103.713 35.5367 104.162 35.2497 104.387 34.8603L105.091 35.2164C104.732 35.7723 104.155 36.2616 103.173 36.2616C101.825 36.2616 100.752 35.2843 100.752 33.8574Z" fill="#133459"></path><path d="M107.066 31.5352V36.1771H110.273V35.4611H107.886V34.1725H110.224V33.4565H107.886V32.2512H110.273V31.5352" fill="#133459"></path><path d="M92.6387 10.601C92.6387 8.87946 94.0333 7.49609 95.7701 7.49609C97.5069 7.49609 98.9015 8.87946 98.9015 10.601C98.9015 12.325 97.5069 13.7058 95.7701 13.7058C94.0333 13.7058 92.6387 12.325 92.6387 10.601Z" fill="#133459"></path><path d="M53.7363 28.2548C52.8982 29.3026 51.0684 30.0442 49.2064 30.0442C46.9737 30.0442 44.0566 28.5341 44.0566 25.1436C44.0566 21.4482 46.9737 20.5542 49.2064 20.5542C51.1627 20.5542 52.9305 21.169 53.7363 22.186V20.4927C53.7363 19.4449 52.7756 18.6456 50.9445 18.6456C49.5486 18.6456 47.9667 19.199 46.7865 20.093L44.8947 16.6718C46.9104 15.0694 49.7035 14.4238 51.9685 14.4238C55.6913 14.4238 59.3212 15.7188 59.3212 20.6797V29.6715H53.7363V28.2548ZM53.7363 24.8054C53.3644 24.2803 52.4024 24.0061 51.5333 24.0061C50.601 24.0061 49.5796 24.3136 49.5796 25.2396C49.5796 26.1619 50.601 26.4386 51.5333 26.4386C52.4024 26.4386 53.3644 26.1619 53.7363 25.6393" fill="#133459"></path><path d="M68.4116 14.4238C71.8245 14.4238 73.9332 15.9647 74.7726 17.2277L71.1724 20.5849C70.7076 19.8753 69.8385 19.3219 68.6595 19.3219C67.079 19.3219 65.7128 20.3082 65.7128 22.2167C65.7128 24.1291 67.079 25.1436 68.6595 25.1436C69.8385 25.1436 70.7076 24.5287 71.1724 23.8499L74.7726 27.2404C73.9332 28.47 71.8245 30.0404 68.4116 30.0404C63.6648 30.0404 60.0039 26.9612 60.0039 22.2167C60.0039 17.5018 63.6648 14.4238 68.4116 14.4238Z" fill="#133459"></path><path d="M85.6917 28.0092C84.8239 28.9647 83.1788 30.0445 80.5406 30.0445C77.0657 30.0445 75.5781 27.9784 75.5781 25.4205V14.793H81.1617V23.047C81.1617 24.5572 81.9675 25.1438 83.3337 25.1438C84.5747 25.1438 85.2268 24.4982 85.6917 23.9731V14.793H91.2766V29.6756H85.6917" fill="#133459"></path><path d="M122.192 14.7915L119.696 22.3295L116.938 14.7915H107.687V10.7285H102.104V14.7915H99.6211V19.5999H102.104V25.3575C102.104 26.7076 102.227 27.7797 102.886 28.5457C103.749 29.5511 104.764 30.0392 106.553 30.0392C108.219 30.0392 109.839 29.5691 111.386 27.8719L110.054 24.4968C109.806 24.6697 109.163 24.8721 108.751 24.8721C108.008 24.8721 107.687 24.352 107.687 23.5809V19.5999H112.754C114.595 23.6296 116.963 28.8198 117.204 29.3424C116.762 31.005 115.277 31.2906 112.418 31.4533C112.418 32.3793 112.419 34.4147 112.419 36.1849C115.153 36.1849 119.95 35.7545 122.059 31.0972C124.2 26.372 128.657 14.7915 128.657 14.7915" fill="#133459"></path><path d="M98.4951 14.793H92.9102V29.6743H98.4951V14.793Z" fill="#133459"></path><path d="M130.318 15.0149H129.621V14.7715H131.295V15.0149H130.595V16.9631H130.318" fill="#133459"></path><path d="M133.547 15.1437L132.796 16.9702H132.685L131.936 15.1437V16.9702H131.662V14.7773H132.055L132.742 16.4438L133.427 14.7773H133.824V16.9702H133.547" fill="#133459"></path></svg>