<svg xmlns="http://www.w3.org/2000/svg" width="103" height="35" viewBox="0 0 103 35" fill="none"><g clip-path="url(#clip0_2020_2524)"><path d="M5.01665 18.3347C4.02312 18.3347 3.14853 18.1188 2.39288 17.687C1.63723 17.2413 1.0495 16.6285 0.629703 15.8484C0.209899 15.0546 0 14.1423 0 13.1116C0 11.872 0.307856 10.7856 0.923571 9.85246C1.55327 8.91923 2.44185 8.20189 3.58931 7.70045C4.75077 7.19914 6.10814 6.94842 7.66142 6.94842C8.37508 6.94842 8.95581 6.99712 9.4036 7.09466V6.65594C9.4036 5.59736 9.20769 4.81041 8.81588 4.29508C8.42406 3.7658 7.82934 3.50116 7.0317 3.50116C5.74431 3.50116 4.91869 4.17668 4.55487 5.5277C4.44292 5.9177 4.21203 6.08485 3.86219 6.02912L1.00753 5.5277C0.79762 5.48593 0.650694 5.39539 0.566733 5.25611C0.496769 5.11683 0.489769 4.9288 0.545754 4.69203C0.909583 3.27135 1.67923 2.17102 2.85467 1.39105C4.04412 0.597147 5.53443 0.200195 7.32558 0.200195C9.45259 0.200195 11.0688 0.771249 12.1743 1.91336C13.2938 3.05547 13.8535 4.71987 13.8535 6.90666V17.4155C13.8535 17.5686 13.7976 17.7009 13.6857 17.8123C13.5877 17.9098 13.4617 17.9585 13.3078 17.9585H10.5791C10.2432 17.9585 10.0333 17.7775 9.94936 17.4155L9.52955 15.4516H9.36163C8.98381 16.3708 8.41708 17.0811 7.66143 17.5825C6.91977 18.084 6.03818 18.3347 5.01665 18.3347ZM4.57585 12.6101C4.57585 13.3484 4.76477 13.9403 5.14259 14.386C5.53441 14.8178 6.05916 15.0337 6.71685 15.0337C7.58445 15.0337 8.24914 14.6506 8.71092 13.8846C9.1727 13.1046 9.4036 11.9903 9.4036 10.5419V9.43455C9.01178 9.3649 8.64096 9.33007 8.29112 9.33007C7.14366 9.33007 6.23408 9.6295 5.56239 10.2285C4.9047 10.8134 4.57585 11.6074 4.57585 12.6101ZM16.4562 1.11944C16.4562 0.966236 16.5053 0.840889 16.6032 0.74339C16.7151 0.631959 16.8481 0.576251 17.002 0.576251H19.7727C19.9266 0.576251 20.0526 0.624993 20.1505 0.722493C20.2626 0.819993 20.3324 0.952305 20.3604 1.11944L20.7803 3.16688H20.9482C21.3261 2.20585 21.8647 1.47462 22.5645 0.973202C23.2781 0.457856 24.1177 0.200195 25.0832 0.200195C26.1188 0.200195 27.0073 0.471786 27.749 1.01499C28.5046 1.55819 29.0854 2.33121 29.4912 3.33402H29.6592C30.2749 2.27548 30.9676 1.48855 31.7372 0.973202C32.5068 0.457856 33.3674 0.200195 34.3189 0.200195C35.3545 0.200195 36.25 0.478751 37.0057 1.03588C37.7753 1.59301 38.3631 2.38691 38.7689 3.41759C39.1747 4.44828 39.3776 5.667 39.3776 7.07372V17.4155C39.3776 17.5686 39.3216 17.7009 39.2096 17.8123C39.1116 17.9098 38.9858 17.9585 38.8319 17.9585H35.4734C35.3195 17.9585 35.1865 17.9098 35.0746 17.8123C34.9766 17.7009 34.9277 17.5686 34.9277 17.4155V7.40797C34.9277 6.39121 34.7318 5.61127 34.34 5.06808C33.9481 4.52489 33.3814 4.25328 32.6397 4.25328C31.8281 4.25328 31.2054 4.57363 30.7716 5.21432C30.3518 5.85502 30.1419 6.78123 30.1419 7.99294V17.4155C30.1419 17.5686 30.0859 17.7009 29.9739 17.8123C29.8761 17.9098 29.7501 17.9585 29.5962 17.9585H26.2377C26.0838 17.9585 25.9508 17.9098 25.8389 17.8123C25.7409 17.7009 25.692 17.5686 25.692 17.4155V7.40797C25.692 6.39121 25.4961 5.61127 25.1042 5.06808C24.7124 4.52489 24.1457 4.25328 23.4041 4.25328C22.5924 4.25328 21.9697 4.57363 21.5359 5.21432C21.1161 5.85502 20.9062 6.78123 20.9062 7.99294V17.4155C20.9062 17.5686 20.8503 17.7009 20.7384 17.8123C20.6404 17.9098 20.5143 17.9585 20.3604 17.9585H17.002C16.8481 17.9585 16.7151 17.9098 16.6032 17.8123C16.5053 17.7009 16.4562 17.5686 16.4562 17.4155V1.11944ZM41.5605 13.1116C41.5605 11.872 41.8684 10.7856 42.4842 9.85246C43.1138 8.91923 44.0024 8.20189 45.1499 7.70045C46.3113 7.19914 47.6688 6.94842 49.222 6.94842C49.9357 6.94842 50.5164 6.99712 50.9642 7.09466V6.65594C50.9642 5.59736 50.7682 4.81041 50.3765 4.29508C49.9846 3.7658 49.3899 3.50116 48.5923 3.50116C47.3049 3.50116 46.4792 4.17668 46.1154 5.5277C46.0035 5.9177 45.7726 6.08485 45.4227 6.02912L42.5681 5.5277C42.3582 5.48593 42.2112 5.39539 42.1273 5.25611C42.0573 5.11683 42.0503 4.9288 42.1063 4.69203C42.4701 3.27135 43.2397 2.17102 44.4153 1.39105C45.6046 0.597147 47.095 0.200195 48.8861 0.200195C51.0131 0.200195 52.6293 0.771249 53.7349 1.91336C54.8543 3.05547 55.4141 4.71987 55.4141 6.90666V17.4155C55.4141 17.5686 55.3581 17.7009 55.2462 17.8123C55.1482 17.9098 55.0223 17.9585 54.8684 17.9585H52.1396C51.8038 17.9585 51.5939 17.7775 51.5099 17.4155L51.0901 15.4516H50.9222C50.5443 16.3708 49.9776 17.0811 49.222 17.5825C48.4803 18.084 47.5988 18.3347 46.5772 18.3347C45.5557 18.3347 44.7091 18.1188 43.9534 17.687C43.1978 17.2413 42.61 16.6285 42.1903 15.8484C41.7704 15.0546 41.5605 14.1423 41.5605 13.1116ZM46.1365 12.6101C46.1365 13.3484 46.3253 13.9403 46.7031 14.386C47.095 14.8178 47.6197 15.0337 48.2774 15.0337C49.145 15.0337 49.8097 14.6506 50.2715 13.8846C50.7332 13.1046 50.9642 11.9903 50.9642 10.5419V9.43455C50.5723 9.3649 50.2015 9.33007 49.8516 9.33007C48.7042 9.33007 47.7946 9.6295 47.123 10.2285C46.4653 10.8134 46.1365 11.6074 46.1365 12.6101ZM57.6811 14.8874C57.6811 14.5811 57.765 14.3163 57.933 14.0935L65.1115 4.08615H58.3947C58.2408 4.08615 58.1078 4.0374 57.9958 3.9399C57.898 3.82847 57.8489 3.69616 57.8489 3.54295V1.11944C57.8489 0.966236 57.898 0.840889 57.9958 0.74339C58.1078 0.631959 58.2408 0.576251 58.3947 0.576251H69.4355C69.5895 0.576251 69.7154 0.631959 69.8134 0.74339C69.9253 0.840889 69.9812 0.966236 69.9812 1.11944V3.6474C69.9812 3.95383 69.8973 4.21846 69.7293 4.44132L63.2224 13.3413C63.6142 13.2718 64.0131 13.237 64.4189 13.237C65.4264 13.237 66.35 13.3275 67.1896 13.5085C68.0431 13.6757 68.9247 13.9542 69.8343 14.3442C70.1562 14.4835 70.317 14.7202 70.317 15.0546V17.4572C70.317 17.6801 70.2472 17.8332 70.1072 17.9168C69.9673 17.9864 69.7923 17.9795 69.5824 17.8959C68.533 17.5059 67.6024 17.2344 66.7908 17.0811C65.9931 16.914 65.1185 16.8303 64.167 16.8303C63.2154 16.8303 62.3058 16.914 61.3962 17.0811C60.5007 17.2483 59.5072 17.5198 58.4157 17.8959C58.2058 17.9656 58.0308 17.9656 57.8909 17.8959C57.751 17.8123 57.6811 17.666 57.6811 17.4572V14.8874ZM71.2407 9.26736C71.2407 7.56822 71.5695 6.02912 72.2272 4.65024C72.8849 3.25742 73.7874 2.17102 74.935 1.39105C76.0965 0.597147 77.3838 0.200195 78.7971 0.200195C80.2104 0.200195 81.5119 0.597147 82.6593 1.39105C83.8208 2.17102 84.7304 3.25742 85.3881 4.65024C86.0597 6.02912 86.3957 7.56822 86.3957 9.26736C86.3957 10.9666 86.0597 12.5127 85.3881 13.9055C84.7304 15.2844 83.8208 16.3708 82.6593 17.1647C81.5119 17.9447 80.2245 18.3347 78.7971 18.3347C77.3697 18.3347 76.0965 17.9447 74.935 17.1647C73.7874 16.3708 72.8849 15.2844 72.2272 13.9055C71.5695 12.5127 71.2407 10.9666 71.2407 9.26736ZM75.8585 9.26736C75.8585 11.0363 76.1104 12.4013 76.6142 13.3623C77.118 14.3094 77.8455 14.783 78.7971 14.783C79.7487 14.783 80.4834 14.3094 81.0011 13.3623C81.5189 12.4013 81.7777 11.0363 81.7777 9.26736C81.7777 7.49857 81.5189 6.14055 81.0011 5.19344C80.4834 4.23239 79.7487 3.75187 78.7971 3.75187C77.8455 3.75187 77.118 4.23239 76.6142 5.19344C76.1104 6.14055 75.8585 7.49857 75.8585 9.26736ZM88.6625 1.11944C88.6625 0.966236 88.7115 0.840889 88.8095 0.74339C88.9215 0.631959 89.0543 0.576251 89.2082 0.576251H91.9789C92.1328 0.576251 92.2588 0.624993 92.3568 0.722493C92.4688 0.819993 92.5388 0.952305 92.5666 1.11944L92.9865 3.16688H93.1544C93.5323 2.21978 94.085 1.48855 94.8127 0.973202C95.5543 0.457856 96.4219 0.200195 97.4154 0.200195C98.4789 0.200195 99.3955 0.478751 100.165 1.03588C100.949 1.59301 101.55 2.38691 101.97 3.41759C102.39 4.44828 102.6 5.667 102.6 7.07372V17.4155C102.6 17.5686 102.544 17.7009 102.432 17.8123C102.334 17.9098 102.208 17.9585 102.054 17.9585H98.6958C98.5419 17.9585 98.4089 17.9098 98.297 17.8123C98.1991 17.7009 98.1501 17.5686 98.1501 17.4155V7.40797C98.1501 6.39121 97.9401 5.61127 97.5204 5.06808C97.1005 4.52489 96.5058 4.25328 95.7362 4.25328C94.8826 4.25328 94.2319 4.57363 93.7842 5.21432C93.3363 5.85502 93.1124 6.78123 93.1124 7.99294V17.4155C93.1124 17.5686 93.0565 17.7009 92.9446 17.8123C92.8466 17.9098 92.7207 17.9585 92.5666 17.9585H89.2082C89.0543 17.9585 88.9215 17.9098 88.8095 17.8123C88.7115 17.7009 88.6625 17.5686 88.6625 17.4155V1.11944Z" fill="#133459"></path><path d="M11.6725 20.3596C11.4066 20.5686 11.3506 20.9167 11.5046 21.4043C11.6445 21.8361 11.9734 22.3722 12.4911 23.0129C14.5761 25.5758 17.0599 27.7067 19.9426 29.406C22.8253 31.1053 25.9109 32.3587 29.1994 33.1666C32.5018 33.9884 35.8742 34.3992 39.3165 34.3992C43.7245 34.3992 47.9226 33.7586 51.9107 32.4771C55.8988 31.2096 59.2292 29.4268 61.9021 27.1287C62.8395 26.307 63.3083 25.6524 63.3083 25.1648C63.3083 24.9838 63.2314 24.8027 63.0775 24.6216C62.8676 24.4128 62.6157 24.3431 62.3218 24.4128C62.028 24.4823 61.6152 24.6564 61.0834 24.9351C58.5226 26.2722 55.4021 27.3377 51.7218 28.1316C48.0555 28.9394 44.2283 29.3433 40.2402 29.3433C35.3005 29.3433 30.5287 28.6748 25.9248 27.3377C21.321 26.0005 17.2419 23.9114 13.6876 21.07C13.1698 20.6661 12.75 20.4083 12.4281 20.2969C12.1203 20.1855 11.8684 20.2064 11.6725 20.3596Z" fill="#133459"></path><path d="M58.3103 21.4058C58.0164 21.6844 57.9395 21.9769 58.0794 22.2834C58.1774 22.5062 58.3663 22.6315 58.6462 22.6594C58.926 22.7012 59.3249 22.6733 59.8426 22.5759C60.6822 22.3948 61.5568 22.2694 62.4664 22.1997C63.376 22.1441 64.1667 22.1579 64.8383 22.2415C65.5101 22.339 65.9298 22.5062 66.0978 22.7429C66.3497 23.1191 66.2586 23.9129 65.8248 25.1247C65.4051 26.3364 64.8313 27.5133 64.1036 28.6555C63.8237 29.115 63.6559 29.4772 63.5999 29.7419C63.544 30.0065 63.6139 30.2293 63.8098 30.4104C63.9357 30.5357 64.0756 30.5984 64.2295 30.5984C64.6355 30.5984 65.2232 30.2432 65.9928 29.5329C67.3782 28.3351 68.3506 26.9144 68.9105 25.2709C69.2183 24.4212 69.4071 23.5299 69.4771 22.5967C69.5471 21.6636 69.4421 20.9949 69.1622 20.591C68.8964 20.201 68.3087 19.8806 67.3991 19.6301C66.5036 19.3793 65.6009 19.2539 64.6914 19.2539C62.9141 19.2539 61.228 19.6718 59.6328 20.5075C59.0451 20.8279 58.6043 21.1273 58.3103 21.4058Z" fill="#133459"></path></g><defs><clipPath id="clip0_2020_2524"><rect width="102.6" height="34.2" fill="white" transform="translate(0 0.200195)"></rect></clipPath></defs></svg>