<svg xmlns="http://www.w3.org/2000/svg" width="135" height="30" viewBox="0 0 135 30" fill="none"><g clip-path="url(#clip0_2323_11857)"><path d="M59.6525 29.971C58.9874 29.8731 57.2027 30.221 56.848 29.7318C56.4268 29.1448 56.6041 16.9482 56.7371 15.3394C57.6572 3.68635 73.6641 5.45822 73.4756 15.3177C73.3759 20.579 68.6425 23.7314 63.5101 23.2313C60.8497 22.9704 60.7943 22.3834 60.9827 19.8724C63.9092 20.655 67.8333 21.0138 69.7067 18.144C72.7219 13.5349 67.0463 7.31706 61.9139 10.8065C61.2155 11.2739 59.6636 13.2849 59.6636 14.0458V29.971H59.6525Z" fill="#133459"></path><path d="M101.92 18.5482C101.831 18.4938 101.055 17.0481 100.567 16.8959C100.567 16.4937 106.232 12.5369 107.03 11.8629C107.484 11.4716 106.454 10.6454 106.121 10.4389C104.259 9.25401 101.975 9.68882 100.279 10.9389C94.9029 14.9284 99.1928 22.0267 105.279 20.4831C106.853 20.0809 107.861 18.1569 108.138 18.0916C108.305 18.0482 110.278 19.0374 110.333 19.1352C110.998 20.244 107.473 22.3963 106.52 22.7333C93.096 27.5706 90.4023 5.46023 104.891 7.22124C106.653 7.43865 111.198 10.1128 110.854 11.9499C110.721 12.6347 103.594 17.4177 102.662 18.4612C102.441 18.5917 102.141 18.6895 101.909 18.5591L101.92 18.5482Z" fill="#133459"></path><path d="M54.0763 23.2452H51.1499V14.3097C51.1499 13.3858 49.2211 10.8421 48.3232 10.3312C45.2748 8.59192 41.0403 10.7769 40.5525 14.0706C39.7433 19.5167 44.8535 22.0821 49.5536 19.8754C49.6756 22.2234 49.8529 22.9082 47.2701 23.2126C34.1897 24.7345 34.4668 5.95041 47.0262 7.18964C50.4072 7.51575 54.0653 10.9399 54.0653 14.3097V23.2452H54.0763Z" fill="#133459"></path><path d="M128.711 22.9822H125.785V14.8185C125.785 13.5358 123.9 10.6986 122.592 10.1551C117.205 7.92667 112.538 14.5033 116.351 18.8297C118.424 21.1886 121.484 20.9168 124.189 19.8624C124.377 22.4713 124.333 22.9278 121.639 23.1996C108.581 24.504 109.168 5.95912 121.672 7.17661C125.552 7.55707 128.711 11.3291 128.711 15.0685V22.9713V22.9822Z" fill="#133459"></path><path d="M84.6256 20.6462H93.3939V23.2333H81.0451C79.8812 23.2333 80.1915 21.7223 80.5906 20.9831C82.209 17.9829 86.5322 14.0478 88.716 11.0367C88.9931 10.6563 89.4365 10.2649 89.4033 9.76489H80.901V7.17773H92.7177C93.6932 7.17773 94.5468 9.04744 93.6045 9.86272L84.6145 20.6462H84.6256Z" fill="#133459"></path><path d="M134.3 0.189453H131.373V22.9847H134.3V0.189453Z" fill="#133459"></path><path d="M78.2522 7.17773H75.5918V23.2333H78.2522V7.17773Z" fill="#133459"></path><path d="M76.8204 0.00331414C79.3478 -0.127131 79.8023 3.63403 77.5742 4.06885C74.0602 4.74281 74.0602 0.1555 76.8204 0.00331414Z" fill="#133459"></path><path d="M25.2989 18.5465H31.5177C31.9278 18.5465 32.7038 18.8943 33.0363 19.1661C34.7656 20.601 33.7569 23.2099 31.6174 23.4382H24.5119C24.7336 22.7751 24.4565 22.0468 24.135 21.4489L20.6875 16.4702L24.1128 11.3285H17.6945C17.6945 11.3285 17.1846 11.1111 17.0849 11.0568C14.9898 9.98061 15.6549 6.73036 18.1823 6.52382C21.6519 6.23032 25.5428 6.7521 29.0679 6.52382C30.8415 6.66513 31.9167 8.36092 31.2184 9.98061L25.2878 18.5356L25.2989 18.5465Z" fill="#133459"></path><path d="M14.5889 12.1329C15.3095 12.0025 15.8305 12.9808 16.2073 13.4809C18.0918 16.0246 20.7522 19.5357 22.3042 22.2098C22.7808 23.036 22.8917 23.3512 21.7277 23.449C17.3824 23.1773 12.5936 23.8078 8.30366 23.449C7.0843 23.3512 6.75175 22.9816 7.41686 21.8946C9.34566 18.7422 11.9618 15.7745 13.9016 12.5895C14.0458 12.3938 14.3672 12.1656 14.6111 12.1221L14.5889 12.1329Z" fill="#133459"></path><path d="M10.5784 6.56495C12.5626 6.32581 14.048 8.27161 13.1723 10.0652L4.39289 22.5879C2.36432 24.7511 -0.983383 22.5227 0.269235 19.8921L9.04864 7.35849C9.42553 6.93455 10.0241 6.63018 10.5895 6.56495H10.5784Z" fill="#133459"></path></g><defs><clipPath id="clip0_2323_11857"><rect width="134.296" height="30.0023" fill="white" transform="translate(-0.0078125 0.00585938)"></rect></clipPath></defs></svg>