<svg xmlns="http://www.w3.org/2000/svg" width="179" height="26" viewBox="0 0 179 26" fill="none"><g clip-path="url(#clip0_2323_11822)"><path d="M63.0636 20.4736H59.3139C59.2105 20.4736 58.535 19.572 58.2915 19.4864C52.9339 22.5621 45.7332 20.027 44.6073 13.6388C43.3763 6.65467 48.9357 1.70029 55.7361 3.11223C62.1178 4.43687 64.483 12.106 60.7634 17.2048L63.0636 20.4736ZM53.3976 12.5912H57.314C57.4475 12.5912 58.2531 13.6422 58.2331 13.931C58.6251 14.2063 58.8202 13.1704 58.8519 12.9639C59.3456 9.68506 57.6193 6.48343 54.1532 6.20977C45.8283 5.555 46.1085 18.202 54.1448 17.4499C54.5268 17.4146 56.1331 17.0486 56.2181 16.681L53.3959 12.5895L53.3976 12.5912Z" fill="#133459"></path><path d="M82.5633 20.4744H78.8136C78.7069 20.4744 78.0447 19.5712 77.7895 19.4956C73.0257 22.3178 65.8984 20.3569 64.3539 14.7326C62.3239 7.33714 67.9534 1.52149 75.3709 3.14497C81.6058 4.5099 83.9227 12.1992 80.2831 17.2039L82.5616 20.4761L82.5633 20.4744ZM72.8973 12.592H76.8137C76.9505 12.592 77.7478 13.6413 77.7328 13.9318L78.073 13.8344C79.299 10.8913 77.4059 6.66559 74.1316 6.23411C65.2896 5.07065 65.433 18.223 73.6445 17.4524C74.0182 17.4172 75.7879 17.0596 75.7128 16.5592C75.6495 16.1362 72.6771 12.7784 72.8973 12.592Z" fill="#133459"></path><path d="M99.7214 6.88065L96.9742 8.395C95.7082 7.43804 95.0344 6.39545 93.3097 6.21917C84.7262 5.33776 84.9531 18.2383 93.1429 17.4492C94.7675 17.2931 95.9134 16.2673 96.9759 15.134C97.483 15.7485 98.9675 16.3865 99.3911 16.8666C99.7564 17.2797 99.2127 17.8572 98.8924 18.2047C94.629 22.8166 85.8104 21.0739 83.8922 14.8553C81.4403 6.90919 88.686 0.485784 96.2236 3.62194C97.5347 4.16757 99.3811 5.47375 99.7197 6.88065H99.7214Z" fill="#133459"></path><path d="M134.476 20.4755C134.098 20.2035 134.239 19.7099 134.224 19.302C128.572 23.9122 122.629 16.7719 125.866 10.973C127.134 8.70317 130.256 7.48262 132.675 8.53864C133.265 8.79551 133.622 9.42173 134.226 9.57451V8.56886H137.394V20.4738H134.476V20.4755ZM131.025 11.1208C127.12 11.5153 127.274 18.1066 131.639 17.7977C135.601 17.5173 135.115 10.7078 131.025 11.1208Z" fill="#133459"></path><path d="M110.061 20.4733V19.2998L108.013 20.5086C102.507 22.0364 99.0959 16.073 101.363 11.3033C102.564 8.77657 105.865 7.41164 108.46 8.58685C108.734 8.71109 109.924 9.73353 110.06 9.57404V8.56839H113.06V20.4733H110.06H110.061ZM106.864 11.1203C102.782 11.3352 102.931 18.1044 107.309 17.7939C111.272 17.5135 110.813 10.9104 106.864 11.1203Z" fill="#133459"></path><path d="M147.227 8.56641L150.227 14.6037L153.644 8.56641H156.893L147.809 25.503H144.56L148.553 17.8708L143.561 8.56641H147.227Z" fill="#133459"></path><path d="M166.881 9.25385L165.793 11.742C164.486 11.2131 162.139 10.3569 160.829 11.1023C160.391 11.3525 160.106 11.8679 160.411 12.3195C161.071 13.3 165.15 12.6922 166.727 14.858C166.943 15.1518 167.161 15.5077 167.218 15.8737C168.11 21.6272 159.972 21.602 156.633 19.4699L157.732 16.9515C159.225 17.749 160.724 18.3165 162.461 18.1066C163.72 17.9555 164.913 16.923 163.396 16.196C161.615 15.3415 157.669 15.9224 157.1 13.1405C155.937 7.46416 163.5 7.43226 166.883 9.25217L166.881 9.25385Z" fill="#133459"></path><path d="M173.394 5.04688V8.56749H177.477L177.727 8.81933V11.2503H173.394V16.5321C173.394 16.5808 173.803 17.2691 173.903 17.3615C174.868 18.2664 176.271 17.5311 177.294 17.1315C177.474 17.1734 178.381 18.9799 178.396 19.2301C178.443 19.9923 176.098 20.6739 175.434 20.7646C173.594 21.0164 171.357 20.3381 170.598 18.5065C170.392 18.0095 170.061 16.6815 170.061 16.1963V11.2503H167.895V8.56749H170.061V5.04688H173.394Z" fill="#133459"></path><path d="M119.728 5.04688V8.31734L119.978 8.56917H124.061V11.252H119.978L119.728 11.5039V16.5338C119.728 16.5825 120.136 17.2708 120.236 17.3632C121.202 18.2681 122.605 17.5327 123.627 17.1332L124.825 19.2939C124.993 20.004 121.783 20.8116 121.145 20.8233C115.404 20.9224 116.68 15.4744 116.537 11.5274C116.365 10.9985 114.715 11.3511 114.227 11.2537V8.56917C114.383 8.41136 116.268 8.85123 116.56 8.31902V5.04855H119.726L119.728 5.04688Z" fill="#133459"></path><path d="M139.395 20.4733V2.69727H142.31L142.56 2.9491V20.2214L142.31 20.4733H139.395Z" fill="#133459"></path><path d="M20.1518 16.0676L18.7847 14.8199L16.6914 16.3473L19.81 19.1868C20.5149 19.8322 21.6043 19.7891 22.2452 19.0793C22.5442 18.7566 22.6937 18.3479 22.6937 17.8961V12.0234L20.1732 13.8519V16.0676H20.1518Z" fill="#133459"></path><path d="M22.6923 4.98704L23.6108 6.47134L25.6614 4.98704C24.6788 3.39518 23.8671 2.06146 23.3331 1.22251C22.8418 0.405063 21.7738 0.146922 20.9621 0.663202C20.4494 0.985876 20.1504 1.54518 20.1504 2.14751V8.96669L22.6709 7.1382L22.6923 4.98704Z" fill="#133459"></path><path d="M34.5269 0.598028C33.9502 0.296865 33.2666 0.33989 32.7326 0.727099L30.447 2.38349L29.4217 3.1364L5.30566 20.5608L3.27641 22.0236V4.0614L13.7217 13.6126L15.8151 12.0852L3.63954 0.942216C2.93464 0.296867 1.84525 0.33989 1.20443 1.04977C0.905383 1.37245 0.755859 1.80268 0.755859 2.23291V23.6155C0.755859 24.5835 1.52484 25.3579 2.48606 25.3579C2.84919 25.3579 3.19096 25.2504 3.49001 25.0352L6.8009 22.6475L30.917 5.22303L32.9462 3.76024V16.8608C31.4723 14.4515 29.5499 11.2893 27.7556 8.36373L25.6836 9.86954C28.1615 13.9137 30.8956 18.3882 32.2627 20.6684C32.754 21.4858 33.8007 21.7655 34.6124 21.2707C35.1464 20.948 35.4668 20.3887 35.4668 19.7649V2.14687C35.4668 1.50152 35.1036 0.899191 34.5269 0.598028Z" fill="#133459"></path></g><defs><clipPath id="clip0_2323_11822"><rect width="177.692" height="25.0019" fill="white" transform="translate(0.755859 0.503906)"></rect></clipPath></defs></svg>