<svg xmlns="http://www.w3.org/2000/svg" width="135" height="26" viewBox="0 0 135 26" fill="none"><g clip-path="url(#clip0_2323_11662)"><path d="M134.298 8.08398V8.48209L133.601 10.7048C133.023 9.70625 131.592 9.98824 130.612 10.0712V17.3332C130.612 17.529 130.772 18.0697 130.868 18.2754C131.018 18.6039 131.291 18.8427 131.514 19.1181H126.024C126.366 18.8062 126.844 18.3882 126.844 17.8873V10.0712C126.161 9.97829 125.457 9.94843 124.774 10.0911C124.244 10.2039 123.803 10.5025 123.318 10.7048C123.516 10.3698 123.981 8.24323 124.189 8.17687L134.298 8.0873V8.08398Z" fill="#133459"></path><path d="M12.0466 0.861328C11.9646 0.990712 11.6333 0.987394 11.5547 0.861328H12.0466Z" fill="#133459"></path><path d="M13.5251 0.861328C13.4431 0.990712 13.1118 0.987394 13.0332 0.861328H13.5251Z" fill="#133459"></path><path d="M57.5648 8.16406L60.1063 15.6252L61.9408 10.2607C62.1116 9.36501 61.5342 8.77117 60.9672 8.16738H65.637C65.637 8.34321 65.5584 8.50245 65.5515 8.67828C65.4866 10.3603 67.5807 13.7043 67.9291 15.5091L68.0965 15.7048L70.2213 9.94557C70.3409 9.06311 70.0266 8.72472 69.4083 8.16738H73.3402L68.8344 19.3209C66.9965 19.1782 65.4081 18.528 64.6155 16.8162C64.0416 15.5787 63.7171 14.1024 63.1398 12.8484L60.9228 19.3607C58.6477 19.029 57.3496 18.392 56.4853 16.282C55.621 14.1721 55.013 11.5778 54.0189 9.54415C53.7183 8.92709 53.3801 8.60529 52.8574 8.1707H57.5682L57.5648 8.16406Z" fill="#133459"></path><path d="M34.0064 6.81386C33.7126 7.13235 33.1046 7.74941 33.1046 8.20391V11.5778H37.0365V8.20391C37.0365 7.69964 36.4318 7.10912 36.0526 6.81386H42.1981C41.696 7.3513 41.3544 7.58353 41.2929 8.35651C41.0572 11.3755 41.4739 14.6764 41.2929 17.7219C41.3646 18.3456 41.7745 18.6972 42.1947 19.1086H36.1312C36.1995 18.9062 36.4489 18.8432 36.5753 18.7039C36.7802 18.4716 37.033 17.9342 37.033 17.6389V13.5518H33.1011V17.5593C33.1011 17.7219 33.2754 18.2427 33.3642 18.4186C33.5316 18.7503 33.8185 18.81 34.003 19.1086H27.9395C28.5885 18.601 28.7866 18.3091 28.8447 17.4863C29.0565 14.4773 28.6773 11.2328 28.8413 8.19727C28.7627 7.59017 28.3801 7.19206 27.9395 6.81055H34.003L34.0064 6.81386Z" fill="#133459"></path><path d="M79.5644 8.16152C79.4141 8.41697 79.1169 8.55962 78.9734 8.81839C78.8948 8.95773 78.7445 9.41886 78.7445 9.54825V12.9985C79.9436 11.9037 81.0743 10.7226 82.1504 9.51175C82.5125 8.79849 81.9181 8.55962 81.4501 8.1582H86.4478L82.0205 12.6402C83.4314 14.3852 84.7329 16.3492 86.2052 18.0345C86.54 18.416 86.8953 18.761 87.2676 19.1093H83.5407C81.5491 19.1093 80.087 15.835 78.9461 14.5146C78.8914 14.4515 78.8368 14.3587 78.7479 14.3487V17.5634C78.7479 17.6795 78.8641 18.2169 78.9187 18.3496C79.0486 18.6681 79.3936 18.8307 79.5678 19.1127H74.1602C74.7716 18.6416 74.9288 18.3297 74.9834 17.57C75.1679 14.9459 74.8365 12.1193 74.98 9.47526C74.9151 8.87479 74.6008 8.54635 74.1602 8.16484H79.5678L79.5644 8.16152Z" fill="#133459"></path><path d="M97.1805 7.12918V9.2723C95.7697 8.80453 94.3144 8.19742 92.8011 8.64197C91.7763 8.94054 91.4586 9.87277 92.4356 10.4965C94.2461 11.6476 98.3591 11.9761 98.7998 14.7263C99.4215 18.5945 94.738 19.5069 91.7285 19.3509C91.2195 19.3244 88.2817 18.9064 88.046 18.631C87.7385 18.2761 87.5677 16.5609 87.2637 16.0533C87.537 16.04 87.8307 16.3287 88.0835 16.4514C89.5149 17.1481 91.5099 17.649 93.1017 17.3405C93.6347 17.2377 94.1846 17.0618 94.4101 16.5443C94.8815 15.4595 93.8874 15.0348 93.0573 14.65C90.936 13.668 87.3217 13.0145 87.513 10.0221C87.7658 6.10738 94.4272 6.17041 97.1805 7.12586V7.12918Z" fill="#133459"></path><path d="M122.417 8.08133V10.4633C122.199 10.3273 122.011 10.1249 121.762 10.0287C121.628 9.97564 121.092 9.82967 120.983 9.82967H118.974V12.6861H121.229C121.253 12.6861 121.29 12.5865 121.352 12.6064V14.8292C121.201 14.7595 121.194 14.5936 121.02 14.4742C120.539 14.1458 119.548 14.2055 118.974 14.1922V17.4865C118.974 17.6258 119.179 18.1633 119.258 18.3225C119.411 18.6277 119.667 18.85 119.876 19.1121H114.386C114.919 18.651 115.138 18.359 115.203 17.6424C115.066 15.0747 115.387 12.3311 115.206 9.78322C115.151 9.03346 114.96 8.64199 114.383 8.16095H122.209C122.233 8.16095 122.325 8.05147 122.414 8.08133H122.417Z" fill="#133459"></path><path d="M114.059 12.9602C113.755 9.27778 109.66 7.7849 106.339 7.94746C103.149 8.10338 99.4831 9.63939 99.1551 13.1327C98.3865 21.337 114.767 21.5029 114.059 12.9602ZM107.207 17.5948C102.25 18.0725 101.731 10.2332 105.844 9.68916C110.749 9.04224 111.819 17.1503 107.207 17.5948Z" fill="#133459"></path><path d="M50.8869 19.1119H56.7865C56.2604 18.6441 55.871 18.2991 55.5157 17.6854C53.9272 14.9584 52.8546 11.5114 51.3925 8.66501C51.3037 8.4925 51.2354 8.3034 51.0919 8.16406H46.3811C46.9277 8.63183 47.2625 8.80434 47.078 9.59392C45.855 12.1086 44.9839 14.9053 43.7473 17.3967C43.3921 18.1133 43.0334 18.5612 42.4492 19.1152H46.6271C46.3845 18.747 45.8824 18.5512 45.896 18.0536C45.9029 17.8413 46.6852 15.8873 46.7876 15.8209L50.8801 15.7944C51.0133 16.5972 52.0313 17.7982 51.4984 18.5579C51.331 18.7967 51.0338 18.8763 50.8869 19.1185V19.1119ZM47.4435 14.192L48.7143 11.0171L50.149 14.192H47.4435Z" fill="#133459"></path><path d="M13.8489 0.86069C13.743 0.850737 13.6303 0.867325 13.521 0.86069C13.3639 0.92704 13.1862 0.92704 13.0291 0.86069H12.0452C11.8881 0.92704 11.7105 0.92704 11.5533 0.86069H11.2254C2.94141 1.68344 -2.23052 10.2227 0.946424 17.6805C4.7451 26.5947 17.3914 27.799 22.963 19.8037C28.234 12.2398 23.1782 1.78628 13.8489 0.86069ZM18.7339 17.5246C18.4333 17.4948 17.2548 16.9938 16.8858 16.8478C16.4315 16.6687 14.8088 15.8592 14.4877 15.8758C13.743 15.9189 12.807 16.7085 12.0726 16.9507C11.6319 17.0966 11.0682 17.0801 10.6822 17.2692C10.4055 17.4052 10.2381 17.727 9.99902 17.8763C9.24407 18.3474 7.88788 18.2976 7.02362 18.4038C6.71617 18.4436 5.22676 18.8284 5.0867 18.6327C5.00472 18.5199 5.45906 18.1118 4.43082 18.2379L4.59479 17.7635C4.56404 17.7369 3.72027 17.8663 3.95257 17.4549C3.9799 17.4052 4.24977 17.4085 4.18486 17.2061H3.77493C3.75785 16.5924 4.5128 16.8113 4.86466 16.7151C5.01838 16.672 5.25068 16.3369 5.41806 16.2208C6.20376 15.6834 7.47796 15.5739 8.25682 15.1592C8.54377 15.0066 8.62576 14.7478 8.85122 14.5455C9.10401 14.3199 9.68474 14.0843 9.63008 13.7028C9.61983 13.6232 9.3568 13.182 9.32947 13.1654C9.2509 13.1223 8.74874 13.3943 8.60526 13.1156C8.59501 13.0559 9.13817 12.2199 9.22357 12.1303C9.6335 11.699 11.1707 12.064 11.5328 11.7853C11.7207 11.6393 12.4518 10.2294 12.544 9.9507C12.8822 8.91564 12.8583 7.76446 13.644 6.88863C14.3477 6.10569 14.5868 6.11896 14.9557 4.98437C15.0856 4.58295 15.1436 3.37537 15.5706 4.58627C15.7346 4.54646 15.6219 4.24125 15.6697 4.08864C15.7722 3.74693 16.1616 3.84314 16.2265 4.2711C16.2812 4.30096 16.3358 4.2711 16.3905 4.19148C16.4212 4.10523 16.4076 4.01897 16.5066 3.9493C16.8995 3.65404 16.8551 4.16494 16.8824 4.43034C16.9371 4.46684 16.9917 4.4403 17.0464 4.35072C17.1694 4.2512 17.1386 4.0621 17.3743 4.31091C17.4153 4.35404 17.9106 5.30617 17.9277 5.36257C18.0131 5.691 17.9892 7.24692 17.9482 7.64502C17.8457 8.63696 17.1694 9.56919 16.8892 10.508C16.6091 11.4436 16.7663 12.8005 16.3461 13.5535C16.1992 13.8123 15.861 13.9218 15.9806 14.3796C16.0386 14.6085 20.032 15.8327 20.4044 16.3071C20.1448 16.7052 19.2497 17.5777 18.7373 17.5279L18.7339 17.5246Z" fill="#133459"></path></g><defs><clipPath id="clip0_2323_11662"><rect width="134.296" height="24.2876" fill="white" transform="translate(0 0.857422)"></rect></clipPath></defs></svg>