<svg xmlns="http://www.w3.org/2000/svg" width="148" height="26" viewBox="0 0 148 26" fill="none"><g clip-path="url(#clip0_2323_11780)"><path d="M20.0314 16.0715L18.6664 14.8239L16.5762 16.3512L19.6901 19.1907C20.394 19.8361 21.4817 19.793 22.1216 19.0832C22.4202 18.7605 22.5695 18.3518 22.5695 17.9V12.0273L20.0527 13.8558V16.0715H20.0314Z" fill="#133459"></path><path d="M22.5713 4.99095L23.4884 6.47525L25.536 4.99095C24.5549 3.39909 23.7444 2.06537 23.2112 1.22641C22.7206 0.40897 21.6542 0.150829 20.8437 0.667108C20.3318 0.989782 20.0332 1.54909 20.0332 2.15141V8.9706L22.55 7.14211L22.5713 4.99095Z" fill="#133459"></path><path d="M34.3865 0.601934C33.8106 0.300772 33.1281 0.343796 32.5949 0.731006L30.3128 2.3874L29.289 3.14031L5.20901 20.5647L3.18279 22.0275V4.06531L13.6125 13.6165L15.7027 12.0891L3.54538 0.946122C2.84153 0.300773 1.75377 0.343796 1.11392 1.05368C0.815315 1.37635 0.666016 1.80659 0.666016 2.23682V23.6194C0.666016 24.5874 1.43384 25.3618 2.39363 25.3618C2.75622 25.3618 3.09748 25.2543 3.39608 25.0392L6.70201 22.6514L30.782 5.22694L32.8082 3.76415V16.8647C31.3365 14.4554 29.417 11.2932 27.6254 8.36763L25.5565 9.87345C28.0306 13.9176 30.7607 18.3921 32.1257 20.6723C32.6162 21.4897 33.6614 21.7694 34.4718 21.2746C35.0051 20.9519 35.325 20.3926 35.325 19.7688V2.15077C35.325 1.50543 34.9624 0.903097 34.3865 0.601934Z" fill="#133459"></path><path d="M68.0971 3.16211L72.7219 15.2177L77.432 3.16211H82.6882V21.2473H79.2446V7.91078L74.7195 19.5199L70.933 19.5784L66.5567 8.09378V21.2473H62.9316V3.16211H68.0971Z" fill="#133459"></path><path d="M136.661 2.85101C147.209 1.93055 147.939 20.7734 138.054 21.6096C127.188 22.5283 126.6 3.72937 136.661 2.85101ZM136.287 6.30775C131.847 7.23552 131.972 18.4548 137.325 18.3286C143.067 18.1932 142.929 4.91883 136.287 6.30775Z" fill="#133459"></path><path d="M85.0544 19.4057L86.9486 16.3186C88.6741 18.0717 93.8559 19.2557 95.6757 17.3489C97.2143 15.7367 95.2402 14.6516 93.8577 14.2838C91.2196 13.5811 86.4152 13.6067 85.8128 9.97061C84.5119 2.13118 94.8284 1.43032 99.5602 4.71139C99.7653 4.87425 99.6637 4.93647 99.5874 5.11031C99.4586 5.40859 98.1559 7.7015 98.0053 7.71247C96.4359 6.32722 90.6045 5.32807 89.6683 7.54961C88.4872 10.3567 93.2499 10.3549 94.8356 10.7374C98.018 11.5041 100.27 12.9131 99.9013 16.5876C99.2627 22.9668 88.8646 22.4745 85.0508 19.4076L85.0544 19.4057Z" fill="#133459"></path><path d="M61.483 21.248H57.6765L56.2468 17.1545L48.4505 17.0648L46.8919 21.248H43.3594L50.2394 3.24699C50.9525 3.1866 54.3816 2.96884 54.6901 3.34214L61.483 21.248ZM54.9586 13.7581C54.0605 11.8257 53.5851 9.44314 52.6943 7.5455C52.6289 7.40642 52.3822 6.89221 52.2425 6.99835L49.8838 13.7581H54.9586Z" fill="#133459"></path><path d="M125.643 3.16211L121.473 9.37107C125.545 9.1899 128.89 12.0684 128.313 16.3596C127.62 21.5182 120.775 23.1358 117.037 20.1475C110.99 15.3147 119.026 7.67838 121.564 3.16211H125.643ZM119.182 13.4555C116.37 16.5462 121.475 20.4788 124.091 17.4008C126.711 14.3174 121.8 10.5788 119.182 13.4555Z" fill="#133459"></path><path d="M107.246 10.6525C110.15 10.2609 110.653 6.75291 107.89 6.1655C105.874 5.7373 104.363 6.35765 103.076 7.9076L101.012 5.7739C100.904 5.36033 101.434 4.97971 101.715 4.71254C104.969 1.61446 112.758 2.24396 113.297 7.47391C113.523 9.67165 112.487 11.024 110.78 12.2061C113.291 13.2711 114.396 15.8275 113.297 18.3968C111.482 22.6349 103.314 22.591 100.855 18.9622L102.895 16.684C104.399 19.1708 111.143 19.1708 109.973 15.392C109.789 14.7973 108.32 13.7579 107.788 13.7579H104.435V10.6525C105.322 10.5683 106.384 10.7678 107.244 10.6525H107.246Z" fill="#133459"></path></g><defs><clipPath id="clip0_2323_11780"><rect width="146.44" height="25.0019" fill="white" transform="translate(0.666016 0.503906)"></rect></clipPath></defs></svg>