<svg xmlns="http://www.w3.org/2000/svg" width="97" height="31" viewBox="0 0 97 31" fill="none"><g clip-path="url(#clip0_2020_2529)"><path d="M95.6574 21.0298C95.4939 21.0298 95.3449 21.1334 95.2671 21.351C94.2792 24.1171 92.9458 25.763 91.8471 25.763C91.2167 25.763 90.9608 25.0728 90.9608 23.9902C90.9608 21.2811 92.6134 15.5352 93.4456 12.9155C93.5419 12.5982 93.6052 12.3146 93.6052 12.0738C93.6052 11.3123 93.1819 10.9394 92.132 10.9394C91.0004 10.9394 89.7817 11.3745 88.5974 13.4128C88.1885 11.6153 86.95 10.8306 85.221 10.8306C83.2228 10.8306 81.2906 12.0932 79.7013 14.1405C78.1121 16.1879 76.2432 16.86 74.8372 16.5285C75.8488 14.0978 76.2247 12.2822 76.2247 10.9342C76.2247 8.82077 75.1604 7.54392 73.4405 7.54392C70.8251 7.54392 69.3176 9.99402 69.3176 12.571C69.3176 14.5614 70.2369 16.6101 72.2601 17.602C70.5653 21.3665 68.0897 24.771 67.1507 24.771C65.9373 24.771 65.5812 18.9397 65.6484 14.7699C65.692 12.3768 65.8937 12.2538 65.8937 11.5312C65.8937 11.1155 65.6194 10.8319 64.5168 10.8319C61.945 10.8319 61.1497 12.9699 61.0296 15.4239C60.9914 16.3563 60.8423 17.2822 60.5865 18.1809C59.5129 21.9454 57.2971 24.8008 55.8516 24.8008C55.1816 24.8008 54.9996 24.143 54.9996 23.2831C54.9996 20.574 56.5454 17.1876 56.5454 14.2985C56.5454 12.1748 55.5971 10.8319 53.81 10.8319C51.705 10.8319 48.9208 13.291 46.2869 17.8973C47.1534 14.3698 47.5109 10.9549 44.943 10.9549C44.3864 10.9627 43.839 11.1025 43.3484 11.3615C43.0108 11.5156 42.805 11.8575 42.8288 12.2227C43.0741 15.9768 39.7465 25.5959 36.5917 25.5959C36.0179 25.5959 35.7397 24.986 35.7397 24.0018C35.7397 21.2875 37.387 15.556 38.2152 12.931C38.3207 12.5905 38.3788 12.2978 38.3788 12.0414C38.3788 11.3227 37.9264 10.9536 36.9003 10.9536C35.7726 10.9536 34.55 11.3745 33.3696 13.4128C32.9554 11.6153 31.717 10.8306 29.9879 10.8306C27.151 10.8306 23.9816 13.7767 22.5902 17.6163C20.7266 22.7418 16.969 27.6938 11.9123 27.6938C7.32255 27.6938 4.89973 23.9435 4.89973 18.019C4.89973 9.46437 11.2951 2.47537 16.0392 2.47537C18.3077 2.47537 19.3918 3.89467 19.3918 6.06894C19.3918 8.70292 17.8936 9.92798 17.8936 10.9303C17.8936 11.2372 18.1534 11.5402 18.6691 11.5402C20.7305 11.5402 23.1573 9.16135 23.1573 5.91742C23.1573 2.6735 20.4747 0.299805 15.7306 0.299805C7.88968 0.299805 0 8.04637 0 17.9711C0 25.8679 3.96858 30.6308 10.8322 30.6308C15.5129 30.6308 19.6029 27.0554 21.8081 22.8842C22.0587 26.3405 23.6572 28.147 26.0945 28.147C28.2615 28.147 30.0156 26.8793 31.3543 24.6519C31.87 26.9829 33.2377 28.1224 35.0143 28.1224C37.052 28.1224 38.756 26.8546 40.3796 24.5004C40.3558 26.3496 40.7845 28.0901 42.4173 28.0901C43.1875 28.0901 44.1081 27.9152 44.2716 27.2535C45.9915 20.2736 50.2384 14.5757 51.5388 14.5757C51.9239 14.5757 52.0294 14.9395 52.0294 15.3695C52.0294 17.2653 50.667 21.1529 50.667 23.6353C50.667 26.3172 51.8276 28.0901 54.2267 28.0901C56.8856 28.0901 59.5868 24.8928 61.3884 20.2218C61.9515 24.5871 63.1702 28.1095 65.0773 28.1095C67.4184 28.1095 71.5743 23.2714 74.0934 18.1498C75.0812 18.2728 76.5637 18.2392 77.9894 17.2511C77.3827 18.7597 77.0266 20.4095 77.0266 22.0606C77.0266 26.8132 79.3387 28.147 81.3276 28.147C83.4906 28.147 85.2434 26.8793 86.5873 24.6519C87.0305 26.6617 88.1621 28.1185 90.2433 28.1185C93.4997 28.1185 96.3261 24.8513 96.3261 22.1694C96.3261 21.4598 96.0175 21.0298 95.6574 21.0298ZM28.0795 25.513C26.7645 25.513 26.2488 24.2129 26.2488 22.2743C26.2488 18.9074 28.5938 13.2846 31.0747 13.2846C32.1588 13.2846 32.5677 14.5381 32.5677 16.0701C32.569 19.4875 30.3387 25.513 28.0795 25.513ZM73.1174 15.464C72.3326 14.5472 72.0477 13.2988 72.0477 12.1864C72.0477 10.815 72.5582 9.65603 73.1701 9.65603C73.7821 9.65603 73.9694 10.2465 73.9694 11.0701C73.9694 12.4467 73.4682 14.4565 73.1174 15.464ZM83.3125 25.513C81.9976 25.513 81.4819 24.0186 81.4819 22.2743C81.4819 19.0252 83.8269 13.2846 86.3275 13.2846C87.4117 13.2846 87.7968 14.5277 87.7968 16.0701C87.7968 19.4875 85.6048 25.513 83.3125 25.513Z" fill="#133459"></path></g><defs><clipPath id="clip0_2020_2529"><rect width="96.3" height="30.6" fill="white"></rect></clipPath></defs></svg>