<svg xmlns="http://www.w3.org/2000/svg" width="145" height="30" viewBox="0 0 145 30" fill="none"><g clip-path="url(#clip0_2323_11895)"><path d="M140.993 13.4786V22.969H137.508V14.1056C137.508 11.9471 136.579 10.7412 134.77 10.7412C132.961 10.7412 131.768 12.0074 131.43 14.1298C131.333 14.6362 131.309 15.4201 131.309 17.0722V22.957H127.824V7.88317H130.911C130.923 8.01582 130.996 9.36643 130.996 9.45084C130.996 9.55937 131.128 9.61967 131.213 9.54731C132.491 8.53436 133.902 7.59375 135.868 7.59375C139.099 7.59375 140.993 9.77644 140.993 13.4786Z" fill="#133459"></path><path d="M122.206 7.89489L122.097 9.61933C122.085 9.72786 121.953 9.78816 121.88 9.7158C121.458 9.31785 119.903 7.60547 117.262 7.60547C113.475 7.60547 110.689 10.8735 110.689 15.3112C110.689 19.8092 113.451 23.0893 117.262 23.0893C119.806 23.0893 121.362 21.4372 121.651 21.0754C121.736 20.9789 121.892 21.0392 121.892 21.1598C121.856 21.6181 121.796 22.7637 121.41 23.7405C120.928 24.9705 119.842 26.1161 117.66 26.1161C115.863 26.1161 114.271 25.4287 112.764 23.9575L110.943 26.4538C112.595 28.3229 115.2 29.372 118.033 29.372C122.592 29.372 125.329 26.2488 125.329 21.1478V7.89489H122.206ZM118.009 19.9298C115.754 19.9298 114.162 17.9762 114.162 15.3112C114.162 12.6462 115.754 10.7408 118.009 10.7408C120.264 10.7408 121.856 12.6341 121.856 15.3112C121.844 17.9883 120.252 19.9298 118.009 19.9298Z" fill="#133459"></path><path d="M103.405 18.4964C103.405 21.3544 101.005 23.2718 97.4838 23.2718C94.7223 23.2718 92.2622 22.1985 90.791 20.667L91.9366 17.9417C93.0461 18.9426 94.8308 20.3776 97.3753 20.3776C99.1479 20.3776 100.173 19.5938 100.173 18.6049C100.173 17.4593 98.762 17.1578 97.0738 16.8323C94.674 16.3258 91.4904 15.5058 91.4904 12.2378C91.4904 9.50035 93.7093 7.61914 96.9894 7.61914C99.5097 7.61914 101.68 8.58386 103.176 9.838L101.463 12.2378C100.016 11.0921 98.4967 10.5254 96.9894 10.5254C95.482 10.5254 94.7343 11.1524 94.7343 12.0569C94.7343 13.3231 96.3623 13.6487 97.5561 13.8898C100.559 14.4687 103.405 15.3731 103.405 18.4964Z" fill="#133459"></path><path d="M52.4409 7.59375C48.1841 7.59375 45.1211 10.8979 45.1211 15.4321C45.1211 19.9663 48.1841 23.2705 52.4409 23.2705C56.6978 23.2705 59.7728 19.9663 59.7728 15.4321C59.7728 10.8979 56.7098 7.59375 52.4409 7.59375ZM52.4409 20.111C50.1859 20.111 48.5941 18.1937 48.5941 15.4201C48.5941 12.6585 50.1497 10.7291 52.4409 10.7291C54.7201 10.7291 56.2878 12.6465 56.2878 15.4201C56.2878 18.1937 54.696 20.111 52.4409 20.111Z" fill="#133459"></path><path d="M61.0039 15.4321C61.0039 10.9582 64.0669 7.59375 68.1549 7.59375C71.3988 7.59375 73.7744 9.22172 74.8839 12.2847L71.7968 13.4544C70.9526 11.5612 69.8432 10.7532 68.167 10.7532C66.0687 10.7532 64.501 12.7309 64.501 15.4442C64.501 18.1454 66.0566 20.1352 68.167 20.1352C69.8552 20.1352 70.9526 19.3272 71.7968 17.4339L74.8839 18.6037C73.7744 21.6667 71.3988 23.2946 68.1549 23.2946C64.0669 23.2705 61.0039 19.906 61.0039 15.4321Z" fill="#133459"></path><path d="M42.3729 0.888672C42.3126 0.888672 42.2402 0.900731 42.18 0.936908L39.9129 2.14281C39.8646 2.16693 39.8405 2.21517 39.8405 2.2634V9.43853C39.8405 9.55912 39.6958 9.60736 39.6114 9.53501C39.2737 9.24559 38.4899 8.50999 37.4046 8.00351C36.8378 7.73821 36.0057 7.5935 35.246 7.5935C31.4353 7.5935 28.6738 10.8977 28.6738 15.4319C28.6738 19.9661 31.4353 23.2703 35.246 23.2703C37.2478 23.2703 38.7552 22.2211 39.6717 21.2805C39.732 21.2202 39.7681 21.184 39.8284 21.1237C39.9129 21.0393 40.0576 21.0876 40.0576 21.2082L40.1782 22.9688H43.3256V0.985144C43.3256 0.936908 43.2894 0.888672 43.2291 0.888672H42.3729ZM35.9937 20.1108C33.7145 20.1108 32.1468 18.1934 32.1468 15.4198C32.1468 12.6462 33.7507 10.7409 35.9937 10.7409C38.2487 10.7409 39.8405 12.6583 39.8405 15.4319C39.8405 18.1934 38.2849 20.1108 35.9937 20.1108Z" fill="#133459"></path><path d="M107.503 7.94311L105.32 9.10078C105.272 9.12489 105.248 9.17313 105.248 9.22137V22.9687H108.733V7.97928C108.733 7.93105 108.697 7.88281 108.637 7.88281H107.696C107.624 7.89487 107.563 7.90693 107.503 7.94311Z" fill="#133459"></path><path d="M106.985 5.44655C108.143 5.44655 109.083 4.50594 109.083 3.34827C109.083 2.19061 108.143 1.25 106.985 1.25C105.827 1.25 104.887 2.19061 104.887 3.34827C104.887 4.50594 105.827 5.44655 106.985 5.44655Z" fill="#133459"></path><path d="M89.5369 7.88281V16.0709C89.5369 22.2813 86.0639 23.2581 82.9648 23.2581C79.8656 23.2581 76.3926 22.2693 76.3926 16.0709V7.88281H79.8656V16.9392C79.8656 17.8195 80.0826 20.1107 82.9648 20.1107C85.8469 20.1107 86.0639 17.8315 86.0639 16.9392V7.88281H89.5369Z" fill="#133459"></path><path d="M142.982 21.4258V21.6428H142.488V22.9569H142.246V21.6428H141.752V21.4258H142.982ZM144.706 22.9569H144.465V21.7513L143.995 22.6555H143.862L143.392 21.7634V22.9569H143.151V21.4258H143.464L143.923 22.3059L144.381 21.4258H144.694L144.706 22.9569Z" fill="#133459"></path><path d="M16.8224 17.0751V23.0443C16.8224 23.3579 16.5691 23.6111 16.2556 23.6111H0.566775C0.25324 23.6111 0 23.3579 0 23.0443V7.36756C0 7.05402 0.25324 6.80078 0.566775 6.80078H6.52394V16.5083C6.52394 16.8218 6.77718 17.0751 7.09072 17.0751H16.8224Z" fill="#225185"></path><path d="M23.3575 8.65875C23.3575 13.6753 20.4272 17.0639 16.8215 17.076V10.757C16.8215 10.5761 16.7492 10.3953 16.6165 10.2747L13.3365 6.9946C13.2038 6.86196 13.035 6.7896 12.8541 6.7896H6.53516V0.832432C6.53516 0.518897 6.7884 0.265657 7.10193 0.265657H15.9412C20.1378 0.253598 23.3575 3.63013 23.3575 8.65875Z" fill="#133459"></path><path d="M16.6165 10.264C16.7492 10.3967 16.8215 10.5655 16.8215 10.7464V17.0653H7.10193C6.7884 17.0653 6.53516 16.8121 6.53516 16.4985V6.79102H12.8541C13.035 6.79102 13.2159 6.86337 13.3365 6.99602L16.6165 10.264Z" fill="#133459"></path></g><defs><clipPath id="clip0_2323_11895"><rect width="144.709" height="29.1105" fill="white" transform="translate(0 0.25)"></rect></clipPath></defs></svg>