<svg xmlns="http://www.w3.org/2000/svg" width="73" height="40" viewBox="0 0 73 40" fill="none"><g clip-path="url(#clip0_2323_11871)"><path d="M13.2585 0.00636644C14.2466 0.586452 15.1728 1.27759 16.2535 1.67868C16.7822 1.87491 17.3635 2.0321 17.9125 2.15938C20.36 2.72679 22.6448 2.66442 25.1185 2.79118C29.7874 3.03052 34.4127 3.77946 39.0821 3.95693C41.3734 4.04415 43.7143 4.05429 45.9293 3.36214C46.5666 3.16286 47.1587 2.88651 47.8118 2.70447C51.4817 1.68375 55.6674 2.35815 58.9152 0.00585938H59.1629C59.5549 0.211222 59.8002 0.647807 59.8081 1.09758C59.8116 1.30649 59.6674 1.66701 59.762 1.84601C59.8923 2.09092 60.4335 2.23544 60.6812 2.37792C61.3893 2.78459 62.3066 3.50767 62.6376 4.27638C62.8056 4.66581 62.8606 5.05676 63.084 5.44011C63.3665 5.92436 64.2803 6.60788 64.092 7.20014C64.0484 7.33806 63.4978 8.07331 63.37 8.23405C63.0474 8.63818 62.3452 9.39828 61.8095 9.42769C61.2144 9.46014 60.5965 8.80298 60.0306 8.81616C59.658 8.82529 58.7987 9.27709 58.3691 9.3998C58.2412 9.43631 57.6634 9.62189 57.6243 9.44239C57.7888 8.09207 56.0862 7.31423 55.2507 8.3882C54.5738 9.25833 55.1556 10.1878 55.9816 10.6264C58.8572 11.7856 61.8715 12.6313 64.7555 13.7575C66.1365 14.2971 67.3907 15.2924 68.7554 15.7944C69.6944 16.1402 71.0269 15.9217 71.8242 16.4034C72.7325 16.9521 72.0546 18.3602 71.3282 18.8039C70.3559 19.3977 67.798 19.354 67.0096 18.4905C66.4918 17.9231 66.5399 17.7492 65.7649 17.3831C63.592 16.3573 59.76 15.7326 57.3463 15.408C55.9554 15.2209 54.7557 15.2387 53.3895 15.1499C52.1363 15.0683 51.1378 14.4695 50.1205 13.7824C48.6532 14.0648 47.2097 14.1774 45.7137 14.1368C43.5057 14.077 41.2763 13.8828 39.1663 13.1861C35.5861 12.0036 31.6546 9.03268 27.7889 10.488C26.562 10.9499 25.6487 11.8226 24.4808 12.3717C20.7752 14.114 16.2961 13.1273 12.3403 13.6805C11.5633 13.789 11.2011 13.9517 10.5658 14.398C7.95437 16.2336 5.38356 19.5472 1.94111 19.2496C1.46987 19.209 0.958974 19.0589 0.826172 18.5412V17.883C1.00357 17.2203 1.30337 16.6387 1.81574 16.1859C2.47629 15.6023 3.26071 15.4167 4.02878 15.0561C5.95788 14.15 7.84981 12.8078 9.16495 11.0919C9.37307 10.8206 9.9573 9.82776 10.1372 9.70607C10.6164 9.38154 11.8725 9.80038 12.4865 9.7801C13.8606 9.73548 15.7664 8.49823 16.6732 7.4775C17.2515 6.82643 17.6142 6.02475 18.1588 5.35086C18.2644 5.22054 18.577 4.9731 18.6306 4.86813C18.6504 4.82909 18.6657 4.80475 18.6315 4.76621C18.5315 4.57251 16.9017 4.17598 16.5845 4.07153C15.2942 3.6461 13.9869 3.16084 13.1852 1.97683C12.8383 1.46469 12.3681 0.445994 13.0073 0.00636644H13.2551H13.2585Z" fill="#133459"></path><path d="M33.7337 22.0367C34.9482 22.2045 36.0092 23.3809 36.4333 24.4919C37.2465 26.6216 37.744 29.0535 38.5973 31.1416C38.6216 31.2009 38.6255 31.2638 38.686 31.3043L43.614 22.2659C43.7573 22.1011 43.8108 22.0554 44.0318 22.0346C44.7815 21.9642 47.2602 21.9434 47.9217 22.1127C48.659 22.3014 49.0396 22.8003 49.382 23.4544C50.8072 22.2892 52.602 22.0306 54.3859 22.1366C61.0052 22.5305 56.9284 29.6985 57.1554 33.6876C57.4527 34.7585 58.7792 33.8316 59.2624 33.4077L63.0606 29.5083L60.9046 24.2825C60.4606 23.5188 59.8674 22.8145 58.9854 22.5975L59.0691 22.0433C60.1415 22.0833 61.296 21.9489 62.3565 22.0889C64.796 22.4109 64.9521 24.824 65.9223 26.6454L70.3791 22.0377H72.1868L66.4927 28.0373L68.6125 33.0608C69.0412 33.8483 69.6744 34.654 70.6016 34.8001L70.4975 35.3513C69.4619 35.3005 68.3345 35.439 67.3093 35.3558C64.8896 35.1601 64.6007 32.6831 63.6434 30.8997C63.5799 30.884 63.5591 30.9443 63.5195 30.9758C62.3193 31.9346 61.137 33.5466 59.9551 34.6231C59.799 34.7651 59.0954 35.3568 58.9393 35.3568H53.1208L54.5504 26.6145C54.5975 25.4893 54.6396 24.2171 53.486 23.6649C52.4612 23.174 50.5574 23.5072 49.7155 24.2977L49.7551 25.0532L48.0694 35.3568H44.4545L46.1403 25.0025C46.2032 24.2059 45.9079 23.3368 45.0238 23.2541C44.5779 23.2126 44.5655 23.2754 44.3474 23.6243C41.7945 28.1159 39.5314 32.7997 36.9363 37.2644C36.5572 37.9165 36.1593 38.5808 35.5914 39.0792C34.3323 40.1846 32.7902 40.0994 31.2342 39.8621L31.3819 38.9519C33.0776 39.3165 34.3526 39.134 35.3144 37.5808C35.5315 37.2304 35.9918 36.4455 36.1306 36.0855C36.1548 36.0226 36.195 35.9668 36.1831 35.8933L32.8556 24.9107C32.5266 23.9559 31.8085 23.1674 30.8438 22.8916L30.8864 22.0377H33.7337V22.0367Z" fill="#133459"></path><path d="M25.3424 34.1401H32.2258L32.0677 35.3205L32.0028 35.4062H21.5293L24.0565 20.1906C24.0922 18.8651 23.4381 18.3413 22.173 18.4407L22.28 17.7151L22.3529 17.6375L26.161 17.6289C27.9846 17.7765 27.7953 19.4168 27.6055 20.8321C27.053 24.956 26.102 29.1429 25.4564 33.2699C25.4113 33.5584 25.3469 33.8465 25.3419 34.1401H25.3424Z" fill="#133459"></path><path d="M19.4973 22.0371L19.2862 23.214L12.4737 33.9213L12.4157 34.1408H19.4477L19.2897 35.3213L19.2248 35.407H10.3359L10.6422 34.0237L17.4671 23.3033H10.3359L10.5837 22.0371H19.4973Z" fill="#133459"></path><path d="M0.878906 22.0371L8.3069 22.0878L8.10869 23.3033H2.2654V27.7092H7.86142L7.61365 28.9753H2.2654V34.1408H8.3069L8.10869 35.407H0.878906V22.0371Z" fill="#133459"></path></g><defs><clipPath id="clip0_2323_11871"><rect width="71.4341" height="40.0031" fill="white" transform="translate(0.828125 0.00585938)"></rect></clipPath></defs></svg>