<svg xmlns="http://www.w3.org/2000/svg" width="128" height="20" viewBox="0 0 128 20" fill="none"><path d="M14.9024 10.4436C12.7225 10.4436 10.9555 12.212 10.9555 14.3936C10.9555 16.5752 12.7225 18.3436 14.9024 18.3436C17.0823 18.3436 18.8493 16.5752 18.8493 14.3936C18.8493 12.212 17.0823 10.4436 14.9024 10.4436ZM4.64809 10.4436C2.46816 10.4436 0.701172 12.212 0.701172 14.3936C0.701172 16.5752 2.46816 18.3436 4.64809 18.3436C6.82802 18.3436 8.59501 16.5752 8.59501 14.3936C8.59501 12.212 6.82802 10.4436 4.64809 10.4436ZM13.7212 5.50565C13.7212 7.68728 11.9542 9.45565 9.77429 9.45565C7.59436 9.45565 5.82737 7.68728 5.82737 5.50565C5.82737 3.32403 7.59436 1.55566 9.77429 1.55566C11.9542 1.55566 13.7212 3.32403 13.7212 5.50565Z" fill="#133459"></path><path d="M33.4793 15.4048C30.5297 15.4048 28.1422 12.9636 28.1422 9.94963C28.1422 6.93568 30.5333 4.49445 33.4793 4.49445C36.4288 4.49445 38.8163 6.93568 38.8163 9.94963C38.8163 12.96 36.4288 15.4048 33.4793 15.4048ZM38.8342 16.0957C38.8342 16.5968 39.6897 18 40.7385 18H41.4186C41.6835 18 41.8983 17.7852 41.8983 17.5203V2.59015H41.8947C41.8804 2.336 41.6728 2.13912 41.4186 2.13554H39.3139C39.0597 2.13554 38.8521 2.336 38.8378 2.59015H38.8342V3.8036C37.5456 2.2143 35.5124 1.55566 33.4721 1.55566C28.8366 1.55566 25.0781 5.31416 25.0781 9.94963C25.0781 14.5851 28.8366 18.3436 33.4721 18.3436C35.5124 18.3436 37.7353 17.5489 38.8342 16.0957ZM46.9275 13.9587C48.3342 14.9323 49.8663 15.4048 51.341 15.4048C52.7442 15.4048 54.1975 14.6782 54.1975 13.411C54.1975 11.7179 51.0332 11.4566 49.0466 10.7801C47.0564 10.1036 45.3454 8.70754 45.3454 6.44528C45.3454 2.98389 48.4309 1.55566 51.3088 1.55566C53.1308 1.55566 55.0136 2.15702 56.2342 3.01969C56.653 3.33826 56.3989 3.70337 56.3989 3.70337L55.2356 5.36785C55.1031 5.55399 54.8347 5.70432 54.5483 5.51461C53.7644 4.99558 52.891 4.49445 51.3124 4.49445C49.358 4.49445 48.4989 5.307 48.4989 6.30927C48.4989 7.51556 49.8734 7.89499 51.4842 8.30306C54.2906 9.05833 57.3511 9.96753 57.3511 13.4074C57.3511 16.4572 54.4982 18.34 51.3446 18.34C48.9571 18.34 46.9203 17.6599 45.2165 16.4071C44.8621 16.0527 45.1091 15.7198 45.1091 15.7198L46.2689 14.0661C46.5015 13.7582 46.7986 13.8692 46.9275 13.9587ZM73.1367 16.0957C73.1367 16.5968 73.9922 18 75.041 18H75.7211C75.986 18 76.2008 17.7852 76.2008 17.5203V2.59015H76.1972C76.1829 2.336 75.9753 2.13912 75.7211 2.13554H73.6164C73.3622 2.13554 73.1546 2.336 73.1403 2.59015H73.1367V3.8036C71.8481 2.2143 69.8114 1.55566 67.7746 1.55566C63.1391 1.55566 59.3806 5.31416 59.3806 9.94963C59.3806 14.5851 63.1391 18.3436 67.7746 18.3436C69.8114 18.34 72.0342 17.5489 73.1367 16.0957ZM67.7818 15.4048C64.8322 15.4048 62.4447 12.9636 62.4447 9.94963C62.4447 6.93568 64.8358 4.49445 67.7818 4.49445C70.7313 4.49445 73.1188 6.93568 73.1188 9.94963C73.1188 12.96 70.7277 15.4048 67.7818 15.4048ZM95.0613 16.6075V8.88294C95.0613 4.52666 92.3122 1.58788 87.9309 1.58788C85.8404 1.58788 84.1294 2.79776 83.5245 3.83582V3.8215L83.5209 3.83224C83.5209 2.77986 82.6654 2.16776 81.6166 2.16776H80.9401C80.6752 2.16776 80.4604 2.38253 80.4604 2.64742V17.5776H80.464C80.4783 17.8282 80.6859 18.0322 80.9401 18.0322H83.0448C83.077 18.0322 83.1093 18.0286 83.1379 18.0214C83.1522 18.0179 83.1665 18.0143 83.1773 18.0071C83.1916 18.0036 83.2095 18 83.2238 17.9928C83.2417 17.9856 83.2596 17.9749 83.2775 17.9642C83.2847 17.9606 83.2954 17.957 83.3026 17.9499C83.324 17.9355 83.3419 17.9212 83.3598 17.9033C83.3634 17.8997 83.367 17.8997 83.3706 17.8962C83.4601 17.8138 83.5102 17.6993 83.5173 17.5776H83.5209V8.75765C83.5209 6.42023 85.418 4.52309 87.7555 4.52309C90.0929 4.52309 91.99 6.42023 91.99 8.75765V16.1315V16.1279C91.99 16.135 91.99 16.1422 91.99 16.1494V17.5776H91.9936C92.0079 17.8282 92.2156 18.0322 92.4697 18.0322H94.5745C94.6067 18.0322 94.6389 18.0286 94.6675 18.0214C94.6818 18.0179 94.6926 18.0143 94.7033 18.0107C94.7212 18.0071 94.7391 18 94.7534 17.9928C94.7713 17.9856 94.7856 17.9749 94.8035 17.9678C94.8143 17.9642 94.825 17.957 94.8322 17.9534C94.8501 17.9391 94.868 17.9248 94.8859 17.9105C94.8895 17.9069 94.8966 17.9033 94.9002 17.8997C94.9181 17.8818 94.936 17.8604 94.9539 17.8389C95.0076 17.7637 95.0398 17.6742 95.047 17.5812H95.0505L95.0613 16.6075ZM111.481 16.0957C111.481 16.5968 112.336 18 113.385 18H114.065C114.33 18 114.545 17.7852 114.545 17.5203V2.59015H114.541C114.527 2.336 114.319 2.13912 114.065 2.13554H111.96C111.706 2.13554 111.498 2.336 111.484 2.59015H111.481V3.8036C110.188 2.2143 108.155 1.55566 106.118 1.55566C101.483 1.55566 97.7244 5.31416 97.7244 9.94963C97.7244 14.5851 101.483 18.3436 106.118 18.3436C108.159 18.34 110.378 17.5489 111.481 16.0957ZM106.126 15.4048C103.176 15.4048 100.788 12.9636 100.788 9.94963C100.788 6.93568 103.18 4.49445 106.126 4.49445C109.072 4.49445 111.463 6.93568 111.463 9.94963C111.463 12.96 109.075 15.4048 106.126 15.4048Z" fill="#133459"></path></svg>