<svg xmlns="http://www.w3.org/2000/svg" width="101" height="33" viewBox="0 0 101 33" fill="none"><g clip-path="url(#clip0_2020_2585)"><path d="M12.7552 11.1699C17.7234 11.1699 21.7584 15.2032 21.7584 20.1731C21.7584 25.1414 17.7251 29.1763 12.7552 29.1763H3.75195V20.1731C3.75195 15.2049 7.78523 11.1699 12.7552 11.1699Z" stroke="#133459" stroke-width="2.04735" stroke-linejoin="round"></path><path d="M29.0025 21.9293H19.9993C15.0311 21.9293 10.9961 17.896 10.9961 12.9261C10.9961 7.95783 15.0294 3.92285 19.9993 3.92285C24.9675 3.92285 29.0025 7.95613 29.0025 12.9261V21.9293Z" stroke="#133459" stroke-width="2.04735" stroke-linejoin="round"></path></g><path d="M41.5866 23.9203V11.4762H37.2754V9.32997H48.5146V11.4762H44.1658V23.9203H41.5866ZM55.518 23.9203V9.32997H60.5069C63.1049 9.32997 65.1193 9.97006 66.4936 11.2502C67.8679 12.5116 68.5269 14.2813 68.5269 16.5592C68.5269 18.8372 67.8491 20.6257 66.5125 21.9623C65.1758 23.2802 63.1049 23.9391 60.2998 23.9391H55.518V23.9203ZM58.116 21.7176H60.6763C62.333 21.7176 63.6132 21.2846 64.5545 20.4186C65.4958 19.5714 65.9288 18.2724 65.9288 16.6534C65.9288 15.0343 65.4582 13.773 64.5545 12.8505C63.6509 11.928 62.2577 11.5326 60.4128 11.5326H58.116V21.7176ZM82.7595 24.0709C81.7617 24.0897 80.7827 23.9203 79.8414 23.5437C78.9189 23.1672 78.0717 22.6213 77.3563 21.9247C74.4383 18.9502 74.4383 14.1683 77.3563 11.1938C78.0717 10.4784 78.9189 9.93241 79.8414 9.55589C80.7639 9.17936 81.7617 9.00993 82.7595 9.02875C84.7739 8.9911 86.713 9.76298 88.1626 11.1749C91.0806 14.1495 91.0806 18.9313 88.1626 21.9059C87.4472 22.6024 86.6 23.1672 85.6775 23.5249C84.755 23.9203 83.7572 24.0897 82.7595 24.0709ZM82.7595 11.1561C82.1005 11.1373 81.4228 11.2879 80.8204 11.5515C80.2179 11.8339 79.672 12.2292 79.239 12.7375C78.2976 13.773 77.7893 15.1284 77.8082 16.5404C77.7705 17.9335 78.2788 19.289 79.239 20.3056C79.6908 20.8139 80.2367 21.2093 80.8392 21.4729C81.4416 21.7553 82.1005 21.887 82.7783 21.887C83.4372 21.887 84.0961 21.7364 84.7174 21.4729C85.3198 21.1905 85.8658 20.7951 86.3176 20.3056C87.2401 19.2702 87.7484 17.9147 87.7484 16.5216C87.7484 15.1284 87.2401 13.773 86.3176 12.7375C85.8846 12.2292 85.3386 11.815 84.7174 11.5515C84.0961 11.2879 83.4372 11.1561 82.7595 11.1561ZM50.0584 12.361C50.0584 11.6456 50.3031 10.9302 50.7738 10.3842C51.2444 9.83828 51.8845 9.48058 52.5999 9.36763H52.6376V20.8892C52.6376 21.6046 52.3928 22.32 51.9222 22.866C51.4515 23.412 50.8114 23.7697 50.096 23.8826H50.0584V12.361ZM70.5977 12.361C70.5977 11.6456 70.8425 10.9302 71.3131 10.3842C71.7838 9.83828 72.4239 9.48058 73.1393 9.36763H73.1769V20.8892C73.1769 21.6046 72.9322 22.32 72.4615 22.866C71.9909 23.412 71.3508 23.7697 70.6354 23.8826H70.5977V12.361Z" fill="#133459"></path><defs><clipPath id="clip0_2020_2585"><rect width="32.7576" height="32.7576" fill="white" transform="translate(0 0.170898)"></rect></clipPath></defs></svg>