<svg xmlns="http://www.w3.org/2000/svg" width="93" height="33" viewBox="0 0 93 33" fill="none"><g clip-path="url(#clip0_2323_11987)"><path d="M31.4368 23.1588C31.2278 23.2809 30.9412 23.1736 30.7266 23.1051L16.1922 16.5378C11.1581 18.527 6.32747 20.9937 1.37107 23.1662C0.601721 23.2809 0.126425 21.6728 0.045051 21.0492C-0.2601 18.7102 1.01599 16.8394 2.93197 15.6421C5.6247 13.9582 11.9811 11.2065 15.0696 10.0222C15.495 9.85939 15.9 9.63548 16.379 9.6873C19.9076 11.3786 23.5824 12.8072 27.0963 14.5226C29.5356 15.7143 32.3171 17.1262 32.3541 20.3238C32.3597 20.8105 31.79 22.9534 31.435 23.1606L31.4368 23.1588Z" fill="#133459"></path><path d="M31.454 32.6167L30.9103 32.5446L16.1798 25.8255L1.19597 32.6075C0.811292 32.6445 0.243525 31.2992 0.152904 30.9291C-0.479591 28.3255 0.924105 26.3362 3.00098 24.965L16.1761 18.9824C19.9415 20.7589 23.9381 22.2781 27.648 24.1434C31.4226 26.0401 33.5698 28.1904 31.4503 32.6167H31.454Z" fill="#133459"></path><path d="M16.0731 0.28125L16.4892 0.323811C20.3341 2.44816 25.0335 3.83972 28.821 5.94926C31.2549 7.30566 32.6567 9.22091 32.1666 12.1373C32.0261 12.97 31.438 14.4096 30.4208 13.601L16.2137 7.10581L1.45175 13.799L0.950559 13.8619C-0.214565 12.1835 -0.29039 10.3701 0.671299 8.56769C1.57566 6.8708 2.95901 6.2657 4.58648 5.45334C8.32228 3.5899 12.2985 2.07806 16.0731 0.28125Z" fill="#133459"></path><path d="M58.4706 10.9785V22.544C58.4706 22.8234 58.9514 23.7949 59.1641 24.0706C60.3311 25.5862 63.3937 25.6565 64.74 24.376C65.0156 24.1132 65.8682 22.6495 65.8682 22.359V10.9785H70.6766V29.2982H66.1456C65.7387 29.2982 65.8848 27.7938 65.8663 27.4496C65.5871 27.4367 65.6351 27.8012 65.4095 28.0066C61.2964 31.7538 53.6621 28.9985 53.6621 23.2842V10.9785H58.4706Z" fill="#133459"></path><path d="M51.4435 3.20703V7.55565C51.4435 7.97201 49.7624 7.79622 49.3592 7.87579C48.0535 8.13485 47.3748 9.74847 47.5597 10.979H51.4435V15.3277C51.4435 15.348 51.1864 15.6052 51.1661 15.6052H47.5597V29.0212C47.5597 29.0416 47.3027 29.2988 47.2823 29.2988H43.0287C43.0083 29.2988 42.7513 29.0416 42.7513 29.0212V15.6052C42.3518 15.5497 40.1621 15.794 40.1621 15.3277V10.979H42.7513C42.7161 8.51605 43.5132 5.76809 45.6493 4.34878C46.058 4.07676 48.1978 3.20703 48.5769 3.20703H51.4435Z" fill="#133459"></path><path d="M92.5081 19.5759C92.1326 11.8687 83.4774 7.19621 77.7036 13.016V3.76172H73.0801V29.2983H77.7036V27.2628C84.0507 33.0936 92.9094 27.8216 92.5081 19.5741V19.5759ZM81.0713 24.9127C76.2555 23.4119 76.8917 15.8842 81.5411 15.094C83.8769 14.698 86.2885 15.5049 87.2983 17.7569C89.1921 21.9797 85.5987 26.3246 81.0713 24.9127Z" fill="#133459"></path></g><defs><clipPath id="clip0_2323_11987"><rect width="92.4559" height="32.3596" fill="white" transform="translate(0 0.28125)"></rect></clipPath></defs></svg>