<svg xmlns="http://www.w3.org/2000/svg" width="149" height="34" viewBox="0 0 149 34" fill="none"><path d="M17.1994 11.8643L17.6948 9.65989L16.3573 8.99112C16.3573 8.69389 16.3325 8.39667 16.3077 8.07467L17.5709 7.2573L16.9022 5.1024L15.416 5.20148C15.2674 4.95379 15.1188 4.68133 14.9454 4.45841L15.639 3.12089L13.9794 1.58521L12.7162 2.42735C12.4685 2.27874 12.1961 2.13013 11.9484 2.03106L11.8741 0.495379L9.66965 0L9.00089 1.36229C8.70366 1.36229 8.4312 1.41183 8.13398 1.4366L7.3166 0.173382L5.1617 0.842142L5.23601 2.32828C4.98832 2.47689 4.74063 2.60074 4.49294 2.77412L3.13065 2.05582L1.59498 3.71534L2.43712 4.97856C2.28851 5.22625 2.13989 5.47394 2.04082 5.7464L0.505144 5.8207L0.00976562 8.02513L1.37206 8.6939C1.37206 8.99113 1.39683 9.26358 1.4216 9.56081L0.158379 10.3782L0.827141 12.5331L2.31328 12.4588C2.46189 12.7312 2.6105 12.9789 2.78389 13.2018L2.09036 14.5394L3.74988 16.075L4.98832 15.2577C5.23601 15.4063 5.50847 15.5549 5.78093 15.6787L5.85524 17.1649L8.05967 17.6602L8.72843 16.3227C9.02566 16.3227 9.34766 16.3227 9.64488 16.298L10.4623 17.5612L12.6172 16.8924L12.5181 15.4063C12.7905 15.2577 13.0382 15.0843 13.2859 14.9109L14.5987 15.5797L16.1343 13.9201L15.317 12.6817C15.4656 12.434 15.6142 12.1615 15.738 11.8643H17.1994ZM33.2992 12.9542V15.8521C32.3332 16.2732 31.3177 16.5704 29.5096 16.5704C24.7539 16.5704 22.3018 13.3752 22.3018 9.13974C22.3018 4.87948 24.5805 1.33752 29.46 1.33752C31.2434 1.33752 32.3828 1.68429 33.1506 2.00629V4.85471C32.4571 4.43364 31.2929 4.08687 29.8316 4.08687C27.2061 4.08687 25.7695 5.8207 25.7695 9.13974C25.7695 12.1615 27.3299 13.8458 29.9306 13.8458C31.392 13.8458 32.4571 13.4743 33.2992 12.9542ZM40.4574 16.5952C36.6183 16.5952 34.8101 13.9449 34.8101 10.5516C34.8101 7.40591 36.6183 4.48318 40.4822 4.48318C44.3214 4.48318 46.1048 7.13346 46.1048 10.5516C46.1048 13.6725 44.2966 16.5952 40.4574 16.5952ZM40.4574 6.861C38.6988 6.861 38.1292 8.44621 38.1292 10.5516C38.1292 12.6817 38.6988 14.1926 40.4822 14.1926C42.2408 14.1926 42.8105 12.6569 42.8105 10.5516C42.8105 8.42144 42.216 6.861 40.4574 6.861ZM55.0216 9.0902C55.0216 7.70314 54.5014 6.98484 53.1144 6.98484C52.3218 6.98484 51.6035 7.33161 51.1081 7.72791V16.4218H47.9377V4.65656H51.0833V5.59778C51.7025 5.12717 52.7181 4.48318 54.2537 4.48318C57.1269 4.48318 58.1425 6.24177 58.1425 8.61959V16.4218H54.9968L55.0216 9.0902ZM67.6785 13.7715V16.2237C67.1088 16.397 66.4153 16.5704 65.3502 16.5704C62.9476 16.5704 61.6597 15.6292 61.6597 13.1028V6.88576H60.0001V4.63179H61.6597L62.2293 1.60998H64.8053V4.63179H67.5299V6.88576H64.8053V12.5579C64.8053 13.5734 65.1768 13.9944 66.1181 13.9944C66.7373 14.0192 67.2327 13.9201 67.6785 13.7715ZM75.8522 15.2081C75.3569 15.9264 74.267 16.5952 72.8057 16.5952C70.626 16.5952 69.0903 15.4558 69.0903 13.2018C69.0903 10.6754 71.2452 9.63511 74.4652 9.63511C74.8615 9.63511 75.134 9.65989 75.3816 9.68466V8.89205C75.3816 7.52976 74.8615 6.98484 73.3011 6.98484C72.1121 6.98484 70.9232 7.30684 70.2545 7.5793V5.12717C71.0966 4.80518 72.3598 4.50795 73.846 4.50795C77.0164 4.50795 78.6759 5.72163 78.6759 8.59482V13.3257C78.6759 14.0192 78.9484 14.2421 79.3942 14.2421C79.5428 14.2421 79.741 14.2174 79.8896 14.1926V16.2732C79.5676 16.4466 79.0722 16.62 78.2053 16.62C76.9916 16.5952 76.2238 16.0503 75.8522 15.2081ZM74.6881 11.4433C73.0286 11.4433 72.236 11.8891 72.236 13.0037C72.236 13.9201 72.8057 14.3412 73.8212 14.3412C74.5395 14.3412 75.0101 14.044 75.3816 13.6972V11.4928C75.2826 11.4432 75.0101 11.4433 74.6881 11.4433ZM89.9953 13.4743V16.0007C89.277 16.3227 88.2863 16.5704 86.9487 16.5704C83.0105 16.5704 81.029 14.3412 81.029 10.7002C81.029 7.20776 82.9609 4.48318 86.8497 4.48318C88.2615 4.48318 89.1532 4.75564 89.8467 4.97856V7.45545C89.1532 7.13346 88.2615 6.91053 87.1717 6.91053C85.2892 6.91053 84.348 8.19852 84.348 10.7002C84.348 12.9294 85.4131 14.0935 87.2707 14.0935C88.5092 14.1183 89.277 13.9201 89.9953 13.4743ZM98.8626 13.7715V16.2237C98.2929 16.397 97.5994 16.5704 96.5343 16.5704C94.1317 16.5704 92.8437 15.6292 92.8437 13.1028V6.88576H91.1842V4.63179H92.8437L93.4134 1.60998H95.9894V4.63179H98.714V6.88576H95.9894V12.5579C95.9894 13.5734 96.3609 13.9944 97.3022 13.9944C97.9214 14.0192 98.4168 13.9201 98.8626 13.7715ZM108.077 16.4218C107.482 15.9264 106.417 16.5952 104.832 16.5952C101.959 16.5952 100.993 14.8366 100.993 12.4588V4.65656H104.138V11.9634C104.138 13.3505 104.634 14.0688 106.021 14.0688C106.789 14.0688 107.556 13.6725 108.052 13.3257V4.65656H111.198V16.4218H108.077ZM120.114 15.2081C119.619 15.9264 118.529 16.5952 117.068 16.5952C114.888 16.5952 113.352 15.4558 113.352 13.2018C113.352 10.6754 115.507 9.63511 118.727 9.63511C119.124 9.63511 119.396 9.65989 119.644 9.68466V8.89205C119.644 7.52976 119.124 6.98484 117.563 6.98484C116.374 6.98484 115.185 7.30684 114.517 7.5793V5.12717C115.334 4.80518 116.622 4.50795 118.108 4.50795C121.278 4.50795 122.938 5.72163 122.938 8.59482V13.3257C122.938 14.0192 123.21 14.2421 123.656 14.2421C123.805 14.2421 124.003 14.2174 124.152 14.1926V16.2732C123.83 16.4466 123.334 16.62 122.467 16.62C121.254 16.5952 120.486 16.075 120.114 15.2081ZM118.975 11.4433C117.315 11.4433 116.523 11.8891 116.523 13.0037C116.523 13.9201 117.093 14.3412 118.108 14.3412C118.826 14.3412 119.297 14.044 119.669 13.6972V11.4928C119.545 11.468 119.272 11.4433 118.975 11.4433ZM126.034 0.148615H129.353V16.4218H126.034V0.148615ZM132.202 0.148615H135.521V16.4218H132.202V0.148615ZM139.657 20.8802C138.964 20.8802 138.468 20.8059 137.923 20.6573V18.2795C138.32 18.4033 138.765 18.5024 139.285 18.5024C140.375 18.5024 141.019 17.9327 141.292 16.942L141.416 16.4713L137.279 4.65656H140.623L143.1 12.7065H143.149L145.379 4.65656H148.648L144.264 17.5859C143.471 19.8647 142.233 20.8802 139.657 20.8802ZM28.5683 30.3915C28.7665 30.6639 28.8408 31.0107 28.8408 31.407C28.8408 31.8281 28.7417 32.1749 28.5436 32.4968C28.3454 32.8188 28.073 33.0418 27.751 33.2151C27.4042 33.3885 27.0574 33.4628 26.6611 33.4628H23.7879V26.1808H26.4382C26.8593 26.1808 27.2556 26.2798 27.5776 26.4532C27.8996 26.6266 28.1968 26.8743 28.395 27.1715C28.5931 27.4688 28.6922 27.8155 28.6922 28.187C28.6922 28.5586 28.6179 28.8806 28.4445 29.153C28.2711 29.4255 28.0482 29.6484 27.7757 29.797C28.1225 29.8961 28.395 30.119 28.5683 30.3915ZM24.9769 27.2706V29.2273H26.3887C26.7354 29.2273 27.0079 29.1283 27.2308 28.9549C27.429 28.7567 27.5281 28.5338 27.5281 28.2366C27.5281 27.9394 27.429 27.7164 27.2308 27.5431C27.0327 27.3697 26.7602 27.2706 26.4135 27.2706C26.3887 27.2706 24.9769 27.2706 24.9769 27.2706ZM27.3299 32.0758C27.5528 31.8776 27.6519 31.6299 27.6519 31.3327C27.6519 31.0355 27.5528 30.7878 27.3299 30.5896C27.107 30.3915 26.8098 30.2924 26.3887 30.2924H24.9521V32.373H26.3887C26.8098 32.3482 27.107 32.2739 27.3299 32.0758ZM33.8689 31.0107V33.4381H32.7048V31.0107L30.0297 26.1808H31.3425L33.2992 29.8961L35.256 26.1808H36.5687L33.8689 31.0107ZM47.2441 33.2647C46.7983 33.4628 46.2781 33.5867 45.7332 33.5867C45.0645 33.5867 44.4452 33.4133 43.8508 33.0913C43.2811 32.7693 42.8105 32.2987 42.4885 31.729C42.1417 31.1593 41.9931 30.5153 41.9931 29.8218C41.9931 29.1035 42.1665 28.4843 42.4885 27.9146C42.8105 27.3449 43.2811 26.8991 43.8508 26.5523C44.4205 26.2303 45.0397 26.0569 45.7332 26.0569C46.2781 26.0569 46.7983 26.156 47.2441 26.3789C47.69 26.5771 48.0863 26.8743 48.433 27.2706L47.5909 28.1127C47.0707 27.5431 46.4515 27.2458 45.7332 27.2458C45.2874 27.2458 44.8663 27.3697 44.47 27.5926C44.0737 27.8155 43.7765 28.1375 43.5536 28.5338C43.3306 28.9301 43.2068 29.376 43.2068 29.8466C43.2068 30.3172 43.3306 30.763 43.5536 31.1346C43.7765 31.5309 44.0985 31.8281 44.47 32.0758C44.8663 32.2987 45.2874 32.4225 45.7332 32.4225C46.4515 32.4225 47.0707 32.1253 47.5909 31.5556L48.433 32.3978C48.0863 32.7693 47.69 33.0665 47.2441 33.2647ZM51.8016 33.0665C51.2319 32.7198 50.7613 32.2739 50.4393 31.7042C50.1173 31.1346 49.9439 30.5153 49.9439 29.8218C49.9439 29.1283 50.1173 28.509 50.4393 27.9146C50.7861 27.3449 51.2319 26.8743 51.8016 26.5523C52.3713 26.2055 52.9905 26.0569 53.6841 26.0569C54.3528 26.0569 54.9968 26.2303 55.5665 26.5771C56.1362 26.9238 56.582 27.3697 56.9288 27.9641C57.2755 28.5338 57.4242 29.1778 57.4242 29.8466C57.4242 30.5153 57.2508 31.1593 56.9288 31.729C56.6068 32.2987 56.1362 32.7693 55.5665 33.0913C54.9968 33.4133 54.3776 33.6115 53.6841 33.6115C52.9905 33.5867 52.3713 33.4133 51.8016 33.0665ZM54.972 32.0758C55.3683 31.8529 55.6656 31.5309 55.8885 31.1346C56.1114 30.7383 56.2105 30.2924 56.2105 29.8218C56.2105 29.3512 56.1114 28.9053 55.8885 28.509C55.6656 28.1127 55.3683 27.7907 54.972 27.5678C54.5757 27.3449 54.1547 27.2211 53.6841 27.2211C53.2134 27.2211 52.7924 27.3449 52.3961 27.5678C51.9998 27.7907 51.7025 28.1127 51.4796 28.509C51.2567 28.9053 51.1576 29.3512 51.1576 29.8218C51.1576 30.2924 51.2567 30.7383 51.4796 31.1346C51.7025 31.5309 51.9998 31.8529 52.3961 32.0758C52.7924 32.2987 53.2134 32.4225 53.6841 32.4225C54.1547 32.4225 54.5757 32.2987 54.972 32.0758ZM59.5295 26.1808H60.545L63.1458 29.9952L65.7465 26.1808H66.762V33.4628H65.5979V28.3852L63.5421 31.3575H62.7247L60.6689 28.3852V33.4628H59.5047C59.5295 33.4628 59.5295 26.1808 59.5295 26.1808ZM73.1524 26.4532C73.524 26.6514 73.8212 26.9238 74.0194 27.2706C74.2423 27.6174 74.3413 28.0137 74.3413 28.4595C74.3413 28.9053 74.2423 29.3017 74.0194 29.6484C73.7964 29.9952 73.524 30.2676 73.1524 30.4658C72.7809 30.6639 72.3846 30.763 71.9388 30.763H70.4031V33.4381H69.2389V26.156H71.9388C72.3846 26.1808 72.7809 26.2798 73.1524 26.4532ZM72.7809 29.3264C73.0038 29.1035 73.1277 28.8063 73.1277 28.4595C73.1277 28.1127 73.0286 27.8403 72.8057 27.6174C72.5828 27.3944 72.2608 27.2954 71.8644 27.2954H70.4279V29.6732H71.7406C72.2112 29.6732 72.558 29.5493 72.7809 29.3264ZM79.9639 32.0262H76.3476L75.7284 33.4381H74.5147L77.6852 26.156H78.6016L81.772 33.4381H80.5336L79.9639 32.0262ZM79.5428 31.0107L78.1805 27.8403L76.8182 31.0107H79.5428ZM83.9269 33.0418C83.4811 32.695 83.2086 32.2244 83.0848 31.7042L84.1746 31.2584C84.2489 31.6052 84.3975 31.9024 84.6205 32.1253C84.8434 32.3482 85.1654 32.4721 85.4874 32.4721C85.8589 32.4721 86.1561 32.373 86.3791 32.1748C86.602 31.9767 86.701 31.729 86.701 31.4318C86.701 30.8126 86.2552 30.4163 85.3883 30.2181C84.67 30.0695 84.1251 29.8218 83.7535 29.475C83.382 29.1283 83.1839 28.6824 83.1839 28.088C83.1839 27.7164 83.2829 27.3697 83.4811 27.0724C83.6792 26.7504 83.9517 26.5275 84.2737 26.3294C84.6205 26.156 84.992 26.0569 85.4131 26.0569C85.9332 26.0569 86.4038 26.2055 86.8001 26.478C87.2212 26.7505 87.4937 27.1468 87.6423 27.6669L86.5772 28.1127C86.5029 27.8651 86.3543 27.6421 86.1561 27.4688C85.958 27.2954 85.7103 27.1963 85.4131 27.1963C85.0911 27.1963 84.8186 27.2706 84.6452 27.444C84.4471 27.6174 84.348 27.8155 84.348 28.088C84.348 28.3109 84.4471 28.509 84.67 28.6824C84.8929 28.8558 85.2149 28.9797 85.636 29.1035C86.3543 29.2769 86.924 29.5493 87.2955 29.9209C87.667 30.2924 87.8652 30.7878 87.8652 31.4318C87.8652 31.8529 87.7661 32.2492 87.568 32.5712C87.3698 32.8931 87.0974 33.1656 86.7506 33.339C86.4038 33.5124 85.958 33.6115 85.4626 33.6115C84.8929 33.5867 84.348 33.3885 83.9269 33.0418ZM90.4659 33.0418C90.0201 32.695 89.7476 32.2244 89.6238 31.7042L90.7136 31.2584C90.7879 31.6052 90.9365 31.9024 91.1595 32.1253C91.3824 32.3482 91.7044 32.4721 92.0264 32.4721C92.3979 32.4721 92.6951 32.373 92.918 32.1748C93.141 31.9767 93.2401 31.729 93.2401 31.4318C93.2401 30.8126 92.7942 30.4163 91.9273 30.2181C91.209 30.0695 90.6641 29.8218 90.2925 29.475C89.921 29.1283 89.7229 28.6824 89.7229 28.088C89.7229 27.7164 89.8219 27.3697 90.0201 27.0724C90.2182 26.7504 90.4907 26.5275 90.8127 26.3294C91.1595 26.156 91.531 26.0569 91.9521 26.0569C92.4722 26.0569 92.9428 26.2055 93.3391 26.478C93.7602 26.7505 94.0327 27.1468 94.1813 27.6669L93.1162 28.1127C93.0419 27.8651 92.8933 27.6421 92.6951 27.4688C92.497 27.2954 92.2493 27.1963 91.9521 27.1963C91.6301 27.1963 91.3576 27.2706 91.1842 27.444C90.9861 27.6174 90.887 27.8155 90.887 28.088C90.887 28.3109 90.9861 28.509 91.209 28.6824C91.4319 28.8558 91.7539 28.9797 92.175 29.1035C92.8933 29.2769 93.463 29.5493 93.8345 29.9209C94.206 30.2924 94.4042 30.7878 94.4042 31.4318C94.4042 31.8529 94.3051 32.2492 94.107 32.5712C93.9088 32.8931 93.6363 33.1656 93.2896 33.339C92.9428 33.5124 92.497 33.6115 92.0016 33.6115C91.4319 33.5867 90.9118 33.3885 90.4659 33.0418Z" fill="#133459"></path><path d="M17.8057 7.61445C16.5189 7.61445 15.468 8.68679 15.468 9.9736C15.468 11.2604 16.4974 12.3113 17.7842 12.3113V10.5098L20.6152 12.8689L17.7842 15.2281V13.8769C15.6395 13.8769 13.9023 12.1397 13.9023 9.9736C13.9023 7.80747 15.6395 6.04883 17.8057 6.04883C19.9718 6.04883 21.7304 7.78602 21.7304 9.9307H20.1648C20.1434 8.64389 19.0925 7.61445 17.8057 7.61445Z" fill="white"></path></svg>