<svg xmlns="http://www.w3.org/2000/svg" width="135" height="34" viewBox="0 0 135 34" fill="none"><path d="M80.4063 13.5896C82.4876 13.5896 84.4569 14.8652 84.8821 17.6177H75.6173C75.9754 15.2008 77.788 13.5896 80.4063 13.5896ZM84.5688 21.6906C83.8526 22.7872 82.4875 23.6376 80.6077 23.6376C78.0342 23.6376 76.0425 22.2277 75.5726 19.7213H87.2094C87.2766 19.3633 87.299 19.0052 87.299 18.6471C87.299 14.7533 84.5911 11.307 80.384 11.307C76.0425 11.307 73.1109 14.5071 73.1109 18.6024C73.1109 22.7648 76.0873 25.8978 80.563 25.8978C83.3379 25.8978 85.4415 24.6446 86.6724 22.7648L84.5688 21.6906ZM69.5527 5.28711H71.9696V25.5621H69.5527V5.28711ZM100.748 17.0359V25.5621H98.3316V17.1702C98.3316 14.8875 97.0336 13.612 94.8853 13.612C92.6698 13.612 90.8571 14.9099 90.8571 18.1996V25.5621H88.4403V11.6874H90.8571V13.6791C91.8866 12.0454 93.4083 11.3293 95.3553 11.3293C98.6225 11.307 100.748 13.4777 100.748 17.0359ZM114.064 18.6024C114.064 15.7603 111.915 13.6343 109.118 13.6343C106.343 13.6343 104.195 15.7827 104.195 18.6024C104.195 21.4445 106.343 23.5704 109.118 23.5704C111.938 23.5928 114.064 21.4445 114.064 18.6024ZM116.481 5.28711V25.5621H114.064V23.1676C112.945 24.8684 111.177 25.9202 108.805 25.9202C104.956 25.9202 101.778 22.72 101.778 18.6248C101.778 14.5295 104.933 11.3293 108.805 11.3293C111.155 11.3293 112.945 12.3811 114.064 14.0819V5.30949H116.481V5.28711ZM118.428 5.28711H120.844V25.5621H118.428V5.28711ZM65.256 18.6024C65.256 15.7603 63.1077 13.6343 60.3103 13.6343C57.5354 13.6343 55.387 15.7827 55.387 18.6024C55.387 21.4445 57.5354 23.5704 60.3103 23.5704C63.1077 23.5928 65.256 21.4445 65.256 18.6024ZM67.6729 11.665V25.5398H65.256V23.1452C64.1371 24.846 62.3692 25.8978 60.0194 25.8978C56.1703 25.8978 52.9925 22.6977 52.9925 18.6024C52.9925 14.5071 56.1479 11.307 60.0194 11.307C62.3692 11.307 64.1595 12.3588 65.256 14.0595V11.665H67.6729ZM49.3896 22.8767C45.4957 24.3089 41.1766 22.3172 39.722 18.4234C38.2898 14.5295 40.2815 10.2104 44.1754 8.75579C46.6818 7.83827 49.5015 8.30822 51.5603 10.009C51.9855 10.3671 52.3659 10.7475 52.7016 11.1951L54.7828 9.67332C51.3813 5.24235 45.0257 4.39197 40.5948 7.79352C36.1638 11.1951 35.3134 17.5506 38.715 21.9816C42.1165 26.4125 48.4721 27.2629 52.903 23.8614C52.9254 23.839 52.9254 23.839 52.9478 23.8166L51.5603 21.6235C50.9337 22.1606 50.1952 22.5858 49.3896 22.8767ZM132.504 11.665V19.5423C132.504 22.0934 131.027 23.7047 128.767 23.7047C126.506 23.7047 124.873 22.0934 124.873 19.5423V11.665H122.433V19.3185C122.433 23.3243 124.94 25.9202 128.789 25.9202C132.123 25.9202 132.638 23.8166 132.638 23.7718V26.6139C132.638 29.4336 131.407 31.0001 128.856 31.0001C126.976 31.0001 125.365 29.6127 125.119 27.7552L122.926 28.5161C123.575 31.2687 126.036 33.2156 128.856 33.2156C132.817 33.2156 134.965 30.6197 134.965 26.6139V11.6874H132.504V11.665Z" fill="#133459"></path><path d="M20.3638 19.7659C19.4463 20.5939 18.2826 21.6233 16.179 21.6233H14.9034C13.3817 21.6233 11.9942 21.0639 11.0095 20.0792C10.0472 19.0945 9.51016 17.7518 9.51016 16.2972V14.5741C9.51016 13.1195 10.0472 11.7767 11.0095 10.7921C11.9942 9.78504 13.3817 9.24796 14.9034 9.24796H16.1566C18.2602 9.24796 19.4239 10.2774 20.3414 11.1054C21.3037 11.9558 22.1317 12.6943 24.3472 12.6943C24.6829 12.6943 25.0185 12.6719 25.3542 12.6047V12.5824C25.2199 12.2467 25.0633 11.9334 24.8843 11.6201L23.4073 9.04655C22.0422 6.6968 19.5358 5.24219 16.8056 5.24219H13.874C11.1438 5.24219 8.63739 6.6968 7.27229 9.04655L5.79531 11.6201C4.43021 13.9698 4.43021 16.8791 5.79531 19.2288L7.27229 21.8024C8.63739 24.1521 11.1438 25.6067 13.874 25.6067H16.828C19.5582 25.6067 22.0646 24.1521 23.4297 21.8024L24.9066 19.2288C25.0857 18.9155 25.2423 18.6022 25.3766 18.2665V18.2442C25.0409 18.1994 24.7052 18.1546 24.3696 18.1546C22.1541 18.177 21.3261 18.9155 20.3638 19.7659Z" fill="#133459"></path><path d="M16.1804 10.791H14.9049C12.5999 10.791 11.0781 12.447 11.0781 14.5506V16.2738C11.0781 18.3997 12.5999 20.0334 14.9049 20.0334H16.1581C19.5372 20.0334 19.2687 16.5871 24.371 16.5871C24.8634 16.5871 25.3333 16.6318 25.8033 16.7213C25.9599 15.8486 25.9599 14.9534 25.8033 14.0807C25.3333 14.1702 24.841 14.2149 24.371 14.2149C19.2687 14.2373 19.5372 10.791 16.1804 10.791Z" fill="#133459"></path><path d="M28.7341 17.9976C27.8613 17.371 26.8766 16.9235 25.8025 16.7444V16.7668C25.713 17.2815 25.5787 17.7738 25.3773 18.2438C26.25 18.3781 27.0781 18.7137 27.7942 19.2508V19.2732C25.6682 26.1658 18.3728 30.0149 11.4802 27.889C4.58755 25.763 0.738431 18.4676 2.8644 11.575C4.99037 4.68236 12.2858 0.833238 19.1784 2.95921C23.2961 4.23479 26.5186 7.45731 27.7942 11.575V11.5974C27.0781 12.1121 26.25 12.4477 25.3773 12.582C25.5787 13.052 25.713 13.5667 25.8025 14.059V14.0814C26.8543 13.88 27.8613 13.4548 28.7341 12.8282C29.5621 12.2016 29.4054 11.5078 29.2712 11.105C26.899 3.3844 18.7085 -0.93467 10.9878 1.43746C3.26721 3.8096 -1.05186 12.0002 1.32027 19.7208C3.69241 27.4414 11.883 31.7605 19.6036 29.3883C24.2136 27.9561 27.8389 24.3532 29.2712 19.7208C29.4054 19.318 29.5845 18.6242 28.7341 17.9976Z" fill="#133459"></path><path d="M25.3782 12.5814C25.0425 12.6262 24.7068 12.6709 24.3711 12.6709C22.1556 12.6709 21.3276 11.9324 20.3653 11.082C19.4254 10.254 18.2841 9.22461 16.1805 9.22461H14.905C13.3832 9.22461 11.9957 9.78407 11.0111 10.7687C10.0488 11.7534 9.51172 13.0961 9.51172 14.5507V16.2739C9.51172 17.7285 10.0488 19.0712 11.0111 20.0559C11.9957 21.0629 13.3832 21.6 14.905 21.6H16.1582C18.2618 21.6 19.4254 20.5706 20.343 19.7426C21.3052 18.8922 22.1333 18.1537 24.3487 18.1537C24.6844 18.1537 25.0201 18.1761 25.3558 18.2432C25.5572 17.7732 25.6915 17.2585 25.781 16.7662V16.7438C25.311 16.6543 24.8187 16.6096 24.3487 16.6096C19.2464 16.6096 19.515 20.0559 16.1358 20.0559H14.905C12.6 20.0559 11.0782 18.3998 11.0782 16.2739V14.5507C11.0782 12.4247 12.6 10.7911 14.905 10.7911H16.1582C19.5373 10.7911 19.2688 14.2374 24.3711 14.2374C24.8634 14.2374 25.3334 14.1927 25.8033 14.1031V14.0808C25.7138 13.5661 25.5796 13.0737 25.3782 12.5814Z" fill="white"></path><path d="M25.3782 12.5814C25.0425 12.6262 24.7068 12.6709 24.3711 12.6709C22.1556 12.6709 21.3276 11.9324 20.3653 11.082C19.4254 10.254 18.2841 9.22461 16.1805 9.22461H14.905C13.3832 9.22461 11.9957 9.78407 11.0111 10.7687C10.0488 11.7534 9.51172 13.0961 9.51172 14.5507V16.2739C9.51172 17.7285 10.0488 19.0712 11.0111 20.0559C11.9957 21.0629 13.3832 21.6 14.905 21.6H16.1582C18.2618 21.6 19.4254 20.5706 20.343 19.7426C21.3052 18.8922 22.1333 18.1537 24.3487 18.1537C24.6844 18.1537 25.0201 18.1761 25.3558 18.2432C25.5572 17.7732 25.6915 17.2585 25.781 16.7662V16.7438C25.311 16.6543 24.8187 16.6096 24.3487 16.6096C19.2464 16.6096 19.515 20.0559 16.1358 20.0559H14.905C12.6 20.0559 11.0782 18.3998 11.0782 16.2739V14.5507C11.0782 12.4247 12.6 10.7911 14.905 10.7911H16.1582C19.5373 10.7911 19.2688 14.2374 24.3711 14.2374C24.8634 14.2374 25.3334 14.1927 25.8033 14.1031V14.0808C25.7138 13.5661 25.5796 13.0737 25.3782 12.5814Z" fill="white"></path></svg>