<svg xmlns="http://www.w3.org/2000/svg" width="110" height="38" viewBox="0 0 110 38" fill="none"><path d="M64.8538 11.4492H64.8462C60.8353 11.4492 57.5898 14.8228 57.5898 18.9743C57.5898 23.1337 60.8353 26.5073 64.8462 26.5073C68.857 26.5073 72.1101 23.1417 72.1101 18.9822C72.1101 14.8228 68.8647 11.4492 64.8538 11.4492ZM67.9232 22.1732C66.2163 23.9354 63.4607 23.9275 61.7615 22.1653C60.0699 20.4031 60.0699 17.5455 61.7615 15.7833C63.4607 14.0131 66.2163 14.0131 67.9232 15.7753L67.9309 15.7833C69.6378 17.5455 69.6301 20.411 67.9232 22.1732Z" fill="#133459"></path><path d="M55.9493 23.5338L55.2226 23.4941H48.6892L57.4029 14.4624L57.3646 13.7091C57.334 12.4959 56.3931 11.5206 55.2226 11.4889L54.4958 11.4492H43.6094L43.6476 12.2025C43.7012 13.3999 44.6269 14.3673 45.7897 14.4228L46.5165 14.4624H53.0499L44.3362 23.4941L44.3744 24.2474C44.4127 25.4527 45.3536 26.428 46.5165 26.4677L47.2433 26.5073H58.1297L58.0914 25.754C57.992 24.5091 57.1428 23.6051 55.9493 23.5338Z" fill="#133459"></path><path d="M103.219 11.4507C101.498 11.4507 99.8638 12.1964 98.7271 13.4894C96.7378 11.2206 93.3751 10.7843 90.8807 12.4819C90.3044 11.8235 88.994 11.4507 88.2441 11.4507V26.5073L88.994 26.4676C90.2413 26.3883 91.1569 25.4998 91.2043 24.2464L91.2438 23.4928V18.2254L91.2832 17.4717C91.2832 16.9482 91.4174 16.4325 91.6543 15.9645C92.4752 14.5286 94.3066 14.0368 95.7432 14.8697C96.1932 15.1315 96.5721 15.5123 96.8326 15.9645H96.8247C97.0694 16.4325 97.1957 16.9482 97.1957 17.4717L97.2352 18.2254V23.4928L97.2746 24.2464C97.322 25.4522 98.2771 26.42 99.477 26.4676L100.227 26.5073V18.2254L100.266 17.4717C100.266 16.9402 100.393 16.4246 100.637 15.9566C101.466 14.5207 103.305 14.0289 104.734 14.8697C105.184 15.1315 105.563 15.5123 105.824 15.9645C106.06 16.4325 106.187 16.9482 106.187 17.4717L106.226 18.2254V23.4928L106.266 24.2464C106.305 25.4522 107.268 26.42 108.468 26.4676L109.218 26.5073V17.4717C109.21 14.1479 106.526 11.4507 103.219 11.4507Z" fill="#133459"></path><path d="M85.4971 13.6555C84.085 12.2428 82.1731 11.4492 80.174 11.4492C78.1748 11.4492 76.2629 12.2428 74.8508 13.6555C71.9156 16.5999 71.9156 21.3696 74.8588 24.306C77.802 27.2424 82.5698 27.2424 85.505 24.298C88.4482 21.3616 88.4403 16.5919 85.4971 13.6555ZM83.3631 22.1711C81.594 23.933 78.7381 23.925 76.9769 22.1632C75.2237 20.4013 75.2237 17.5443 76.9769 15.7824C78.7381 14.0126 81.594 14.0126 83.3631 15.7745L83.371 15.7824C85.1401 17.5443 85.1322 20.4093 83.3631 22.1711Z" fill="#133459"></path><mask id="mask0_2323_11793" style="mask-type:luminance" maskUnits="userSpaceOnUse" x="0" y="0" width="39" height="38"><path d="M19.4404 37.8006C29.821 37.8006 38.2362 29.3855 38.2362 19.0048C38.2362 8.62416 29.821 0.208984 19.4404 0.208984C9.05971 0.208984 0.644531 8.62416 0.644531 19.0048C0.644531 29.3855 9.05971 37.8006 19.4404 37.8006Z" fill="white"></path></mask><g mask="url(#mask0_2323_11793)"><path d="M-0.279297 -0.712891H39.1531V38.7195H-0.279297V-0.712891Z" fill="#E5E5E4"></path></g><mask id="mask1_2323_11793" style="mask-type:luminance" maskUnits="userSpaceOnUse" x="1" y="0" width="37" height="38"><path d="M19.4386 37.4261C29.6134 37.4261 37.8617 29.1779 37.8617 19.0031C37.8617 8.82835 29.6134 0.580078 19.4386 0.580078C9.26389 0.580078 1.01562 8.82835 1.01562 19.0031C1.01562 29.1779 9.26389 37.4261 19.4386 37.4261Z" fill="white"></path></mask><g mask="url(#mask1_2323_11793)"><path d="M0.0898438 -0.341797H38.7844V38.3528H0.0898438V-0.341797Z" fill="white"></path></g><mask id="mask2_2323_11793" style="mask-type:luminance" maskUnits="userSpaceOnUse" x="2" y="2" width="35" height="34"><path d="M19.4356 35.9474C28.7953 35.9474 36.3829 28.3598 36.3829 19C36.3829 9.64031 28.7953 2.05273 19.4356 2.05273C10.0759 2.05273 2.48828 9.64031 2.48828 19C2.48828 28.3598 10.0759 35.9474 19.4356 35.9474Z" fill="white"></path></mask><g mask="url(#mask2_2323_11793)"><path d="M1.56641 1.13086H37.3096V36.874H1.56641V1.13086Z" fill="#133459"></path></g><mask id="mask3_2323_11793" style="mask-type:luminance" maskUnits="userSpaceOnUse" x="8" y="13" width="23" height="12"><path d="M24.5883 16.8064L29.3805 13.3035C29.7999 12.9618 30.1183 13.0395 30.1183 13.6686V24.348C30.1183 25.0548 29.7222 24.9771 29.3805 24.7131L24.5883 21.2102V16.8064ZM8.37109 13.6996V21.6529C8.37886 23.4548 9.8468 24.9072 11.6487 24.8995H23.2602C23.5864 24.8995 23.8505 24.6354 23.8582 24.3092V16.3481C23.8505 14.5462 22.3825 13.0938 20.5806 13.1016H8.96914C8.64294 13.1094 8.37886 13.3657 8.37109 13.6996Z" fill="white"></path></mask><g mask="url(#mask3_2323_11793)"><path d="M7.45312 12.1836H31.0411V25.8145H7.45312V12.1836Z" fill="white"></path></g></svg>