<svg xmlns="http://www.w3.org/2000/svg" width="168" height="23" viewBox="0 0 168 23" fill="none"><path d="M31.3933 3.24902H33.6623V14.7952C33.6623 17.8397 32.3124 19.9652 29.1817 19.9652C28.2626 19.9652 27.3435 19.8215 26.4531 19.5343V17.3227C27.1999 17.61 28.0041 17.7536 28.8083 17.7536C30.7327 17.7536 31.3933 16.6047 31.3933 14.9388V3.24902Z" fill="#133459"></path><path d="M37.7977 2.35938C37.8264 2.35938 37.8551 2.35938 37.9125 2.35938C38.688 2.35938 39.3199 2.99126 39.3199 3.76675C39.3199 3.79547 39.3199 3.82419 39.3199 3.88163C39.3199 4.71457 38.6306 5.40389 37.7977 5.40389C36.9647 5.40389 36.2754 4.71457 36.2754 3.88163C36.2754 3.85291 36.2754 3.82419 36.2754 3.76675C36.2754 2.99126 36.9073 2.35938 37.6828 2.35938C37.7402 2.35938 37.7689 2.35938 37.7977 2.35938ZM36.7062 7.21337H38.8891V19.851H36.7062V7.21337Z" fill="#133459"></path><path d="M42.1641 7.21307H44.2895V9.42465C45.0362 7.93111 46.3 6.8684 48.7701 7.01201V9.13743C45.9841 8.85021 44.2895 9.68315 44.2895 12.383V19.8507H42.1641V7.21307Z" fill="#133459"></path><path d="M58.9362 17.5812C58.132 19.2471 56.6097 20.1087 54.6566 20.1087C51.2962 20.1087 49.6016 17.2653 49.6016 13.5314C49.6016 9.9699 51.3823 6.9541 54.9151 6.9541C56.7533 6.9541 58.1894 7.78704 58.9362 9.42418V7.2126H61.119V19.8502H58.9362V17.5812ZM55.2311 18.0695C57.1841 18.0695 58.9362 16.8344 58.9362 14.0197V13.0144C58.9362 10.1997 57.3565 8.96463 55.4895 8.96463C53.0482 8.96463 51.7844 10.5731 51.7844 13.5027C51.7844 16.5759 52.9907 18.0695 55.2311 18.0695Z" fill="#133459"></path><path d="M73.9579 20.1089C70.7411 20.1089 69.2476 19.477 67.9551 18.8164V16.4899C69.5061 17.2941 71.8612 17.8686 74.0728 17.8686C76.5716 17.8686 77.5195 16.892 77.5195 15.4272C77.5195 13.9624 76.6004 13.1869 73.441 12.4114C69.7071 11.4923 68.0412 10.1998 68.0412 7.47125C68.0412 4.88628 70.0231 2.96191 73.8718 2.96191C76.2844 2.96191 77.8067 3.53635 78.9556 4.16823V6.43726C77.3758 5.5756 75.5951 5.11605 73.7856 5.1735C71.6028 5.1735 70.3103 5.92027 70.3103 7.44253C70.3103 8.82118 71.373 9.48178 74.3026 10.2285C77.8067 11.1189 79.7885 12.2391 79.7885 15.2262C79.8172 18.1558 78.0939 20.1089 73.9579 20.1089Z" fill="#133459"></path><path d="M81.7441 13.5027C81.7441 9.7114 83.9557 6.9541 87.747 6.9541C91.5383 6.9541 93.7212 9.7114 93.7212 13.5027C93.7212 17.294 91.5096 20.1087 87.747 20.1087C83.9844 20.1087 81.7441 17.294 81.7441 13.5027ZM83.8696 13.5027C83.8696 15.9153 85.0472 18.0695 87.747 18.0695C90.4469 18.0695 91.5957 15.8866 91.5957 13.5027C91.5957 11.1188 90.4469 8.99335 87.747 8.99335C85.0472 8.99335 83.8696 11.0901 83.8696 13.5027Z" fill="#133459"></path><path d="M99.235 7.21296H102.509V9.22349H99.235V19.8506H97.1096V9.22349H95.0703V7.21296H97.1096V5.83431C97.1096 3.47912 98.4308 1.89941 101.131 1.89941C101.619 1.89941 102.107 1.95686 102.595 2.10047V4.111C102.136 4.02483 101.676 3.99611 101.217 3.99611C99.8669 3.99611 99.2063 4.7716 99.2063 5.92048L99.235 7.21296Z" fill="#133459"></path><path d="M109.861 17.7257C110.32 17.7257 110.78 17.6396 111.239 17.5534V19.6501C110.751 19.7937 110.263 19.8512 109.775 19.8512C107.075 19.8512 105.754 18.2714 105.754 15.9163V9.22406H103.686V7.21353H105.725V4.51367H107.85V7.18481H111.211V9.19534H107.85V15.8301C107.879 16.979 108.54 17.7257 109.861 17.7257Z" fill="#133459"></path><path d="M111.844 7.21289H114.256L117.904 17.9261L121.58 7.21289H123.648L127.354 17.9261L130.973 7.21289H133.385L128.732 19.8505H125.946L123.763 13.7328L122.614 9.8553L121.466 13.7328L119.254 19.8505H116.468L111.844 7.21289Z" fill="#133459"></path><path d="M143.292 17.5812C142.487 19.2471 140.965 20.1087 139.012 20.1087C135.652 20.1087 133.957 17.2653 133.957 13.5314C133.957 9.9699 135.738 6.9541 139.271 6.9541C141.109 6.9541 142.545 7.78704 143.292 9.42418V7.2126H145.475V19.8502H143.292V17.5812ZM139.615 18.0695C141.568 18.0695 143.32 16.8344 143.32 14.0197V13.0144C143.32 10.1997 141.741 8.96463 139.874 8.96463C137.404 8.99335 136.14 10.6018 136.14 13.5314C136.14 16.5759 137.346 18.0695 139.615 18.0695Z" fill="#133459"></path><path d="M148.75 7.21307H150.875V9.42465C151.593 7.93111 152.886 6.8684 155.356 7.01201V9.13743C152.57 8.85021 150.875 9.68315 150.875 12.383V19.8507H148.75V7.21307Z" fill="#133459"></path><path d="M163.024 20.1087C158.285 20.1087 156.217 17.3801 156.217 13.5027C156.217 9.68268 158.342 6.9541 162.191 6.9541C166.068 6.9541 167.648 9.65396 167.648 13.5027V14.4792H158.428C158.744 16.6334 160.123 18.012 163.11 18.012C164.431 18.012 165.724 17.7822 166.959 17.3227V19.3332C165.896 19.9077 164.316 20.1087 163.024 20.1087ZM158.4 12.641H165.437C165.322 10.2858 164.259 8.93591 162.076 8.93591C159.778 8.93591 158.629 10.4294 158.4 12.641Z" fill="#133459"></path><path d="M20.7946 10.9465L11.4313 1.58316L10.5122 0.664062L3.47535 7.70092L0.258497 10.9465C-0.0861656 11.2912 -0.0861656 11.8369 0.258497 12.1528L10.5409 22.4352L17.5778 15.3984L17.6927 15.2835L20.7946 12.1528C21.1393 11.8081 21.1393 11.2624 20.7946 10.9465ZM10.5122 14.7665L7.29536 11.5497L10.5122 8.3328L13.7291 11.5497L10.5122 14.7665Z" fill="#133459"></path><path d="M10.5128 8.33338C8.41615 6.23668 8.41615 2.79006 10.4841 0.693359L3.44727 7.73022L7.26727 11.5502L10.5128 8.33338Z" fill="url(#paint0_linear_2020_2611)"></path><path d="M13.7573 11.5215L10.5117 14.7671C11.517 15.7723 12.0914 17.151 12.0914 18.5871C12.0914 20.0232 11.517 21.4018 10.5117 22.4071L17.5773 15.3415L13.7573 11.5215Z" fill="url(#paint1_linear_2020_2611)"></path><defs><linearGradient id="paint0_linear_2020_2611" x1="9.95814" y1="5.07096" x2="6.10993" y2="8.91917" gradientUnits="userSpaceOnUse"><stop stop-color="#022A65"></stop><stop offset="0.18" stop-color="#02327A"></stop><stop offset="1" stop-color="#0047A5"></stop></linearGradient><linearGradient id="paint1_linear_2020_2611" x1="11.1288" y1="17.9793" x2="14.9696" y2="14.1384" gradientUnits="userSpaceOnUse"><stop stop-color="#00255C"></stop><stop offset="0.18" stop-color="#00327B"></stop><stop offset="1" stop-color="#004DB1"></stop></linearGradient></defs></svg>