<svg xmlns="http://www.w3.org/2000/svg" width="124" height="30" viewBox="0 0 124 30" fill="none"><g clip-path="url(#clip0_2020_2521)"><path d="M27.7171 26.4116C27.6346 26.3707 27.5107 26.3502 27.3455 26.3502H27.0978V26.9649H27.3662C27.49 26.9649 27.5933 26.9444 27.6552 26.9239C27.7791 26.8829 27.841 26.7805 27.841 26.6575C27.841 26.5346 27.7997 26.4526 27.7171 26.4116ZM27.4075 26.1248C27.6139 26.1248 27.7791 26.1453 27.8823 26.1862C28.0681 26.2682 28.1507 26.4116 28.1507 26.6165C28.1507 26.76 28.0887 26.8829 27.9855 26.9444C27.9236 26.9854 27.841 27.0059 27.7378 27.0264C27.8823 27.0469 27.9649 27.1083 28.0268 27.1903C28.0887 27.2723 28.13 27.3747 28.13 27.4567V27.5796C28.13 27.6206 28.13 27.6616 28.13 27.7026C28.13 27.7435 28.13 27.7845 28.1507 27.7845L28.1713 27.805H27.841V27.7845V27.764V27.7026V27.5591C27.841 27.3542 27.7791 27.2313 27.6758 27.1698C27.6139 27.1288 27.49 27.1083 27.3455 27.1083H27.0978V27.7845H26.7881V26.0838H27.4075V26.1248ZM26.4785 26.0428C26.2101 26.3092 26.0862 26.6165 26.0862 26.9854C26.0862 27.3542 26.2101 27.6821 26.4785 27.928C26.7469 28.1943 27.0565 28.3173 27.4281 28.3173C27.7997 28.3173 28.1094 28.1943 28.3777 27.928C28.6461 27.6616 28.77 27.3542 28.77 26.9854C28.77 26.6165 28.6461 26.3092 28.3777 26.0428C28.1094 25.7764 27.7997 25.6535 27.4281 25.6535C27.0565 25.6535 26.7469 25.7764 26.4785 26.0428ZM28.5429 28.0919C28.2332 28.3993 27.8616 28.5427 27.4281 28.5427C26.9946 28.5427 26.623 28.3993 26.3133 28.0919C26.0037 27.7845 25.8592 27.4157 25.8592 26.9854C25.8592 26.5551 26.0037 26.1862 26.3133 25.8994C26.623 25.592 26.9739 25.4486 27.4075 25.4486C27.841 25.4486 28.2126 25.592 28.5222 25.8994C28.8319 26.2067 28.9764 26.5551 28.9764 26.9854C28.9971 27.4157 28.8319 27.7845 28.5429 28.0919ZM21.3588 17.2522C20.4917 20.3258 17.7048 22.6618 14.154 22.6618C11.2225 22.6618 8.78652 21.084 7.56851 18.789C7.42401 18.5226 7.13499 17.7645 7.50658 17.6005C8.29106 17.2522 8.72458 18.9939 14.154 18.5226C20.0169 18.0104 20.2853 15.367 21.1317 15.367C21.7923 15.3465 21.6271 16.2891 21.3588 17.2522ZM27.6758 12.2934C26.8914 12.1295 26.045 12.0065 25.1366 11.8631C24.7444 11.8016 24.4141 11.5352 24.2696 11.1869C24.2489 11.1459 24.2283 11.0844 24.2076 11.0434C24.0425 10.6746 24.1044 10.2648 24.3315 9.93694C24.8889 9.21976 25.3843 8.52306 25.8179 7.86735C26.1069 7.43704 26.0656 6.84281 25.6734 6.47397L22.9896 3.83064C22.618 3.46181 22.0194 3.40033 21.5858 3.68721C20.9046 4.13801 20.182 4.65028 19.4389 5.20353C19.1292 5.44943 18.6957 5.49041 18.3447 5.34697C18.3034 5.32648 18.2621 5.30599 18.2209 5.30599C17.8493 5.16255 17.5809 4.8347 17.519 4.42488C17.3951 3.50279 17.2299 2.64217 17.0648 1.84302C16.9616 1.33075 16.5074 0.961914 15.9707 0.961914H12.2754C11.7386 0.961914 11.2844 1.33075 11.1812 1.84302C11.0161 2.66266 10.8509 3.54377 10.7271 4.50684C10.6651 4.89617 10.4174 5.22403 10.0458 5.36746C10.0252 5.36746 10.0045 5.38795 9.98387 5.38795C9.61228 5.55188 9.17875 5.5109 8.86909 5.26501C8.10526 4.69126 7.34143 4.1585 6.63953 3.7077C6.20601 3.42082 5.60733 3.4823 5.23574 3.85113L2.61394 6.45348C2.24235 6.82232 2.18041 7.41655 2.46943 7.84686C2.94424 8.56404 3.48099 9.32221 4.07967 10.1009C4.3274 10.4082 4.36868 10.8385 4.22418 11.1869C4.22418 11.1869 4.22418 11.1869 4.22418 11.2074C4.07967 11.5762 3.74936 11.8426 3.33648 11.9041C2.36621 12.0475 1.43723 12.1909 0.590821 12.3754C0.0747189 12.4778 -0.296875 12.9286 -0.296875 13.4614V17.0883C-0.296875 17.621 0.0747189 18.0718 0.590821 18.1743C1.43723 18.3382 2.34557 18.5021 3.33648 18.6456C3.72872 18.7071 4.05902 18.9734 4.22418 19.3423C4.22418 19.3423 4.22418 19.3423 4.22418 19.3628C4.36868 19.7316 4.3274 20.1414 4.07967 20.4488C3.48099 21.2274 2.94424 21.9856 2.46943 22.7028C2.18041 23.1331 2.24235 23.7273 2.61394 24.0962L5.23574 26.6985C5.60733 27.0673 6.20601 27.1288 6.63953 26.8419C7.34143 26.3911 8.08462 25.8584 8.86909 25.2846C9.1994 25.0387 9.61228 24.9978 9.98387 25.1617C10.0045 25.1617 10.0045 25.1822 10.0252 25.1822C10.3968 25.3256 10.6445 25.6535 10.7064 26.0428C10.8303 26.9854 10.9954 27.887 11.1606 28.7066C11.2638 29.2189 11.718 29.6082 12.2547 29.6082H16.0326C16.5693 29.6082 17.0235 29.2394 17.1267 28.7066C17.2919 27.9075 17.4364 27.0469 17.5602 26.1248C17.6222 25.7354 17.8906 25.3871 18.2621 25.2437C18.3034 25.2232 18.3241 25.2232 18.3447 25.2027C18.7163 25.0592 19.1292 25.1002 19.4389 25.3461C20.182 25.8994 20.9046 26.4116 21.5858 26.8624C22.0194 27.1493 22.618 27.1083 22.9896 26.719L25.6734 24.0757C26.045 23.7068 26.1069 23.1126 25.8179 22.6823C25.3637 22.0266 24.8682 21.3299 24.3315 20.6127C24.0838 20.2849 24.0425 19.875 24.2076 19.5062C24.2283 19.4652 24.2489 19.4037 24.2696 19.3628C24.4141 18.9939 24.7444 18.7275 25.1366 18.6866C26.045 18.5636 26.8914 18.4202 27.6758 18.2563C28.1919 18.1538 28.5842 17.703 28.5842 17.1702V13.4204C28.5635 12.8466 28.1919 12.3958 27.6758 12.2934Z" fill="#133459"></path><path d="M44.4134 11.432C45.5075 11.432 46.3952 11.8008 47.1384 12.5385C47.861 13.2761 48.2326 14.3007 48.2326 15.6121V21.8004H45.1566V16.0629C45.1566 15.4687 44.9914 15.0179 44.6611 14.7105C44.3308 14.4031 43.8973 14.2392 43.3812 14.2392C42.8032 14.2392 42.3284 14.4236 41.998 14.772C41.6677 15.1203 41.4819 15.6326 41.4819 16.3293V21.8004H38.4473V7.68213H41.5026V12.6614C42.1219 11.8418 43.0922 11.432 44.4134 11.432ZM49.9047 21.8004H52.96V11.7188H49.9047V21.8004ZM58.0178 18.2554C58.472 18.6858 59.0707 18.8907 59.7932 18.8907C60.5158 18.8907 61.0938 18.6858 61.5686 18.2554C62.0228 17.8251 62.2499 17.2514 62.2499 16.5547C62.2499 15.858 62.0228 15.2843 61.5686 14.854C61.1145 14.4236 60.5158 14.2187 59.7932 14.2187C59.0707 14.2187 58.4927 14.4236 58.0178 14.854C57.5637 15.2843 57.3159 15.858 57.3159 16.5547C57.3366 17.2514 57.5637 17.8251 58.0178 18.2554ZM62.2499 11.7188H65.2226V21.3086C65.2226 22.8864 64.7065 24.0954 63.6537 24.915C62.6008 25.7346 61.3415 26.1445 59.8552 26.1445C57.5637 26.1445 55.9534 25.3248 55.0245 23.706L57.6256 22.2102C58.0798 23.0503 58.8643 23.4806 59.9377 23.4806C60.6603 23.4806 61.2177 23.2962 61.6306 22.9274C62.0434 22.5585 62.2499 22.0258 62.2499 21.3291V20.366C61.548 21.2471 60.5571 21.6774 59.2771 21.6774C57.8527 21.6774 56.6553 21.1856 55.7057 20.1816C54.7561 19.1775 54.2813 17.9686 54.2813 16.5547C54.2813 15.1408 54.7561 13.9319 55.7057 12.9278C56.6553 11.9238 57.8527 11.432 59.2771 11.432C60.5571 11.432 61.548 11.8623 62.2499 12.7434V11.7188ZM73.0261 11.432C74.1202 11.432 75.0079 11.8008 75.7511 12.5385C76.4736 13.2761 76.8452 14.3007 76.8452 15.6121V21.8004H73.7899V16.0629C73.7899 15.4687 73.6248 15.0179 73.2945 14.7105C72.9641 14.4031 72.5306 14.2392 72.0145 14.2392C71.4365 14.2392 70.9617 14.4236 70.6314 14.772C70.3011 15.1203 70.1153 15.6326 70.1153 16.3293V21.8004H67.0599V7.68213H70.1153V12.6614C70.7139 11.8418 71.6842 11.432 73.0261 11.432ZM83.2036 21.8004H86.2589V7.08789H83.2036V21.8004ZM90.7387 15.7146H95.1152C94.8262 14.649 94.1037 14.1163 92.9683 14.1163C91.7709 14.1163 91.0484 14.649 90.7387 15.7146ZM90.8006 17.9686C91.1516 18.9112 91.9773 19.3824 93.2366 19.3824C94.0624 19.3824 94.723 19.1366 95.1978 18.6243L97.6338 20.0177C96.6223 21.411 95.1565 22.0872 93.1953 22.0872C91.4819 22.0872 90.1194 21.575 89.0872 20.5709C88.055 19.5669 87.5595 18.2964 87.5595 16.7596C87.5595 15.2433 88.055 13.9728 89.0665 12.9483C90.0781 11.9237 91.3787 11.432 92.9683 11.432C94.4546 11.432 95.6726 11.9442 96.6635 12.9483C97.6545 13.9728 98.1293 15.2228 98.1293 16.7596C98.1293 17.1899 98.088 17.5997 98.0054 17.9686H90.8006ZM105.561 11.7188H108.926L105.148 21.8004H101.742L97.9641 11.7188H101.35L103.476 18.0915L105.561 11.7188ZM111.899 15.7146H116.275C115.986 14.649 115.264 14.1163 114.128 14.1163C112.931 14.1163 112.209 14.649 111.899 15.7146ZM111.961 17.9686C112.312 18.9112 113.138 19.3824 114.397 19.3824C115.223 19.3824 115.883 19.1366 116.358 18.6243L118.794 20.0177C117.782 21.411 116.317 22.0872 114.356 22.0872C112.642 22.0872 111.28 21.575 110.247 20.5709C109.215 19.5669 108.72 18.2964 108.72 16.7596C108.72 15.2433 109.215 13.9728 110.227 12.9483C111.238 11.9237 112.539 11.432 114.128 11.432C115.615 11.432 116.833 11.9442 117.824 12.9483C118.815 13.9728 119.289 15.2228 119.289 16.7596C119.289 17.1899 119.248 17.5997 119.166 17.9686H111.961ZM120.631 21.8004H123.687V7.08789H120.631V21.8004ZM52.96 9.17796C52.96 9.9976 52.2788 10.6738 51.453 10.6738C50.6066 10.6738 49.946 9.9976 49.946 9.17796C49.946 8.35833 50.6273 7.68213 51.453 7.68213C52.2788 7.68213 52.96 8.35833 52.96 9.17796Z" fill="#133459"></path></g><defs><clipPath id="clip0_2020_2521"><rect width="123.3" height="28.8" fill="white" transform="translate(0 0.900391)"></rect></clipPath></defs></svg>