<svg xmlns="http://www.w3.org/2000/svg" width="124" height="37" viewBox="0 0 124 37" fill="none"><g clip-path="url(#clip0_2020_2582)"><path d="M0.015625 7.23242H4.32279V16.7912H13.4069V7.23242H17.7196V30.6963H13.4069V20.9368H4.32279V30.6963H0.015625V7.23242ZM31.3646 23.0538C31.3646 25.018 29.7626 26.6163 27.7967 26.6163C25.8301 26.6163 24.2291 25.018 24.2291 23.0538V12.9517H20.1443V23.0538C20.1443 27.2682 23.5774 30.6963 27.7967 30.6963C32.0151 30.6963 35.4479 27.2682 35.4479 23.0538V12.9517H31.3646V23.0538ZM46.8508 13.0701C44.8246 13.0701 43.4103 13.6574 42.0445 14.9967V7.23242H37.9465V21.6217C37.9465 27.0077 41.8449 30.6963 46.2247 30.6963C51.0938 30.6963 55.3599 26.9419 55.3599 21.8834C55.3599 16.8891 51.426 13.0701 46.8508 13.0701ZM46.9526 26.9094C44.1758 26.9094 42.0524 24.5928 42.0524 21.8834C42.0524 19.1736 44.1758 16.8563 46.9526 16.8563C49.3055 16.8563 51.4301 19.1736 51.4301 21.8834C51.4301 24.5928 49.3055 26.9094 46.9526 26.9094ZM62.2427 14.1013C62.2427 12.0436 63.6153 11.3912 65.1179 11.3912C66.3276 11.3912 67.9284 12.3051 68.9732 13.4152L71.652 10.2819C70.3132 8.48686 67.6015 7.24616 65.3794 7.24616C60.935 7.24616 57.7326 9.82493 57.7326 14.1013C57.7326 22.0329 67.5033 19.5187 67.5033 23.959C67.5033 25.3284 66.164 26.5373 64.6291 26.5373C62.2101 26.5373 61.4255 25.3621 60.3149 24.1214L57.3408 27.1892C59.2372 29.507 61.5891 30.6826 64.3996 30.6826C68.6146 30.6826 72.0132 28.0713 72.0132 23.9906C72.0132 15.1779 62.2427 17.9201 62.2427 14.1013ZM82.8013 12.8402C78.422 12.8402 74.5231 16.5266 74.5231 21.9138V36.3402H78.6208V28.5391C79.9869 29.8774 81.4005 30.4657 83.4274 30.4657C88.0024 30.4657 91.9368 26.6472 91.9368 21.6528C91.9368 16.5936 87.6694 12.8402 82.8013 12.8402ZM83.5295 26.6799C80.7529 26.6799 78.6293 24.3603 78.6293 21.6528C78.6293 18.9429 80.7529 16.6256 83.5295 16.6256C85.8819 16.6256 88.0067 18.9429 88.0067 21.6528C88.0067 24.3603 85.8819 26.6799 83.5295 26.6799ZM122.101 26.9094C119.684 26.9094 118.997 25.8653 118.997 24.2653V17.1826H122.755V13.5926H118.997V8.85921L114.849 10.7193V25.1467C114.849 28.8355 117.397 30.6963 120.891 30.6963C121.414 30.6963 122.134 30.6626 122.527 30.5659L123.54 26.8453C123.082 26.8769 122.56 26.9094 122.101 26.9094Z" fill="#133459"></path><path d="M111.293 17.3917C110.507 16.0416 109.402 14.9593 108.021 14.1444C106.988 13.5441 105.918 13.163 104.711 12.9994V8.70948C105.918 8.19782 106.666 7.06533 106.666 5.74414C106.666 3.94334 105.221 2.48404 103.419 2.48404C101.617 2.48404 100.146 3.94334 100.146 5.74414C100.146 7.06533 100.851 8.19782 102.057 8.70948V13.0013C101.092 13.1406 100.092 13.4412 99.1776 13.9029C97.3109 12.4868 91.1899 7.84089 87.6092 5.1274C87.6941 4.82156 87.7595 4.50633 87.7595 4.17374C87.7595 2.17917 86.1425 0.5625 84.145 0.5625C82.1475 0.5625 80.5312 2.17917 80.5312 4.17374C80.5312 6.16807 82.1492 7.78522 84.1467 7.78522C84.828 7.78522 85.4582 7.58615 86.0021 7.25886L86.7577 7.83149L97.141 15.3046C96.5921 15.8081 96.0809 16.3807 95.6719 17.0232C94.8432 18.3331 94.3368 19.7743 94.3368 21.3464V21.6744C94.3368 22.778 94.5467 23.8199 94.9042 24.7986C95.2191 25.6532 95.6794 26.4302 96.2495 27.1327L92.8035 30.5835C92.3041 30.3978 91.7617 30.3597 91.2411 30.4737C90.7206 30.5877 90.244 30.8491 89.8682 31.2265C89.608 31.4851 89.4018 31.7927 89.2614 32.1316C89.1211 32.4704 89.0495 32.8336 89.0508 33.2003C89.051 33.9457 89.3417 34.6463 89.8696 35.1734C90.1284 35.4335 90.4362 35.6398 90.7753 35.7802C91.1144 35.9206 91.4781 35.9924 91.8452 35.9914C92.2123 35.9923 92.5761 35.9205 92.9153 35.7801C93.2545 35.6397 93.5625 35.4335 93.8214 35.1734C94.0814 34.9148 94.2876 34.6073 94.428 34.2686C94.5684 33.9299 94.6402 33.5669 94.6393 33.2003C94.6393 32.9118 94.5947 32.6303 94.5107 32.3628L98.0726 28.8043C98.5609 29.1413 99.0883 29.4249 99.6553 29.6696C100.774 30.1525 102.008 30.4468 103.359 30.4468H103.606C105.1 30.4468 106.509 30.0964 107.833 29.3796C109.228 28.6221 110.321 27.5863 111.146 26.2639C111.975 24.9379 112.432 23.4728 112.432 21.861V21.7805C112.432 20.1949 112.065 18.732 111.293 17.3917ZM106.941 24.8564C105.974 25.9296 104.863 26.5907 103.606 26.5907H103.399C102.682 26.5907 101.98 26.3926 101.293 26.0323C100.518 25.6356 99.9296 25.0697 99.4478 24.3532C98.9498 23.6499 98.6796 22.8821 98.6796 22.068V21.8207C98.6796 21.0203 98.8333 20.2614 99.2208 19.5446C99.6351 18.7611 100.195 18.1519 100.939 17.6674C101.669 17.1864 102.449 16.9505 103.319 16.9505H103.399C104.187 16.9505 104.933 17.1057 105.637 17.4655C106.355 17.8492 106.941 18.3734 107.395 19.0629C107.836 19.7526 108.099 20.4966 108.183 21.3071C108.197 21.4756 108.203 21.6481 108.203 21.813C108.203 22.9129 107.783 23.9317 106.941 24.8564Z" fill="#133459"></path></g><defs><clipPath id="clip0_2020_2582"><rect width="123.3" height="36" fill="white" transform="translate(0 0.549805)"></rect></clipPath></defs></svg>