<svg xmlns="http://www.w3.org/2000/svg" width="120" height="30" viewBox="0 0 120 30" fill="none"><g clip-path="url(#clip0_2323_11939)"><path d="M15.3297 0.312775C24.908 -0.834447 26.1526 13.188 17.2554 14.1793C7.67555 15.2448 6.38816 1.38432 15.3297 0.312775Z" fill="#133459"></path><path d="M24.1856 15.4474C33.6219 14.335 34.9124 28.3892 26.1098 29.311C16.2566 30.3416 15.2487 16.5023 24.1856 15.4474Z" fill="#133459"></path><path d="M6.50007 15.4474C15.9364 14.335 17.2268 28.3892 8.42429 29.311C-1.42893 30.3416 -2.43685 16.5023 6.50007 15.4474Z" fill="#133459"></path><path d="M75.6833 28.8743C75.468 29.1149 73.7484 27.0521 73.4476 26.9234C72.3266 27.5757 71.4485 28.4112 70.155 28.7699C63.0965 30.7238 57.3009 23.509 61.1112 17.2341C63.2706 13.6774 67.9651 12.6543 71.6348 14.4992L71.7891 13.741L75.3077 17.06L75.6833 17.5988V28.8743ZM67.4046 17.4127C62.6368 17.8622 62.7193 24.8469 67.3619 25.2389C73.2582 25.7383 72.9818 16.886 67.4046 17.4127Z" fill="#133459"></path><path d="M89.7359 17.3726C90.0031 17.4392 90.0413 17.2636 90.1955 17.1471C90.7835 16.7006 93.5293 13.5889 93.7828 13.5889H98.5934L90.9515 21.3834L98.4407 29.0265H93.7828C93.4285 29.0265 90.5498 25.6075 89.8138 25.3926L89.8886 29.0265H85.918V9.72952L89.7359 6.02148V17.3726Z" fill="#133459"></path><path d="M114.323 13.5879L109.267 21.3839L114.171 29.0254H109.894C109.533 28.4912 107.318 24.7135 107.068 24.6348C106.79 24.5485 106.86 24.7453 106.797 24.827C105.828 26.0908 104.931 27.6603 104.093 29.0254H99.8168L104.835 21.3566L99.6641 13.5879H103.864C104.977 14.7033 105.676 16.63 106.712 17.7273C106.817 17.8393 106.848 18.0315 107.069 17.977C107.33 17.9134 109.571 14.0162 110.125 13.5879H114.325H114.323Z" fill="#133459"></path><path d="M11.2403 29.1773C12.5201 28.1496 13.7876 27.1885 14.4749 25.6478C17.0099 19.9662 12.4758 14.0969 6.29388 14.8158C5.63567 14.893 5.02481 15.2381 4.41395 15.3758C4.18487 15.4272 4.00467 15.4999 4.06423 15.1805L8.72359 9.50498L10.3286 12.149C14.2779 16.7742 21.8709 15.285 23.6897 9.50195L28.4988 15.4045C27.5947 15.2456 26.7639 14.8657 25.8323 14.7946C18.7723 14.2634 14.7604 22.0351 19.1877 27.4337L21.3211 29.1788H11.2419L11.2403 29.1773Z" fill="#133459"></path><path d="M45.5998 13.5885C45.6578 13.643 46.4061 13.4765 46.6016 13.7323L50.1812 17.3722H45.8288C45.812 17.3722 45.5998 17.5826 45.5998 17.5992V23.0478C45.5998 23.1113 46.0029 24.0799 46.0854 24.2313C46.6947 25.3664 48.0982 26.2382 49.4177 26.1504L49.268 26.5303C48.6831 26.8829 46.7192 29.3151 46.2931 29.3242C45.925 29.3317 44.6361 28.3994 44.3078 28.1119C42.9135 26.8935 41.6307 24.4538 41.6307 22.5922V17.3707C41.6307 17.3298 40.9877 17.4055 40.7938 17.3676C40.1646 17.242 37.5822 14.1924 36.8965 13.587H41.6307V9.87892C41.6307 9.55503 45.0317 6.39185 45.6013 6.01953C45.812 6.94124 45.3249 13.3266 45.6013 13.587L45.5998 13.5885Z" fill="#133459"></path><path d="M84.8473 13.5881V17.3718C79.151 17.393 79.0915 25.3948 84.8473 25.2419V29.0256C73.9358 29.2208 73.9785 13.529 84.8473 13.5881Z" fill="#133459"></path><path d="M51.0968 17.447L54.8399 13.7404C55.1331 13.6375 55.043 14.0416 55.1514 14.0507C55.3576 14.0704 56.6832 13.6466 57.1474 13.6072C58.6532 13.4771 60.2964 13.7283 61.6342 14.4215L58.728 17.4439C57.0924 17.3592 55.2858 18.0478 55.0613 19.864C54.8903 21.2503 55.3728 24.0019 55.0338 25.1339C54.8536 25.7333 51.6832 28.3198 51.0938 29.0236V17.4454L51.0968 17.447Z" fill="#133459"></path><path d="M119.209 25.3941C119.204 25.4047 119.036 25.3699 118.966 25.4516C118.182 26.3597 116.768 27.9519 115.85 28.6496C115.696 28.7661 115.658 28.9417 115.391 28.8751V17.4483L119.209 13.7402V25.3941Z" fill="#133459"></path></g><defs><clipPath id="clip0_2323_11939"><rect width="118.839" height="29.1195" fill="white" transform="translate(0.371094 0.246094)"></rect></clipPath></defs></svg>