<svg xmlns="http://www.w3.org/2000/svg" width="96" height="32" viewBox="0 0 96 32" fill="none"><g clip-path="url(#clip0_2020_2543)"><path d="M5.94549 3.38058C8.43861 1.37661 11.5639 0.198564 14.7465 0.0180152C19.3371 -0.279058 24.0232 1.59301 27.1179 5.03112C28.423 3.86972 29.6925 2.66606 31.037 1.54948C30.0283 3.0374 28.9598 4.48564 27.9282 5.95948C29.7319 8.24643 30.8894 11.0443 31.2049 13.9459C31.645 17.6811 30.705 21.5712 28.5731 24.6636C26.6282 27.5229 23.7268 29.7202 20.4412 30.7638C16.8453 31.9291 12.8321 31.728 9.3748 30.1953C6.07015 28.7534 3.29464 26.1169 1.68556 22.8709C-0.00237896 19.5698 -0.428499 15.6541 0.433917 12.0533C1.23146 8.64851 3.20942 5.5382 5.94422 3.38058M7.3218 5.81863C5.76487 6.8507 4.80578 8.69716 4.80196 10.568C4.79942 14.0291 4.79815 17.4916 4.80196 20.9514C4.81723 22.4125 5.38454 23.8645 6.41359 24.9017C7.51387 26.0964 9.14203 26.7059 10.7473 26.6867C14.0621 26.6867 17.3782 26.6957 20.6931 26.6829C22.4408 26.6931 24.1809 25.8864 25.2608 24.492C26.1105 23.4471 26.5099 22.0923 26.5163 20.753C26.5328 17.8488 26.5163 14.9447 26.5252 12.0392C26.5404 10.8522 26.5443 9.63576 26.122 8.50893C23.2854 12.4746 20.4883 16.4697 17.6453 20.4303C16.671 21.6852 14.4908 21.4892 13.7581 20.073C12.1757 17.0267 10.6036 13.9728 9.03645 10.9188C11.2294 12.3837 13.3981 13.8844 15.5694 15.3839C18.7673 12.5514 21.932 9.68314 25.1056 6.82637C24.013 5.54588 22.3556 4.80576 20.6829 4.82241C17.3719 4.81985 14.0634 4.82625 10.7537 4.81984C9.54525 4.8032 8.32032 5.11948 7.32052 5.81735" fill="#133459"></path><path d="M71.3528 4.08332C72.49 3.68253 73.921 3.76704 74.8216 4.64801C75.843 5.7121 75.5619 7.73527 74.1868 8.35631C72.953 8.89796 71.2383 8.82625 70.3365 7.70838C69.4168 6.54314 69.9142 4.55838 71.3528 4.08204" fill="#133459"></path><path d="M43.0724 7.60849C45.3378 5.38941 48.5572 4.3599 51.6774 4.39191C54.3995 4.35862 57.2475 4.96941 59.4315 6.68526C58.9355 7.9427 58.4597 9.20782 57.9637 10.464C55.8394 8.82496 53.041 7.96447 50.3838 8.50483C48.3003 8.86337 46.3872 10.2284 45.4892 12.1709C44.338 14.6768 44.4957 17.8524 46.1531 20.0958C47.2967 21.6388 49.1245 22.5864 51.0096 22.7925C53.5676 23.0922 56.2783 22.3789 58.246 20.6733C58.7714 21.8539 59.2916 23.032 59.8195 24.2126C57.4574 26.5059 54.009 27.2256 50.8252 27.0297C47.8538 26.8773 44.8252 25.7876 42.7493 23.58C40.4584 21.247 39.5693 17.8076 39.8542 14.6C40.0552 11.9865 41.1644 9.41526 43.0724 7.60849Z" fill="#133459"></path><path d="M61.9535 4.7187C63.5524 4.71486 65.1525 4.71486 66.7514 4.7187C66.7514 12.0239 66.7553 19.3316 66.7489 26.6394C65.1525 26.6368 63.5562 26.6355 61.9611 26.6394C61.942 19.3342 61.9573 12.0264 61.9522 4.7187" fill="#133459"></path><path d="M83.8232 11.1396C86.6686 10.5467 89.8639 10.8233 92.2871 12.5584C95.5599 14.8402 96.2799 19.756 94.3095 23.1198C93.2678 24.9241 91.4068 26.1341 89.4276 26.6527C87.3899 27.1713 85.2071 27.1495 83.1872 26.5695C80.9624 25.9433 78.9667 24.3555 78.0966 22.1684C76.9747 19.3347 77.3754 15.7903 79.4996 13.5277C80.6495 12.3023 82.1976 11.502 83.8257 11.1396M85.2936 14.5175C81.8032 15.4395 81.3491 20.8931 84.2709 22.7511C85.749 23.6666 87.8185 23.5347 89.1363 22.3836C90.8446 20.7932 90.9883 17.8788 89.7125 15.985C88.7662 14.5726 86.8785 14.0809 85.2949 14.5175" fill="#133459"></path><path d="M70.2309 11.1396H75.0772C75.0798 16.3077 75.0811 21.4732 75.0772 26.64C73.4618 26.6374 71.8464 26.6374 70.2309 26.64C70.2271 21.4719 70.2284 16.3064 70.2309 11.1396Z" fill="#133459"></path></g><defs><clipPath id="clip0_2020_2543"><rect width="95.4" height="31.5" fill="white" transform="translate(0 -0.000976562)"></rect></clipPath></defs></svg>