<svg xmlns="http://www.w3.org/2000/svg" width="155" height="31" viewBox="0 0 155 31" fill="none"><g clip-path="url(#clip0_2323_12019)"><path d="M136.115 1.33398V14.6908C138.923 14.9271 141.415 8.42336 142.959 7.66647C144.048 7.1322 146.469 7.70415 147.756 7.50208C147.284 8.95763 141.374 15.7901 141.402 16.4237C141.569 20.2767 146.308 24.9755 149.838 26.1947C149.927 26.7222 148.133 29.7189 147.756 29.9518C146.633 30.647 142.124 27.0886 141.265 26.1536C140.573 25.4036 139.662 24.0405 139.142 23.1398C138.697 22.3692 137.622 19.304 137.44 19.1944C137.139 19.0095 136.516 19.2013 136.119 19.143V27.7051H131.668V1.33398H136.119H136.115Z" fill="#225185"></path><path d="M53.9459 13.8343C53.5967 12.1767 51.4945 12.4336 51.248 11.7383C50.9022 10.752 51.4055 8.65256 51.2035 7.49839C52.9017 7.35797 54.6923 7.63538 56.1371 8.57036C56.5925 8.86489 56.6233 9.56013 56.8561 9.56013C57.3149 9.56356 58.2564 8.54296 58.9446 8.22103C61.6972 6.9333 66.0864 7.13194 68.1612 9.54301C68.6611 10.1252 69.6916 12.1733 69.6916 12.8069V28.0473H64.8984V14.5193C64.8984 14.4165 64.1829 12.8171 64.0322 12.6459C62.7346 11.1561 58.7357 12.1356 58.7357 13.8343V28.0473H53.9425V13.8343H53.9459Z" fill="#133459"></path><path d="M117.97 21.54C118.008 21.5742 117.929 22.2044 118.162 22.5298C120.014 25.1566 125.139 23.5812 123.972 21.1941C122.804 18.807 114.495 21.5366 113.331 16.0774C111.088 5.56662 128.433 4.54603 128.587 14.3479C127.707 14.1595 124.67 14.6253 124.181 14.3033C123.986 14.1766 123.955 12.9608 123.448 12.4676C121.808 10.8682 116.888 11.519 118.032 14.8068C118.754 16.8891 127.789 14.8068 128.57 19.6769C130.2 29.876 113.879 31.1192 113.184 21.54C113.91 21.6633 117.792 21.3722 117.977 21.54H117.97Z" fill="#225185"></path><path d="M47.0992 18.4572C46.9759 18.4435 45.3394 17.1112 45.7297 16.7448L47.4347 16.2311C44.8361 14.7926 43.8775 13.4535 42.1006 11.2993C41.7034 10.8199 40.9776 10.6178 40.5838 10.0767C39.7827 8.97046 39.9676 7.1964 39.2931 5.88812C38.848 5.02506 37.862 4.61409 37.684 3.73048C52.4505 2.97017 55.3366 24.6253 41.005 27.9474C37.8517 28.6769 31.2508 27.9645 29.806 24.6253C28.909 22.5567 28.2687 18.1627 29.9737 16.4057C29.8402 20.4333 33.4625 24.0191 37.3895 24.2691C38.9062 24.365 38.7008 23.6184 39.5875 23.1115C42.5319 21.4334 43.292 24.6458 45.829 23.8718C47.0273 23.5054 46.5445 22.4745 46.7534 21.8854L46.2467 21.2861C47.0958 20.5326 48.027 18.2312 47.0958 18.4606L47.0992 18.4572Z" fill="#133459"></path><path d="M5.33031 1.33398V23.5953H16.2862V28.0476H0.537109V1.33398H5.33031Z" fill="#133459"></path><path d="M23.1344 7.84267C23.357 14.4971 23.4117 21.1686 23.3022 27.8505C21.7444 27.9806 20.2071 27.9326 18.6836 27.7066V7.84267C19.8168 8.0687 22.2237 7.53443 23.1344 7.84267Z" fill="#133459"></path><path d="M23.1335 1.3329C23.445 2.77132 23.4382 4.34332 23.1335 5.78516C22.7534 5.90846 18.7134 5.84339 18.6758 5.58652V1.3329C19.8296 1.55894 22.1988 1.02467 23.1335 1.3329Z" fill="#133459"></path><path d="M28.6085 23.5955C27.0335 22.3043 25.5442 18.537 25.8797 16.5985C26.2118 14.6841 29.235 12.0196 31.0051 11.2695C30.6353 12.91 29.2076 13.9169 28.5468 15.4855C27.3383 18.3521 27.4067 20.7631 28.6085 23.5989V23.5955Z" fill="#133459"></path><path d="M36.1441 7.50162C34.3843 9.13184 31.772 9.00169 29.6253 10.0531C28.3072 10.7004 27.3452 11.7518 26.2188 12.6354C27.1774 7.75506 31.7652 6.54952 36.1441 7.50162Z" fill="#133459"></path><path d="M39.5625 8.184C37.6726 7.26957 35.3959 5.86197 33.2321 5.85855C32.5644 5.85855 29.8049 6.94422 30.6643 5.79348C30.7773 5.64279 33.8586 4.27286 34.0846 4.23518C36.0532 3.89955 39.292 6.10856 39.5625 8.184Z" fill="#133459"></path><path d="M152.169 1.02938C152.364 1.19035 152.511 3.66307 153.063 4.07747C153.552 4.06719 153.292 0.193724 154.946 0.988282V5.44055C153.525 5.71453 154.713 3.35141 154.09 2.70069C153.771 2.70069 153.946 5.7522 152.553 5.44397C152.378 5.25561 152.566 2.56712 151.525 2.36506C151.07 3.78636 152.782 5.9029 150.837 5.45082C150.95 4.75901 150.676 1.14925 150.837 0.995132C150.885 0.950609 152.056 0.943759 152.169 1.03623V1.02938Z" fill="#225185"></path><path d="M23.1344 7.8418C24.0896 8.16715 23.1139 25.8187 23.4802 28.0517C22.5661 27.8736 18.9233 28.4421 18.6836 27.7057H23.1379V7.8418H23.1344Z" fill="#133459"></path><path d="M150.149 0.994141C150.498 2.12091 149.214 1.38799 149.101 1.86404C148.974 2.39489 149.152 3.55591 149.125 4.25114C149.104 4.77857 149.443 5.60737 148.615 5.44298C147.553 4.58335 148.361 2.87779 148.118 1.86404C148.005 1.38799 146.718 2.12091 147.071 0.994141H150.149Z" fill="#225185"></path><path d="M46.7577 21.8832C45.5731 21.14 44.6692 22.2907 43.173 22.2393C42.6184 22.2222 41.3379 22.0784 41.6255 21.1982C43.6489 22.027 47.4767 21.1434 47.1 18.4583C47.2062 18.472 47.6923 17.972 47.7814 18.1159C47.9354 19.4995 47.1891 20.6674 46.7577 21.8832Z" fill="#133459"></path><path d="M42.3038 15.0323L39.9141 13.6658C41.1398 13.6179 42.5606 13.3713 42.3038 15.0323Z" fill="#133459"></path><path d="M23.1348 5.78625V1.33398C23.6894 1.51892 23.686 5.60473 23.1348 5.78625Z" fill="#225185"></path><path d="M91.0339 6.19312C90.7566 5.26157 90.267 4.2444 89.5685 3.54916C89.055 3.03543 86.5146 1.67578 85.9634 1.67578H73.4668V28.0469H83.9091C84.2926 28.0469 86.4769 27.5434 87.0076 27.379C88.9283 26.7866 90.5409 25.194 91.1092 23.2624C91.9994 20.2314 91.9446 9.23093 91.0339 6.18969V6.19312ZM86.7953 21.002C86.6207 22.2452 85.5286 23.5946 84.2481 23.5946H78.2566V5.78556C80.1225 5.98078 82.4506 5.51843 84.2481 5.78556C86.0935 6.05955 86.6755 7.27878 86.833 9.02202C87.0795 11.7276 87.1548 18.4094 86.7919 21.002H86.7953Z" fill="#225185"></path><path d="M103.378 23.9217C100.383 24.2094 99.8005 22.3566 99.4821 19.8291H110.267C111.342 19.8291 110.585 13.3493 110.281 12.2808C108.449 5.89347 97.2704 5.8147 95.3942 12.4863C94.7574 14.7569 94.7471 21.4285 95.4695 23.6717C97.6128 30.3056 110.815 29.3364 110.78 21.5415H105.987C105.792 21.5415 106.138 23.6546 103.378 23.9217ZM105.987 15.7193H99.8245C98.859 10.38 106.775 10.5136 105.987 15.7193Z" fill="#225185"></path></g><defs><clipPath id="clip0_2323_12019"><rect width="154.41" height="29.1589" fill="white" transform="translate(0.537109 0.880859)"></rect></clipPath></defs></svg>