<svg xmlns="http://www.w3.org/2000/svg" width="86" height="40" viewBox="0 0 86 40" fill="none"><g clip-path="url(#clip0_2323_11771)"><path d="M20.2682 27.9892L17.5119 30.8479C17.1182 31.3408 16.5275 31.2423 16.0353 30.8479L6.28991 20.8917V30.1579C6.28991 30.7494 5.89616 31.1437 5.20709 31.1437H1.26954C0.678912 31.1437 0.285156 30.7494 0.285156 30.1579V1.27483C0.285156 0.683369 0.678912 0.289062 1.26954 0.289062H5.20709C5.89616 0.289062 6.28991 0.683369 6.28991 1.27483V10.7382H19.5791C20.1698 10.7382 20.5635 11.1325 20.5635 11.724V15.7657C20.5635 16.3571 20.1698 16.7514 19.5791 16.7514H10.5228L20.2682 26.6091C20.662 27.0034 20.662 27.4963 20.2682 27.9892Z" fill="#133459"></path><path d="M42.1209 20.8924C42.1209 21.2867 42.0225 21.7796 42.0225 22.1739C41.9241 22.7654 41.5303 23.0611 40.9397 23.0611H27.7489C28.438 24.8355 30.1114 26.0184 32.3755 26.0184C33.8521 26.0184 35.1318 25.427 36.0177 24.4412C36.4115 23.9483 36.8053 23.8497 37.3959 24.1455L40.4475 26.0184C40.9397 26.4127 41.1366 26.9056 40.7428 27.3985C38.8725 29.9615 35.8209 31.5387 32.2771 31.5387C26.1739 31.5387 21.7441 27.0042 21.7441 20.991C21.7441 14.8792 25.977 10.2461 31.8833 10.2461C37.9865 10.2461 42.1209 14.7806 42.1209 20.8924ZM36.2146 18.7237C35.624 16.8508 34.049 15.7664 31.9818 15.7664C29.7177 15.7664 28.1427 16.8508 27.6505 18.7237H36.2146Z" fill="#133459"></path><path d="M62.0049 18.3294V30.1587C62.0049 30.7501 61.7096 31.1444 61.0205 31.1444H57.1814C56.5908 31.1444 56.197 30.7501 56.197 30.1587V28.9757C54.622 30.7501 52.8501 31.5387 50.586 31.5387C46.1563 31.5387 43.2031 29.0743 43.2031 25.2298C43.2031 21.1881 46.1563 18.6251 50.4876 18.6251H56.197V18.1323C56.197 16.7522 54.8189 15.7664 52.8501 15.7664C51.5704 15.7664 50.2907 16.2593 49.7001 16.9493C49.3063 17.3436 49.1094 17.6394 48.5188 17.6394H44.7781C44.0891 17.6394 43.6953 17.2451 43.7938 16.6536C44.5813 12.8091 47.8297 10.2461 52.7517 10.2461C58.3627 10.2461 62.0049 13.4991 62.0049 18.3294ZM56.197 23.554V22.864H51.3735C49.7985 22.864 49.1094 23.7511 49.1094 24.8355C49.1094 25.9198 49.9954 26.807 52.0626 26.807C54.5236 26.807 56.197 25.427 56.197 23.554Z" fill="#133459"></path><path d="M85.4331 20.991C85.4331 26.9056 81.2986 31.5387 75.7861 31.5387C73.522 31.5387 71.5532 30.7501 70.3719 29.2715V38.7349C70.3719 39.3263 69.9782 39.7206 69.2891 39.7206H65.3516C64.7609 39.7206 64.3672 39.3263 64.3672 38.7349V11.7247C64.3672 11.1333 64.7609 10.739 65.3516 10.739H69.1907C69.8797 10.739 70.1751 11.1333 70.1751 11.7247V12.9077C71.4548 11.2319 73.4235 10.2461 75.6876 10.2461C81.2002 10.2461 85.4331 14.9778 85.4331 20.991ZM79.4283 20.991C79.4283 18.2308 77.558 16.1607 74.9001 16.1607C72.0454 16.1607 70.0766 18.2308 70.0766 20.991C70.0766 23.6526 72.0454 25.7227 74.9001 25.7227C77.558 25.7227 79.4283 23.6526 79.4283 20.991Z" fill="#133459"></path></g><defs><clipPath id="clip0_2323_11771"><rect width="85.7209" height="40.0031" fill="white" transform="translate(0 0.00390625)"></rect></clipPath></defs></svg>