<svg xmlns="http://www.w3.org/2000/svg" width="114" height="38" viewBox="0 0 114 38" fill="none"><g clip-path="url(#clip0_2323_11776)"><path d="M21.1864 31.7222H28.1065V9.42043H21.7732V23.3159L19.9353 21.5585V10.4817C19.9024 3.97268 20.6984 0.886719 20.6984 0.886719C18.5539 0.886719 17.4426 2.86938 17.194 3.45565C15.9902 3.5851 15.0035 4.26231 14.3429 5.57896C13.9696 6.32333 13.7833 7.04532 13.7167 7.39859C11.1795 7.96946 10.9595 12.3811 11.1265 13.1738L7.18632 9.42043H0.284815V31.7222H6.6174V18.2445L9.67911 21.0765C9.95781 21.8887 10.228 22.214 10.228 22.214L9.02565 21.208C8.80851 23.3956 9.43905 24.5178 10.0237 25.3468L8.56277 24.1372C8.44882 26.3095 9.52291 27.6422 10.1814 28.2145L8.24894 27.2889C8.11636 28.5894 9.45269 30.4937 10.228 30.8611L8.59786 30.6239C8.95256 32.4162 10.228 33.0606 10.228 33.0606C10.228 33.0606 7.44357 33.0039 6.16244 33.0039C2.59917 33.0039 0.259766 33.3334 0.259766 33.3334C0.259766 33.3334 1.83679 34.8642 3.85164 34.9348L2.05748 36.0157C3.36011 36.4305 4.599 36.2864 4.599 36.2864L3.56217 37.4967C3.56217 37.4967 6.82519 36.2724 8.20165 36.3655C9.29861 36.4397 14.4153 38.3874 17.851 38.3874C20.156 38.3874 21.827 37.5261 23.1683 36.8335C23.9872 36.4117 24.6937 36.0696 25.3895 35.9653C26.6348 35.7785 27.1958 36.2214 27.1958 36.2214C27.3226 35.71 27.7081 34.4185 25.6882 34.1023C25.6094 33.7511 25.2598 33.2921 24.7367 33.2152C23.6519 33.0543 19.0862 32.7108 18.953 32.7031C18.5611 32.68 17.2441 32.4316 18.455 30.7379C18.5467 30.6099 19.1586 29.8571 19.1586 29.8571L21.1864 31.7222ZM21.0237 33.3887C22.5227 33.5014 23.5874 33.5993 24.6572 33.7301C25.0613 33.7798 25.2218 34.2359 25.2755 34.45C24.7632 34.3262 23.9536 34.2933 23.9536 34.2933L23.9092 34.7669C23.9092 34.7669 24.6013 34.5738 25.3594 34.5654C25.3594 34.5654 26.9149 34.5584 26.8404 35.584C26.417 35.2972 25.5485 35.4113 25.3035 35.4511C24.5217 35.5764 23.7794 35.9296 22.9196 36.3732C22.1322 36.7789 21.2831 37.2155 20.2864 37.5107C20.7228 37.0966 21.8642 35.8674 21.8642 35.8674L20.343 35.3497L21.5883 34.2891L19.6752 33.2782C20.1524 33.3173 20.6046 33.3579 21.0237 33.3887ZM18.8125 29.394C18.1075 30.1922 17.1932 31.327 17.391 32.1546L17.3917 32.1553C17.5386 32.8409 18.5288 33.2628 18.5288 33.2628L20.6583 34.3898L19.2762 35.5672L20.9342 36.0779C20.9342 36.0779 19.4144 37.5996 19.2396 37.7521C18.7808 37.828 18.3163 37.8661 17.851 37.8661C14.3329 37.8661 9.44048 35.8387 8.23031 35.824C6.77073 35.8065 4.93788 36.6286 4.93788 36.6286L5.89446 35.6162C5.89446 35.6162 4.64199 35.8639 3.42746 35.7639L5.13994 34.6277C3.63525 34.5801 2.3176 34.1429 1.6971 33.714C1.6971 33.714 4.46641 33.5 8.2224 33.5391C9.74216 33.5552 12.318 33.7035 12.318 33.7035C11.0448 33.1753 9.85394 32.4792 9.34303 31.2556L11.772 31.6131C10.7525 31.0038 9.27213 29.4779 8.99911 28.2963L11.7069 29.2233C11.2268 28.714 9.55157 27.1832 9.25063 25.4084L11.3937 26.725C10.832 26.1724 9.31007 23.2396 9.56877 22.3819L11.5664 23.6936C10.6098 22.5386 9.49064 19.4793 10.2523 18.2879C10.8599 20.5938 12.212 21.4333 12.212 21.4333C11.3242 20.1775 9.4097 15.7308 11.2383 13.7727C11.7183 18.2074 13.6493 19.7045 13.6493 19.7045C12.0508 17.2175 10.2301 9.58346 13.6264 8.03942C12.9614 12.9443 14.5664 15.6105 14.5664 15.6105C13.5533 11.0918 13.587 4.68834 17.0255 4.10348C15.3367 8.93071 16.5369 12.654 16.5369 12.654C16.2904 1.36177 20.0163 1.55274 20.0163 1.55274C20.0163 1.55274 19.4037 4.75903 19.4037 10.4734V26.9755C19.4037 28.1151 19.3034 28.7945 18.8125 29.394Z" fill="#1C416B"></path><path d="M21.0454 33.3924C22.5443 33.505 23.6091 33.603 24.6781 33.7345C25.083 33.7841 25.2435 34.241 25.2965 34.4551C24.7849 34.3312 23.9752 34.2976 23.9752 34.2976L23.9308 34.7727C23.9308 34.7727 24.623 34.5789 25.381 34.5705C25.381 34.5705 26.9366 34.5635 26.862 35.5905C26.4379 35.303 25.5694 35.4177 25.3244 35.4576C24.5434 35.5828 23.8004 35.9361 22.9406 36.3804C22.1538 36.7868 21.3047 37.2241 20.3081 37.52C20.7444 37.1052 21.8859 35.8739 21.8859 35.8739L20.3647 35.3562L21.61 34.2942L19.6962 33.2818C20.1741 33.321 20.6255 33.3616 21.0454 33.3924ZM18.8335 29.3928C18.1291 30.1917 17.2142 31.3279 17.4126 32.1569V32.1576C17.5595 32.8439 18.5504 33.2664 18.5504 33.2664L20.6799 34.3949L19.2978 35.5737L20.9558 36.0851C20.9558 36.0851 19.4354 37.6089 19.2612 37.7614C18.827 37.8327 18.367 37.8754 17.8726 37.8754C14.3538 37.8754 9.46144 35.8459 8.25121 35.8305C6.79238 35.8137 4.95884 36.6357 4.95884 36.6357L5.91611 35.6227C5.91611 35.6227 4.66364 35.8711 3.44842 35.7703L5.1609 34.6328C3.6569 34.5852 2.33925 34.1473 1.71875 33.7184C1.71875 33.7184 4.48806 33.5036 8.24405 33.5428C9.76307 33.5589 12.3397 33.7079 12.3397 33.7079C11.0664 33.179 9.87559 32.4815 9.36468 31.2572L11.793 31.6147C10.7734 31.0039 9.29378 29.476 9.02075 28.293L11.7285 29.2221C11.2477 28.7114 9.57322 27.1785 9.27228 25.4023L11.4154 26.7203C10.8536 26.1669 9.33103 23.23 9.59041 22.3716L11.5881 23.6847C10.6315 22.5283 9.51228 19.4655 10.274 18.272C10.8808 20.5806 12.2329 21.4215 12.2329 21.4215C11.3459 20.1643 9.43135 15.7114 11.2592 13.7511C11.74 18.1915 13.6703 19.6907 13.6703 19.6907C12.0724 17.2008 10.2517 9.55635 13.648 8.01091C12.9824 12.9221 14.5881 15.5918 14.5881 15.5918C13.5749 11.0668 13.6079 4.65563 17.0472 4.07009C15.3584 8.90359 16.5578 12.6311 16.5578 12.6311C16.312 1.32487 20.0372 1.51583 20.0372 1.51583C20.0372 1.51583 19.4253 4.72559 19.4253 10.4476V26.9708C19.4253 28.1118 19.325 28.7925 18.8335 29.3928Z" fill="#133459"></path><path d="M60.3119 18.7643C61.0227 18.7643 61.61 19.2948 61.61 19.9496C61.61 20.6045 61.0227 21.135 60.3119 21.135C59.6024 21.135 59.0151 20.6045 59.0138 19.9496C59.0138 19.2948 59.6024 18.7643 60.3119 18.7643ZM93.4933 18.7645C94.2041 18.7645 94.7913 19.295 94.7913 19.9499C94.7913 20.6047 94.2041 21.1352 93.4933 21.1352C92.7863 21.1352 92.1952 20.6047 92.1952 19.9499C92.1952 19.295 92.7863 18.7645 93.4933 18.7645ZM49.2981 26.1972H49.1031C48.7643 26.1972 47.9452 26.2366 47.3274 26.4002C46.9007 26.5135 46.5452 26.7843 46.5452 27.1609C46.5452 27.6927 47.0955 27.9254 47.5911 27.9254C48.6598 27.9254 49.2981 27.2717 49.2981 26.4224V26.1972ZM51.3731 24.9613V29.4H49.3618V28.6541C48.8356 29.2006 48.1898 29.5465 47.1821 29.5735C45.5975 29.6178 44.3491 28.6848 44.3491 27.2889C44.3491 25.141 46.7172 24.6684 49.0369 24.6695H49.2981C49.2981 24.0751 49.0255 23.5261 47.8012 23.5261C46.9695 23.5261 46.2637 23.7833 45.7618 24.2313L44.5453 23.0571C45.3835 22.2607 46.5605 21.8533 47.8598 21.8533C49.1464 21.8533 49.8535 22.0293 50.5732 22.6534C51.2522 23.2418 51.3731 24.3471 51.3731 24.9613ZM55.8042 22.0288V19.7048H53.6373V22.0288H52.1432V23.7816H53.6373V26.9106C53.6373 27.9582 53.8208 28.581 54.2527 28.9983C54.6603 29.3897 55.2794 29.5743 56.1978 29.5743C56.78 29.5743 57.3672 29.4624 57.8232 29.2728V27.6147C57.5494 27.7033 57.1494 27.7624 56.6501 27.7624C55.9775 27.7624 55.8042 27.4067 55.8042 26.8085V23.7816H57.8232V22.0288H55.8042ZM110.82 24.8881C110.725 24.0855 110.267 23.4971 109.184 23.5181C108.265 23.5378 107.638 24.1385 107.54 24.8881H110.82ZM113.126 25.8457V26.4021H107.536C107.573 27.1554 108.453 27.8029 109.49 27.8398C110.46 27.878 110.989 27.5087 111.489 26.9844L112.867 27.958C112.03 28.9809 110.996 29.5742 109.53 29.5742C107.206 29.5742 105.308 28.1795 105.308 25.7152C105.308 23.7446 106.578 21.8539 109.258 21.8539C112.017 21.8539 113.126 23.923 113.126 25.8457ZM40.6552 18.7031V25.9656L35.9611 18.7031H33.0273V29.401H35.4133V21.8937L40.2374 29.401H43.0399V18.7031H40.6552ZM89.3421 22.0292L88.1128 26.6082L86.8823 22.0292H84.6084L83.4212 26.5971L82.1906 22.0292H79.7932L82.2365 29.4011H84.4122L85.7205 24.7667L87.1918 29.401H89.207L91.6414 22.0291L89.3421 22.0292ZM61.4092 22.0305H59.2168V29.4012H61.4092V22.0305ZM94.5932 22.0305H92.3983V29.4012H94.5932V22.0305ZM78.4413 22.53C77.9802 22.0672 77.4069 21.8493 76.5572 21.8555C75.719 21.8604 74.7471 22.2543 74.2872 22.8315V22.0314H72.1853V29.401H74.3789V25.3956C74.3789 24.8749 74.5267 24.4896 74.7815 24.2176C75.0031 23.9763 75.3267 23.8237 75.7368 23.8003C76.2337 23.772 76.4974 23.98 76.6859 24.2114C76.9215 24.4982 76.9852 24.9992 76.9852 25.6738V29.401H79.1776V24.7985C79.1776 23.8975 79.0578 23.1504 78.4413 22.53ZM101.922 25.7158C101.922 24.7238 101.257 23.7217 99.9821 23.7217C98.712 23.7217 98.0471 24.7237 98.0471 25.7158C98.0471 26.7031 98.712 27.7076 99.9821 27.7076C101.259 27.7076 101.922 26.7031 101.922 25.7158ZM104.056 18.7033V29.4012H101.988V28.5814C101.506 29.1194 100.716 29.5748 99.6204 29.5748C98.5668 29.5748 97.6522 29.2326 96.9771 28.5791C96.2523 27.8799 95.851 26.8607 95.851 25.7158C95.851 23.4768 97.4038 21.8545 99.549 21.8545C100.485 21.8545 101.264 22.1327 101.86 22.6767V18.7033H104.056ZM66.8004 23.7218C65.5278 23.7218 64.8654 24.7238 64.8654 25.7135C64.8654 26.7043 65.5278 27.7063 66.8004 27.7063C68.0691 27.7063 68.7354 26.7043 68.7354 25.7135C68.7354 24.7238 68.0691 23.7218 66.8004 23.7218ZM70.9277 25.7135C70.9277 27.9513 69.1952 29.5748 66.8004 29.5748C64.4068 29.5748 62.6731 27.9513 62.6731 25.7135C62.6731 23.4756 64.4068 21.8533 66.8004 21.8533C69.1952 21.8533 70.9277 23.4756 70.9277 25.7135Z" fill="#133459"></path></g><defs><clipPath id="clip0_2323_11776"><rect width="112.866" height="37.1457" fill="white" transform="translate(0.259766 0.431641)"></rect></clipPath></defs></svg>