<svg xmlns="http://www.w3.org/2000/svg" width="135" height="36" viewBox="0 0 135 36" fill="none"><g clip-path="url(#clip0_2323_11709)"><mask id="mask0_2323_11709" style="mask-type:luminance" maskUnits="userSpaceOnUse" x="-11" y="-8" width="155" height="52"><path d="M143.722 -7.82422H-10.5918V43.8724H143.722V-7.82422Z" fill="white"></path></mask><g mask="url(#mask0_2323_11709)"><path d="M15.6055 10.1016C13.1758 10.1016 11.767 11.2041 11.0933 11.9391C11.0116 11.2858 10.5828 10.4487 8.9086 10.4487H5.25391V14.2463H6.74437C6.98938 14.2463 7.07105 14.3279 7.07105 14.5729V31.9481H11.3995V25.4554V24.9653C12.0733 25.5779 13.3596 26.4354 15.3809 26.4354C19.6073 26.4354 22.5678 23.087 22.5678 18.2685C22.5882 13.3887 19.7706 10.1016 15.6055 10.1016ZM14.7275 22.6582C12.4 22.6582 11.3383 20.4327 11.3383 18.3501C11.3383 15.0834 13.1146 13.9196 14.7888 13.9196C16.8305 13.9196 18.2189 15.6755 18.2189 18.3093C18.1985 21.3311 16.4426 22.6582 14.7275 22.6582Z" fill="#133459"></path></g><mask id="mask1_2323_11709" style="mask-type:luminance" maskUnits="userSpaceOnUse" x="-11" y="-8" width="155" height="52"><path d="M143.722 -7.82422H-10.5918V43.8724H143.722V-7.82422Z" fill="white"></path></mask><g mask="url(#mask1_2323_11709)"><path d="M28.4063 21.9841V12.7759C28.4063 11.2242 27.6508 10.4688 26.1195 10.4688H22.2402V14.2664H23.7307C23.9757 14.2664 24.0574 14.348 24.0574 14.593V23.7604C24.0574 25.3325 24.7924 26.0676 26.3441 26.0676H30.2234V22.2904H28.7329C28.5083 22.3108 28.4063 22.2087 28.4063 21.9841Z" fill="#133459"></path></g><mask id="mask2_2323_11709" style="mask-type:luminance" maskUnits="userSpaceOnUse" x="-11" y="-8" width="155" height="52"><path d="M143.722 -7.82422H-10.5918V43.8724H143.722V-7.82422Z" fill="white"></path></mask><g mask="url(#mask2_2323_11709)"><path d="M39.7207 10.1016C37.291 10.1016 35.8823 11.2041 35.1881 11.9391C35.1064 11.2858 34.6776 10.4487 33.0034 10.4487H29.3691V14.2463H30.8596C31.1046 14.2463 31.1863 14.3279 31.1863 14.5729V31.9481H35.5556V25.4554V24.9653C36.2294 25.5779 37.5361 26.4354 39.537 26.4354C43.7633 26.4354 46.7238 23.087 46.7238 18.2685C46.7238 13.3887 43.9063 10.1016 39.7207 10.1016ZM38.8428 22.6582C36.5152 22.6582 35.4535 20.4327 35.4535 18.3501C35.4535 15.0834 37.2298 13.9196 38.904 13.9196C40.9457 13.9196 42.3341 15.6755 42.3341 18.3093C42.3341 21.3311 40.5782 22.6582 38.8428 22.6582Z" fill="#133459"></path></g><mask id="mask3_2323_11709" style="mask-type:luminance" maskUnits="userSpaceOnUse" x="-11" y="-8" width="155" height="52"><path d="M143.722 -7.82422H-10.5918V43.8724H143.722V-7.82422Z" fill="white"></path></mask><g mask="url(#mask3_2323_11709)"><path d="M54.8692 10.1016C50.1936 10.1016 46.9473 13.4704 46.9473 18.2685C46.9473 23.0053 50.459 26.4354 55.3184 26.4354C59.1364 26.4354 61.464 24.1691 61.566 24.0874L61.7498 23.9241L59.8714 20.8002L59.5856 21.0656C59.5652 21.0861 57.8501 22.6582 55.5838 22.6582C53.4196 22.6582 51.827 21.3311 51.4391 19.2485H61.709L61.7294 18.9627C61.7294 18.9218 61.8315 18.0031 61.8315 17.5539C61.8315 13.1029 59.0343 10.1016 54.8692 10.1016ZM51.6024 16.0226C52.072 14.4913 53.2562 13.6133 54.8692 13.6133C56.1759 13.6133 57.1763 14.6138 57.3601 16.0226H51.6024Z" fill="#133459"></path></g><mask id="mask4_2323_11709" style="mask-type:luminance" maskUnits="userSpaceOnUse" x="-11" y="-8" width="155" height="52"><path d="M143.722 -7.82422H-10.5918V43.8724H143.722V-7.82422Z" fill="white"></path></mask><g mask="url(#mask4_2323_11709)"><path d="M77.5931 21.9834V6.89504C77.5931 5.34333 76.8377 4.58789 75.286 4.58789H71.4067V8.38551H72.8972C73.1422 8.38551 73.2238 8.46718 73.2238 8.71218V11.4481C72.5909 10.8764 71.3454 10.121 69.1812 10.121C64.9752 10.121 62.0352 13.4898 62.0352 18.2879C62.0352 23.1676 64.8527 26.4548 69.0179 26.4548C71.4067 26.4548 72.7951 25.3523 73.4688 24.5764C73.5505 25.2502 73.9997 26.1077 75.6127 26.1077H79.3694V22.3305H77.9198C77.6748 22.3101 77.5931 22.208 77.5931 21.9834ZM69.855 22.6572C67.7928 22.6572 66.4657 20.9421 66.4657 18.2675C66.4657 15.6745 67.8541 13.939 69.9162 13.939C72.2642 13.939 73.3055 16.1032 73.3055 18.2471C73.3055 21.5138 71.5292 22.6572 69.855 22.6572Z" fill="#133459"></path></g><mask id="mask5_2323_11709" style="mask-type:luminance" maskUnits="userSpaceOnUse" x="-11" y="-8" width="155" height="52"><path d="M143.722 -7.82422H-10.5918V43.8724H143.722V-7.82422Z" fill="white"></path></mask><g mask="url(#mask5_2323_11709)"><path d="M89.0248 10.2461C87.2281 10.2461 85.5539 11.2874 84.5739 12.9412V12.5941C84.5739 11.1853 83.798 10.4503 82.2667 10.4503H78.5508V14.2479H80.0412C80.2862 14.2479 80.3679 14.3296 80.3679 14.5746V26.0695H84.6964V19.8218C84.6964 19.0051 84.7985 18.2088 85.0026 17.4738C85.656 15.3096 87.3915 14.5541 88.7798 14.5541C89.2699 14.5541 89.6374 14.6154 89.6374 14.6154L90.0049 14.6766V10.3686L89.7395 10.3278C89.7395 10.3073 89.3719 10.2461 89.0248 10.2461Z" fill="#133459"></path></g><mask id="mask6_2323_11709" style="mask-type:luminance" maskUnits="userSpaceOnUse" x="-11" y="-8" width="155" height="52"><path d="M143.722 -7.82422H-10.5918V43.8724H143.722V-7.82422Z" fill="white"></path></mask><g mask="url(#mask6_2323_11709)"><path d="M96.1716 21.9841V12.7759C96.1716 11.2242 95.4161 10.4688 93.8848 10.4688H90.373V14.2664H91.496C91.741 14.2664 91.8227 14.348 91.8227 14.593V23.7604C91.8227 25.3325 92.5577 26.0676 94.1094 26.0676H97.9887V22.2904H96.4982C96.2736 22.3108 96.1716 22.2087 96.1716 21.9841Z" fill="#133459"></path></g><mask id="mask7_2323_11709" style="mask-type:luminance" maskUnits="userSpaceOnUse" x="-11" y="-8" width="155" height="52"><path d="M143.722 -7.82422H-10.5918V43.8724H143.722V-7.82422Z" fill="white"></path></mask><g mask="url(#mask7_2323_11709)"><path d="M112.527 10.4688H110.22C108.872 10.4688 108.137 10.9383 107.708 12.0817L104.891 19.9628C104.789 20.2486 104.707 20.5753 104.625 20.902C104.544 20.5957 104.442 20.2486 104.34 19.9628L101.522 12.0817C101.093 10.9179 100.399 10.4688 99.0106 10.4688H96.5605V14.2664H97.1935C97.5406 14.2664 97.6427 14.3889 97.7243 14.593L102.094 26.088H106.973L111.343 14.593C111.424 14.3889 111.526 14.2664 111.874 14.2664H112.547V10.4688H112.527Z" fill="#133459"></path></g><mask id="mask8_2323_11709" style="mask-type:luminance" maskUnits="userSpaceOnUse" x="-11" y="-8" width="155" height="52"><path d="M143.722 -7.82422H-10.5918V43.8724H143.722V-7.82422Z" fill="white"></path></mask><g mask="url(#mask8_2323_11709)"><path d="M120 10.1016C115.324 10.1016 112.078 13.4704 112.078 18.2685C112.078 23.0053 115.59 26.4354 120.449 26.4354C124.267 26.4354 126.595 24.1691 126.697 24.0874L126.881 23.9241L125.002 20.8002L124.716 21.0656C124.696 21.0861 122.981 22.6582 120.735 22.6582C118.571 22.6582 116.978 21.3311 116.59 19.2485H126.86L126.881 18.9627C126.881 18.9218 126.962 18.0031 126.962 17.5539C126.962 13.1029 124.165 10.1016 120 10.1016ZM116.733 16.0226C117.203 14.4913 118.387 13.6133 120 13.6133C121.307 13.6133 122.307 14.6138 122.491 16.0226H116.733Z" fill="#133459"></path></g><mask id="mask9_2323_11709" style="mask-type:luminance" maskUnits="userSpaceOnUse" x="-11" y="-8" width="155" height="52"><path d="M143.722 -7.82422H-10.5918V43.8724H143.722V-7.82422Z" fill="white"></path></mask><g mask="url(#mask9_2323_11709)"><path d="M28.1011 4.56836H24.2422V8.6314H28.1011V4.56836Z" fill="#133459"></path></g><mask id="mask10_2323_11709" style="mask-type:luminance" maskUnits="userSpaceOnUse" x="-11" y="-8" width="155" height="52"><path d="M143.722 -7.82422H-10.5918V43.8724H143.722V-7.82422Z" fill="white"></path></mask><g mask="url(#mask10_2323_11709)"><path d="M95.8843 4.56836H92.0254V8.6314H95.8843V4.56836Z" fill="#133459"></path></g><mask id="mask11_2323_11709" style="mask-type:luminance" maskUnits="userSpaceOnUse" x="-11" y="-8" width="155" height="52"><path d="M143.722 -7.82422H-10.5918V43.8724H143.722V-7.82422Z" fill="white"></path></mask><g mask="url(#mask11_2323_11709)"><path d="M126.881 10.4691H127.453V12.0208H127.881V10.4691H128.453V10.1016H126.881V10.4691Z" fill="#133459"></path></g><mask id="mask12_2323_11709" style="mask-type:luminance" maskUnits="userSpaceOnUse" x="-11" y="-8" width="155" height="52"><path d="M143.722 -7.82422H-10.5918V43.8724H143.722V-7.82422Z" fill="white"></path></mask><g mask="url(#mask12_2323_11709)"><path d="M130.146 10.1016L129.717 11.4287L129.268 10.1016H128.676V12.0208H129.064V10.6732H129.084L129.554 12.0208H129.88L130.35 10.6732V12.0208H130.738V10.1016H130.146Z" fill="#133459"></path></g></g><defs><clipPath id="clip0_2323_11709"><rect width="134.296" height="35.717" fill="white" transform="translate(0.505859 0.142578)"></rect></clipPath></defs></svg>