<svg xmlns="http://www.w3.org/2000/svg" width="174" height="31" viewBox="0 0 174 31" fill="none"><g clip-path="url(#clip0_2323_11994)"><path d="M36.5741 27.367V9.96128C36.5741 9.85416 36.1997 9.56167 36.4534 9.23003C36.9731 8.54822 40.7908 9.24445 41.7626 9.06318C42.4766 9.29801 41.8465 11.4938 42.2004 12.1241C42.9308 11.1519 43.4832 9.99423 44.5737 9.36392C45.0893 9.0673 48.0334 8.08476 48.0334 8.93341V13.6711C48.0334 14.2046 45.5455 14.3467 44.9154 14.6515C43.9395 15.1232 43.0311 16.2974 42.6382 17.3026C42.5482 17.5291 42.1002 18.9381 42.1002 19.0267V27.266C42.1002 27.2887 41.8158 27.575 41.7933 27.575H37.2922C37.1818 27.575 36.838 27.2557 36.5762 27.369L36.5741 27.367Z" fill="#133459"></path><path d="M88.6448 2.03125H93.1458C93.1826 2.03125 93.6573 2.50913 93.6573 2.54621V27.0584C93.6573 27.0954 93.1826 27.5733 93.1458 27.5733H88.6448C88.6223 27.5733 88.3379 27.287 88.3379 27.2643V2.34023C88.3379 2.28461 88.5773 2.1363 88.6448 2.03125Z" fill="#133459"></path><path opacity="0.5" d="M139.003 9.68071C139.55 9.52417 141.485 9.48091 141.827 10.0762L147.567 24.0667L153.505 9.86198C153.834 9.47679 156.443 9.5427 156.463 9.95879C155.119 11.8394 149.548 27.0411 148.697 27.4737C148.21 27.7208 146.309 27.7682 146.062 27.0287L138.75 10.0783C138.596 9.90936 138.86 9.72191 139.005 9.68071H139.003Z" fill="#133459"></path><path opacity="0.5" d="M110.64 15.6249C109.013 19.555 107.283 23.444 105.623 27.3619C105.247 27.8027 103.827 27.4834 103.215 27.5761L95.498 9.96647C95.5799 9.5133 98.1782 9.503 98.4667 9.85729L103.94 23.5038L104.602 23.8684L110.231 9.85935C110.566 9.50094 113.23 9.59569 113.195 9.83876L110.64 15.6269V15.6249Z" fill="#133459"></path><path opacity="0.5" d="M134.31 2.07428C134.828 1.92185 136.258 1.89919 136.52 2.44299L136.63 26.6565C136.763 27.913 133.913 27.9191 133.756 27.0602L133.858 2.44299C133.962 2.26584 134.11 2.13195 134.308 2.07428H134.31Z" fill="#133459"></path><path d="M82.409 10.3679C79.2992 7.92286 72.7931 8.4646 69.5258 10.4008L70.7554 14.1704C73.1716 13.6204 77.6195 12.2506 79.3381 14.6977C79.6429 15.1303 80.1667 16.2076 79.8577 16.6628C79.5999 17.0418 77.8445 16.3085 77.1837 16.2467C73.8284 15.9357 69.178 16.4568 68.1387 20.3169C66.6676 25.7817 71.8602 29.0651 76.7193 27.514C77.6849 27.2051 79.2562 25.9959 79.6388 25.9218C80.3815 25.7776 79.2521 27.2875 80.2546 27.5738C80.9175 27.7633 83.614 27.5738 84.5511 27.5738C84.5736 27.5738 84.858 27.2875 84.858 27.2648V14.4938C84.858 13.4453 83.2724 11.0476 82.4069 10.37L82.409 10.3679ZM76.5699 24.2718C71.6495 24.6344 71.8479 19.7381 75.8027 19.1778C76.662 19.0563 79.6552 19.322 80.05 20.1563C81.0178 22.2017 78.3355 24.1421 76.5699 24.2718Z" fill="#133459"></path><path opacity="0.5" d="M172.458 13.8416C170.08 8.83208 163.981 7.74242 159.758 11.2133C155.309 14.8715 155.595 22.9317 160.288 26.2996C163.255 28.4274 166.663 28.5345 169.904 26.9917C170.667 26.6271 173.037 25.0657 172.437 24.1635C171.144 22.219 170.393 23.9843 169.055 24.6929C166.215 26.1966 162.392 25.7661 160.509 22.9873C160.172 22.4888 158.811 19.7843 159.64 19.5371H173.348C174.567 19.5371 172.738 14.4266 172.46 13.8396L172.458 13.8416ZM170.481 17.4772H159.331C159.75 10.7601 168.476 8.98451 170.432 15.8788C170.518 16.1837 171.007 17.4772 170.481 17.4772Z" fill="#133459"></path><path opacity="0.5" d="M114.116 14.1843C112.426 17.1876 112.661 21.0271 114.525 23.8656C116.061 25.9913 118.087 27.3076 120.663 27.8823C125.495 28.9616 131.068 24.8481 131.504 19.8448C132.478 8.64539 118.287 5.48146 114.118 14.1843H114.116ZM122.402 25.532C113.88 25.6247 113.487 11.8649 122.058 11.5559C130.604 11.249 131.222 25.4352 122.402 25.532Z" fill="#133459"></path><path d="M29.6197 30.0443H1.48819C1.28155 30.0443 0.671861 29.0371 0.768019 28.7096L0.878499 1.41868C1.39612 0.518529 1.90965 1.01701 2.70756 1.01289C11.4416 0.957276 20.1859 1.12412 28.9138 0.889302L29.636 1.29509L29.6197 30.0443Z" fill="#225185"></path><path d="M17.7525 12.5353C18.2742 12.3499 20.5472 12.1254 20.7211 11.9194C21.5293 10.9677 20.5513 8.23227 21.1262 7.17969C23.6939 10.2035 26.6727 12.8587 29.4143 15.726V29.6299H16.4226C14.8411 27.8585 12.9998 26.3383 11.3119 24.6822C11.1114 24.4844 10.9273 24.4144 11.0009 24.0684H15.502V16.9619C15.502 15.6868 16.5986 13.6229 17.5479 12.7392C17.2799 12.4426 17.3965 12.3314 17.7525 12.5332V12.5353Z" fill="#133459"></path><path d="M17.5499 12.7416C16.3367 13.0197 15.2994 15.4771 15.2994 16.5524V23.8648H10.5938V7.69502C10.5938 7.62705 10.8638 7.38193 10.7983 7.18006H15.2994V10.0638C15.5469 10.0329 15.7372 10.2019 15.9152 9.92172C16.1607 9.53447 16.2037 9.13485 16.6292 8.62195C17.7013 7.32219 18.9186 6.75573 20.6208 6.97614V11.7138C20.6208 11.8662 18.6383 11.8168 17.7565 12.5377C17.6747 12.6057 17.6236 12.6778 17.5519 12.7437L17.5499 12.7416Z" fill="#FEFCFC"></path><path d="M66.8458 16.9771C65.5875 6.29267 51.5198 5.26069 48.5409 15.2097C46.0183 23.6324 54.1754 30.9346 62.1299 27.4493C63.0404 27.0497 66.2688 25.0867 65.5855 23.9064C64.8653 23.6901 63.3186 21.7477 62.8255 21.622C62.3366 21.4964 61.3607 22.5407 60.8001 22.8147C58.2222 24.0815 54.7094 23.5377 54.1713 20.3635H66.3445C67.0422 20.3635 66.9072 17.5106 66.8458 16.975V16.9771ZM61.0251 16.8617H53.8644C53.1504 16.6537 54.2061 14.8143 54.4966 14.4085C55.5134 12.9789 57.0499 12.6514 58.7276 12.9954C60.483 13.3559 62.0399 16.8617 61.0251 16.8617Z" fill="#133459"></path></g><defs><clipPath id="clip0_2323_11994"><rect width="173.003" height="29.1653" fill="white" transform="translate(0.757812 0.878906)"></rect></clipPath></defs></svg>