<svg xmlns="http://www.w3.org/2000/svg" width="135" height="26" viewBox="0 0 135 26" fill="none"><g clip-path="url(#clip0_2020_2531)"><path d="M15.2168 3.42486C16.4023 2.216 18.0415 1.46279 19.8566 1.46279C22.2738 1.46279 24.3853 2.79253 25.5059 4.7639C26.4783 4.33615 27.5618 4.09438 28.7009 4.09438C33.0629 4.09438 36.5914 7.60936 36.5914 11.9426C36.5914 16.2759 33.0536 19.7909 28.7009 19.7909C28.1638 19.7909 27.6452 19.7351 27.1451 19.6421C26.1541 21.381 24.2742 22.5527 22.1071 22.5527C21.1995 22.5527 20.3475 22.3481 19.5881 21.9761C18.5879 24.3009 16.2541 25.9282 13.5313 25.9282C10.8086 25.9282 8.28032 24.1614 7.35422 21.6786C6.94673 21.7623 6.52998 21.8088 6.09472 21.8088C2.72369 21.8088 -0.0175781 19.0842 -0.0175781 15.718C-0.0175781 13.4677 1.21414 11.4963 3.03857 10.4455C2.65887 9.59002 2.45512 8.65084 2.45512 7.66515C2.45512 3.79681 5.64092 0.663086 9.56761 0.663086C11.8736 0.663086 13.9203 1.75105 15.2168 3.42486Z" fill="#133459"></path><path d="M42.3429 17.4748C42.2688 17.6794 42.3707 17.7166 42.3985 17.7538C42.63 17.9211 42.8615 18.042 43.0931 18.1722C44.334 18.8324 45.5102 19.0277 46.7419 19.0277C49.2424 19.0277 50.7982 17.6887 50.7982 15.5406V15.5034C50.7982 13.5135 49.0479 12.7881 47.3994 12.2674L47.1864 12.2023C45.9455 11.7932 44.8712 11.4491 44.8712 10.6308V10.5936C44.8712 9.89619 45.5009 9.37545 46.4641 9.37545C47.5476 9.37545 48.8164 9.7381 49.6406 10.1937C49.6406 10.1937 49.8814 10.3518 49.974 10.1194C50.0203 9.98917 50.4371 8.86401 50.4834 8.74312C50.5297 8.61294 50.4463 8.51065 50.363 8.46416C49.4183 7.88763 48.1218 7.49707 46.7789 7.49707H46.5289C44.2414 7.49707 42.6393 8.88261 42.6393 10.8726V10.9098C42.6393 13.002 44.4081 13.6901 46.0473 14.1644L46.3159 14.2481C47.5198 14.62 48.5571 14.9362 48.5571 15.7824V15.8196C48.5571 16.6007 47.881 17.1772 46.7975 17.1772C46.3807 17.1772 45.0286 17.1679 43.5746 16.2473C43.3987 16.145 43.2968 16.0707 43.1671 15.987C43.093 15.9405 42.9171 15.8661 42.843 16.0985L42.3522 17.4748H42.3429Z" fill="#133459"></path><path d="M78.9425 17.4748C78.8684 17.6794 78.9703 17.7166 78.9981 17.7538C79.2296 17.9211 79.4611 18.042 79.6927 18.1722C80.9336 18.8324 82.1098 19.0277 83.3415 19.0277C85.842 19.0277 87.3978 17.6887 87.3978 15.5406V15.5034C87.3978 13.5135 85.6475 12.7881 83.999 12.2674L83.786 12.2023C82.5451 11.7932 81.4708 11.4491 81.4708 10.6308V10.5936C81.4708 9.89619 82.1005 9.37545 83.0637 9.37545C84.138 9.37545 85.416 9.7381 86.2402 10.1937C86.2402 10.1937 86.481 10.3518 86.5736 10.1194C86.6199 9.98917 87.0367 8.86401 87.083 8.74312C87.1293 8.61294 87.0459 8.51065 86.9626 8.46416C86.018 7.88763 84.7214 7.49707 83.3786 7.49707H83.1285C80.841 7.49707 79.2389 8.88261 79.2389 10.8726V10.9098C79.2389 13.002 81.0077 13.6901 82.6469 14.1644L82.9155 14.2481C84.1194 14.62 85.1567 14.9362 85.1567 15.7824V15.8196C85.1567 16.6007 84.4806 17.1772 83.3971 17.1772C82.9803 17.1772 81.6282 17.1679 80.1742 16.2473C79.9983 16.145 79.8964 16.0707 79.7667 15.987C79.7204 15.9591 79.5074 15.8754 79.4426 16.0985L78.9518 17.4748H78.9425Z" fill="#133459"></path><path d="M106.01 11.012C105.806 10.3146 105.482 9.70086 105.056 9.18943C104.63 8.67799 104.093 8.25954 103.454 7.96197C102.815 7.66441 102.065 7.51562 101.222 7.51562C100.379 7.51562 99.6198 7.66441 98.9808 7.96197C98.3418 8.25954 97.8046 8.66869 97.3786 9.18943C96.9526 9.70086 96.6378 10.3146 96.4247 11.012C96.221 11.7001 96.1191 12.4626 96.1191 13.2623C96.1191 14.0713 96.221 14.8246 96.4247 15.5127C96.6285 16.2101 96.9526 16.8238 97.3786 17.3353C97.8046 17.8467 98.3418 18.2558 98.9808 18.5534C99.6198 18.8417 100.37 18.9905 101.222 18.9905C102.065 18.9905 102.824 18.8417 103.454 18.5534C104.093 18.2651 104.63 17.856 105.056 17.3353C105.482 16.8238 105.797 16.2101 106.01 15.5127C106.214 14.8246 106.316 14.062 106.316 13.2623C106.325 12.4626 106.214 11.7094 106.01 11.012ZM103.926 13.2716C103.926 14.4898 103.704 15.4476 103.259 16.1264C102.824 16.7959 102.157 17.1214 101.222 17.1214C100.296 17.1214 99.6291 16.7959 99.1938 16.1264C98.7585 15.4476 98.5363 14.4898 98.5363 13.2716C98.5363 12.0535 98.7585 11.105 99.1938 10.4355C99.6291 9.76596 100.287 9.44979 101.222 9.44979C102.148 9.44979 102.815 9.77526 103.259 10.4355C103.704 11.105 103.926 12.0535 103.926 13.2716Z" fill="#133459"></path><path fill-rule="evenodd" clip-rule="evenodd" d="M123.147 16.7871C123.082 16.5826 122.878 16.6569 122.878 16.6569C122.572 16.7778 122.248 16.8801 121.906 16.9359C121.554 16.9917 121.174 17.0196 120.766 17.0196C119.757 17.0196 118.951 16.722 118.377 16.1176C117.803 15.5225 117.479 14.5554 117.479 13.2536C117.479 12.0633 117.766 11.1799 118.284 10.4918C118.794 9.81296 119.572 9.4689 120.6 9.4689C121.461 9.4689 122.119 9.57119 122.804 9.78506C122.804 9.78506 122.961 9.85946 123.045 9.64558C123.23 9.13414 123.36 8.77148 123.563 8.21355C123.619 8.05547 123.48 7.98108 123.434 7.96248C123.165 7.85089 122.526 7.68351 122.044 7.60912C121.591 7.54403 121.072 7.50684 120.479 7.50684C119.6 7.50684 118.822 7.65562 118.155 7.95318C117.488 8.25075 116.923 8.6599 116.479 9.18064C116.034 9.69208 115.691 10.3058 115.46 11.0032C115.228 11.6913 115.117 12.4538 115.117 13.2628C115.117 15.0017 115.58 16.4059 116.506 17.4381C117.432 18.4702 118.822 18.991 120.628 18.991C121.693 18.991 122.795 18.7771 123.582 18.4609C123.582 18.4609 123.73 18.3865 123.665 18.2099L123.147 16.7871Z" fill="#133459"></path><path fill-rule="evenodd" clip-rule="evenodd" d="M133.824 10.6224C133.648 9.95287 133.212 9.27405 132.916 8.96719C132.462 8.47435 132.018 8.13029 131.573 7.94431C130.999 7.69324 130.304 7.53516 129.545 7.53516C128.665 7.53516 127.859 7.68394 127.211 7.9908C126.563 8.29767 126.017 8.71611 125.581 9.23685C125.155 9.75759 124.831 10.3713 124.618 11.078C124.414 11.7754 124.312 12.538 124.312 13.3377C124.312 14.1374 124.424 14.9185 124.627 15.6066C124.84 16.2947 125.183 16.9084 125.655 17.4106C126.118 17.922 126.72 18.3126 127.433 18.5915C128.147 18.8612 129.008 19.01 129.999 19.01C132.036 19.01 133.12 18.545 133.555 18.3033C133.638 18.2568 133.703 18.1824 133.611 17.9685L133.148 16.6667C133.073 16.4714 132.879 16.5365 132.879 16.5365C132.37 16.7225 131.657 17.0665 129.98 17.0665C128.887 17.0665 128.072 16.7411 127.563 16.2296C127.045 15.7089 126.785 14.9464 126.748 13.8677H133.805C133.805 13.8677 133.99 13.8677 134.009 13.691C134.046 13.598 134.277 12.2125 133.824 10.6224ZM126.804 12.1009C126.906 11.4221 127.091 10.8642 127.369 10.4271C127.804 9.75759 128.461 9.39493 129.388 9.39493C130.314 9.39493 130.925 9.75759 131.369 10.4271C131.657 10.8642 131.786 11.45 131.832 12.1009H126.804Z" fill="#133459"></path><path fill-rule="evenodd" clip-rule="evenodd" d="M77.2479 10.6224C77.072 9.95287 76.6367 9.27405 76.3403 8.96719C75.8866 8.47435 75.442 8.13029 74.9975 7.94431C74.4233 7.69324 73.7287 7.53516 72.9693 7.53516C72.0895 7.53516 71.2838 7.68394 70.6355 7.9908C69.9873 8.29767 69.4409 8.71611 69.0056 9.23685C68.5796 9.75759 68.2555 10.3713 68.0517 11.078C67.848 11.7754 67.7461 12.538 67.7461 13.3377C67.7461 14.1374 67.8572 14.9185 68.0702 15.6066C68.2832 16.2947 68.6259 16.9084 69.0889 17.4106C69.552 17.922 70.154 18.3126 70.8671 18.5915C71.5802 18.8612 72.4414 19.01 73.4324 19.01C75.4698 19.01 76.5534 18.545 76.9886 18.3033C77.0627 18.2568 77.1368 18.1824 77.0442 17.9685L76.5811 16.6667C76.507 16.4714 76.3126 16.5365 76.3126 16.5365C75.8032 16.7225 75.0901 17.0665 73.4139 17.0665C72.3211 17.0665 71.5061 16.7411 70.9967 16.2296C70.4781 15.7089 70.2188 14.9464 70.1817 13.8677H77.2479C77.2479 13.8677 77.4332 13.8677 77.4517 13.691C77.4702 13.598 77.7017 12.2125 77.2479 10.6224ZM70.2281 12.1009C70.3299 11.4221 70.5059 10.8642 70.793 10.4271C71.2283 9.75759 71.8858 9.39493 72.8119 9.39493C73.738 9.39493 74.3492 9.75759 74.7938 10.4271C75.0808 10.8642 75.2105 11.45 75.2568 12.1009H70.2281Z" fill="#133459"></path><path d="M57.7643 11.7652C57.4773 11.7466 57.1068 11.7373 56.6623 11.7373C56.0603 11.7373 55.4676 11.8117 54.9212 11.9605C54.3748 12.1093 53.8747 12.3418 53.4487 12.6486C53.0227 12.9555 52.6708 13.346 52.4207 13.8203C52.1707 14.2852 52.041 14.8339 52.041 15.4569C52.041 16.0799 52.1521 16.6285 52.3652 17.0749C52.5782 17.5212 52.893 17.8932 53.2913 18.1815C53.6895 18.4697 54.1711 18.6836 54.7267 18.8045C55.2824 18.9347 55.9121 18.9998 56.5974 18.9998C57.3198 18.9998 58.0422 18.9347 58.746 18.8231C59.4406 18.7022 60.2926 18.5348 60.5241 18.479C60.7649 18.4232 61.0242 18.3488 61.0242 18.3488C61.2002 18.3023 61.1817 18.1164 61.1817 18.1164V11.6257C61.1817 10.203 60.802 9.15223 60.0518 8.49201C59.3109 7.84109 58.2181 7.51562 56.8012 7.51562C56.2733 7.51562 55.4213 7.59002 54.9027 7.69231C54.9027 7.69231 53.3653 7.98987 52.7263 8.49201C52.7263 8.49201 52.5874 8.5757 52.6615 8.77098L53.1616 10.1193C53.2264 10.296 53.3931 10.2402 53.3931 10.2402C53.3931 10.2402 53.4487 10.2216 53.5135 10.1844C54.8749 9.4405 56.5882 9.46839 56.5882 9.46839C57.3476 9.46839 57.9403 9.61718 58.3385 9.92404C58.7275 10.2216 58.922 10.668 58.922 11.6164V11.914C58.3293 11.821 57.7736 11.7745 57.7643 11.7652ZM54.9582 16.7494C54.6804 16.5263 54.6434 16.4705 54.5508 16.331C54.4118 16.1171 54.3378 15.8009 54.3378 15.4104C54.3378 14.7874 54.5415 14.341 54.9675 14.0434C54.9675 14.0434 55.5787 13.5134 57.0142 13.532C58.0236 13.5413 58.9312 13.6901 58.9312 13.6901V16.9168C58.9312 16.9168 58.0329 17.1121 57.0235 17.1772C55.588 17.2516 54.9582 16.7494 54.9582 16.7494Z" fill="#133459"></path><path fill-rule="evenodd" clip-rule="evenodd" d="M114.746 8.10179C114.801 7.94371 114.69 7.86002 114.635 7.84143C114.514 7.79493 113.912 7.67404 113.449 7.63685C112.56 7.58106 112.069 7.72984 111.625 7.92512C111.19 8.12039 110.699 8.44586 110.43 8.80851V7.94372C110.43 7.82283 110.347 7.72984 110.226 7.72984H108.421C108.3 7.72984 108.217 7.82283 108.217 7.94372V18.5259C108.217 18.6467 108.309 18.7397 108.43 18.7397H110.291C110.412 18.7397 110.504 18.6467 110.504 18.5259V13.2441C110.504 12.5374 110.588 11.8307 110.736 11.3843C110.884 10.9473 111.097 10.5939 111.356 10.3428C111.616 10.0918 111.903 9.91508 112.227 9.81279C112.551 9.7105 112.912 9.67331 113.181 9.67331C113.551 9.67331 113.959 9.7663 113.959 9.7663C114.088 9.7756 114.172 9.70121 114.218 9.57102C114.338 9.27346 114.681 8.29707 114.746 8.10179Z" fill="#133459"></path><path fill-rule="evenodd" clip-rule="evenodd" d="M97.325 3.20173C97.1027 3.12734 96.899 3.08085 96.6304 3.03435C96.3618 2.98786 96.0377 2.95996 95.6765 2.95996C94.3985 2.95996 93.389 3.32262 92.6852 4.03863C91.9814 4.74535 91.4998 5.83332 91.2682 7.25605L91.1849 7.73959H89.5827C89.5827 7.73959 89.3882 7.7303 89.3419 7.94417L89.0734 9.42269C89.0549 9.56218 89.1104 9.65516 89.3049 9.65516H90.8608L89.2771 18.5356C89.1475 19.2516 89.0086 19.8375 88.8604 20.2838C88.7029 20.7208 88.5548 21.0556 88.3695 21.2881C88.1936 21.5206 88.0176 21.6879 87.7213 21.7902C87.4805 21.8739 87.1934 21.9111 86.8878 21.9111C86.7211 21.9111 86.4895 21.8832 86.3228 21.846C86.1561 21.8181 86.0635 21.7716 85.9431 21.7158C85.9431 21.7158 85.7579 21.6414 85.6838 21.8274C85.6283 21.9762 85.2115 23.1293 85.156 23.2687C85.1096 23.4082 85.1745 23.5198 85.2671 23.5477C85.4708 23.6221 85.6283 23.6686 85.9154 23.7337C86.3136 23.8267 86.6377 23.836 86.9526 23.836C87.6009 23.836 88.1936 23.743 88.6844 23.5663C89.1845 23.3896 89.6105 23.0735 89.9902 22.655C90.3977 22.1994 90.6663 21.7158 90.9071 21.0649C91.1571 20.414 91.3609 19.6143 91.5276 18.6844L93.1205 9.64587H95.445C95.445 9.64587 95.6395 9.65517 95.6858 9.44129L95.9543 7.96276C95.9729 7.82328 95.9173 7.73029 95.7228 7.73029H93.4446C93.4539 7.6838 93.5557 6.8841 93.815 6.13089C93.9262 5.81472 94.1299 5.55435 94.3151 5.37767C94.4911 5.20099 94.6856 5.08011 94.9078 5.00572C95.1301 4.93133 95.3894 4.89413 95.6672 4.89413C95.8802 4.89413 96.084 4.92203 96.2507 4.94993C96.473 4.99642 96.5563 5.02432 96.6119 5.04292C96.8434 5.11731 96.8712 5.04291 96.9175 4.93133L97.4639 3.4435C97.5102 3.29472 97.3713 3.22963 97.325 3.20173Z" fill="#133459"></path><path fill-rule="evenodd" clip-rule="evenodd" d="M65.7626 18.5449C65.7626 18.6657 65.6792 18.7587 65.5589 18.7587H63.6881C63.5677 18.7587 63.4844 18.6657 63.4844 18.5449V3.40626C63.4844 3.28537 63.5677 3.19238 63.6881 3.19238H65.5589C65.6792 3.19238 65.7626 3.28537 65.7626 3.40626V18.5449Z" fill="#133459"></path></g><defs><clipPath id="clip0_2020_2531"><rect width="134.1" height="25.2" fill="white" transform="translate(0 0.700195)"></rect></clipPath></defs></svg>