<svg xmlns="http://www.w3.org/2000/svg" width="126" height="37" viewBox="0 0 126 37" fill="none"><g clip-path="url(#clip0_2020_2575)"><path d="M43.6364 20.5704C42.5653 19.9751 42.0015 19.4932 42.0015 18.8129C42.0015 17.9341 42.7626 17.3956 43.9747 17.3956C45.3841 17.3956 46.6244 17.9908 46.6244 17.9908L47.6109 14.9578C47.6109 14.9578 46.7089 14.2491 44.0311 14.2491C40.3103 14.2491 37.717 16.4034 37.717 19.4082C37.717 21.1089 38.9291 22.4129 40.5358 23.3483C41.8324 24.0853 42.2834 24.6239 42.2834 25.3893C42.2834 26.2113 41.6351 26.8633 40.423 26.8633C38.619 26.8633 36.9277 25.9278 36.9277 25.9278L35.8848 28.9609C35.8848 28.9609 37.4633 30.0097 40.0848 30.0097C43.9183 30.0097 46.6525 28.1105 46.6525 24.7089C46.7089 22.8381 45.2995 21.5341 43.6364 20.5704ZM58.9143 14.1924C57.0257 14.1924 55.5599 15.0995 54.4042 16.4601L54.3479 16.4318L55.9828 7.81445H51.7264L47.5828 29.7263H51.8391L53.2485 22.2428C53.8123 19.4082 55.2499 17.679 56.6029 17.679C57.5613 17.679 57.9277 18.331 57.9277 19.2664C57.9277 19.8617 57.8713 20.5704 57.7304 21.1656L56.1237 29.7546H60.3801L62.0432 20.9105C62.2405 19.9751 62.3532 18.8696 62.3532 18.1042C62.3814 15.6381 61.113 14.1924 58.9143 14.1924ZM72.0217 14.1924C66.8915 14.1924 63.4807 18.8412 63.4807 24.0286C63.4807 27.3452 65.5103 30.0381 69.3438 30.0381C74.3895 30.0381 77.772 25.5026 77.772 20.2019C77.8002 17.1121 76.0244 14.1924 72.0217 14.1924ZM69.9358 26.7215C68.47 26.7215 67.8781 25.4743 67.8781 23.9152C67.8781 21.4491 69.1465 17.4522 71.4579 17.4522C72.9801 17.4522 73.4593 18.7562 73.4593 20.0318C73.4593 22.6963 72.1908 26.7215 69.9358 26.7215ZM88.7089 14.1924C85.8338 14.1924 84.1989 16.7436 84.1989 16.7436H84.1425L84.3962 14.4475H80.619C80.4217 16.0066 80.0834 18.3593 79.7452 20.1452L76.7854 35.8491H81.0418L82.2257 29.4995H82.3103C82.3103 29.4995 83.1841 30.0664 84.819 30.0664C89.8364 30.0664 93.1062 24.9074 93.1062 19.6916C93.1062 16.7719 91.8378 14.1924 88.7089 14.1924ZM84.6499 26.8066C83.5505 26.8066 82.9022 26.183 82.9022 26.183L83.6069 22.1861C84.1143 19.5215 85.4955 17.7357 86.9613 17.7357C88.2579 17.7357 88.6525 18.9546 88.6525 20.0885C88.6525 22.8381 87.0177 26.8066 84.6499 26.8066ZM99.1948 8.01288C97.8418 8.01288 96.7425 9.09004 96.7425 10.5074C96.7425 11.783 97.5317 12.6617 98.7438 12.6617H98.8002C100.125 12.6617 101.281 11.7546 101.309 10.1672C101.337 8.91997 100.491 8.01288 99.1948 8.01288Z" fill="#133459"></path><path d="M93.2168 29.725H97.5014L100.405 14.5312H96.092L93.2168 29.725Z" fill="#133459"></path><path d="M111.23 14.4752H108.27L108.411 13.7665C108.665 12.2925 109.511 10.9886 110.948 10.9886C111.709 10.9886 112.301 11.2153 112.301 11.2153L113.147 7.87046C113.147 7.87046 112.414 7.50195 110.836 7.50195C109.313 7.50195 107.819 7.92715 106.664 8.91928C105.198 10.1665 104.521 11.9523 104.183 13.7665L104.07 14.4752H102.097L101.477 17.7067H103.45L101.195 29.6972H105.452L107.707 17.7067H110.638L111.23 14.4752ZM121.491 14.5319C121.491 14.5319 118.813 21.2783 117.629 24.9634H117.572C117.488 23.7728 116.53 14.5319 116.53 14.5319H112.048L114.613 28.4783C114.669 28.7901 114.641 28.9886 114.528 29.187C114.021 30.1508 113.203 31.0862 112.217 31.7665C111.428 32.3618 110.526 32.7303 109.821 32.9854L111.005 36.6138C111.879 36.4153 113.654 35.7067 115.177 34.2894C117.121 32.4468 118.926 29.6405 120.758 25.7854L125.972 14.5319H121.491Z" fill="#133459"></path><path d="M20.4379 35.7063L30.9802 33.4103C30.9802 33.4103 27.1748 7.52995 27.1466 7.35987C27.1184 7.18979 26.9775 7.0764 26.8365 7.0764C26.6956 7.0764 24.0177 6.87798 24.0177 6.87798C24.0177 6.87798 22.1573 5.00711 21.9318 4.80869C21.8755 4.752 21.8191 4.72365 21.7627 4.6953L20.4379 35.7063ZM21.3117 4.63861C21.2835 4.63861 21.2271 4.66696 21.199 4.66696C21.1708 4.66696 20.7761 4.78034 20.156 4.97877C19.5359 3.1646 18.4365 1.49215 16.4916 1.49215C16.4352 1.49215 16.3788 1.49215 16.3224 1.49215C15.7587 0.783492 15.0822 0.47168 14.4902 0.47168C9.95197 0.47168 7.7815 6.16932 7.10499 9.06066C5.35734 9.59924 4.08889 9.99609 3.94795 10.0528C2.96137 10.3646 2.93318 10.3929 2.82043 11.3284C2.70768 12.0087 0.142578 31.9929 0.142578 31.9929L19.9587 35.7347L21.3117 4.63861ZM16.1533 6.02759C16.1533 6.08428 16.1533 6.16932 16.1533 6.22601C15.054 6.56617 13.8419 6.93467 12.658 7.30318C13.3345 4.6953 14.603 3.41971 15.7023 2.93782C15.9842 3.67483 16.1533 4.66696 16.1533 6.02759ZM14.3493 1.69058C14.5466 1.69058 14.7439 1.74727 14.9412 1.889C13.5037 2.56932 11.9251 4.29845 11.2768 7.75672C10.3184 8.06853 9.38821 8.352 8.51439 8.60712C9.27546 5.9709 11.1077 1.69058 14.3493 1.69058ZM15.1385 17.0827C15.1385 17.0827 13.9547 16.4591 12.5453 16.4591C10.4312 16.4591 10.3466 17.7914 10.3466 18.1315C10.3466 19.9457 15.0822 20.6544 15.0822 24.9347C15.0822 28.3079 12.9681 30.4622 10.0929 30.4622C6.65399 30.4622 4.90634 28.3079 4.90634 28.3079L5.83654 25.2465C5.83654 25.2465 7.64056 26.8055 9.16271 26.8055C10.1493 26.8055 10.5721 26.0118 10.5721 25.4449C10.5721 23.0638 6.68217 22.9504 6.68217 19.0386C6.68217 15.7504 9.02177 12.5473 13.7855 12.5473C15.6177 12.5473 16.5198 13.0859 16.5198 13.0859L15.1385 17.0827ZM16.9426 2.7394C17.9573 2.85278 18.6057 4.01499 19.0285 5.31893C18.5211 5.489 17.9573 5.65908 17.3372 5.85751C17.3372 5.74412 17.3372 5.63074 17.3372 5.48901C17.3372 4.38349 17.1963 3.4764 16.9426 2.7394Z" fill="#133459"></path></g><defs><clipPath id="clip0_2020_2575"><rect width="126" height="36" fill="white" transform="translate(0 0.5)"></rect></clipPath></defs></svg>