<svg xmlns="http://www.w3.org/2000/svg" width="112" height="30" viewBox="0 0 112 30" fill="none"><g clip-path="url(#clip0_2020_2568)"><path d="M35.7422 23.2644L37.1316 19.9989C38.633 21.1328 40.6275 21.7224 42.5995 21.7224C44.0562 21.7224 44.975 21.1554 44.975 20.2937C44.9525 17.8899 36.2576 19.7721 36.1904 13.74C36.168 10.6786 38.8571 8.32018 42.6668 8.32018C44.9301 8.32018 47.1935 8.8871 48.807 10.1797L47.5072 13.5132C46.0282 12.5608 44.1906 11.8805 42.4427 11.8805C41.255 11.8805 40.4706 12.4474 40.4706 13.1731C40.493 15.5315 49.2552 14.2389 49.3448 19.9989C49.3448 23.1284 46.7229 25.328 42.9581 25.328C40.2017 25.328 37.6694 24.6704 35.7422 23.2644ZM89.0547 18.8197C88.36 20.0443 87.0603 20.8833 85.5588 20.8833C83.3403 20.8833 81.5475 19.0692 81.5475 16.8241C81.5475 14.5791 83.3403 12.7649 85.5588 12.7649C87.0603 12.7649 88.36 13.604 89.0547 14.8285L92.8868 12.6742C91.4526 10.089 88.6962 8.32018 85.5588 8.32018C80.92 8.32018 77.1552 12.1299 77.1552 16.8241C77.1552 21.5183 80.92 25.328 85.5588 25.328C88.7186 25.328 91.4526 23.5819 92.8868 20.974L89.0547 18.8197ZM51.2721 1.26758H56.0677V25.0106H51.2721V1.26758ZM94.7692 1.26758V25.0106H99.5648V17.8899L105.257 25.0106H111.397L104.159 16.552L110.859 8.66033H104.988L99.5648 15.214V1.26758H94.7692ZM70.3203 18.8651C69.6256 20.0216 68.1913 20.8833 66.5779 20.8833C64.3593 20.8833 62.5665 19.0692 62.5665 16.8241C62.5665 14.5791 64.3593 12.7649 66.5779 12.7649C68.1913 12.7649 69.6256 13.672 70.3203 14.8512V18.8651ZM70.3203 8.66033V10.5879C69.5359 9.24994 67.5863 8.32018 65.547 8.32018C61.334 8.32018 58.0174 12.0846 58.0174 16.8014C58.0174 21.5183 61.334 25.328 65.547 25.328C67.5863 25.328 69.5359 24.3983 70.3203 23.0603V24.9879H75.1159V8.66033H70.3203Z" fill="#133459"></path><path d="M6.09583 18.843C6.09583 20.4984 4.77366 21.8364 3.13776 21.8364C1.50186 21.8364 0.179688 20.4984 0.179688 18.843C0.179688 17.1876 1.50186 15.8496 3.13776 15.8496H6.09583V18.843ZM7.57487 18.843C7.57487 17.1876 8.89704 15.8496 10.5329 15.8496C12.1688 15.8496 13.491 17.1876 13.491 18.843V26.3265C13.491 27.9819 12.1688 29.3198 10.5329 29.3198C8.89704 29.3198 7.57487 27.9819 7.57487 26.3265V18.843Z" fill="#133459"></path><path d="M10.5319 6.82369C8.89601 6.82369 7.57384 5.48573 7.57384 3.8303C7.57384 2.17487 8.89601 0.836914 10.5319 0.836914C12.1678 0.836914 13.49 2.17487 13.49 3.8303V6.82369H10.5319ZM10.5319 8.34306C12.1678 8.34306 13.49 9.68101 13.49 11.3364C13.49 12.9919 12.1678 14.3298 10.5319 14.3298H3.11432C1.47842 14.3298 0.15625 12.9919 0.15625 11.3364C0.15625 9.68101 1.47842 8.34306 3.11432 8.34306H10.5319Z" fill="#133459"></path><path d="M22.3874 11.3364C22.3874 9.68101 23.7095 8.34306 25.3454 8.34306C26.9813 8.34306 28.3035 9.68101 28.3035 11.3364C28.3035 12.9919 26.9813 14.3298 25.3454 14.3298H22.3874V11.3364ZM20.9083 11.3364C20.9083 12.9919 19.5862 14.3298 17.9503 14.3298C16.3144 14.3298 14.9922 12.9919 14.9922 11.3364V3.8303C14.9922 2.17487 16.3144 0.836914 17.9503 0.836914C19.5862 0.836914 20.9083 2.17487 20.9083 3.8303V11.3364Z" fill="#133459"></path><path d="M17.9503 23.3331C19.5862 23.3331 20.9083 24.671 20.9083 26.3265C20.9083 27.9819 19.5862 29.3198 17.9503 29.3198C16.3144 29.3198 14.9922 27.9819 14.9922 26.3265V23.3331H17.9503ZM17.9503 21.8364C16.3144 21.8364 14.9922 20.4984 14.9922 18.843C14.9922 17.1876 16.3144 15.8496 17.9503 15.8496H25.3678C27.0038 15.8496 28.3259 17.1876 28.3259 18.843C28.3259 20.4984 27.0038 21.8364 25.3678 21.8364H17.9503Z" fill="#133459"></path></g><defs><clipPath id="clip0_2020_2568"><rect width="111.6" height="28.8" fill="white" transform="translate(0 0.700195)"></rect></clipPath></defs></svg>