<svg xmlns="http://www.w3.org/2000/svg" width="158" height="30" viewBox="0 0 158 30" fill="none"><path d="M155.521 8.41763H155.757C155.915 8.41763 156.072 8.26031 156.072 8.103C156.151 7.86702 155.993 7.86702 155.915 7.86702H155.679L155.521 8.41763ZM155.285 9.5975H154.813L155.285 7.47373H156.151C156.465 7.47373 156.623 7.63105 156.544 8.02434C156.465 8.26031 156.308 8.49629 155.993 8.57495C156.072 8.57495 156.387 8.57495 156.308 8.96824C156.308 9.12555 156.229 9.51884 156.229 9.5975H155.757C155.757 9.44018 155.757 9.36152 155.757 9.20421C155.836 8.96824 155.915 8.73226 155.521 8.73226H155.364L155.285 9.5975ZM157.173 8.57495C157.33 7.78837 156.859 7.08045 155.993 7.08045C155.207 7.08045 154.42 7.70971 154.184 8.57495C154.027 9.36153 154.499 10.0694 155.364 10.0694C156.229 9.99078 157.016 9.36153 157.173 8.57495ZM157.488 8.57495C157.252 9.5975 156.308 10.3841 155.285 10.3841C154.263 10.3841 153.634 9.5975 153.87 8.57495C154.106 7.5524 155.049 6.76581 156.072 6.76581C157.095 6.76581 157.724 7.5524 157.488 8.57495ZM148.521 7.08045L148.128 9.12555H148.206C149.386 7.31642 150.959 6.76581 152.768 6.76581L151.903 10.6987C148.128 10.4627 147.577 12.6651 147.262 14.2383L145.453 22.7334H141.048L144.352 7.08045H148.521ZM136.801 13.2158C137.115 11.7213 137.666 9.51884 135.542 9.51884C133.497 9.51884 133.025 11.8786 132.789 13.2158H136.801ZM132.317 15.6542C131.924 17.5419 131.373 20.295 133.34 20.295C134.913 20.295 135.542 18.8005 135.778 17.5419H140.183C139.79 19.2724 138.925 20.6096 137.666 21.6321C136.408 22.576 134.756 23.1266 132.711 23.1266C127.047 23.1266 127.047 19.6657 128.07 14.7889C129.014 10.5414 130.351 6.84447 136.093 6.84447C141.992 6.84447 141.835 10.6201 140.576 15.6542H132.317ZM122.485 12.6651C122.957 10.3054 122.564 9.5975 121.227 9.5975C119.339 9.5975 118.867 11.2493 118.159 14.4743C117.136 19.2724 117.294 20.295 118.945 20.295C120.283 20.295 121.227 19.0364 121.62 16.9913L126.261 15.7328C125.159 21.4748 122.328 23.048 118.316 23.048C112.653 23.048 112.653 19.587 113.675 14.7103C114.619 10.4627 115.956 6.76581 121.777 6.76581C125.789 6.76581 127.676 8.57494 126.811 12.6651H122.485ZM105.731 21.1602C104.472 22.576 103.214 23.048 101.562 23.048C99.517 23.048 97.9438 21.7895 98.4158 19.6657L101.09 7.1591H105.495L103.214 18.0139C102.899 19.4297 102.978 20.4523 104.315 20.4523C105.731 20.4523 106.203 19.4297 106.439 18.0139L108.72 7.1591H113.125L110.45 19.6657C110.214 20.6882 110.057 21.7108 109.978 22.7334H105.416L105.731 21.1602ZM92.4116 14.7889C93.0408 11.6426 93.5914 9.51884 91.7823 9.51884C89.8945 9.51884 89.5012 11.7213 88.7933 14.7889C87.9281 18.7218 87.8494 20.3736 89.5012 20.3736C90.9171 20.3736 91.5463 18.7218 92.4116 14.7889ZM90.9171 22.7334L91.3104 21.0029H91.2317C90.1305 22.4974 88.7933 23.048 87.1415 23.048C82.5793 23.048 83.8379 18.0139 84.5458 14.7889C85.2537 11.6426 86.1189 6.76581 90.5238 6.76581C92.0969 6.76581 93.1195 7.23776 93.6701 8.57495H93.7488L95.0859 2.28232L99.8841 0.394531L95.1646 22.7334H90.9171ZM78.0958 14.4743C78.8038 11.2493 78.9611 9.5975 77.152 9.5975C75.2642 9.5975 74.7922 11.2493 74.0843 14.4743C73.0618 19.2724 73.2191 20.295 74.8709 20.295C76.444 20.295 77.0733 19.2724 78.0958 14.4743ZM69.6795 14.7103C70.6234 10.4627 71.9605 6.76581 77.7812 6.76581C83.5232 6.76581 83.3659 10.3841 82.5007 14.7103C81.4781 19.587 79.9836 23.048 74.3203 23.048C68.6569 23.048 68.5783 19.6657 69.6795 14.7103ZM65.9825 7.08045L65.5893 9.12555H65.6679C66.8478 7.31642 68.4209 6.76581 70.2301 6.76581L69.3648 10.6987C65.5893 10.4627 65.0387 12.6651 64.724 14.2383L62.9149 22.7334H58.5101L61.8137 7.08045H65.9825ZM49.2284 12.0359H51.8241C53.24 12.0359 54.4985 10.5414 54.8131 9.04689C55.2064 7.23776 55.0491 5.66461 52.9253 5.66461H50.5656L49.2284 12.0359ZM46.6327 2.28232H55.0491C59.2966 2.28232 60.4765 4.87803 59.6113 8.96824C59.0607 11.4853 57.4875 15.5755 51.9815 15.5755H48.5205L46.9474 22.812H42.3065L46.6327 2.28232ZM34.4408 14.7889C35.07 11.6426 35.6206 9.51884 33.7328 9.51884C31.9237 9.51884 31.5304 11.7213 30.8225 14.7889C29.9573 18.7218 29.8786 20.3736 31.3731 20.3736C33.0249 20.3736 33.6542 18.7218 34.4408 14.7889ZM32.2383 7.08045L31.8451 8.81092H31.9237C33.0249 7.31642 34.3621 6.76581 36.0139 6.76581C40.4974 6.76581 39.3175 11.7999 38.6096 15.0249C37.9017 18.1712 37.0365 23.048 32.6316 23.048C31.0585 23.048 30.0359 22.576 29.4853 21.2389H29.4067L28.1481 28.0034L23.35 29.4979L28.0695 7.1591H32.2383V7.08045ZM19.9677 14.4743C20.6756 11.2493 20.833 9.5975 19.0238 9.5975C17.136 9.5975 16.6641 11.2493 15.9562 14.4743C14.9336 19.2724 15.0909 20.295 16.7428 20.295C18.3159 20.295 18.9452 19.2724 19.9677 14.4743ZM11.4727 14.7103C12.4166 10.4627 13.7538 6.76581 19.5744 6.76581C25.3165 6.76581 25.1591 10.3841 24.2939 14.7103C23.2714 19.587 21.7769 23.048 16.1135 23.048C10.4501 23.048 10.4501 19.6657 11.4727 14.7103ZM16.1135 2.28232L15.3269 5.97923H10.1355L6.59589 22.7334H1.87642L5.41603 6.0579H0.224609L1.01119 2.36098H16.1135V2.28232Z" fill="#133459"></path></svg>