<svg xmlns="http://www.w3.org/2000/svg" width="134" height="37" viewBox="0 0 134 37" fill="none"><path d="M25.4812 17.5224C25.7442 17.4931 26.0072 17.4931 26.241 17.5224C26.3871 17.2009 26.3871 16.6749 26.2702 16.1196C26.0949 15.2721 25.8611 14.746 25.3351 14.8337C24.8383 14.9214 24.809 15.5351 24.9844 16.3826C25.1013 16.8502 25.2766 17.2593 25.4812 17.5224Z" fill="#133459"></path><path d="M21.1859 18.1944C21.5366 18.3405 21.7704 18.4574 21.8581 18.3697C21.9165 18.3113 21.8873 18.1944 21.7996 18.0775C21.6243 17.7852 21.2736 17.493 20.8644 17.3176C20.0754 16.967 19.1402 17.0839 18.4096 17.6099C18.1758 17.7852 17.942 18.019 17.9712 18.1652C17.9712 18.2236 18.0297 18.2528 18.0881 18.2528C18.2927 18.2821 18.9649 17.9314 19.7831 17.8729C20.3676 17.8729 20.8352 18.0483 21.1859 18.1944Z" fill="#133459"></path><path d="M20.4562 18.6033C19.9886 18.691 19.7256 18.8371 19.5795 18.9832C19.4334 19.1001 19.3457 19.2462 19.3457 19.3339L19.3749 19.4216L19.4626 19.4508C19.5795 19.4508 19.8133 19.3631 19.8133 19.3631C20.4562 19.1293 20.8946 19.1585 21.3037 19.217C21.5375 19.2462 21.6544 19.2462 21.7129 19.1878C21.7421 19.1585 21.7421 19.1293 21.7129 19.0416C21.5668 18.8371 21.0992 18.5448 20.4562 18.6033Z" fill="#133459"></path><path d="M20.6609 19.247C20.8071 18.9548 20.8071 18.2241 20.6902 17.6397C20.5148 16.7922 20.2518 16.2953 19.755 16.383C19.2582 16.4707 19.229 17.1428 19.4043 18.0196C19.492 18.5748 19.7258 18.9255 19.8427 19.1301C20.1934 19.6854 20.4856 19.5392 20.6609 19.247Z" fill="#133459"></path><path d="M24.0222 20.1225C24.3436 20.2686 24.6943 20.2102 24.8112 19.9764C24.9281 19.7426 24.7528 19.4211 24.4313 19.275C24.1098 19.1289 23.7591 19.1873 23.6422 19.4211C23.5546 19.6549 23.7007 19.9764 24.0222 20.1225Z" fill="#133459"></path><path d="M26.0672 18.3408C25.8042 18.3408 25.5996 18.6331 25.5996 18.9838C25.5996 19.3345 25.8042 19.6267 26.0672 19.6267C26.3302 19.6267 26.5348 19.3345 26.5348 18.9838C26.5056 18.6331 26.3302 18.3408 26.0672 18.3408Z" fill="#133459"></path><path d="M8.79471 24.7106C8.73626 24.623 8.61937 24.6522 8.53169 24.6814C8.47324 24.7106 8.38557 24.7106 8.2979 24.7106C8.12255 24.7106 7.94721 24.623 7.85953 24.4768C7.74264 24.3015 7.74264 24.0385 7.88876 23.717L7.94721 23.5709C8.15178 23.1033 8.50247 22.3435 8.12255 21.5836C7.83031 21.0284 7.36272 20.6777 6.77823 20.6192C6.22297 20.5608 5.66771 20.7654 5.31702 21.1453C4.76176 21.759 4.67408 22.6357 4.76176 22.928C4.79098 23.0449 4.87865 23.0741 4.90788 23.0741C4.99555 23.0741 5.14167 23.0156 5.22934 22.7818L5.25857 22.6942C5.28779 22.5773 5.37547 22.3435 5.49236 22.1389C5.63848 21.9051 5.87228 21.759 6.1353 21.7005C6.39832 21.6421 6.69056 21.7005 6.92436 21.8467C7.3335 22.1097 7.47962 22.6065 7.30427 23.0741C7.2166 23.3079 7.07048 23.7755 7.0997 24.1554C7.15815 24.9152 7.62574 25.2367 8.0641 25.2659C8.47324 25.2951 8.76549 25.0613 8.82394 24.886C8.85316 24.7983 8.82394 24.7399 8.79471 24.7106Z" fill="#133459"></path><path d="M32.5545 23.3085C32.5253 23.2501 32.4376 22.8702 32.2915 22.4318L31.9992 21.672C32.5545 20.8245 32.5837 20.0646 32.4961 19.6555C32.4084 19.1294 32.2038 18.6619 31.7655 18.2235C31.3271 17.7559 30.4211 17.2883 29.1353 16.9084L28.4631 16.7331C28.4631 16.7038 28.4339 15.1549 28.4047 14.4828C28.3754 14.0152 28.3462 13.2554 28.1124 12.5248C27.8202 11.5311 27.3526 10.6544 26.7389 10.0991C28.4047 8.3749 29.4567 6.47532 29.4567 4.83876C29.4567 1.71176 25.5991 0.747352 20.8356 2.70538L19.8419 3.14375C19.8419 3.14375 18.03 1.36106 18.0008 1.33184C12.5943 -3.4025 -4.3558 15.4472 1.0507 20.0062L2.21967 20.9998C1.8982 21.7889 1.78131 22.6948 1.8982 23.6884C2.0151 24.9451 2.68726 26.1433 3.73934 27.0785C4.73296 27.9552 6.04806 28.5105 7.33393 28.5105C9.43808 33.3617 14.2601 36.3426 19.9004 36.5179C25.9498 36.6933 31.0348 33.8585 33.1682 28.7442C33.3143 28.3936 33.8988 26.7862 33.8988 25.3542C33.8696 23.893 33.0513 23.3085 32.5545 23.3085ZM7.77229 27.1369C7.59694 27.1661 7.39237 27.1954 7.21703 27.1661C5.3759 27.1077 3.41787 25.4711 3.2133 23.5131C3.00873 21.3505 4.09003 19.6847 6.04806 19.3048C6.28185 19.2463 6.57409 19.2171 6.86634 19.2463C7.94764 19.3048 9.5842 20.1523 9.93489 22.5195C10.2564 24.6236 9.75954 26.7862 7.77229 27.1369ZM5.72659 18.0189C4.49917 18.2527 3.44709 18.9541 2.77493 19.8893C2.39502 19.5678 1.66441 18.9249 1.51829 18.6911C0.466212 16.7038 2.65804 12.8462 4.1777 10.6544C7.94764 5.27712 13.8802 1.18572 16.598 1.91633C17.0364 2.03322 18.5268 3.75746 18.5268 3.75746C18.5268 3.75746 15.7798 5.27712 13.2372 7.38127C9.84722 10.0407 7.27548 13.8691 5.72659 18.0189ZM24.927 26.3186C24.9562 26.2894 24.9854 26.2602 24.9854 26.2017C24.9854 26.1433 24.927 26.1141 24.8685 26.1141C24.8685 26.1141 22.0045 26.5524 19.2867 25.5588C19.5789 24.5944 20.368 24.9451 21.5369 25.0328C23.6703 25.1497 25.5991 24.8574 27.0019 24.4483C28.2293 24.0976 29.8367 23.3962 31.0933 22.4026C31.5024 23.3377 31.6778 24.3606 31.6778 24.3606C31.6778 24.3606 31.9992 24.3021 32.2915 24.4775C32.5545 24.6236 32.7299 24.9743 32.613 25.8218C32.3499 27.4292 31.6778 28.715 30.538 29.884C29.8366 30.6438 29.0184 31.2868 28.054 31.7543C27.5572 32.0174 27.0019 32.2512 26.4174 32.4557C22.1214 33.8585 17.7378 32.3096 16.3058 29.0073C16.1889 28.7442 16.1012 28.5105 16.0135 28.2182C15.3998 26.0264 15.9259 23.4254 17.5332 21.7889C17.6209 21.672 17.7378 21.5551 17.7378 21.4089C17.7378 21.292 17.6501 21.1459 17.5917 21.0583C17.0364 20.24 15.0784 18.8664 15.4875 16.1778C15.7798 14.249 17.4455 12.9047 19.0237 12.9923L19.4328 13.0216C20.105 13.0508 20.7187 13.1385 21.2739 13.1677C22.2091 13.1969 23.0566 13.08 24.0502 12.2325C24.4009 11.9403 24.6639 11.7065 25.1023 11.6188C25.1608 11.6188 25.2777 11.5604 25.5114 11.5896C25.7452 11.5896 25.979 11.6772 26.1836 11.7941C26.9727 12.3202 27.0896 13.6061 27.148 14.5705C27.1772 15.0965 27.2357 16.4116 27.2649 16.7915C27.3234 17.639 27.5279 17.7559 27.9955 17.9313C28.2585 18.0189 28.4923 18.0774 28.843 18.165C29.8951 18.4573 30.538 18.7788 30.9179 19.1587C31.1517 19.3925 31.2686 19.6555 31.2979 19.9185C31.4148 20.8245 30.5965 21.9642 28.3754 22.9871C25.979 24.0976 23.0566 24.3898 21.0401 24.156L20.3387 24.0684C18.7314 23.8638 17.7962 25.9387 18.7606 27.3707C19.3743 28.3059 21.0986 28.8904 22.7936 28.8904C26.7096 28.8904 29.6905 27.2246 30.8011 25.7926L30.8887 25.6757C30.9472 25.588 30.8887 25.5588 30.8303 25.588C29.9243 26.2017 25.8621 28.6858 21.5369 27.9552C21.5369 27.9552 21.0109 27.8675 20.5433 27.6922C20.1634 27.546 19.3743 27.1661 19.2574 26.3479C22.7351 27.3415 24.927 26.3186 24.927 26.3186ZM12.7112 10.6252C14.0555 9.07628 15.6921 7.73197 17.1825 6.97213C17.241 6.94291 17.2994 7.00136 17.2702 7.05981C17.1533 7.26438 16.9195 7.73197 16.8611 8.08266C16.8611 8.14111 16.9195 8.17033 16.9487 8.14111C17.8839 7.52739 19.462 6.82601 20.8648 6.76756C20.9232 6.76756 20.9525 6.85523 20.894 6.88446C20.6894 7.0598 20.4556 7.26438 20.2803 7.49817C20.2511 7.5274 20.2803 7.58585 20.3387 7.58585C21.3324 7.58585 22.7059 7.93654 23.6119 8.43335C23.6703 8.46257 23.6411 8.57947 23.5534 8.57947C22.1799 8.258 19.9296 8.02421 17.5917 8.6087C15.5167 9.10551 13.9094 9.89456 12.7696 10.7421C12.7404 10.7713 12.6528 10.6836 12.7112 10.6252Z" fill="#133459"></path><path d="M129.462 14.2783C127.446 14.2783 126.54 15.7688 126.131 16.6455C125.868 17.2008 125.868 17.3761 125.692 17.3761C125.4 17.3761 125.634 16.9085 125.78 16.3825C126.014 15.3304 125.839 14.5121 125.839 14.5121H122.975V28.2475H126.891V23.8931C127.358 24.6822 128.206 25.5005 129.521 25.5005C132.356 25.5005 133.758 23.1041 133.758 19.8894C133.758 16.2364 132.034 14.2783 129.462 14.2783ZM128.381 22.9872C127.475 22.9872 126.832 21.8474 126.832 20.2693C126.832 18.7204 127.504 17.5514 128.352 17.5514C129.433 17.5514 129.901 18.5451 129.901 20.2693C129.901 22.052 129.462 22.9872 128.381 22.9872Z" fill="#133459"></path><path d="M51.8418 14.2786C50.1175 14.2786 49.27 15.6229 48.8901 16.4996C48.6855 16.9964 48.5979 17.3764 48.4225 17.3764C48.1595 17.3764 48.3641 17.0549 48.1595 16.2951C47.8965 15.3307 47.0782 14.2786 45.354 14.2786C43.5421 14.2786 42.7822 15.7983 42.4023 16.6458C42.1393 17.2302 42.1393 17.3764 41.964 17.3764C41.6717 17.3764 41.9055 16.9088 42.0516 16.3827C42.2854 15.3307 42.1101 14.5124 42.1101 14.5124H39.2461V25.2669H43.1622V19.9189C43.1622 18.8668 43.6005 17.5225 44.3603 17.5225C45.2371 17.5225 45.4124 18.1946 45.4124 19.4513V25.2962H49.3285V19.9481C49.3285 19.0129 49.7084 17.5517 50.5267 17.5517C51.4034 17.5517 51.5788 18.4869 51.5788 19.4805V25.3254H55.4364V19.0129C55.4364 16.1489 54.4427 14.2786 51.8418 14.2786ZM118.123 14.2786C116.398 14.2786 115.551 15.6229 115.171 16.4996C114.966 16.9964 114.879 17.3764 114.703 17.3764C114.44 17.3764 114.616 16.938 114.44 16.2951C114.148 15.3307 113.447 14.2786 111.635 14.2786C109.823 14.2786 109.063 15.7983 108.683 16.6458C108.42 17.2302 108.42 17.3764 108.245 17.3764C107.952 17.3764 108.186 16.9088 108.332 16.3827C108.566 15.3307 108.391 14.5124 108.391 14.5124H105.527V25.2669H109.443V19.9189C109.443 18.8668 109.881 17.5225 110.641 17.5225C111.518 17.5225 111.693 18.1946 111.693 19.4513V25.2962H115.609V19.9481C115.609 19.0129 115.989 17.5517 116.807 17.5517C117.684 17.5517 117.86 18.4869 117.86 19.4805V25.3254H121.717V19.0129C121.688 16.1489 120.723 14.2786 118.123 14.2786ZM62.0995 14.2786C59.1186 14.2786 56.956 15.3891 56.956 15.3891V18.633C56.956 18.633 59.3232 17.2595 61.252 17.2595C62.8009 17.2595 62.9762 18.0777 62.9178 18.7791C62.9178 18.7791 62.4794 18.6622 61.1351 18.6622C57.9497 18.6622 56.3423 20.0942 56.3423 22.4322C56.3423 24.624 58.1542 25.5592 59.6739 25.5592C61.8949 25.5592 62.8593 24.0687 63.1808 23.3673C63.3854 22.8705 63.4146 22.5491 63.6192 22.5491C63.8237 22.5491 63.7653 22.7829 63.7361 23.2797C63.7068 24.1272 63.7653 24.7701 63.8822 25.3254H66.8338V20.0358C66.8046 16.675 65.6356 14.2786 62.0995 14.2786ZM61.1351 22.7829C60.1999 22.9874 59.7323 22.7244 59.7323 22.0815C59.7323 21.234 60.6091 20.8833 61.8657 20.8833C62.421 20.8833 62.947 20.9417 62.947 20.9417C62.9178 21.2924 62.1287 22.5491 61.1351 22.7829ZM73.234 11.2685H77.15V25.2962H73.234V11.2685ZM81.446 19.9189C81.446 18.9545 82.352 18.0777 83.9885 18.0777C85.7712 18.0777 87.2324 18.9545 87.5539 19.1298V15.3891C87.5539 15.3891 86.4141 14.2786 83.6086 14.2786C80.6569 14.2786 78.1729 16.0028 78.1729 19.7435C78.1729 23.4842 80.4232 25.5299 83.5794 25.5299C86.0634 25.5299 87.5539 24.1564 87.5539 24.1564V20.591C87.0863 20.8541 85.7712 21.76 83.9885 21.76C82.1182 21.7892 81.446 20.9125 81.446 19.9189ZM95.4737 14.2786C93.2234 14.2786 92.3467 16.412 92.1713 16.7919C91.996 17.1718 91.9083 17.3764 91.7622 17.3764C91.5284 17.3764 91.6745 16.9088 91.7914 16.6165C91.9668 16.0613 92.3467 14.6293 92.3467 12.8466C92.3467 11.6484 92.1713 11.2393 92.1713 11.2393H88.8105V25.2669H92.7266V19.9189C92.7266 19.0421 93.0773 17.5225 94.0709 17.5225C94.8892 17.5225 95.1522 18.1362 95.1522 19.3344V25.2669H99.0683V19.5682C99.039 16.8211 98.5715 14.2786 95.4737 14.2786ZM100.296 14.5416V25.2962H104.212V14.5416C104.212 14.5416 103.569 14.9215 102.254 14.9215C100.968 14.9215 100.296 14.5416 100.296 14.5416Z" fill="#133459"></path><path d="M102.252 14.2784C103.575 14.2784 104.648 13.585 104.648 12.7296C104.648 11.8741 103.575 11.1807 102.252 11.1807C100.928 11.1807 99.8555 11.8741 99.8555 12.7296C99.8555 13.585 100.928 14.2784 102.252 14.2784Z" fill="#133459"></path><path d="M68.0605 14.542V25.2965H71.9766V14.542C71.9766 14.542 71.3337 14.9219 70.0186 14.9219L68.0605 14.542Z" fill="#133459"></path><path d="M70.0194 14.2784C71.3429 14.2784 72.4158 13.585 72.4158 12.7296C72.4158 11.8741 71.3429 11.1807 70.0194 11.1807C68.6959 11.1807 67.623 11.8741 67.623 12.7296C67.623 13.585 68.6959 14.2784 70.0194 14.2784Z" fill="#133459"></path></svg>