<svg xmlns="http://www.w3.org/2000/svg" width="96" height="45" viewBox="0 0 96 45" fill="none"><g clip-path="url(#clip0_2020_2609)"><path d="M0 35.2039L9.96893 20.1318H1.17474C1.09322 19.6594 1.0606 19.1801 1.07739 18.7013C1.06152 18.2225 1.09413 17.7434 1.17474 17.2708H15.3465L15.5337 17.7477L5.46559 32.8198H14.8598C14.9413 33.2922 14.9739 33.7715 14.9571 34.2503C14.977 34.6976 14.9444 35.1457 14.8598 35.5857H0.0982848L0 35.2039ZM28.6403 23.5664C28.6947 23.0267 28.6265 22.4819 28.4406 21.9709C28.2547 21.4598 27.9557 20.995 27.5648 20.6095C26.6199 19.9759 25.4829 19.6732 24.3392 19.7509C23.5211 19.7632 22.7048 19.827 21.8951 19.9418C21.1666 20.0448 20.4476 20.2043 19.745 20.4186C19.2453 19.5466 19.0084 18.5545 19.0617 17.5567C19.9489 17.2654 20.8671 17.0733 21.7987 16.984C22.7674 16.8256 23.7497 16.7616 24.7314 16.7931C26.7268 16.6713 28.7016 17.246 30.3027 18.4145C31.5739 19.465 32.2572 21.2764 32.2572 23.6605V35.2021L29.1289 35.7748C27.9008 35.9648 26.6578 36.0607 25.4147 36.0607C24.3326 36.0699 23.2618 35.973 22.1891 35.7748C21.306 35.6022 20.472 35.244 19.745 34.7253C19.074 34.261 18.5356 33.6372 18.1809 32.9129C17.7705 32.0808 17.5693 31.1652 17.594 30.242C17.5526 29.3059 17.79 28.3783 18.2773 27.571C18.6718 26.7886 19.281 26.1284 20.0371 25.6637C20.8257 25.169 21.681 24.7838 22.5785 24.5191C23.5632 24.2451 24.5844 24.1172 25.6084 24.1373C26.2615 24.1136 26.9155 24.1454 27.5629 24.2323C28.0515 24.2323 28.4428 24.3273 28.8341 24.3273V23.5646L28.6403 23.5664ZM28.6403 27.001C28.1798 26.9769 27.7221 26.9158 27.2718 26.8183C26.6849 26.8183 26.1953 26.7233 25.806 26.7233C24.5704 26.6513 23.3419 26.951 22.2864 27.582C21.9006 27.8725 21.5924 28.2498 21.3882 28.6816C21.184 29.1134 21.0897 29.587 21.1135 30.062C21.0584 30.5881 21.1578 31.1186 21.4001 31.5916C21.6424 32.0645 22.0177 32.4604 22.482 32.733C22.9013 32.9631 23.37 33.0939 23.8505 33.1148C24.3024 33.1907 24.7608 33.2225 25.219 33.2098C25.8073 33.2258 26.3959 33.194 26.9788 33.1148L28.542 32.8289V27.0102L28.6403 27.001ZM36.2644 17.2708C36.5574 17.2708 36.753 17.1758 37.046 17.1758H38.6092C38.9022 17.1758 39.0979 17.2708 39.3908 17.2708C39.444 17.4251 39.4767 17.5853 39.4882 17.7477C39.4882 18.0336 39.5855 18.2245 39.5855 18.5104C39.5855 18.7963 39.6829 19.0831 39.6829 19.3691C39.6801 19.5335 39.7138 19.6952 39.7802 19.8459L40.6601 18.7013C41.04 18.3313 41.4672 18.0108 41.9313 17.7477C43.069 17.1338 44.3455 16.806 45.6455 16.794C46.6752 16.7812 47.7161 16.9767 48.6755 17.3667C49.6182 17.7368 50.4538 18.3264 51.1092 19.0841C51.8213 19.9265 52.3531 20.8996 52.6734 21.9459C53.0864 23.275 53.2844 24.6588 53.2603 26.0474C53.4164 28.7694 52.4685 31.442 50.6216 33.4875C48.8618 35.2998 46.4093 36.1585 43.1931 36.1585C42.6375 36.1744 42.0815 36.1426 41.5316 36.0635C40.945 35.9679 40.4564 35.8726 40.0657 35.7776V44.2673C39.7728 44.2673 39.4788 44.3623 39.0885 44.3623H37.3287C37.0357 44.3623 36.7418 44.2673 36.4488 44.2673V17.2708H36.2644ZM39.8804 32.7248C40.3558 32.8963 40.8465 33.0241 41.3462 33.1066C41.9937 33.1936 42.6476 33.2253 43.3007 33.2016C44.1432 33.2226 44.9613 33.092 45.7345 32.8198C46.4573 32.5783 47.0993 32.1495 47.5916 31.5793C48.1489 30.9297 48.5797 30.1861 48.8627 29.3852C49.1979 28.3683 49.3629 27.3054 49.3513 26.2374C49.4128 24.6454 49.0417 23.066 48.2758 21.6591C47.9037 21.0885 47.3796 20.6273 46.7597 20.3249C46.1398 20.0224 45.4473 19.89 44.7563 19.9418C44.1577 19.9436 43.5634 20.0401 42.9965 20.2277C42.4399 20.4327 41.9386 20.7589 41.5306 21.1814C41.0625 21.6446 40.6965 22.1964 40.4551 22.8028C40.1602 23.5601 40.0271 24.3683 40.0639 25.1778V32.7138L39.8804 32.7248ZM57.671 20.0277H55.2372C55.1496 19.8165 55.1161 19.5875 55.1399 19.3608V17.8354C55.1399 17.5494 55.2372 17.3585 55.2372 17.1685H61.1999V35.6734C60.9069 35.6734 60.613 35.7684 60.32 35.7684H58.5602C58.2672 35.7684 57.9733 35.6734 57.6803 35.6734L57.671 20.0277ZM69.1076 27.3719C69.205 29.3751 69.6945 30.9015 70.6708 31.7602C71.9185 32.7958 73.5342 33.3097 75.1676 33.1906C76.8684 33.1998 78.558 32.9102 80.153 32.332C80.3895 32.7481 80.5546 33.1993 80.6416 33.6675C80.7536 34.1692 80.8194 34.6797 80.8382 35.1929C79.997 35.5598 79.1097 35.8163 78.1995 35.9557C77.1361 36.1539 76.0465 36.2498 74.9738 36.2416C73.477 36.2991 71.9829 36.0727 70.5744 35.5748C69.4439 35.0578 68.4177 34.3472 67.5444 33.4766C66.7327 32.5992 66.1316 31.5563 65.7846 30.4238C65.3846 29.19 65.1865 27.9023 65.1977 26.6082C65.2033 25.3221 65.3662 24.0505 65.6863 22.7927C66.0224 21.6757 66.5877 20.6371 67.3478 19.7399C68.1248 18.8877 69.0514 18.187 70.0848 17.6417C71.3657 17.0461 72.7719 16.752 74.1904 16.783C75.2965 16.7361 76.3991 16.9349 77.415 17.3645C78.4308 17.7942 79.3335 18.4433 80.0547 19.2631C80.75 20.0298 81.2519 20.9444 81.5206 21.9341C81.8875 23.0421 82.0541 24.204 82.0092 25.3687V26.4191C82.0092 26.801 81.9118 27.086 81.9118 27.3728L69.1076 27.3719ZM78.4915 24.7009C78.497 24.0541 78.3981 23.4105 78.1985 22.7936C77.9976 22.2277 77.7356 21.6841 77.4169 21.1722C77.0565 20.6936 76.5883 20.302 76.0484 20.0277C75.4388 19.7461 74.7676 19.615 74.0939 19.6458C73.4587 19.6144 72.824 19.7175 72.2335 19.948C71.6429 20.1786 71.1105 20.5311 70.6727 20.9813C69.8073 22.0469 69.2959 23.3449 69.2068 24.7018L78.4915 24.7009ZM86.1156 17.2617C86.4086 17.2617 86.6042 17.1667 86.8972 17.1667H88.4604C88.7534 17.1667 88.9491 17.2617 89.242 17.2617C89.3683 17.7287 89.434 18.2092 89.4377 18.6922C89.5168 19.1968 89.5494 19.7073 89.535 20.2177C90.0335 19.3652 90.7382 18.6448 91.5878 18.1194C92.5506 17.5245 93.6743 17.2254 94.8134 17.2608H95.4003C95.5695 17.2363 95.7422 17.2699 95.8889 17.3558C95.8889 17.5385 95.9863 17.8326 95.9863 18.0226V18.7854C96.0022 19.0748 95.9693 19.3649 95.8889 19.644C95.8889 19.9299 95.7916 20.2167 95.7916 20.5027C95.6044 20.5027 95.4003 20.4077 95.2047 20.4077H94.7161C94.0851 20.4018 93.4574 20.4985 92.8589 20.6936C92.2362 20.88 91.667 21.2067 91.1974 21.6472C90.6535 22.1806 90.2509 22.8352 90.0246 23.5545C89.7186 24.5433 89.5863 25.5755 89.6333 26.6073V35.7757C89.3403 35.7757 89.0464 35.8707 88.7534 35.8707H86.9936C86.7007 35.8707 86.3103 35.7757 86.0164 35.7757V17.2708L86.1156 17.2617ZM64.7082 6.39699H61.1006L63.642 3.91694C63.4548 3.63103 63.2507 3.44011 63.0551 3.1542C62.7742 2.95579 62.5125 2.73257 62.2735 2.48738L59.7247 4.96468V1.52093C59.4055 1.44221 59.0762 1.41019 58.7474 1.42593C58.4185 1.40542 58.0884 1.43751 57.7702 1.52093V5.05055L55.1305 2.47459C54.8272 2.64445 54.5616 2.87142 54.3489 3.14233C54.1617 3.42824 53.8603 3.61915 53.6656 3.90507L56.207 6.38511H52.6762L52.5788 7.33877C52.5568 7.66274 52.5897 7.98804 52.6762 8.30156H56.2931L53.6534 10.8775C54.04 11.4439 54.538 11.9317 55.1193 12.308L57.6606 9.82795V13.3576C57.9798 13.4363 58.3091 13.4683 58.6379 13.4526C58.9668 13.4731 59.2969 13.441 59.6151 13.3576V9.82795L62.1565 12.308C62.4598 12.1381 62.7255 11.9112 62.9381 11.6403C63.1901 11.4077 63.4189 11.1523 63.6214 10.8775L61.1006 8.3993H64.7175C64.7982 8.08787 64.831 7.76648 64.8149 7.44564C64.8355 7.09272 64.8027 6.73876 64.7175 6.39516L64.7082 6.39699ZM60.2114 7.35064C60.2023 7.77079 60.1362 8.18791 60.0148 8.59112C59.6123 8.74641 59.1771 8.81036 58.7437 8.77382C58.3131 8.76492 57.8857 8.70042 57.4725 8.58199C57.3134 8.1892 57.2479 7.76444 57.2853 7.34151C57.2944 6.92136 57.3605 6.50424 57.4819 6.10103C57.8844 5.94574 58.3196 5.8818 58.753 5.91834C59.1836 5.92723 59.611 5.99173 60.0242 6.11016C60.137 6.51516 60.2026 6.93129 60.2198 7.35064H60.2114Z" fill="#133459"></path></g><defs><clipPath id="clip0_2020_2609"><rect width="95.4" height="44.1" fill="white" transform="translate(0 0.5)"></rect></clipPath></defs></svg>