<svg xmlns="http://www.w3.org/2000/svg" width="161" height="34" viewBox="0 0 161 34" fill="none"><g clip-path="url(#clip0_2323_11951)"><path d="M20.0336 9.25925V33.3581H0.0728779L20.0336 9.25925ZM20.0336 0.611328C20.0336 3.25828 18.9821 5.79682 17.1104 7.66849C15.2387 9.54017 12.7002 10.5917 10.0532 10.5917C7.40627 10.5917 4.86773 9.54017 2.99605 7.66849C1.12438 5.79682 0.0728779 3.25828 0.0728779 0.611328L20.0336 0.611328ZM23.3219 33.3603C23.3219 30.7133 24.3734 28.1748 26.2451 26.3031C28.1168 24.4314 30.6553 23.3799 33.3022 23.3799C35.9492 23.3799 38.4877 24.4314 40.3594 26.3031C42.2311 28.1748 43.2826 30.7133 43.2826 33.3603H23.3219ZM23.3219 24.7123V0.611328H43.2869L23.3219 24.7102V24.7123ZM34.4852 53.9786C35.5117 54.0016 36.5057 53.6178 37.2504 52.911L38.6213 54.3907C37.7159 55.3217 36.4603 56.0135 34.5087 56.0135C31.1627 56.0135 28.9996 53.7928 28.9996 50.7906C28.9861 50.1025 29.1112 49.4188 29.3677 48.7801C29.6241 48.1415 30.0066 47.561 30.4922 47.0734C30.9779 46.5857 31.5568 46.2009 32.1944 45.9418C32.832 45.6828 33.5152 45.5548 34.2033 45.5656C37.5258 45.5656 39.4092 48.0938 39.2426 51.5999H31.389C31.6666 53.0562 32.6916 53.985 34.4788 53.985M36.8703 49.928C36.6568 48.5678 35.8454 47.5663 34.2226 47.5663C32.7129 47.5663 31.6602 48.4205 31.389 49.928H36.8724H36.8703ZM-17.082 53.8654L-11.0392 47.7243H-16.939V45.7983H-8.23553V47.7628L-14.2784 53.9017H-8.15012V55.8299H-17.082V53.8654ZM-1.36631 53.9765C-0.339802 53.9994 0.654158 53.6157 1.3989 52.9088L2.76975 54.3886C1.86439 55.3196 0.608837 56.0114 -1.34282 56.0114C-4.68882 56.0114 -6.85186 53.7907 -6.85186 50.7885C-6.86542 50.1004 -6.74025 49.4166 -6.48381 48.778C-6.22738 48.1393 -5.84493 47.5589 -5.35928 47.0712C-4.87364 46.5836 -4.29475 46.1988 -3.65714 45.9397C-3.01954 45.6807 -2.3363 45.5527 -1.64816 45.5634C1.67435 45.5634 3.55767 48.0916 3.39112 51.5978H-4.4582C-4.18062 53.054 -3.15568 53.9829 -1.36844 53.9829M1.02308 49.9258C0.809555 48.5656 -0.00185585 47.5642 -1.62468 47.5642C-3.13433 47.5642 -4.18702 48.4183 -4.4582 49.9258H1.02522H1.02308ZM16.4463 50.7864C16.4463 47.5834 18.8442 45.5677 21.4856 45.5677C22.1193 45.5593 22.7473 45.6897 23.3253 45.9497C23.9034 46.2098 24.4175 46.5932 24.8316 47.0731V41.1541H26.9668V55.8021H24.8316V54.4206C24.4254 54.9202 23.912 55.322 23.3295 55.5963C22.747 55.8706 22.1102 56.0102 21.4663 56.005C18.904 56.005 16.4484 53.9765 16.4484 50.7885M24.9511 50.7671C24.9343 50.1409 24.7333 49.5334 24.373 49.0208C24.0128 48.5082 23.5095 48.1132 22.9259 47.8852C22.3424 47.6572 21.7046 47.6063 21.0923 47.7388C20.4799 47.8714 19.9203 48.1816 19.4833 48.6306C19.0464 49.0795 18.7515 49.6474 18.6356 50.2631C18.5197 50.8788 18.5878 51.515 18.8316 52.0921C19.0754 52.6692 19.4839 53.1617 20.0061 53.5079C20.5283 53.8541 21.1409 54.0386 21.7674 54.0384C23.6038 54.0384 24.949 52.5736 24.949 50.7671M40.6391 53.6711L42.5737 52.6675C42.8294 53.1235 43.2049 53.5009 43.6595 53.7591C44.114 54.0172 44.6305 54.1463 45.1531 54.1323C46.3617 54.1323 46.9894 53.5131 46.9894 52.8085C46.9894 52.0056 45.8214 51.8262 44.5509 51.5636C42.8427 51.2006 41.064 50.639 41.064 48.5742C41.064 46.9877 42.5737 45.5207 44.9502 45.5421C46.8229 45.5421 48.2172 46.2852 49.0073 47.4852L47.2136 48.4674C46.9659 48.1004 46.6285 47.8027 46.2336 47.6024C45.8387 47.4021 45.3992 47.3059 44.9567 47.3229C43.8079 47.3229 43.2228 47.8845 43.2228 48.5272C43.2228 49.2489 44.1495 49.4497 45.6015 49.7721C47.2542 50.1351 49.1247 50.6753 49.1247 52.7615C49.1247 54.1452 47.9162 56.0114 45.0549 55.9922C42.9623 55.9922 41.4889 55.1487 40.6412 53.6647M54.9263 51.3437L53.233 53.1907V55.7957H51.0977V41.1477H53.233V50.7415L57.7663 45.7663H60.367L56.4381 50.0582L60.4695 55.7979H58.0524L54.9285 51.3437H54.9263ZM9.99343 45.5656C7.45244 45.5656 5.32783 47.2097 5.32783 49.9429V55.8043H7.50582V50.2141C7.50582 48.5699 8.45175 47.5834 10.0682 47.5834C11.6846 47.5834 12.4874 48.5657 12.4874 50.2141V55.8043H14.6526V49.9429C14.6526 47.214 12.5173 45.5656 9.98702 45.5656" fill="#133459"></path></g><g clip-path="url(#clip1_2323_11951)"><path d="M104.033 -37.9105V-4.17207H75.9887L104.033 -37.9105ZM104.033 -50.0176C104.033 -46.3118 102.555 -42.7579 99.9257 -40.1375C97.296 -37.5172 93.7295 -36.0451 90.0106 -36.0451C86.2918 -36.0451 82.7252 -37.5172 80.0956 -40.1375C77.466 -42.7579 75.9887 -46.3118 75.9887 -50.0176H104.033ZM108.653 -4.16908C108.653 -7.87481 110.13 -11.4288 112.76 -14.0491C115.389 -16.6695 118.956 -18.1416 122.675 -18.1416C126.393 -18.1416 129.96 -16.6695 132.59 -14.0491C135.219 -11.4288 136.697 -7.87481 136.697 -4.16908H108.653ZM108.653 -16.2762V-50.0176H136.703L108.653 -16.2792V-16.2762ZM124.337 24.6966C125.779 24.7287 127.175 24.1915 128.222 23.2019L130.148 25.2736C128.876 26.5769 127.112 27.5455 124.37 27.5455C119.669 27.5455 116.63 24.4365 116.63 20.2334C116.611 19.2701 116.786 18.3128 117.147 17.4187C117.507 16.5246 118.044 15.712 118.727 15.0293C119.409 14.3466 120.222 13.8078 121.118 13.4451C122.014 13.0825 122.974 12.9033 123.941 12.9184C128.609 12.9184 131.255 16.4578 131.021 21.3664H119.987C120.377 23.4052 121.817 24.7056 124.328 24.7056M127.688 19.0257C127.388 17.1215 126.248 15.7194 123.968 15.7194C121.847 15.7194 120.368 16.9152 119.987 19.0257H127.691H127.688ZM51.8867 24.5382L60.3767 15.9406H52.0877V13.2442H64.3157V15.9945L55.8257 24.589H64.4357V27.2884H51.8867V24.5382ZM73.9667 24.6936C75.4089 24.7257 76.8053 24.1885 77.8517 23.1989L79.7777 25.2706C78.5057 26.574 76.7417 27.5425 73.9997 27.5425C69.2987 27.5425 66.2597 24.4335 66.2597 20.2304C66.2406 19.2671 66.4165 18.3099 66.7768 17.4157C67.1371 16.5216 67.6744 15.709 68.3567 15.0263C69.039 14.3436 69.8523 13.8048 70.7481 13.4422C71.6439 13.0795 72.6039 12.9003 73.5707 12.9154C78.2387 12.9154 80.8846 16.4548 80.6506 21.3634H69.6227C70.0127 23.4022 71.4527 24.7026 73.9637 24.7026M77.3237 19.0227C77.0237 17.1185 75.8837 15.7164 73.6037 15.7164C71.4827 15.7164 70.0037 16.9122 69.6227 19.0227H77.3267H77.3237ZM98.9926 20.2274C98.9926 15.7433 102.362 12.9213 106.073 12.9213C106.963 12.9095 107.845 13.0921 108.657 13.4562C109.469 13.8202 110.192 14.357 110.774 15.0289V6.74224H113.774V27.2496H110.774V25.3154C110.203 26.0149 109.482 26.5774 108.663 26.9614C107.845 27.3453 106.95 27.5409 106.046 27.5336C102.446 27.5336 98.9956 24.6936 98.9956 20.2304M110.942 20.2005C110.918 19.3238 110.635 18.4734 110.129 17.7557C109.623 17.0381 108.916 16.4851 108.096 16.1658C107.276 15.8466 106.38 15.7753 105.52 15.9609C104.66 16.1465 103.873 16.5808 103.26 17.2094C102.646 17.8379 102.231 18.6329 102.068 19.4949C101.906 20.3568 102.001 21.2475 102.344 22.0555C102.686 22.8635 103.26 23.5529 103.994 24.0376C104.728 24.5222 105.588 24.7806 106.469 24.7803C109.049 24.7803 110.939 22.7296 110.939 20.2005M132.983 24.2661L135.701 22.8611C136.06 23.4994 136.587 24.0278 137.226 24.3892C137.865 24.7506 138.59 24.9314 139.325 24.9118C141.022 24.9118 141.904 24.0449 141.904 23.0584C141.904 21.9344 140.264 21.6833 138.479 21.3156C136.079 20.8074 133.58 20.0212 133.58 17.1304C133.58 14.9093 135.701 12.8556 139.04 12.8855C141.671 12.8855 143.629 13.9258 144.739 15.6058L142.219 16.981C141.871 16.4671 141.397 16.0503 140.843 15.77C140.288 15.4896 139.67 15.3549 139.049 15.3786C137.435 15.3786 136.613 16.1648 136.613 17.0647C136.613 18.0751 137.915 18.3561 139.955 18.8075C142.276 19.3157 144.904 20.072 144.904 22.9926C144.904 24.9298 143.206 27.5425 139.187 27.5156C136.247 27.5156 134.177 26.3348 132.986 24.2572M153.055 21.0077L150.676 23.5935V27.2406H147.676V6.73328H150.676V20.1647L157.045 13.1994H160.699L155.179 19.2081L160.843 27.2436H157.447L153.058 21.0077H153.055ZM89.9266 12.9184C86.3566 12.9184 83.3716 15.2202 83.3716 19.0466V27.2526H86.4316V19.4263C86.4316 17.1245 87.7606 15.7433 90.0316 15.7433C92.3026 15.7433 93.4306 17.1185 93.4306 19.4263V27.2526H96.4726V19.0466C96.4726 15.2262 93.4726 12.9184 89.9176 12.9184" fill="#133459"></path></g><defs><clipPath id="clip0_2323_11951"><rect width="43.3464" height="32.6699" fill="white" transform="translate(0 0.611328)"></rect></clipPath><clipPath id="clip1_2323_11951"><rect width="108.9" height="20.9258" fill="white" transform="translate(51.8867 6.48242)"></rect></clipPath></defs></svg>