<svg xmlns="http://www.w3.org/2000/svg" width="133" height="30" viewBox="0 0 133 30" fill="none"><g clip-path="url(#clip0_2323_11935)"><path fill-rule="evenodd" clip-rule="evenodd" d="M16.9895 7.97243C17.1144 7.93969 17.1714 7.98699 17.2454 8.07431C17.6699 8.57886 19.038 10.3375 19.4103 10.819C19.4239 10.836 19.4338 10.8557 19.4395 10.8767C19.4453 10.8977 19.4466 10.9197 19.4436 10.9413C19.4405 10.9628 19.4331 10.9835 19.4217 11.0021C19.4104 11.0207 19.3953 11.0368 19.3775 11.0494C16.6196 13.3211 13.5511 16.5339 11.841 18.8359C11.8047 18.8844 11.835 18.888 11.8592 18.8771C14.8379 17.5236 21.8335 15.3635 24.9893 14.7583V10.5449L12.6548 0.253906L0.294922 10.5449V15.15C4.12624 12.7474 12.9787 9.02761 16.9895 7.97243ZM74.332 1.68627H79.7594V28.7715H74.332V1.68627ZM70.3114 1.68627H64.884V28.7727H70.3114V1.68627ZM106.348 11.0494H100.986L106.416 28.7751H111.409L112.773 24.2937C113.313 22.5132 114.216 19.1888 114.216 19.1888C114.218 19.1798 114.223 19.1718 114.23 19.1661C114.238 19.1604 114.247 19.1573 114.256 19.1573C114.274 19.1573 114.29 19.1694 114.296 19.1888C114.296 19.1888 115.199 22.5775 115.712 24.324L117.05 28.7715H121.955L127.346 11.0482H122.362L120.807 16.4102C120.333 18.1098 119.872 19.8131 119.424 21.5199C119.421 21.5289 119.416 21.5369 119.409 21.5426C119.402 21.5483 119.393 21.5514 119.384 21.5514C119.374 21.5514 119.365 21.5483 119.358 21.5426C119.351 21.5369 119.346 21.5289 119.344 21.5199C119.344 21.5199 118.507 18.2476 117.965 16.4102L116.364 11.0494H112.403L110.773 16.4102C110.262 18.1251 109.366 21.5223 109.366 21.5223C109.363 21.5306 109.357 21.5378 109.35 21.5428C109.343 21.5478 109.334 21.5504 109.326 21.5502C109.317 21.5502 109.309 21.5475 109.302 21.5425C109.295 21.5375 109.29 21.5304 109.287 21.5223C109.287 21.5223 108.421 18.187 107.902 16.4102L106.348 11.0494ZM82.4458 19.9711C82.4458 14.5861 86.5609 10.597 91.5953 10.597C96.5801 10.597 100.696 14.5873 100.696 19.9711C100.696 25.3719 96.5825 29.3621 91.5953 29.3621C86.5621 29.3621 82.4458 25.3719 82.4458 19.9747V19.9711ZM95.4885 19.9711C95.4885 17.3344 93.7057 15.5394 91.5953 15.5394C89.4353 15.5394 87.6536 17.3344 87.6536 19.9711C87.6536 22.626 89.4353 24.4028 91.5953 24.4028C93.7057 24.4028 95.4885 22.626 95.4885 19.9711ZM33.4888 4.19201V9.4145H43.081C43.1199 9.4145 43.1344 9.45332 43.115 9.48728L33.4851 26.7606L33.4682 26.7921C33.2499 27.2142 33.1977 27.3161 33.1977 27.7539V28.7727H51.8825V23.5599H41.5032C41.4949 23.5599 41.4868 23.5574 41.48 23.5529C41.4731 23.5484 41.4676 23.542 41.4643 23.5344C41.4607 23.5266 41.4592 23.518 41.46 23.5095C41.4609 23.5009 41.4641 23.4928 41.4692 23.4859L51.2106 5.9858L51.2373 5.93001C51.3052 5.78447 51.3707 5.64863 51.3707 5.28478L51.3731 4.19322L33.4888 4.19201ZM58.0522 2.17141C59.7441 2.17141 61.1425 3.61227 61.1425 5.38665C61.1425 7.16226 59.7441 8.60554 58.0522 8.60554C56.3603 8.60554 54.9631 7.16468 54.9631 5.38908C54.9631 3.61348 56.3603 2.17262 58.0522 2.17262V2.17141ZM55.3391 11.0494H60.7653V28.7727H55.3391V11.0494ZM6.68773 25.629C6.75444 25.7115 6.86966 25.7284 6.95456 25.6702C11.5366 23.1791 21.6164 20.0172 24.9893 19.412V28.8794H0.296135V19.0433C2.83458 17.5272 9.69191 14.4175 12.1054 13.5855C12.1539 13.5685 12.1649 13.5976 12.1236 13.6303C9.80713 15.446 6.17592 19.7309 4.3967 22.4853C4.31544 22.6139 4.3203 22.6551 4.38458 22.7339L6.68773 25.629ZM130.16 7.6571C130.629 7.6571 130.964 8.01367 130.964 8.52307C130.964 8.90875 130.766 9.21317 130.465 9.33324L130.927 10.1337H130.488L130.059 9.38904H129.681V10.1313H129.295V7.6571H130.16ZM129.681 9.02518H130.135C130.391 9.02518 130.579 8.81657 130.579 8.5267C130.579 8.23562 130.391 8.02337 130.137 8.02337H129.681V9.02518ZM130.043 6.7984C129.223 6.7984 128.485 7.31993 128.172 8.11798C128.018 8.50819 127.977 8.93404 128.055 9.34632C128.132 9.75861 128.325 10.1405 128.611 10.4478C128.885 10.7445 129.245 10.9485 129.641 11.0315C130.036 11.1145 130.448 11.0725 130.818 10.9112C131.575 10.58 132.069 9.80019 132.069 8.93543C132.067 7.75534 131.161 6.79962 130.043 6.7984ZM130.043 10.6625C129.381 10.6625 128.784 10.2417 128.531 9.59643C128.406 9.2812 128.374 8.93722 128.436 8.60416C128.499 8.27111 128.654 7.96256 128.885 7.7141C129.353 7.21926 130.058 7.07129 130.669 7.33933C131.28 7.60616 131.679 8.23683 131.679 8.93543C131.678 9.88873 130.947 10.6613 130.043 10.6625Z" fill="#133459"></path></g><defs><clipPath id="clip0_2323_11935"><rect width="131.774" height="29.1082" fill="white" transform="translate(0.296875 0.251953)"></rect></clipPath></defs></svg>