<svg xmlns="http://www.w3.org/2000/svg" width="92" height="40" viewBox="0 0 92 40" fill="none"><g clip-path="url(#clip0_2323_11764)"><path d="M40.928 31.3798C40.2458 31.3798 39.5548 31.2376 38.8903 30.9442L24.7151 24.606C22.1813 23.477 21.0384 20.4812 22.1636 17.9388L28.4804 3.71546C29.6055 1.17304 32.5912 0.0262877 35.125 1.15526L49.3002 7.49353C51.834 8.62251 52.9769 11.6183 51.8518 14.1607L45.5349 28.384C44.6933 30.2686 42.8505 31.3798 40.928 31.3798ZM40.0686 28.2774C41.1406 28.7574 42.3987 28.2685 42.8771 27.2017L49.1939 12.9784C49.6723 11.9028 49.185 10.6404 48.1219 10.1604L33.9378 3.82214C32.8658 3.3421 31.6078 3.83103 31.1294 4.89777L24.8126 19.1211C24.3341 20.1967 24.8214 21.4591 25.8845 21.9391L40.0686 28.2774Z" fill="#1B4A80"></path><path d="M85.3919 31.3879H69.8701C67.0971 31.3879 64.8379 29.1211 64.8379 26.3387V10.7641C64.8379 7.98169 67.0971 5.71484 69.8701 5.71484H85.3919C88.165 5.71484 90.4241 7.98169 90.4241 10.7641V26.3387C90.4241 29.1211 88.165 31.3879 85.3919 31.3879ZM69.8701 8.63062C68.7006 8.63062 67.7438 9.5907 67.7438 10.7641V26.3387C67.7438 27.5121 68.7006 28.4722 69.8701 28.4722H85.3919C86.5614 28.4722 87.5182 27.5121 87.5182 26.3387V10.7641C87.5182 9.5907 86.5614 8.63062 85.3919 8.63062H69.8701Z" fill="#2E79CE"></path><path d="M27.2649 13.6182L25.174 18.3119C25.1475 18.3652 25.1209 18.4096 25.0943 18.4541L25.9094 23.5034C26.0954 24.6679 25.3069 25.7613 24.1552 25.948L8.82826 28.4371C8.27012 28.526 7.70311 28.3926 7.24241 28.0637C6.78172 27.7348 6.4805 27.237 6.3919 26.6769L3.91124 11.298C3.82265 10.7379 3.95554 10.169 4.28334 9.70674C4.61114 9.24449 5.10727 8.94224 5.66542 8.85334L20.9924 6.36426C21.1075 6.34648 21.2227 6.33759 21.329 6.33759C22.3479 6.33759 23.2604 7.08432 23.4287 8.13329L24.2527 13.2181L26.4144 8.35553L26.2992 7.67103C25.8562 4.92415 23.2693 3.04845 20.5317 3.49293L5.20473 5.98201C3.88466 6.18647 2.71521 6.90653 1.93557 7.99995C1.14708 9.09336 0.836994 10.4268 1.04962 11.7602L3.53028 27.1392C3.74291 28.4726 4.46053 29.6372 5.55025 30.4283C6.40962 31.0595 7.42846 31.3795 8.48274 31.3795C8.74853 31.3795 9.02317 31.3617 9.29782 31.3173L24.6248 28.8282C27.3623 28.3837 29.2317 25.788 28.7887 23.0411L27.2649 13.6182Z" fill="#2763A6"></path><path d="M45.6492 20.961L47.8995 15.9029L47.2616 11.2003C47.1819 10.6402 47.3325 10.0802 47.678 9.62682C48.0235 9.17346 48.5197 8.8801 49.0867 8.80898L64.4668 6.71104C64.5642 6.70215 64.6617 6.69326 64.7591 6.69326C65.2198 6.69326 65.6628 6.84439 66.0438 7.12885C66.1146 7.18219 66.1767 7.24442 66.2387 7.29776C66.9209 6.5777 67.8157 6.0621 68.8168 5.83987C68.5333 5.44872 68.1966 5.10203 67.798 4.79979C66.726 3.98194 65.4059 3.63525 64.077 3.81304L48.6792 5.91098C47.3502 6.08877 46.1631 6.78216 45.3568 7.8578C44.5418 8.93344 44.1962 10.258 44.3734 11.5914L45.6492 20.961Z" fill="#133459"></path><path d="M71.8202 23.5653L69.8003 8.63086C68.6663 8.66642 67.7537 9.60871 67.7537 10.7555V15.138L68.9498 23.9565C69.0295 24.5165 68.8789 25.0766 68.5334 25.5299C68.1879 25.9833 67.6917 26.2767 67.1247 26.3478L51.7446 28.4457C51.1865 28.5257 50.6283 28.3746 50.1765 28.0279C49.7247 27.6812 49.4323 27.1834 49.3614 26.6145L48.6527 21.3785L46.4023 26.4367L46.4821 27.0056C46.6593 28.339 47.3503 29.5302 48.4223 30.3392C49.3083 31.0148 50.3625 31.3704 51.4611 31.3704C51.6915 31.3704 51.9218 31.3526 52.1522 31.3259L67.5145 29.2458C68.8435 29.068 70.0306 28.3746 70.8368 27.299C71.6519 26.2233 71.9974 24.8988 71.8202 23.5653Z" fill="#133459"></path><path d="M58.4079 36.9439C58.4079 35.6105 59.3825 34.6504 60.7114 34.6504C62.0846 34.6504 63.0149 35.5927 63.0149 36.9528C63.0149 38.3307 62.0669 39.2819 60.6937 39.2819C59.3116 39.2819 58.4079 38.3307 58.4079 36.9439ZM61.9517 36.9617C61.9517 36.1527 61.5619 35.4593 60.6848 35.4593C59.7989 35.4593 59.4622 36.1794 59.4622 36.9972C59.4622 37.7706 59.8786 38.4818 60.7291 38.4818C61.6062 38.4729 61.9517 37.7173 61.9517 36.9617ZM48.5827 34.7215H49.2383C49.3358 34.7215 49.4155 34.8015 49.4155 34.8993V36.5528H51.276V34.8993C51.276 34.8015 51.3558 34.7215 51.4532 34.7215H52.1088C52.2063 34.7215 52.286 34.8015 52.286 34.8993V39.033C52.286 39.1307 52.2063 39.2107 52.1088 39.2107H51.4621C51.3646 39.2107 51.2849 39.1307 51.2849 39.033V37.3617H49.4244V39.033C49.4244 39.1307 49.3447 39.2107 49.2472 39.2107H48.5916C48.4941 39.2107 48.4144 39.1307 48.4144 39.033V34.8993C48.4055 34.8015 48.4853 34.7215 48.5827 34.7215ZM37.6767 36.9439C37.6767 35.6105 38.6512 34.6504 39.9802 34.6504C41.3534 34.6504 42.2836 35.5927 42.2836 36.9528C42.2836 38.3307 41.3357 39.2819 39.9624 39.2819C38.5804 39.2819 37.6767 38.3307 37.6767 36.9439ZM41.2294 36.9617C41.2294 36.1527 40.8395 35.4593 39.9624 35.4593C39.0765 35.4593 38.7398 36.1794 38.7398 36.9972C38.7398 37.7706 39.1562 38.4818 40.0067 38.4818C40.8838 38.4729 41.2294 37.7173 41.2294 36.9617ZM28.4274 38.7752L30.6245 35.5216H28.8172C28.7197 35.5216 28.64 35.4416 28.64 35.3438V34.9082C28.64 34.8104 28.7197 34.7304 28.8172 34.7304H31.7851C31.8826 34.7304 31.9623 34.8104 31.9623 34.9082V35.0771C31.9623 35.1127 31.9535 35.1482 31.9357 35.1749L29.7829 38.4285H31.7142C31.8117 38.4285 31.8914 38.5085 31.8914 38.6063V39.0418C31.8914 39.1396 31.8117 39.2196 31.7142 39.2196H28.578C28.4805 39.2196 28.4008 39.1396 28.4008 39.0418V38.8818C28.3919 38.8374 28.4097 38.8018 28.4274 38.7752Z" fill="#133459"></path></g><defs><clipPath id="clip0_2323_11764"><rect width="90.7213" height="40.0031" fill="white" transform="translate(0.341797)"></rect></clipPath></defs></svg>