<svg xmlns="http://www.w3.org/2000/svg" width="151" height="54" viewBox="0 0 151 54" fill="none"><g clip-path="url(#clip0_3717_11884)"><path d="M54.8094 6.40625H22.793V46.872H54.8094V6.40625Z" fill="#F5F5F5"></path><path d="M21.573 5.19141C20.3147 5.19141 19.3008 6.20094 19.3008 7.45748V45.6835C19.3008 46.9377 20.3147 47.9496 21.573 47.9496H54.0101C55.2685 47.9496 56.2823 46.9377 56.2823 45.6835V7.45748C56.2823 6.20094 55.2685 5.19141 54.0101 5.19141H21.573ZM21.1176 7.06901H54.4463V46.0504H21.1176V7.06901Z" fill="#00233F"></path><path d="M50.4413 10.8203H41.4668V15.6682H50.4413V10.8203Z" fill="#00233F"></path><path d="M39.5643 10.8203H30.5898V15.6682H39.5643V10.8203Z" fill="#00233F"></path><path d="M50.4413 17.4395H41.4668V22.2874H50.4413V17.4395Z" fill="#00233F"></path><path d="M39.5643 17.4199H30.5898V22.2678H39.5643V17.4199Z" fill="#00233F"></path><path d="M50.4413 24.1523H41.4668V29.0003H50.4413V24.1523Z" fill="#00233F"></path><path d="M39.5643 24.1523H30.5898V29.0003H39.5643V24.1523Z" fill="#00233F"></path><path d="M50.4413 30.9395H41.4668V35.7874H50.4413V30.9395Z" fill="#00233F"></path><path d="M39.5643 30.8945H30.5898V35.7425H39.5643V30.8945Z" fill="#00233F"></path><path d="M50.4413 37.6133H41.4668V42.4612H50.4413V37.6133Z" fill="#00233F"></path><path d="M39.5643 37.6133H30.5898V42.4612H39.5643V37.6133Z" fill="#00233F"></path><path d="M32.0176 53.1534V0L0 5.3139V47.8371L32.0176 53.1534Z" fill="#133459"></path><path d="M12.5308 17.693L14.748 23.4578C14.9078 23.7982 14.9798 24.1638 15.0165 24.4098C14.9995 24.1231 15.0598 23.8993 15.2225 23.4578L17.8495 17.3765L21.8859 17.1367C20.2514 20.251 18.6796 23.3978 17.1712 26.5751L22.0872 36.2845L17.7369 36.0255L15.0931 29.6901C14.8863 29.2122 14.9262 29.1472 14.8846 28.9131C14.8653 29.0798 14.8587 29.2164 14.748 29.5174L12.0874 35.6898L8.35547 35.4668L12.6699 26.7046L8.78691 17.9161L12.5308 17.693Z" fill="#F5F5F5"></path></g><path d="M84.5151 25.5762H82.3533V17.0755C82.3533 16.3794 82.3961 15.5275 82.4816 14.5198H82.4449C82.3106 15.0939 82.1915 15.5061 82.0877 15.7565L78.1671 25.5762H76.6649L72.7351 15.8298C72.6252 15.5427 72.5092 15.1061 72.3871 14.5198H72.3504C72.3993 15.045 72.4237 15.903 72.4237 17.0939V25.5762H70.4085V12.4405H73.4771L76.9305 21.1885C77.1931 21.8602 77.3641 22.361 77.4435 22.6907H77.4893C77.7152 22.0007 77.8984 21.4877 78.0389 21.1518L81.5564 12.4405H84.5151V25.5762ZM88.5914 14.2267C88.2433 14.2267 87.9441 14.1137 87.6937 13.8878C87.4494 13.6618 87.3273 13.3748 87.3273 13.0267C87.3273 12.6787 87.4494 12.3886 87.6937 12.1565C87.9441 11.9245 88.2433 11.8084 88.5914 11.8084C88.9517 11.8084 89.257 11.9245 89.5074 12.1565C89.7578 12.3886 89.883 12.6787 89.883 13.0267C89.883 13.3565 89.7578 13.6405 89.5074 13.8786C89.257 14.1107 88.9517 14.2267 88.5914 14.2267ZM89.6448 25.5762H87.5197V16.1962H89.6448V25.5762ZM99.1439 25.1456C98.3928 25.5792 97.5042 25.796 96.4783 25.796C95.086 25.796 93.9623 25.3624 93.1074 24.4953C92.2524 23.622 91.8249 22.4922 91.8249 21.106C91.8249 19.561 92.2829 18.3213 93.199 17.387C94.1211 16.4465 95.3516 15.9763 96.8905 15.9763C97.7455 15.9763 98.4996 16.1259 99.1531 16.4252V18.4038C98.4996 17.9152 97.8035 17.6709 97.0646 17.6709C96.1669 17.6709 95.431 17.9763 94.857 18.587C94.2829 19.1915 93.9959 19.9854 93.9959 20.9686C93.9959 21.9396 94.2646 22.706 94.802 23.2678C95.3455 23.8296 96.0722 24.1105 96.9821 24.1105C97.7455 24.1105 98.4661 23.8388 99.1439 23.2953V25.1456ZM106.701 18.2206C106.445 18.019 106.075 17.9183 105.593 17.9183C104.964 17.9183 104.438 18.2022 104.017 18.7702C103.596 19.3381 103.385 20.1106 103.385 21.0877V25.5762H101.26V16.1962H103.385V18.129H103.422C103.629 17.4694 103.947 16.9565 104.374 16.59C104.808 16.2175 105.29 16.0313 105.822 16.0313C106.206 16.0313 106.5 16.0893 106.701 16.2053V18.2206ZM112.197 25.796C110.75 25.796 109.593 25.3594 108.725 24.4861C107.864 23.6067 107.434 22.4434 107.434 20.9961C107.434 19.4205 107.883 18.19 108.78 17.3045C109.684 16.4191 110.899 15.9763 112.426 15.9763C113.892 15.9763 115.034 16.4068 115.852 17.2679C116.67 18.129 117.08 19.3228 117.08 20.8495C117.08 22.3457 116.637 23.5457 115.751 24.4495C114.872 25.3472 113.687 25.796 112.197 25.796ZM112.298 17.6709C111.467 17.6709 110.811 17.961 110.328 18.5412C109.846 19.1213 109.605 19.9213 109.605 20.9411C109.605 21.9243 109.849 22.6999 110.338 23.2678C110.826 23.8296 111.48 24.1105 112.298 24.1105C113.135 24.1105 113.776 23.8327 114.222 23.277C114.673 22.7213 114.899 21.9304 114.899 20.9045C114.899 19.8724 114.673 19.0755 114.222 18.5137C113.776 17.9519 113.135 17.6709 112.298 17.6709ZM118.664 25.283V23.3136C119.458 23.9182 120.334 24.2205 121.293 24.2205C122.576 24.2205 123.217 23.8418 123.217 23.0846C123.217 22.8709 123.162 22.6907 123.052 22.5442C122.942 22.3915 122.792 22.2571 122.603 22.1411C122.42 22.0251 122.2 21.9213 121.944 21.8297C121.693 21.7381 121.412 21.6342 121.101 21.5182C120.716 21.3655 120.368 21.2037 120.057 21.0327C119.751 20.8617 119.495 20.6694 119.287 20.4556C119.086 20.2358 118.933 19.9885 118.829 19.7137C118.725 19.4389 118.673 19.1183 118.673 18.7518C118.673 18.2999 118.78 17.903 118.994 17.561C119.208 17.2129 119.495 16.9229 119.855 16.6908C120.215 16.4526 120.625 16.2755 121.083 16.1595C121.541 16.0374 122.014 15.9763 122.502 15.9763C123.37 15.9763 124.145 16.1076 124.829 16.3702V18.2297C124.169 17.7778 123.412 17.5519 122.557 17.5519C122.289 17.5519 122.044 17.5793 121.824 17.6343C121.611 17.6893 121.428 17.7656 121.275 17.8633C121.122 17.961 121.003 18.0801 120.918 18.2206C120.832 18.3549 120.789 18.5045 120.789 18.6694C120.789 18.8709 120.832 19.0419 120.918 19.1824C121.003 19.3228 121.128 19.448 121.293 19.5579C121.464 19.6618 121.666 19.7595 121.898 19.8511C122.136 19.9366 122.408 20.0312 122.713 20.135C123.116 20.2999 123.476 20.4679 123.794 20.6388C124.118 20.8098 124.392 21.0052 124.618 21.2251C124.844 21.4388 125.018 21.6892 125.14 21.9762C125.263 22.2571 125.324 22.593 125.324 22.9838C125.324 23.4602 125.214 23.8754 124.994 24.2296C124.774 24.5838 124.481 24.8769 124.115 25.109C123.748 25.3411 123.324 25.5121 122.841 25.622C122.365 25.738 121.861 25.796 121.33 25.796C120.304 25.796 119.415 25.625 118.664 25.283ZM131.507 25.796C130.059 25.796 128.902 25.3594 128.035 24.4861C127.174 23.6067 126.744 22.4434 126.744 20.9961C126.744 19.4205 127.192 18.19 128.09 17.3045C128.994 16.4191 130.209 15.9763 131.736 15.9763C133.201 15.9763 134.343 16.4068 135.162 17.2679C135.98 18.129 136.389 19.3228 136.389 20.8495C136.389 22.3457 135.946 23.5457 135.061 24.4495C134.182 25.3472 132.997 25.796 131.507 25.796ZM131.608 17.6709C130.777 17.6709 130.121 17.961 129.638 18.5412C129.156 19.1213 128.914 19.9213 128.914 20.9411C128.914 21.9243 129.159 22.6999 129.647 23.2678C130.136 23.8296 130.789 24.1105 131.608 24.1105C132.444 24.1105 133.085 23.8327 133.531 23.277C133.983 22.7213 134.209 21.9304 134.209 20.9045C134.209 19.8724 133.983 19.0755 133.531 18.5137C133.085 17.9519 132.444 17.6709 131.608 17.6709ZM143.552 13.4206C143.265 13.2557 142.939 13.1733 142.572 13.1733C141.54 13.1733 141.024 13.7565 141.024 14.9229V16.1962H143.204V17.8633H141.033V25.5762H138.908V17.8633H137.305V16.1962H138.908V14.6756C138.908 13.6863 139.232 12.9077 139.879 12.3397C140.527 11.7657 141.336 11.4787 142.307 11.4787C142.832 11.4787 143.247 11.5367 143.552 11.6527V13.4206ZM150.01 25.4754C149.595 25.683 149.049 25.7869 148.371 25.7869C146.551 25.7869 145.641 24.9136 145.641 23.167V17.8633H144.075V16.1962H145.641V14.0252L147.766 13.4206V16.1962H150.01V17.8633H147.766V22.5533C147.766 23.109 147.867 23.506 148.068 23.7441C148.27 23.9823 148.606 24.1014 149.076 24.1014C149.436 24.1014 149.748 23.9976 150.01 23.7899V25.4754ZM77.471 42.5762H70.5092V29.4405H77.1778V30.8328H72.0481V35.2022H76.7931V36.5854H72.0481V41.1838H77.471V42.5762ZM86.6494 33.1962L83.4983 37.9411L86.5945 42.5762H84.8449L83.0037 39.535C82.8877 39.3457 82.7503 39.1075 82.5915 38.8205H82.5548C82.5243 38.8755 82.3808 39.1136 82.1243 39.535L80.2465 42.5762H78.5152L81.7121 37.9778L78.6526 33.1962H80.4022L82.2159 36.4022C82.3503 36.6404 82.4816 36.8847 82.6098 37.135H82.6464L84.9915 33.1962H86.6494ZM94.802 42.1456C94.0814 42.5792 93.2264 42.796 92.2371 42.796C90.8998 42.796 89.8189 42.3624 88.9944 41.4953C88.1761 40.622 87.767 39.4922 87.767 38.106C87.767 36.561 88.2097 35.3213 89.0952 34.387C89.9807 33.4465 91.1624 32.9763 92.6402 32.9763C93.4646 32.9763 94.1913 33.129 94.8203 33.4343V34.9732C94.1241 34.4847 93.3791 34.2404 92.5852 34.2404C91.6265 34.2404 90.8387 34.5854 90.2219 35.2755C89.6112 35.9595 89.3059 36.8602 89.3059 37.9778C89.3059 39.077 89.5929 39.9441 90.1669 40.5793C90.7471 41.2144 91.5227 41.5319 92.4936 41.5319C93.3119 41.5319 94.0814 41.2602 94.802 40.7167V42.1456ZM104.613 38.2617H97.9897C98.0142 39.306 98.2951 40.1121 98.8325 40.68C99.3699 41.2479 100.109 41.5319 101.049 41.5319C102.106 41.5319 103.077 41.1838 103.962 40.4877V41.8983C103.138 42.4968 102.048 42.796 100.692 42.796C99.3668 42.796 98.3256 42.3716 97.5684 41.5228C96.8111 40.6678 96.4325 39.4678 96.4325 37.9228C96.4325 36.4633 96.8447 35.2755 97.6691 34.3595C98.4996 33.4374 99.5286 32.9763 100.756 32.9763C101.984 32.9763 102.933 33.3733 103.605 34.1671C104.277 34.961 104.613 36.0633 104.613 37.474V38.2617ZM103.074 36.9885C103.068 36.1213 102.857 35.4465 102.442 34.9641C102.032 34.4816 101.461 34.2404 100.729 34.2404C100.02 34.2404 99.4187 34.4938 98.9241 35.0007C98.4294 35.5076 98.1241 36.1702 98.0081 36.9885H103.074ZM108.396 42.5762H106.893V28.6894H108.396V42.5762Z" fill="#133459"></path><defs><clipPath id="clip0_3717_11884"><rect width="56.2801" height="53.1534" fill="white"></rect></clipPath></defs></svg>