<svg xmlns="http://www.w3.org/2000/svg" width="156" height="34" viewBox="0 0 156 34" fill="none"><g clip-path="url(#clip0_3717_11811)"><path d="M9.70312 3.61523H27.2223V29.3483H9.70312V3.61523Z" fill="#F5F5F5"></path><path d="M14.0362 0.0351562C6.18279 0.0351562 -0.142578 6.28411 -0.142578 14.0426V33.2108H19.26C27.1134 33.2108 33.4387 26.9618 33.4387 19.2033V0.0351562H14.0362ZM25.5143 5.89794C25.5143 8.49582 23.4176 10.4618 20.8946 10.4618H15.8485V14.4288H22.6003V18.9927H15.9551V28.5416H10.4116V4.70431H15.8485V8.98731C16.0617 6.60007 18.0517 4.70431 20.4682 4.70431H25.5143V5.89794Z" fill="#133459"></path><path d="M52.3438 12.2515V24.6792H55.6486V17.9036C55.6486 17.5174 55.6486 16.3238 56.1461 15.8323C56.6436 15.2355 57.3543 14.9547 58.1716 15.0249H58.2782V11.9355H58.1716C57.1766 11.8302 56.2527 12.2164 55.8618 12.6376L55.6486 12.8483C55.542 12.9536 55.4354 13.0589 55.3643 13.1291V12.3217L52.3438 12.2515Z" fill="#133459"></path><path d="M85.5697 24.7869V17.9411C85.5697 16.0453 86.4581 14.957 87.9861 14.957C88.5902 14.957 89.0877 15.1677 89.4786 15.5539C89.9761 16.0453 90.296 16.8528 90.296 17.8358V24.6815H93.5297V16.923C93.5297 14.2549 91.6108 12.0432 89.0877 11.8677C87.6663 11.7624 86.4581 12.0783 85.5697 12.956V8.07617H82.3359V24.6815H85.5697V24.7869Z" fill="#133459"></path><path d="M103.66 15.6221H103.553L103.66 15.5167C104.975 14.7093 105.366 13.0242 105.152 11.8306C104.655 9.44332 102.736 8.03906 99.7154 8.03906H95.2734V24.6444H99.9997C103.518 24.6444 105.65 23.17 106.254 20.3614C106.503 18.8168 105.472 16.3242 103.66 15.6221ZM98.5427 11.3742H99.9642C100.568 11.3742 101.776 11.4795 101.883 12.7784C101.883 13.1646 101.776 13.5859 101.492 13.8667C100.995 14.3582 100.177 14.4636 99.4667 14.4636H98.4361L98.5427 11.3742ZM102.452 20.8178C101.954 21.3093 101.03 21.6253 99.6443 21.6253H98.5427V17.6582H100.355C101.457 17.6582 102.771 18.1497 102.878 19.4487C102.949 19.9051 102.771 20.3965 102.452 20.8178Z" fill="#133459"></path><path d="M118.051 13.8332C116.843 12.6396 115.137 11.9375 113.325 11.9375C109.593 12.0428 106.679 15.0269 106.786 18.7131C106.893 22.1886 109.7 25.0673 113.218 25.1726H113.325C115.03 25.1726 116.736 24.4705 117.944 23.2769C120.574 20.7843 120.645 16.6067 118.157 14.0439C118.264 13.9386 118.157 13.8332 118.051 13.8332ZM113.538 22.0833C112.649 22.0833 111.726 21.8024 111.121 21.1003C110.411 20.3982 110.02 19.5205 110.02 18.5024C110.02 16.6067 111.512 15.1322 113.431 15.0269H113.538C115.457 15.0269 116.949 16.5013 117.056 18.3971C116.949 20.2928 115.528 22.0131 113.538 22.0833Z" fill="#133459"></path><path d="M132.229 13.8332C131.02 12.6396 129.315 11.9375 127.502 11.9375C123.771 12.0428 120.857 15.0269 120.964 18.7131C121.07 22.1886 123.878 25.0673 127.396 25.1726H127.502C129.208 25.1726 130.914 24.4705 132.122 23.2769C134.752 20.7843 134.823 16.6067 132.335 14.0439C132.335 13.9386 132.229 13.8332 132.229 13.8332ZM130.132 20.8897C129.528 21.5918 128.64 21.978 127.716 21.978C126.792 21.978 125.903 21.6971 125.299 20.995C124.588 20.2928 124.198 19.4152 124.198 18.3971C124.198 16.5013 125.69 15.0269 127.609 14.9216H127.716C129.635 14.9216 131.127 16.396 131.127 18.2918C131.02 19.4152 130.736 20.2928 130.132 20.8897Z" fill="#133459"></path><path d="M138.27 19.0996L138.483 18.8188H138.768L142.392 24.7869H145.91L140.971 16.6422L145.91 12.2538H141.468L138.235 15.1326V8.07617H135.107V24.7869H138.235L138.27 19.0996Z" fill="#133459"></path><path d="M155.185 20.9933C155.185 18.3252 152.981 17.6231 151.276 17.1316C150.174 16.8508 149.25 16.5348 149.25 15.8327C149.25 15.3412 149.641 15.0252 150.352 15.0252C150.743 15.0252 151.169 15.1305 151.453 15.4114L151.56 15.5167L153.656 13.4454L153.55 13.3401C152.733 12.5327 151.524 12.1465 150.423 12.1465C147.793 12.1465 146.194 13.621 146.194 15.938C146.194 18.6061 148.291 19.2029 150.032 19.7295C151.24 20.0103 152.128 20.3263 152.128 21.1337C152.128 21.8359 151.418 22.3274 150.423 22.3274C149.428 22.3274 148.824 21.8359 148.824 21.0284V20.8178H145.59V21.0284C145.59 23.4157 147.615 25.2061 150.423 25.2061C153.159 25.171 155.185 23.3806 155.185 20.9933Z" fill="#133459"></path><path d="M45.1318 11.4446V15.0255H50.6754V18.2201H45.2384V24.7851H41.9336V8.17969H50.9952V11.4446H45.1318Z" fill="#133459"></path><path d="M71.5699 18.6059C71.5699 14.5336 69.2601 12.041 65.5288 12.041C61.691 12.041 58.9902 14.7091 58.9902 18.3953C58.9902 22.257 61.7976 25.1708 65.4222 25.1708C67.3411 25.1708 69.2601 24.3634 70.5394 22.9942L70.646 22.8889L68.3361 20.8878L68.2295 20.9932C67.5188 21.8708 66.4172 22.3974 65.3156 22.3974C63.6099 22.3974 62.2951 21.3091 62.0108 19.5187V19.2378H71.4633L71.5699 18.6059ZM62.3306 16.4293L62.4372 16.2187C63.0413 15.2357 64.0363 14.7442 65.3511 14.7442C66.7726 14.7442 67.8742 15.341 68.1585 16.4293H62.3306Z" fill="#133459"></path><path d="M77.6096 17.1315C76.5079 16.8506 75.584 16.5346 75.584 15.7272C75.584 15.2357 75.9749 14.9197 76.6856 14.9197C77.0765 14.9197 77.5029 15.0251 77.7872 15.3059L77.8938 15.4112L79.9905 13.34L79.8838 13.2346C79.0665 12.4272 77.8583 12.041 76.7567 12.041C74.127 12.041 72.5279 13.5155 72.5279 15.8325C72.5279 18.5006 74.6245 19.0974 76.3658 19.624C77.574 19.9049 78.4624 20.2208 78.4624 21.0283C78.4624 21.7304 77.7517 22.2219 76.7567 22.2219C75.7617 22.2219 75.1576 21.7304 75.1576 20.923V20.7123H71.9238V20.923C71.9238 23.3102 73.9494 25.1006 76.7567 25.1006C79.564 25.1006 81.5896 23.3102 81.5896 20.923C81.5185 18.3251 79.3153 17.7283 77.6096 17.1315Z" fill="#133459"></path></g><defs><clipPath id="clip0_3717_11811"><rect width="155.291" height="33.3512" fill="white"></rect></clipPath></defs></svg>