<svg xmlns="http://www.w3.org/2000/svg" width="275" height="36" viewBox="0 0 275 36" fill="none"><path d="M143.53 3.49219H146.761L140.299 27.5574H137.151L132.015 11.6934H131.891L126.671 27.5574H123.523L116.771 3.49219H120.002L125.097 22.3799H125.222L130.441 6.72297H133.34L138.56 22.3799H138.684L143.53 3.49219Z" fill="#133459"></path><path d="M146.428 19.3148C146.428 16.7881 147.215 14.7171 148.83 13.0603C150.446 11.4035 152.475 10.5751 154.961 10.5751C157.446 10.5751 159.434 11.4035 161.008 13.0603C162.624 14.7171 163.411 16.7881 163.411 19.3148C163.411 21.8828 162.624 23.9953 161.008 25.6521C159.393 27.3089 157.405 28.1373 154.961 28.1373C152.517 28.1373 150.487 27.3089 148.83 25.6521C147.215 23.9539 146.428 21.8828 146.428 19.3148ZM149.493 19.3148C149.493 21.0959 150.031 22.5456 151.067 23.6639C152.103 24.7823 153.387 25.3207 154.919 25.3207C156.452 25.3207 157.695 24.7823 158.772 23.6639C159.807 22.5456 160.346 21.1373 160.304 19.3148C160.304 17.5751 159.807 16.1668 158.772 15.0485C157.736 13.9301 156.452 13.3917 154.919 13.3917C153.387 13.3917 152.144 13.9301 151.067 15.0485C150.031 16.1254 149.493 17.5751 149.493 19.3148ZM168.672 27.5574H165.565V11.0721H168.506V13.8059H168.63C168.962 12.8946 169.624 12.149 170.618 11.5277C171.613 10.9479 172.607 10.6165 173.518 10.5751C174.388 10.5751 175.133 10.6993 175.796 10.9893L174.844 14.013C174.471 13.8887 173.891 13.8059 173.062 13.8059C171.861 13.8059 170.826 14.2615 169.956 15.1727C169.086 16.084 168.63 17.2023 168.63 18.4864V27.5574H168.672ZM191.785 27.5574H188.016L182.921 19.7704L180.394 22.297V27.516H177.287V3.49219H180.394V18.3621L187.56 11.0721H191.495V11.1964L185.033 17.5751L191.785 27.3918V27.5574Z" fill="#133459"></path><path d="M205.207 22.9992C205.207 24.4075 204.586 25.6501 203.343 26.6442C202.1 27.6383 200.485 28.1353 198.538 28.0939C196.881 28.0939 195.431 27.6383 194.189 26.7685C192.987 25.94 192.035 24.7803 191.496 23.4134L194.23 22.2536C194.644 23.2063 195.224 23.9519 195.928 24.5317C196.674 25.0702 197.544 25.3602 198.455 25.3602C199.449 25.3602 200.278 25.153 200.94 24.7388C201.603 24.3246 201.935 23.8276 201.976 23.2063C201.976 22.1708 201.189 21.3838 199.573 20.8868L196.674 20.1826C193.484 19.3542 191.869 17.7802 191.869 15.5021C191.869 13.9695 192.49 12.7684 193.733 11.8571C194.976 10.9459 196.508 10.4902 198.414 10.4902C199.863 10.4902 201.189 10.863 202.39 11.6086C203.591 12.3542 204.42 13.2654 204.876 14.3423L202.142 15.5021C201.852 14.798 201.313 14.2181 200.609 13.8453C199.863 13.4725 199.035 13.2654 198.207 13.3068C197.42 13.2654 196.674 13.4725 196.011 13.8453C195.39 14.2595 195.058 14.7565 195.058 15.3778C195.058 16.3305 195.97 16.9932 197.751 17.366L200.236 18.0702C203.55 18.8572 205.207 20.4726 205.207 22.9992ZM215.935 28.0939C214.734 28.0939 213.657 27.8454 212.622 27.3483C211.627 26.8513 210.84 26.1471 210.343 25.2773H210.219L210.343 27.5554V34.8454H207.237V11.0701H210.178V13.3897H210.302C210.799 12.5198 211.545 11.8157 212.58 11.3186C213.574 10.8216 214.693 10.5731 215.935 10.5731C218.089 10.5731 219.912 11.4015 221.445 13.0997C223.019 14.798 223.764 16.869 223.764 19.2714C223.764 21.7566 222.977 23.8276 221.445 25.5258C219.912 27.2241 218.089 28.0525 215.935 28.0525M215.438 25.2773C216.971 25.2773 218.214 24.7389 219.208 23.6205C220.202 22.5022 220.74 21.0939 220.74 19.2714C220.74 17.5731 220.243 16.1648 219.208 15.0051C218.214 13.8453 216.929 13.3068 215.438 13.3482C213.906 13.3482 212.663 13.8867 211.669 15.0051C210.716 16.1648 210.219 17.5731 210.219 19.2714C210.219 21.0524 210.716 22.5022 211.669 23.6205C212.663 24.7389 213.906 25.2773 215.438 25.2773ZM232.297 10.5731C234.575 10.5731 236.398 11.153 237.724 12.3542C239.049 13.5553 239.712 15.2122 239.712 17.366V27.5554H236.729V25.2773H236.605C235.321 27.1412 233.623 28.0939 231.469 28.0939C229.688 28.0939 228.155 27.5554 226.912 26.5199C225.67 25.4844 225.048 24.1175 225.048 22.4607C225.048 20.7625 225.67 19.3956 226.954 18.4015C228.238 17.4074 229.978 16.869 232.173 16.869C233.996 16.869 235.528 17.2003 236.729 17.8216V17.1589C236.729 16.0406 236.274 15.1293 235.404 14.4252C234.575 13.721 233.54 13.3068 232.463 13.3068C230.723 13.3068 229.356 14.0524 228.321 15.5021L225.587 13.8039C227.119 11.65 229.356 10.5731 232.297 10.5731ZM228.279 22.5436C228.279 23.372 228.611 24.0347 229.315 24.5317C230.019 25.0288 230.806 25.3187 231.717 25.3602C233.001 25.3602 234.161 24.8631 235.155 23.9104C236.149 22.9578 236.688 21.8394 236.729 20.5554C235.777 19.7684 234.41 19.3956 232.67 19.3956C231.427 19.3956 230.392 19.6856 229.522 20.3069C228.652 20.8453 228.238 21.5909 228.279 22.5436ZM250.233 28.0939C247.748 28.0939 245.718 27.2655 244.103 25.6087C242.487 23.9104 241.7 21.798 241.7 19.2714C241.7 16.7447 242.487 14.6737 244.103 13.0169C245.718 11.3601 247.748 10.5317 250.233 10.5317C251.931 10.5317 253.381 10.9459 254.624 11.7743C255.867 12.6027 256.819 13.7624 257.441 15.295L254.624 16.4548C253.754 14.3837 252.221 13.3482 250.026 13.3482C248.618 13.3482 247.375 13.9281 246.298 15.0465C245.304 16.2062 244.765 17.5731 244.765 19.2299C244.765 20.8868 245.262 22.295 246.298 23.4962C247.334 24.656 248.576 25.1945 250.026 25.1945C252.263 25.1945 253.837 24.159 254.79 22.0879L257.606 23.2477C256.985 24.7803 255.991 25.94 254.707 26.7685C253.423 27.5969 251.931 28.0939 250.233 28.0939ZM266.843 28.0939C264.4 28.0939 262.411 27.2655 260.879 25.6087C259.305 23.9519 258.559 21.8394 258.559 19.2714C258.559 16.7861 259.305 14.7151 260.837 13.0169C262.37 11.3186 264.317 10.4902 266.678 10.5317C269.163 10.5317 271.11 11.3186 272.518 12.8512C273.927 14.4252 274.672 16.6205 274.714 19.5199V19.8512H261.707C261.749 21.4666 262.287 22.7507 263.281 23.7862C264.275 24.7803 265.518 25.2773 267.009 25.2359C268.997 25.2359 270.53 24.2418 271.69 22.295L274.424 23.6619C273.72 24.9874 272.643 26.1057 271.317 26.8927C270.033 27.7211 268.542 28.0939 266.843 28.0939ZM261.914 17.2832H271.4C271.317 16.1234 270.861 15.2122 270.033 14.4666C269.205 13.721 268.045 13.3482 266.595 13.3482C265.435 13.3482 264.482 13.6796 263.654 14.3837C262.826 15.0879 262.246 16.082 261.914 17.2832Z" fill="#133459"></path><path d="M13.9179 17.0356V13.2664H26.4275C26.5518 14.0534 26.6346 14.8403 26.6346 15.5859C26.6346 18.3197 25.889 21.8404 23.4037 24.2428C21.0012 26.7694 17.9773 28.0949 13.8351 28.0949C6.33763 28.0949 0 21.9646 0 14.4676C0 6.97047 6.33763 0.798828 13.8351 0.798828C18.0188 0.798828 21.0012 2.45565 23.238 4.56809L20.5455 7.17757C17.6874 4.44382 13.4623 3.69825 9.85854 5.31365C6.25479 6.92904 3.93513 10.5326 4.0594 14.4676C4.0594 19.9765 8.40875 24.367 13.8351 24.367C17.3974 24.367 19.4685 22.9173 20.7941 21.6333C21.8296 20.5978 22.4924 19.1066 22.7823 17.0356H13.9179Z" fill="#133459"></path><path d="M45.6889 19.3143C45.6889 24.409 41.7124 28.0954 36.8245 28.0954C31.9367 28.0954 28.043 24.3676 28.043 19.3143C28.043 14.2196 32.0195 10.5332 36.8245 10.5332C41.6295 10.5332 45.6889 14.2196 45.6889 19.3143ZM41.7538 19.3143C41.7538 16.1664 39.4756 14.0125 36.7831 14.0125C34.0906 14.0125 31.8124 16.125 31.8124 19.3143C31.8124 22.4623 34.1321 24.6576 36.7831 24.6576C39.4341 24.6576 41.7538 22.4623 41.7538 19.3143Z" fill="#133459"></path><path d="M64.9506 19.3143C64.9506 24.409 60.9741 28.0954 56.0862 28.0954C51.1984 28.0954 47.3047 24.3676 47.3047 19.3143C47.3047 14.2196 51.2812 10.5332 56.0862 10.5332C60.8912 10.5332 64.9506 14.2196 64.9506 19.3143ZM61.0155 19.3143C61.0155 16.1664 58.7373 14.0125 56.0448 14.0125C53.3524 14.0125 51.0741 16.125 51.0741 19.3143C51.0741 22.4623 53.3938 24.6576 56.0448 24.6576C58.6959 24.6576 61.0155 22.4623 61.0155 19.3143Z" fill="#133459"></path><path d="M83.339 11.0287V26.8513C83.339 33.3129 79.4867 36.0052 74.9717 36.0052C70.7051 36.0052 68.1784 33.1058 67.1842 30.7862L70.5395 29.4194C71.1608 30.8691 72.6106 32.5673 74.9302 32.5673C77.8712 32.5673 79.6938 30.7034 79.6938 27.4312V26.1057H79.5695C78.3683 27.4312 76.67 28.1767 74.8888 28.0939C70.5395 28.0939 66.5215 24.2418 66.5215 19.3542C66.5215 14.3837 70.5809 10.4902 74.8888 10.4902C77.0014 10.4902 78.6583 11.4429 79.5695 12.4784H79.6938V11.0287H83.339ZM79.9838 19.3542C79.9838 16.2477 77.9127 14.011 75.2202 14.011C72.6106 14.011 70.3323 16.2891 70.3323 19.3542C70.3323 22.3779 72.6106 24.656 75.2202 24.656C77.9127 24.656 79.9838 22.3779 79.9838 19.3542Z" fill="#133459"></path><path d="M89.8855 1.83594H86.0332V27.5994H89.8855V1.83594Z" fill="#133459"></path><path d="M104.798 22.1723L107.822 24.2434C106.87 25.6102 104.509 28.0954 100.449 28.0954C95.437 28.0954 91.709 24.2434 91.709 19.3143C91.709 14.0954 95.4784 10.5332 100.035 10.5332C104.591 10.5332 106.828 14.1782 107.532 16.1664L107.947 17.119L96.1826 22.0067C97.0939 23.7877 98.4608 24.699 100.449 24.699C102.479 24.6576 103.763 23.7049 104.798 22.1723ZM95.6027 19.0244L103.432 15.7936C103.017 14.6752 101.733 13.9297 100.201 13.9297C98.2123 13.9297 95.4784 15.6693 95.6027 19.0244Z" fill="#133459"></path></svg>