<svg xmlns="http://www.w3.org/2000/svg" width="206" height="36" viewBox="0 0 206 36" fill="none"><g clip-path="url(#clip0_3717_11827)"><path d="M25.4996 33.5317C25.4992 34.0653 25.2887 34.5769 24.9142 34.9542C24.5398 35.3315 24.0321 35.5437 23.5026 35.5441H2.19394C1.66442 35.5441 1.15655 35.3323 0.781822 34.9553C0.407098 34.5783 0.196156 34.0669 0.195313 33.5333V2.10389C0.195104 1.83934 0.246657 1.57735 0.347023 1.3329C0.44739 1.08845 0.594599 0.866337 0.780231 0.679274C0.965863 0.492211 1.18627 0.343864 1.42885 0.242724C1.67143 0.141583 1.93142 0.0896335 2.19394 0.0898444H15.8693L25.4996 9.98689V33.5317Z" fill="#133459"></path><path d="M16.9277 9.72758L25.4983 17.9826V9.92803H17.9064C17.5749 9.9318 17.2482 9.84893 16.958 9.6875L16.9277 9.72758Z" fill="#00233F"></path><path d="M25.5003 9.97068H17.8877C17.3581 9.97026 16.8504 9.7581 16.476 9.38078C16.1016 9.00347 15.891 8.49185 15.8906 7.95825V0.0351562L25.5003 9.97068Z" fill="#194577"></path><path fill-rule="evenodd" clip-rule="evenodd" d="M19.404 29.0073H6.23633V17.502H19.404V29.0073ZM13.6389 19.1616V21.1757H17.7857V19.1648L13.6389 19.1616ZM13.6389 22.4441V24.3683H17.7857V22.4344L13.6389 22.4441ZM13.6389 25.595V27.3765H17.7857V25.5854L13.6389 25.595ZM12.011 27.3669V25.5854H7.86578V27.3669H12.011ZM12.011 24.3475V22.4344H7.86578V24.3571L12.011 24.3475ZM12.011 21.1965V19.1616H7.86578V21.1757L12.011 21.1965Z" fill="#F5F5F5"></path><path d="M70.5544 17.8277C70.5544 15.3038 68.6672 13.5784 66.476 13.5784C64.2848 13.5784 62.396 15.3038 62.396 17.8277C62.396 20.3261 64.2848 22.0771 66.476 22.0771C68.6672 22.0771 70.5544 20.3229 70.5544 17.8277ZM73.7306 17.8277C73.7306 21.8655 70.4733 24.8416 66.4744 24.8416C62.4771 24.8416 59.2198 21.8655 59.2198 17.8277C59.2198 13.7612 62.4771 10.8139 66.476 10.8139C70.4733 10.8139 73.7306 13.7612 73.7306 17.8277ZM86.2045 17.8277C86.2045 15.3038 84.3173 13.5784 82.1261 13.5784C79.9349 13.5784 78.0477 15.3038 78.0477 17.8277C78.0477 20.3261 79.9349 22.0771 82.1261 22.0771C84.3173 22.0771 86.2045 20.3229 86.2045 17.8277ZM89.3807 17.8277C89.3807 21.8655 86.1234 24.8416 82.1261 24.8416C78.1288 24.8416 74.8699 21.8655 74.8699 17.8277C74.8699 13.7644 78.1288 10.8139 82.1261 10.8139C86.1234 10.8139 89.3807 13.7612 89.3807 17.8277ZM101.59 17.8518C101.59 15.3823 99.891 13.5768 97.73 13.5768C95.5373 13.5768 93.7025 15.3823 93.7025 17.8518C93.7025 20.2972 95.5373 22.0771 97.7284 22.0771C99.891 22.0771 101.59 20.2956 101.59 17.8518ZM104.382 11.2372V23.8298C104.382 29.0092 101.231 31.1259 97.5073 31.1259C96.1539 31.1482 94.8241 30.7679 93.684 30.0326C92.544 29.2973 91.6444 28.2397 91.0976 26.992L93.8617 25.8759C94.355 27.0176 95.5611 28.3646 97.5057 28.3646C99.8878 28.3646 101.364 26.9375 101.364 24.2531V23.2429H101.253C100.543 24.0944 99.1733 24.8384 97.4452 24.8384C93.8298 24.8384 90.5168 21.7837 90.5168 17.8534C90.5168 13.8927 93.8298 10.8139 97.4452 10.8139C99.1701 10.8139 100.54 11.5563 101.255 12.3821H101.366V11.2404H104.382V11.2372ZM109.354 3.8529H106.256V24.4103H109.353L109.354 3.8529ZM113.837 17.6097L120.301 15.0071C119.946 14.13 118.875 13.5206 117.618 13.5206C116.003 13.5206 113.756 14.9029 113.837 17.6097ZM121.426 20.132L123.89 21.726C123.212 22.6985 122.309 23.4899 121.259 24.0316C120.209 24.5734 119.044 24.8492 117.864 24.8352C113.756 24.8352 110.688 21.7564 110.688 17.8213C110.688 13.6505 113.783 10.8074 117.509 10.8074C121.262 10.8074 123.098 13.7034 123.699 15.2685L124.027 16.0655L114.359 19.9492C115.099 21.3571 116.251 22.0739 117.864 22.0739C119.483 22.0739 120.603 21.3026 121.426 20.132ZM47.4938 15.9997V13.0235H57.8338C57.9341 13.5415 57.9866 14.1556 57.9866 14.8195C57.9866 17.0516 57.358 19.8129 55.3292 21.7789C53.356 23.7721 50.8355 24.8352 47.497 24.8352C41.307 24.8352 36.1035 19.9444 36.1035 13.944C36.1035 7.94353 41.307 3.05273 47.497 3.05273C50.9214 3.05273 53.3592 4.35481 55.1923 6.05295L53.0282 8.15359C51.7138 6.95735 49.9332 6.0289 47.4938 6.0289C42.9746 6.0289 39.4404 9.5599 39.4404 13.944C39.4404 18.328 42.9746 21.859 47.4938 21.859C50.4249 21.859 52.0941 20.7173 53.1635 19.6798C54.0323 18.838 54.602 17.6369 54.8279 15.9965L47.4938 15.9997ZM142.616 20.0919C142.616 21.7163 142.025 23.0216 140.842 24.0062C139.641 24.9747 138.185 25.459 136.469 25.459C134.942 25.459 133.597 25.01 132.431 24.1104C131.264 23.2124 130.458 21.9841 130.012 20.4287L132.276 19.497C132.431 20.0486 132.644 20.5506 132.919 20.9995C133.193 21.4485 133.511 21.8382 133.871 22.1669C134.248 22.478 134.66 22.7282 135.106 22.9174C135.551 23.0906 136.022 23.1772 136.52 23.1772C137.601 23.1772 138.484 22.9013 139.17 22.3481C139.856 21.7773 140.199 21.0252 140.199 20.0919C140.199 19.3142 139.916 18.6488 139.35 18.0971C138.818 17.5616 137.824 17.042 136.366 16.5417C134.891 16.0061 133.974 15.6437 133.613 15.4513C131.659 14.4507 130.68 12.9722 130.68 11.0191C130.68 9.6545 131.221 8.48873 132.302 7.52019C133.4 6.55326 134.746 6.06899 136.34 6.06899C137.747 6.06899 138.965 6.43139 139.992 7.1578C141.022 7.86656 141.708 8.75652 142.052 9.82769L139.84 10.7609C139.631 10.0662 139.195 9.46314 138.603 9.04997C138.003 8.58334 137.267 8.34922 136.391 8.34922C135.465 8.34922 134.686 8.60899 134.052 9.12694C133.416 9.61121 133.098 10.2414 133.098 11.0191C133.098 11.6605 133.347 12.2121 133.845 12.6788C134.394 13.1438 135.586 13.6986 137.421 14.3384C139.289 14.9766 140.619 15.764 141.407 16.6956C142.214 17.6129 142.616 18.745 142.616 20.0919ZM145.054 6.4827H147.42V12.342L147.317 14.1059H147.42C147.78 13.4822 148.329 12.9642 149.067 12.5505C149.782 12.1457 150.588 11.931 151.408 11.9267C152.95 11.9267 154.134 12.3757 154.957 13.2737C155.797 14.1556 156.217 15.4176 156.217 17.058V25.0437H153.851V17.5263C153.851 15.2444 152.848 14.1043 150.842 14.1043C149.881 14.1043 149.067 14.51 148.398 15.323C147.749 16.1081 147.403 17.1017 147.42 18.1228V25.0437H145.054V6.4827ZM164.655 25.459C162.803 25.459 161.277 24.8176 160.076 23.5396C158.876 22.2615 158.276 20.6452 158.276 18.692C158.276 16.7566 158.859 15.1498 160.025 13.8718C161.191 12.5745 162.682 11.9267 164.501 11.9267C166.369 11.9267 167.854 12.5409 168.95 13.7676C170.066 14.9767 170.623 16.6796 170.623 18.8733L170.597 19.133H160.693C160.728 20.3774 161.139 21.3796 161.928 22.1397C162.717 22.8997 163.661 23.2814 164.757 23.2814C166.267 23.2814 167.45 22.5213 168.307 20.9995L170.417 22.037C169.877 23.081 169.057 23.9518 168.051 24.5514C167.055 25.1559 165.924 25.459 164.655 25.459ZM160.873 17.1639H168.102C168.077 16.7462 167.969 16.338 167.783 15.9637C167.597 15.5895 167.338 15.257 167.022 14.9863C166.387 14.3978 165.529 14.1043 164.449 14.1043C163.558 14.1043 162.786 14.3801 162.133 14.9334C161.5 15.4866 161.08 16.2322 160.873 17.1639ZM178.573 25.459C176.72 25.459 175.193 24.8176 173.993 23.5396C172.793 22.2615 172.192 20.6452 172.192 18.692C172.192 16.7566 172.776 15.1498 173.942 13.8718C175.109 12.5745 176.6 11.9267 178.418 11.9267C180.286 11.9267 181.77 12.5409 182.868 13.7676C183.983 14.9767 184.54 16.6796 184.54 18.8733L184.514 19.133H174.61C174.645 20.3774 175.056 21.3796 175.845 22.1397C176.635 22.8997 177.577 23.2814 178.675 23.2814C180.185 23.2814 181.367 22.5213 182.225 20.9995L184.335 22.037C183.794 23.0814 182.973 23.9523 181.967 24.5514C180.972 25.1559 179.841 25.459 178.573 25.459ZM174.79 17.1639H182.019C181.994 16.7462 181.886 16.338 181.7 15.9637C181.514 15.5895 181.256 15.257 180.939 14.9863C180.304 14.3978 179.446 14.1043 178.366 14.1043C177.475 14.1043 176.703 14.3801 176.051 14.9334C175.417 15.4866 174.996 16.2322 174.79 17.1639ZM191.317 25.2505C190.289 25.2505 189.431 24.9298 188.746 24.2916C188.076 23.6518 187.734 22.7618 187.716 21.6217V14.518H185.504V12.342H187.716V8.45345H190.082V12.342H193.169V14.5196H190.082V20.844C190.082 21.6907 190.246 22.2711 190.572 22.5806C190.897 22.8741 191.266 23.0216 191.678 23.0216C191.866 23.0216 192.046 23.0056 192.218 22.9703C192.407 22.9174 192.577 22.858 192.732 22.7891L193.478 24.9138C192.861 25.1383 192.141 25.2505 191.317 25.2505ZM205.319 21.5175C205.319 22.6239 204.838 23.5572 203.879 24.3173C202.917 25.0773 201.708 25.459 200.25 25.459C198.982 25.459 197.867 25.1303 196.907 24.4728C195.967 23.8261 195.249 22.9026 194.85 21.8286L196.958 20.9226C197.267 21.6827 197.712 22.2792 198.296 22.7105C198.896 23.1258 199.547 23.3327 200.25 23.3327C201.006 23.3327 201.632 23.1691 202.128 22.8404C202.644 22.5117 202.9 22.1236 202.9 21.673C202.9 20.8616 202.283 20.2651 201.048 19.8851L198.888 19.3399C196.435 18.7193 195.209 17.5263 195.209 15.764C195.209 14.6062 195.672 13.681 196.599 12.9899C197.542 12.2811 198.742 11.9267 200.2 11.9267C201.313 11.9267 202.318 12.1945 203.209 12.7301C204.119 13.2657 204.752 13.9841 205.113 14.882L203.003 15.764C202.761 15.2256 202.343 14.7866 201.819 14.5196C201.272 14.2043 200.65 14.0431 200.02 14.053C199.402 14.053 198.845 14.2086 198.347 14.518C197.867 14.8307 197.627 15.2108 197.627 15.6598C197.627 16.3862 198.304 16.9041 199.66 17.2152L201.563 17.7075C204.066 18.3297 205.319 19.5997 205.319 21.5175Z" fill="#133459"></path></g><defs><clipPath id="clip0_3717_11827"><rect width="205.318" height="35.4356" fill="white"></rect></clipPath></defs></svg>