<svg xmlns="http://www.w3.org/2000/svg" width="155" height="32" viewBox="0 0 155 32" fill="none"><g clip-path="url(#clip0_3717_11836)"><path d="M153.546 23.8365C153.546 23.5269 153.253 23.4031 152.989 23.4031H152.492V24.9509H152.755V24.3318H152.96L153.282 24.9509H153.604L153.224 24.2699C153.399 24.2389 153.546 24.0532 153.546 23.8674V23.8365ZM152.755 24.0841V23.6507H152.989C153.136 23.6507 153.282 23.6817 153.282 23.8674C153.282 24.0532 153.106 24.0841 152.96 24.0841H152.755ZM152.989 22.8459C152.287 22.8768 151.702 23.496 151.731 24.2389C151.76 24.9819 152.345 25.601 153.048 25.5701C153.75 25.5391 154.336 24.92 154.307 24.177C154.307 23.434 153.721 22.8149 153.019 22.8149C153.019 22.8149 152.989 22.8149 152.989 22.8459ZM152.989 25.3224C152.375 25.3224 151.877 24.7962 151.877 24.1461C151.877 23.496 152.375 22.9697 152.989 22.9697C153.604 22.9697 154.102 23.496 154.102 24.1461V24.177C154.102 24.8271 153.604 25.3534 152.989 25.3534V25.3224ZM69.2792 23.0626C67.3767 23.0626 66.4109 21.2361 66.4109 19.5025C66.4109 17.7689 67.4645 16.0353 69.1914 16.0353C70.011 16.0353 71.0354 16.4687 71.4452 17.0878L73.4355 14.9518C72.294 13.8064 70.772 13.1563 69.1914 13.2182C65.6791 13.2182 63.1327 15.8805 63.1327 19.5334C63.1327 23.2483 65.6499 25.8797 69.2792 25.8797C70.9769 25.8797 72.5574 25.3534 73.494 24.2699L71.533 22.041C70.9476 22.6911 70.1281 23.0626 69.2792 23.0626ZM58.0106 25.5391H61.1716V13.5587H58.0398L58.0106 25.5391ZM52.3031 20.1216C52.3031 21.5147 51.425 23.0316 49.8444 23.0316C48.5859 23.0316 47.9127 22.1029 47.9127 20.1526V13.5897H44.7809V21.0194C44.7809 23.496 45.9516 25.9106 49.0834 25.9106C50.5469 25.9106 51.7762 24.6723 52.3909 23.7436H52.4494V25.5701H55.4349V13.5587H52.3031V20.1216ZM39.1319 15.0756H39.0733C38.6343 14.5493 37.4343 13.2182 35.5025 13.2182C32.3121 13.2182 29.8535 15.8495 29.8535 19.5025C29.8535 23.2173 32.1365 25.8797 35.3561 25.8797C36.7611 25.8487 38.0489 25.1986 38.9855 24.0841H39.0441V31.421H42.1466V13.5587H39.1611L39.1319 15.0756ZM36.1171 23.0626C34.1854 23.0626 33.0731 21.267 33.0731 19.5025C33.0731 17.7998 34.0683 16.0043 36.1171 16.0043C37.9611 16.0043 39.1026 17.8618 39.1026 19.5334C39.1026 21.2051 37.9904 23.0626 36.1171 23.0626ZM107.329 13.2182C103.788 13.2182 101.183 15.8495 101.183 19.5025C101.183 23.2793 103.817 25.9106 107.329 25.9106C110.842 25.9106 113.476 23.2483 113.476 19.5025C113.476 15.8495 110.9 13.2182 107.329 13.2182ZM107.329 23.0626C105.28 23.0626 104.373 21.2051 104.373 19.5025C104.373 17.7998 105.31 16.0043 107.329 16.0043C109.349 16.0043 110.344 17.7998 110.344 19.5025C110.344 21.2051 109.407 23.0626 107.329 23.0626ZM146.433 18.1713C144.823 17.7689 144.238 17.5522 144.238 16.8402C144.238 15.9115 145.409 15.6948 145.906 15.6948C146.872 15.6948 147.955 16.3139 148.394 16.8711L150.238 15.0137C149.36 13.8992 147.692 13.2491 145.935 13.2491C143.652 13.2491 141.282 14.4565 141.282 17.1188C141.282 19.4406 143.009 20.1216 144.677 20.555C146.433 20.9884 147.077 21.298 147.077 22.0719C147.077 23.1554 145.906 23.3412 145.467 23.3412C144.384 23.2793 143.36 22.7839 142.628 21.9171L140.726 23.9603C141.75 25.1986 143.535 25.9106 145.35 25.9106C148.423 25.9106 150.238 24.3628 150.238 21.8243C150.238 19.4096 148.014 18.5738 146.433 18.1713ZM140.491 13.5587H136.452L132.413 18.5119H132.355V6.96484H129.223V25.5391H132.355V19.6573H132.413L136.599 25.5391H140.696L135.838 19.0072L140.491 13.5587ZM94.1289 13.2491C92.6654 13.2491 91.641 13.8683 90.6166 14.8589H90.5873V6.96484H87.4555V25.5391H90.4409V23.8365H90.4995C91.2897 25.1057 92.6069 25.8487 94.0411 25.8487C97.2607 25.8487 99.7193 23.1864 99.7193 19.5025C99.7193 15.8495 97.3192 13.2182 94.1289 13.2182V13.2491ZM93.5142 23.0626C91.6117 23.0626 90.4995 21.267 90.4995 19.5334C90.4995 17.7998 91.6702 16.0043 93.5142 16.0043C95.5338 16.0043 96.5289 17.7998 96.5289 19.5025C96.5289 21.267 95.446 23.0626 93.5142 23.0626ZM86.2847 13.5587H82.2455L78.2064 18.5119H78.1478V6.96484H75.016V25.5391H78.1478V19.6573H78.2064L82.3919 25.5391H86.4896L81.6601 19.0072L86.2847 13.5587ZM121.057 13.2491C117.486 13.2491 114.91 15.8805 114.91 19.5025C114.91 23.2793 117.544 25.9106 121.057 25.9106C124.569 25.9106 127.203 23.2483 127.203 19.5025C127.203 15.8495 124.598 13.2182 121.057 13.2182V13.2491ZM121.057 23.0626C119.008 23.0626 118.071 21.2051 118.071 19.5025C118.071 17.7998 119.008 16.0043 121.057 16.0043C123.105 16.0043 124.013 17.7998 124.013 19.5025C124.013 21.2051 123.076 23.0626 121.057 23.0626Z" fill="#133459"></path><path d="M13.1712 27.8614C20.4454 27.8614 26.3424 21.6244 26.3424 13.9307C26.3424 6.23699 20.4454 0 13.1712 0C5.89694 0 0 6.23699 0 13.9307C0 21.6244 5.89694 27.8614 13.1712 27.8614Z" fill="#133459"></path><path d="M3.65625 13.9292C3.65625 16.9321 5.93925 19.3467 8.77838 19.3467H9.51011V17.3345H8.77838C6.99295 17.3345 5.55875 15.8176 5.55875 13.9292C5.55875 12.0408 6.99295 10.5239 8.77838 10.5239H10.5345V21.0494C10.5345 22.1638 11.3833 23.0616 12.437 23.0616V8.51173H8.77838C5.93925 8.51173 3.65625 10.9264 3.65625 13.9292ZM17.5592 8.51173H16.8274V10.5239H17.5592C19.3446 10.5239 20.7788 12.0408 20.7788 13.9292C20.7788 15.8176 19.3446 17.3345 17.5592 17.3345H15.803V6.80909C15.803 5.69463 14.9542 4.79688 13.9005 4.79688V19.3467H17.5592C20.3983 19.3467 22.6813 16.9321 22.6813 13.9292C22.6813 10.9264 20.3983 8.51173 17.5592 8.51173Z" fill="#F5F5F5"></path><path d="M42.7316 3.18917C43.2291 3.18917 43.6096 2.78673 43.6096 2.26045C43.6096 1.73418 43.2291 1.33174 42.7316 1.33174C42.234 1.33174 41.8535 1.73418 41.8535 2.26045C41.8535 2.78673 42.234 3.18917 42.7316 3.18917ZM37.5509 3.80831C36.8192 3.80831 36.1167 4.24171 35.7947 4.95372H35.7362V3.9631H34.3898V10.0617H35.824V6.71828C35.824 5.9134 36.2631 5.07755 37.1704 5.07755C38.0777 5.07755 38.2534 5.97531 38.2534 6.68733V10.0926H39.6876V6.22297C39.6876 4.98468 39.0729 3.7464 37.5509 3.7464V3.80831ZM31.4629 10.0617H32.9264V3.9631H31.4629V10.0617ZM57.6589 3.15821C58.1565 3.15821 58.537 2.75577 58.537 2.2295C58.537 1.70322 58.1565 1.30078 57.6589 1.30078C57.1613 1.30078 56.7808 1.70322 56.7808 2.2295C56.7808 2.75577 57.1613 3.15821 57.6589 3.15821ZM55.3174 3.9631V5.32521H56.9272V10.0617H58.3906V5.32521H60.0004V3.9631H55.3174ZM52.8587 10.0617H54.3222V3.9631H52.8587V10.0617ZM40.4193 5.32521H42.0291V10.0617H43.4926V5.32521H45.1024V3.9631H40.4193V5.32521ZM49.9611 7.33742C49.9611 8.14231 49.522 8.97815 48.6147 8.97815C47.7073 8.97815 47.5317 8.04944 47.5317 7.33742V3.9631H46.0683V7.77083C46.0683 9.00911 46.7122 10.2474 48.2049 10.2474C48.9659 10.2474 49.6391 9.81399 49.9903 9.10198H50.0196V10.0926H51.3953V3.9631H49.9318L49.9611 7.33742Z" fill="#133459"></path></g><defs><clipPath id="clip0_3717_11836"><rect width="154.249" height="31.2667" fill="white"></rect></clipPath></defs></svg>