<svg xmlns="http://www.w3.org/2000/svg" width="108" height="36" viewBox="0 0 108 36" fill="none"><path d="M16.1244 16.3747C15.9276 17.3944 15.2478 20.4894 14.9436 21.4912H0.166016V20.5788C2.90327 20.3999 3.17163 20.1674 3.17163 17.3944V4.31688C3.17163 1.54394 2.97483 1.38293 0.273359 1.18614V0.255859H8.80716V1.18614C6.23092 1.38293 5.94467 1.50816 5.94467 4.31688V17.2334C5.94467 18.9866 6.10568 19.6486 6.69607 19.9885C7.35802 20.3463 8.44935 20.4178 9.82692 20.4178C11.6339 20.4178 12.7431 20.2568 13.4766 19.3981C14.067 18.7362 14.6574 17.6986 15.1404 16.1958L16.1244 16.3747Z" fill="#004780"></path><path d="M28.1304 21.4913V20.6147L28.7566 20.5431C29.7227 20.4 29.9374 20.1674 29.4722 18.9688L28.5777 16.5H23.2284C22.9601 17.1619 22.7096 17.8954 22.477 18.772C22.1013 20.078 22.4055 20.3284 23.3537 20.4716L24.1408 20.561V21.4376H18.2012V20.5968C19.7219 20.4358 20.3301 20.2211 21.2962 17.8238L26.1088 6.12382L27.1107 5.85547L32.1737 18.3784C32.9251 20.2927 33.4976 20.5073 35.0183 20.5968V21.4734H28.1304V21.4913ZM25.9299 9.55869H25.8583L23.6936 15.2656H28.041L25.9299 9.55869Z" fill="#004780"></path><path d="M57.2557 7.23239C55.5024 7.46496 55.2698 7.73331 54.6079 9.39707C53.9817 11.0966 52.4252 15.6049 50.4573 21.8664H49.5091L45.3585 11.1503H45.2869L41.2794 21.8127H40.3849L36.449 9.55808C35.8407 7.59019 35.4292 7.3934 33.8906 7.2145V6.33789H40.5101V7.2145L39.7945 7.35762C38.7569 7.59019 38.578 7.67964 38.9358 8.87827L41.6909 17.6443H41.7625L45.6268 6.76725H46.4856L50.6541 17.5549H50.7256C51.5844 15.0682 52.8188 11.1145 53.3019 9.00349C53.5881 7.82276 53.445 7.60808 52.2821 7.3934L51.477 7.25028V6.37367H57.2557V7.23239Z" fill="#004780"></path><path d="M67.5428 0.256482C69.8686 0.256482 71.765 0.632173 73.071 1.58034C74.3412 2.5464 75.1642 4.06704 75.1642 6.17806C75.1642 10.418 71.9975 12.4753 68.7951 12.8868C68.2942 12.9583 67.6859 12.9583 67.3281 12.9047L64.9129 12.2964V17.4487C64.9129 20.2217 65.1991 20.3827 68.1332 20.5795V21.5097H59.2773V20.5795C61.8894 20.3827 62.1756 20.1322 62.1756 17.4129V4.3175C62.1756 1.45511 61.9073 1.31199 59.492 1.15098V0.220703C59.5099 0.256483 67.5428 0.256482 67.5428 0.256482ZM64.9129 11.2588C65.3422 11.4198 66.2189 11.6345 67.3102 11.6345C69.4392 11.6345 72.0512 10.4895 72.0512 6.32117C72.0512 2.79685 69.797 1.2941 67.1134 1.2941C66.1831 1.2941 65.5033 1.45511 65.2886 1.66979C65.0202 1.86658 64.9308 2.26016 64.9308 3.20832V11.2588H64.9129Z" fill="#004780"></path><path d="M83.9667 21.4913V20.6147L84.5929 20.5431C85.5589 20.4 85.7736 20.1674 85.3085 18.9688L84.3782 16.5H79.0289C78.7605 17.1619 78.5101 17.8954 78.2775 18.772C77.9018 20.078 78.2059 20.3284 79.1541 20.4716L79.9413 20.561V21.4376H74.0195V20.5968C75.5402 20.4358 76.1485 20.2211 77.1325 17.8238L81.945 6.12382L82.9111 5.85547L87.9742 18.3784C88.7256 20.2927 89.2981 20.5073 90.8188 20.5968V21.4734H83.9667V21.4913ZM81.7483 9.55869H81.6767L79.5119 15.2656H83.8772L81.7483 9.55869Z" fill="#004780"></path><path d="M105.433 7.23239C103.68 7.42918 103.304 7.7512 102.428 9.03927C101.64 10.1842 100.764 11.6512 99.5651 13.9232C99.2073 14.603 99.1358 14.8714 99.1358 15.3723V18.0737C99.1358 20.2563 99.3325 20.471 101.748 20.6499V21.5265H93.9296V20.632C96.2733 20.4352 96.4343 20.2563 96.4343 18.0558V15.6586C96.4343 14.9787 96.3627 14.7819 95.9333 14.0485C95.2177 12.7246 94.3947 11.3471 92.9456 8.98561C92.069 7.59019 91.7291 7.37551 90.2441 7.23239V6.35578H96.9531V7.23239L95.9512 7.3934C95.2356 7.53652 95.164 7.82276 95.5219 8.43102C96.2733 9.82643 97.6508 12.2237 98.4559 13.5475C99.4936 11.7407 100.621 9.68331 101.104 8.57413C101.479 7.69753 101.336 7.46496 100.352 7.30395L99.5651 7.2145V6.33789H105.397V7.2145H105.433V7.23239Z" fill="#004780"></path><path d="M105.435 25.5703H0.130859V26.59H105.435V25.5703Z" fill="#004780"></path><path d="M4.90929 35.3215V35.1247C5.35655 35.0531 5.42811 34.9815 5.33866 34.6953C5.24921 34.427 5.10608 34.0334 4.96296 33.604H3.42437C3.31703 33.926 3.22757 34.2123 3.10234 34.5343C2.95922 34.9815 3.01289 35.0531 3.5496 35.1247V35.3215H1.93945V35.1247C2.40461 35.0531 2.51195 35.0173 2.78031 34.3554L4.30101 30.5091L4.55148 30.4375C4.99874 31.7077 5.49968 33.0852 5.96483 34.3375C6.19741 34.9637 6.30475 35.0352 6.76991 35.0889V35.2857H4.90929V35.3215ZM4.21155 31.4572C3.96109 32.0655 3.7464 32.6737 3.51382 33.282H4.81983L4.21155 31.4572Z" fill="#004780"></path><path d="M12.9243 30.7576C12.5128 30.7755 12.3339 30.865 12.316 31.187C12.2981 31.4196 12.2623 31.7595 12.2623 32.4214V35.3733H12.0119L8.8989 31.5627H8.88101V33.3696C8.88101 34.0494 8.8989 34.3893 8.93468 34.604C8.98835 34.9618 9.13148 35.0512 9.63242 35.1049V35.3017H7.89703V35.1049C8.3264 35.087 8.50531 34.9618 8.5232 34.6398C8.54109 34.4072 8.57687 34.0494 8.57687 33.4054V31.7953C8.57687 31.2765 8.55898 31.2228 8.41586 31.0439C8.25484 30.865 8.12961 30.7934 7.75391 30.7755V30.543H8.88101L11.9045 34.1388H11.9224V32.4214C11.9224 31.7416 11.9045 31.4017 11.8687 31.2049C11.8151 30.8829 11.6719 30.7755 11.1531 30.7576V30.5609H12.8885V30.7576H12.9243Z" fill="#004780"></path><path d="M19.308 35.3215V35.1247C19.7553 35.0531 19.8269 34.9815 19.7374 34.6953C19.648 34.427 19.5048 34.0334 19.3617 33.604H17.8231C17.7158 33.926 17.6263 34.2123 17.5011 34.5343C17.358 34.9815 17.4116 35.0531 17.9484 35.1247V35.3215H16.3203V35.1247C16.7855 35.0531 16.8928 35.0173 17.1612 34.3554L18.6819 30.5091L18.9323 30.4375C19.3796 31.7077 19.8805 33.0852 20.3457 34.3375C20.5783 34.9637 20.6856 35.0352 21.1508 35.0889V35.2857H19.308V35.3215ZM18.6103 31.4572C18.3598 32.0655 18.1452 32.6737 17.9126 33.282H19.2186L18.6103 31.4572Z" fill="#004780"></path><path d="M25.4473 31.6521C25.3757 31.3659 25.3399 31.2228 25.2147 31.0618C25.0716 30.865 24.9284 30.8113 24.4096 30.8113H23.8908C23.6582 30.8113 23.6403 30.8292 23.6403 31.0618V32.7792H24.3559C25.0179 32.7792 25.0537 32.7077 25.1431 32.2425H25.3757V33.6558H25.1431C25.0537 33.1549 25 33.0654 24.3559 33.0654H23.6403V34.3714C23.6403 35.0333 23.7119 35.0512 24.3559 35.087V35.2838H22.3164V35.087C22.8889 35.0333 22.9426 34.9976 22.9426 34.3714V31.4911C22.9426 30.865 22.871 30.8113 22.3164 30.7755V30.543H25.5904C25.5904 30.7934 25.6441 31.2586 25.6619 31.6343L25.4473 31.6521Z" fill="#004780"></path><path d="M30.0983 31.6521C30.0267 31.3659 29.9909 31.2228 29.8657 31.0618C29.7226 30.865 29.5794 30.8113 29.0606 30.8113H28.5239C28.2913 30.8113 28.2734 30.8292 28.2734 31.0618V32.7792H28.9891C29.651 32.7792 29.6868 32.7077 29.7762 32.2425H30.0088V33.6558H29.7762C29.6868 33.1549 29.6331 33.0654 28.9891 33.0654H28.2734V34.3714C28.2734 35.0333 28.345 35.0512 28.9891 35.087V35.2838H26.9316V35.087C27.5041 35.0333 27.5578 34.9976 27.5578 34.3714V31.4911C27.5578 30.865 27.4862 30.8113 26.9316 30.7755V30.543H30.2056C30.2056 30.7934 30.2593 31.2586 30.2772 31.6343L30.0983 31.6521Z" fill="#004780"></path><path d="M31.584 35.319V35.1222C32.1744 35.0685 32.2459 35.0327 32.2459 34.4066V31.4905C32.2459 30.8644 32.1744 30.8107 31.584 30.7749V30.5781H33.5698V30.7749C32.9794 30.8286 32.9079 30.8644 32.9079 31.4905V34.4066C32.9079 35.0327 32.9794 35.0864 33.5698 35.1222V35.319H31.584Z" fill="#004780"></path><path d="M39.8478 30.7576C39.4363 30.7755 39.2574 30.865 39.2395 31.187C39.2216 31.4196 39.1858 31.7595 39.1858 32.4214V35.3733H38.9533L35.8403 31.5627H35.8224V33.3696C35.8224 34.0494 35.8403 34.3893 35.8761 34.604C35.9298 34.9618 36.0729 35.0512 36.5738 35.1049V35.3017H34.8384V35.1049C35.2678 35.087 35.4467 34.9618 35.4646 34.6398C35.4825 34.4072 35.5183 34.0494 35.5183 33.4054V31.7953C35.5183 31.2765 35.5004 31.2228 35.3573 31.0439C35.1962 30.865 35.071 30.7934 34.6953 30.7755V30.543H35.8224L38.8459 34.1388H38.8638V32.4214C38.8638 31.7416 38.8459 31.4017 38.8101 31.2049C38.7565 30.8829 38.6133 30.7755 38.0945 30.7576V30.5609H39.8299L39.8478 30.7576Z" fill="#004780"></path><path d="M41.0469 35.319V35.1222C41.6373 35.0685 41.7088 35.0327 41.7088 34.4066V31.4905C41.7088 30.8644 41.6373 30.8107 41.0469 30.7749V30.5781H43.0327V30.7749C42.4423 30.8286 42.3708 30.8644 42.3708 31.4905V34.4066C42.3708 35.0327 42.4423 35.0864 43.0327 35.1222V35.319H41.0469Z" fill="#004780"></path><path d="M46.2167 30.543C46.7355 30.543 47.1649 30.6324 47.4512 30.8292C47.7374 31.0618 47.9163 31.4017 47.9163 31.8668C47.9163 32.8329 47.2007 33.2801 46.4672 33.3875C46.3598 33.4054 46.2167 33.4054 46.1452 33.3875L45.6084 33.2443V34.3714C45.6084 34.9797 45.68 35.0333 46.3241 35.0691V35.2659H44.3203V35.0691C44.9107 35.0155 44.9823 34.9618 44.9823 34.3535V31.4375C44.9823 30.7755 44.9107 30.7576 44.374 30.7219V30.543H46.2167ZM45.6442 33.0118C45.7337 33.0654 45.9305 33.1012 46.1452 33.1012C46.5745 33.1012 47.1649 32.8508 47.1649 31.9205C47.1649 31.1333 46.664 30.7934 46.1094 30.7934C45.9305 30.7934 45.7694 30.8471 45.7337 30.8829C45.68 30.9365 45.6621 31.026 45.6621 31.2049V33.0118H45.6442Z" fill="#004780"></path><path d="M51.3878 35.3215V35.1247C51.8351 35.0531 51.9066 34.9815 51.8172 34.6953C51.7277 34.427 51.5846 34.0334 51.4415 33.604H49.9029C49.7955 33.926 49.7061 34.2123 49.5809 34.5343C49.4377 34.9815 49.4914 35.0531 50.0281 35.1247V35.3215H48.418V35.1247C48.8831 35.0531 48.9905 35.0173 49.2588 34.3554L50.7795 30.5091L51.03 30.4375C51.4773 31.7077 51.9782 33.0852 52.4433 34.3375C52.6759 34.9637 52.7833 35.0352 53.2484 35.0889V35.2857H51.3699V35.3215H51.3878ZM50.6901 31.4572C50.4396 32.0655 50.2249 32.6737 49.9923 33.282H51.2984L50.6901 31.4572Z" fill="#004780"></path><path d="M58.1136 30.7573C57.6126 30.8289 57.5232 30.9005 57.2369 31.3477C56.9149 31.8665 56.6644 32.278 56.3066 32.922C56.2172 33.1009 56.1993 33.1904 56.1993 33.3872V34.389C56.1993 35.0151 56.2708 35.0688 56.9149 35.1046V35.3014H54.7859V35.1046C55.4479 35.0509 55.5016 35.0151 55.5016 34.389V33.4408C55.5016 33.2798 55.4837 33.2083 55.3584 33.0115C55.108 32.5821 54.8396 32.0812 54.4281 31.3835C54.1419 30.8826 54.0524 30.7931 53.623 30.7573V30.5605H55.4479V30.7573C54.9291 30.8289 54.947 30.9184 55.0901 31.1688C55.3763 31.7413 55.752 32.3495 56.0562 32.8862C56.3066 32.4211 56.7181 31.6876 56.9149 31.2583C57.0759 30.9005 57.058 30.8289 56.4855 30.7931V30.5605H58.1136V30.7573Z" fill="#004780"></path><path d="M64.143 31.6885C63.9999 31.2412 63.8031 30.6866 63.1769 30.6866C62.6402 30.6866 62.3898 31.0623 62.3898 31.4738C62.3898 31.9926 62.7297 32.2431 63.3201 32.5293C63.9284 32.8513 64.5903 33.1912 64.5903 33.9963C64.5903 34.7834 63.9284 35.3917 62.9444 35.3917C62.6581 35.3917 62.4077 35.338 62.2288 35.2844C62.0498 35.2128 61.9425 35.177 61.853 35.1233C61.7815 34.9623 61.692 34.3362 61.6562 33.9784L61.8888 33.9068C61.9962 34.3541 62.3361 35.1233 63.1054 35.1233C63.6421 35.1233 63.9641 34.7834 63.9641 34.2646C63.9641 33.7458 63.5884 33.4775 63.0159 33.1733C62.4971 32.905 61.7994 32.5114 61.7994 31.7242C61.7994 31.0086 62.3898 30.4004 63.338 30.4004C63.6958 30.4004 64.0357 30.4898 64.2862 30.5793C64.3041 30.8476 64.3577 31.1518 64.4293 31.599L64.143 31.6885Z" fill="#004780"></path><path d="M70.763 32.8705C70.763 34.4448 69.6538 35.4288 68.2941 35.4288C66.9344 35.4288 65.8789 34.3912 65.8789 32.96C65.8789 31.654 66.8092 30.4375 68.3657 30.4375C69.6538 30.4375 70.763 31.4036 70.763 32.8705ZM66.7198 32.7811C66.7198 34.1407 67.4354 35.1426 68.4551 35.1426C69.2423 35.1426 69.9401 34.4627 69.9401 33.0673C69.9401 31.5288 69.1708 30.7058 68.2226 30.7058C67.4354 30.7058 66.7198 31.4393 66.7198 32.7811Z" fill="#004780"></path><path d="M75.6103 34.1382C75.5566 34.3887 75.4135 35.0864 75.3419 35.319H71.9785V35.1222C72.5868 35.0685 72.6584 35.0327 72.6584 34.4066V31.4905C72.6584 30.8644 72.6047 30.8286 71.9964 30.7749V30.5781H73.9644V30.7749C73.3919 30.8286 73.3024 30.8644 73.3024 31.4905V34.3887C73.3024 34.7644 73.3561 34.9075 73.4813 34.9969C73.6244 35.0864 73.857 35.0864 74.1612 35.0864C74.5369 35.0864 74.7873 35.0327 74.9662 34.8538C75.1094 34.7107 75.2346 34.4781 75.3419 34.1382H75.6103Z" fill="#004780"></path><path d="M81.4072 30.758C80.9778 30.8116 80.7989 30.9011 80.781 31.1873C80.7631 31.3841 80.7273 31.7061 80.7273 32.3323V32.9942C80.7273 33.835 80.5842 34.4612 80.1906 34.9084C79.8507 35.2662 79.3498 35.4272 78.8846 35.4272C78.4552 35.4272 78.0259 35.3199 77.6859 35.0694C77.2566 34.7295 77.0598 34.1928 77.0598 33.3341V31.5272C77.0598 30.8474 76.9882 30.8295 76.4336 30.7758V30.5433H78.3837V30.7401C77.8112 30.7937 77.7575 30.8295 77.7575 31.4914V33.1373C77.7575 34.3181 78.2048 34.98 79.0814 34.98C80.1012 34.98 80.4411 34.1392 80.4411 32.9226V32.3323C80.4411 31.6703 80.4232 31.3841 80.3874 31.1515C80.3337 30.8832 80.1906 30.7759 79.6718 30.7222V30.5254H81.4251L81.4072 30.758Z" fill="#004780"></path><path d="M86.4717 31.7067C86.3823 31.3489 86.3107 31.17 86.2212 31.0269C86.0781 30.8658 85.9708 30.7943 85.4341 30.7943H84.9689V34.3902C84.9689 34.9805 85.0405 35.0521 85.7203 35.0879V35.2847H83.5555V35.0879C84.2175 35.0342 84.2712 34.9805 84.2712 34.3902V30.7943H83.8418C83.2335 30.7943 83.0904 30.8658 82.983 31.0269C82.8936 31.17 82.822 31.3668 82.7326 31.7067H82.5C82.5179 31.2594 82.5716 30.7585 82.5895 30.3828H82.7505C82.8578 30.5438 82.9473 30.5617 83.162 30.5617H86.096C86.2928 30.5617 86.3644 30.508 86.4717 30.3828H86.6327C86.6327 30.7227 86.6864 31.2594 86.7043 31.6888L86.4717 31.7067Z" fill="#004780"></path><path d="M87.8828 35.319V35.1222C88.4732 35.0685 88.5448 35.0327 88.5448 34.4066V31.4905C88.5448 30.8644 88.4732 30.8107 87.8828 30.7749V30.5781H89.8687V30.7749C89.2783 30.8286 89.2067 30.8644 89.2067 31.4905V34.4066C89.2067 35.0327 89.2783 35.0864 89.8687 35.1222V35.319H87.8828Z" fill="#004780"></path><path d="M95.9896 32.8705C95.9896 34.4448 94.8804 35.4288 93.5207 35.4288C92.161 35.4288 91.1055 34.3912 91.1055 32.96C91.1055 31.654 92.0358 30.4375 93.5923 30.4375C94.8625 30.4375 95.9896 31.4036 95.9896 32.8705ZM91.9284 32.7811C91.9284 34.1407 92.6441 35.1426 93.6638 35.1426C94.451 35.1426 95.1487 34.4627 95.1487 33.0673C95.1487 31.5288 94.3794 30.7058 93.4312 30.7058C92.6441 30.7058 91.9284 31.4393 91.9284 32.7811Z" fill="#004780"></path><path d="M102.25 30.7576C101.839 30.7755 101.66 30.865 101.642 31.187C101.624 31.4196 101.588 31.7595 101.588 32.4214V35.3733H101.338L98.2251 31.5627H98.2072V33.3696C98.2072 34.0494 98.2251 34.3893 98.2609 34.604C98.3145 34.9618 98.4577 35.0512 98.9586 35.1049V35.3017H97.2232V35.1049C97.6526 35.087 97.8315 34.9618 97.8494 34.6398C97.8673 34.4072 97.903 34.0494 97.903 33.4054V31.7953C97.903 31.2765 97.8851 31.2228 97.742 31.0439C97.5989 30.865 97.4558 30.7934 97.0801 30.7755V30.543H98.2072L101.231 34.1388H101.249V32.4214C101.249 31.7416 101.231 31.4017 101.195 31.2049C101.141 30.8829 100.998 30.7755 100.479 30.7576V30.5609H102.215V30.7576H102.25Z" fill="#004780"></path><path d="M107.474 2.2598C107.474 2.59971 107.367 2.88595 107.117 3.13641C106.866 3.38686 106.598 3.4942 106.258 3.4942C105.918 3.4942 105.632 3.38686 105.381 3.13641C105.131 2.88595 105.023 2.59971 105.023 2.2598C105.023 2.0809 105.077 1.902 105.131 1.74099C105.202 1.57998 105.31 1.41897 105.471 1.31163C105.703 1.13273 105.936 1.02539 106.24 1.02539C106.419 1.02539 106.598 1.07906 106.759 1.13273C106.991 1.22218 107.135 1.38319 107.278 1.57998C107.421 1.81255 107.474 2.00934 107.474 2.2598ZM106.24 1.22218C105.972 1.22218 105.721 1.32952 105.524 1.5442C105.328 1.74099 105.238 1.99145 105.238 2.29558C105.238 2.59971 105.328 2.83228 105.524 3.04696C105.721 3.24375 105.972 3.36898 106.24 3.36898C106.508 3.36898 106.759 3.26164 106.956 3.04696C107.152 2.85017 107.242 2.59971 107.242 2.29558C107.242 2.13457 107.188 1.97356 107.135 1.83044C107.081 1.68732 106.956 1.56209 106.812 1.47264C106.669 1.27585 106.473 1.22218 106.24 1.22218ZM106.383 2.38503L106.83 2.9754H106.49L106.061 2.40292V2.9754H105.793V1.56209H106.079C106.276 1.56209 106.419 1.61576 106.508 1.66943C106.598 1.75888 106.669 1.84833 106.669 1.99145C106.669 2.0809 106.651 2.17035 106.58 2.24191C106.544 2.31347 106.473 2.34925 106.383 2.38503ZM106.079 2.20613H106.133C106.329 2.20613 106.419 2.13457 106.419 2.00934C106.419 1.902 106.329 1.83044 106.133 1.83044H106.079V2.20613Z" fill="#004780"></path></svg>