<svg xmlns="http://www.w3.org/2000/svg" width="158" height="36" viewBox="0 0 158 36" fill="none"><path d="M49.6361 9.3418H47.5273V26.2124H58.1718V24.1035H49.6361V9.3418Z" fill="#133459"></path><path d="M139.912 15.4676L138.406 14.1621L134.289 18.8818L130.272 14.2625V14.1621L128.766 15.4676L133.084 20.2877L128.866 25.2083H128.766L130.272 26.5138L134.289 21.794L138.406 26.4133V26.5138L139.912 25.2083L135.594 20.2877L139.812 15.4676H139.912Z" fill="#133459"></path><path d="M111.895 21.4926L100.347 9.3418H99.9453V26.2124H102.054V14.0615L113.602 26.2124H114.004V9.3418H111.895V21.4926Z" fill="#133459"></path><path d="M144.028 14.4629H142.02V26.212H144.028V14.4629Z" fill="#133459"></path><path d="M144.133 9.3418H141.924V11.2498H144.133V9.3418Z" fill="#133459"></path><path d="M122.438 14.2637C119.125 14.2637 116.514 16.8746 116.514 20.2889C116.514 23.7032 119.125 26.3141 122.539 26.3141C124.547 26.3141 126.254 25.5107 127.259 24.4061L125.853 23.2011C125.049 23.904 123.945 24.5065 122.539 24.5065C120.43 24.5065 118.723 22.8998 118.622 20.791H128.162C128.162 16.6738 125.752 14.2637 122.438 14.2637ZM118.723 19.0838C119.125 17.2763 120.631 16.1717 122.338 16.1717C124.146 16.1717 125.652 17.1759 125.953 19.0838H118.723Z" fill="#133459"></path><path d="M151.461 19.4844L150.457 19.0827C149.051 18.5806 148.649 17.9781 148.649 17.2751C148.649 16.4718 149.453 15.9697 150.356 15.9697C151.26 15.9697 151.863 16.2709 152.365 16.8734L153.771 15.6684C152.867 14.6642 151.762 14.1621 150.457 14.1621C148.247 14.1621 146.641 15.568 146.641 17.2751C146.641 18.681 147.444 19.9865 149.553 20.7898L150.557 21.1915C151.963 21.6936 152.666 22.1957 152.666 23.0995C152.666 24.0033 151.662 24.6058 150.457 24.6058C149.151 24.6058 148.348 24.0033 147.545 23.0995L146.139 24.4049C147.243 25.7104 148.75 26.4133 150.457 26.4133C153.168 26.4133 154.775 24.907 154.775 22.9991C154.674 21.2919 153.57 20.2877 151.461 19.4844Z" fill="#133459"></path><path d="M82.3723 15.4676L80.866 14.1621L76.8492 18.8818L72.732 14.2625V14.1621L71.3262 15.4676L75.5438 20.2877L71.3262 25.2083L72.732 26.5138L76.8492 21.794L80.866 26.4133V26.5138L82.3723 25.2083L78.0543 20.2877L82.2719 15.4676H82.3723Z" fill="#133459"></path><path d="M86.4889 14.4629H84.4805V26.212H86.4889V14.4629Z" fill="#133459"></path><path d="M86.5881 9.3418H84.3789V11.2498H86.5881V9.3418Z" fill="#133459"></path><path d="M64.8994 14.2637C61.5855 14.2637 58.9746 16.8746 58.9746 20.2889C58.9746 23.7032 61.5855 26.3141 64.9998 26.3141C67.0082 26.3141 68.7153 25.5107 69.7195 24.4061L68.3136 23.2011C67.5103 23.904 66.4056 24.5065 64.9998 24.5065C62.891 24.5065 61.1838 22.8998 61.0834 20.791H70.6232C70.6232 16.6738 68.2132 14.2637 64.8994 14.2637ZM61.1838 19.0838C61.5855 17.2763 63.0918 16.1717 64.7989 16.1717C66.6065 16.1717 68.1128 17.1759 68.414 19.0838H61.1838Z" fill="#133459"></path><path d="M93.9187 19.4844L92.9145 19.0827C91.5087 18.5806 91.107 17.9781 91.107 17.2751C91.107 16.4718 91.9103 15.9697 92.8141 15.9697C93.7179 15.9697 94.3204 16.2709 94.8225 16.8734L96.2284 15.6684C95.3246 14.6642 94.22 14.1621 92.9145 14.1621C90.7053 14.1621 89.0986 15.568 89.0986 17.2751C89.0986 18.681 89.902 19.9865 92.0108 20.7898L92.9145 21.1915C94.3204 21.6936 95.0233 22.1957 95.0233 23.0995C95.0233 24.0033 94.0192 24.6058 92.8141 24.6058C91.5087 24.6058 90.7053 24.0033 89.902 23.0995L88.4961 24.4049C89.6007 25.7104 91.107 26.4133 92.8141 26.4133C95.5254 26.4133 97.1322 24.907 97.1322 22.9991C97.1322 21.2919 96.0275 20.2877 93.9187 19.4844Z" fill="#133459"></path><path d="M156.382 11.252C155.478 11.252 154.775 11.9549 154.775 12.8587C154.775 13.7625 155.478 14.4654 156.382 14.4654C157.286 14.4654 157.989 13.7625 157.989 12.8587C157.888 11.9549 157.185 11.252 156.382 11.252ZM156.382 14.1641C155.679 14.1641 155.077 13.5616 155.077 12.8587C155.077 12.1557 155.679 11.5532 156.382 11.5532C157.085 11.5532 157.688 12.1557 157.688 12.8587C157.688 13.5616 157.085 14.1641 156.382 14.1641Z" fill="#133459"></path><path d="M156.982 12.4552C156.982 12.154 156.782 11.9531 156.38 11.9531H155.777V13.7607H156.079V13.0577H156.38L156.782 13.7607H157.083L156.681 12.9573C156.882 12.8569 156.982 12.6561 156.982 12.4552ZM156.38 12.7565H156.079V12.2544H156.38C156.681 12.2544 156.782 12.3548 156.782 12.4552C156.681 12.6561 156.581 12.7565 156.38 12.7565Z" fill="#133459"></path><path d="M37.2825 6.23047C36.3787 6.23047 35.6758 6.93341 35.6758 7.83719C35.6758 8.74097 36.3787 9.44391 37.2825 9.44391C38.1863 9.44391 38.8892 8.74097 38.8892 7.83719C38.8892 6.93341 38.1863 6.23047 37.2825 6.23047ZM37.2825 9.14265C36.5796 9.14265 35.977 8.54013 35.977 7.83719C35.977 7.13425 36.5796 6.53173 37.2825 6.53173C37.9854 6.53173 38.5879 7.13425 38.5879 7.83719C38.5879 8.54013 38.0858 9.14265 37.2825 9.14265Z" fill="#133459"></path><path d="M37.9863 7.43374C37.9863 7.13248 37.7854 6.93164 37.3838 6.93164H36.7812V8.7392H37.0825V8.03626H37.3838L37.7854 8.7392H38.0867L37.685 7.93584C37.8859 7.83542 37.9863 7.63458 37.9863 7.43374ZM37.2833 7.63458H36.9821V7.13248H37.2833C37.5846 7.13248 37.685 7.2329 37.685 7.33332C37.685 7.63458 37.5846 7.63458 37.2833 7.63458Z" fill="#133459"></path><path d="M7.05809 16.0718C8.96605 12.3563 11.9786 9.34367 15.5937 7.63653C15.9954 7.43569 16.3971 7.23485 16.8992 7.03401V6.93359C4.0455 9.14283 -1.47756 25.1096 7.05809 31.9382H7.15851C5.85306 30.3315 2.94089 24.4067 7.05809 16.0718Z" fill="#133459"></path><path d="M9.96893 26.8168C9.66767 24.708 9.66767 22.5991 9.96893 20.4903C10.6719 16.3731 12.6802 12.5572 15.492 9.74539C15.9941 9.24329 16.5966 8.74119 17.1991 8.23909V8.13867C10.471 11.1513 6.55467 18.6828 7.05676 25.5113C7.35802 28.6243 8.56305 34.4487 14.5882 35.5533C14.5882 35.5533 14.6886 35.5533 14.5882 35.4529C12.1781 33.7458 10.471 29.8294 9.96893 26.8168Z" fill="#133459"></path><path d="M1.63477 11.3522C4.64735 7.13461 10.8733 4.22243 16.8985 5.02579C16.8985 5.02579 16.9989 4.92537 16.8985 4.92537C12.2792 3.61991 7.45909 4.52369 4.54693 6.83335C3.34189 7.83755 2.3377 9.54469 1.63477 11.3522Z" fill="#133459"></path><path d="M35.6755 16.674C34.8721 6.93322 26.1356 -0.397441 16.395 0.405919C12.9807 0.707179 9.36562 2.11306 6.6543 4.42272V4.52314C8.96394 3.21768 12.1774 3.21768 13.9849 3.41852C14.9891 3.51894 15.9933 3.71978 16.8971 4.02104C17.8008 4.3223 18.805 4.72398 19.6084 5.12566C20.1105 5.3265 20.5122 5.62776 20.9138 5.92902C22.5205 5.22608 24.2277 4.72398 25.8344 4.52314C25.9348 4.52314 26.0352 4.52314 26.1356 4.72398C26.2361 4.8244 26.1356 5.02524 25.9348 5.02524C25.031 5.22608 24.1273 5.52734 23.2235 5.8286V5.92902C24.4285 5.92902 25.6335 6.02944 26.8386 6.3307C26.939 6.3307 27.0394 6.43112 27.0394 6.53154C27.0394 6.73238 26.939 6.8328 26.7382 6.8328C25.734 6.63196 24.6294 6.63196 23.5247 6.63196V6.73238C24.0268 6.93322 24.5289 7.03364 25.031 7.23448C25.9348 7.63616 26.8386 8.03784 27.6419 8.53994C27.7424 8.53994 27.7424 8.64036 27.7424 8.74078C27.7424 8.94162 27.5415 9.04204 27.3407 8.94162C26.5373 8.43952 25.6335 8.13826 24.8302 7.837C24.4285 7.73658 24.1273 7.63616 23.7256 7.43532C23.7256 7.43532 23.6252 7.43532 23.7256 7.53574C24.3281 7.93742 24.9306 8.3391 25.5331 8.8412C26.2361 9.44372 26.939 10.1467 27.5415 10.8496C27.6419 10.95 27.6419 11.0504 27.5415 11.1509C27.4411 11.3517 27.2403 11.3517 27.1398 11.2513C26.5373 10.5483 25.8344 9.94582 25.1315 9.3433C24.7298 9.04204 24.2277 8.64036 23.7256 8.43952C23.7256 8.43952 23.6252 8.43952 23.7256 8.53994C23.826 8.64036 24.0268 8.8412 24.1273 8.94162C24.7298 9.64456 25.3323 10.4479 25.8344 11.2513C26.3365 12.0546 26.7382 12.9584 27.1398 13.8622C27.1398 13.9626 27.1398 14.063 27.1398 14.1635C27.0394 14.2639 26.7382 14.2639 26.7382 14.063C26.4369 13.1593 25.9348 12.3559 25.4327 11.5525C24.9306 10.7492 24.3281 10.0462 23.7256 9.3433C23.1231 8.64036 22.4201 8.03784 21.6168 7.43532C21.4159 7.23448 21.1147 7.03364 20.9138 6.93322C6.25262 15.0672 11.374 36.5571 21.918 35.4525C30.5541 33.3437 36.3784 25.5109 35.6755 16.674Z" fill="#133459"></path><path d="M3.94381 13.9607C7.35807 8.63848 13.1824 6.32882 16.7975 5.92714V5.82672C15.2912 5.7263 13.8853 5.82672 12.0778 6.12798C10.2702 6.52966 8.46268 7.2326 6.95639 8.2368C5.34968 9.241 3.94381 10.5465 2.8392 12.0528C0.629971 14.9649 -0.0729645 18.6805 0.830809 22.1952C0.931229 22.5969 1.23249 23.4002 1.43333 24.0027H1.53374C0.931227 19.9859 2.23668 16.6721 3.94381 13.9607Z" fill="#133459"></path></svg>