<svg xmlns="http://www.w3.org/2000/svg" width="158" height="36" viewBox="0 0 158 36" fill="none"><g clip-path="url(#clip0_3973_13662)"><path d="M17.7516 12.7489V35.5528L0 26.3638V3.89258L17.7516 12.7489Z" fill="#133459"></path><path d="M39.7176 9.42699V12.0834C40.2486 12.2054 40.0775 11.9925 40.213 11.7952C42.3526 8.66198 45.6607 8.24732 49.0689 9.72856L51.5861 12.3074C54.1811 8.00119 61.7527 7.46458 63.6323 12.6866C63.7323 12.966 64.1255 14.2476 64.1255 14.4095V28.9114H59.9087V15.0747C59.9087 14.5936 58.94 13.0658 58.4357 12.7797C56.4917 11.6777 53.8611 12.4959 52.7991 14.4029C52.4059 15.1102 51.9193 16.9684 51.9193 17.7312V28.9114H47.7025V15.0747C47.7025 14.5071 46.6849 12.997 46.0851 12.7043C43.8389 11.6089 41.3439 12.6312 40.4108 14.884C40.1086 15.6114 39.7154 17.4496 39.7154 18.1747V28.581C39.7154 28.6475 39.9953 28.7517 39.9375 28.9136H35.7207V9.42699H39.7154H39.7176Z" fill="#133459"></path><path d="M71.0013 9.428L75.3292 23.3777L79.8749 9.428H84.3117L76.5134 31.203C76.0335 32.2252 75.3515 33.5379 74.4361 34.2209C74.0006 34.5446 72.2121 35.3296 71.7745 35.3296H67.8909V32.2297C70.7525 32.4714 72.9475 32.0279 73.3741 28.8326L66.3379 9.42578H70.9969L71.0013 9.428Z" fill="#133459"></path><path d="M101.621 24.2628C100.737 27.0412 97.3468 29.5291 94.3986 29.5823C84.2808 29.7619 82.1769 15.7967 89.7463 10.752C92.5857 8.8606 97.4712 8.03572 100.18 10.537C103.103 13.2378 99.1464 16.1381 97.3979 14.4197C95.8183 12.8652 95.6872 8.60781 91.9702 11.1977C86.7558 14.8321 89.1686 27.9991 98.2511 25.6553C99.5041 25.3315 100.415 24.5621 101.624 24.2628H101.621Z" fill="#133459"></path><path d="M125.143 21.4962C125.216 21.2324 125.669 20.9951 125.923 21.3809C126.176 21.7668 126.5 24.0884 126.945 25.0108C127.331 25.8113 128.184 26.9932 128.98 27.4079C132.941 29.4745 137.462 25.5652 133.337 22.3965C130.484 20.2035 125.256 19.2167 125.165 14.6112C125.056 9.13638 133.123 7.88576 137.02 9.86591C137.089 10.6487 137.578 15.6268 137.342 15.8529C136.663 16.5071 136.24 14.3185 136.052 13.9304C135.307 12.3915 134.559 11.0478 132.781 10.5533C130.857 10.0211 127.905 10.9613 128.573 13.4226C129.444 16.6312 137.987 17.6402 138.467 22.5916C139.162 29.7739 130.022 30.6653 125.143 28.2483C125.458 26.4832 124.719 23.0373 125.143 21.4962Z" fill="#133459"></path><path d="M21.5217 10.9785V33.7824C20.9684 33.401 19.8776 33.268 19.7465 32.5651L19.7109 11.8988L3.75448 3.57238C3.87223 3.23311 3.48565 1.94701 4.09663 2.12884L21.5217 10.9785Z" fill="#133459"></path><path d="M25.2959 9.20703V32.0109C24.7427 31.6295 23.6518 31.4965 23.5208 30.7936L23.4852 10.1273C18.884 7.75684 14.0762 5.60817 9.53941 3.12023C9.20171 2.93619 7.78869 2.25322 7.68649 2.14235C7.45765 1.894 7.31546 0.18881 7.87089 0.352899L25.2959 9.2026V9.20703Z" fill="#133459"></path><path d="M122.699 26.4776C122.557 26.3246 119.997 28.1406 119.648 26.3223C119.115 23.5395 119.942 19.5371 119.584 16.6145C121.688 6.23257 105.309 6.95323 104.505 15.6278H108.5C108.42 12.2373 109.126 9.95117 113.034 10.5499C115.578 10.9401 115.498 14.7519 115.34 16.6988C112.639 18.0691 105.207 20.4307 104.176 23.3776C103.412 25.5573 104.676 27.8701 106.727 28.7992C110.019 30.2915 113.245 29.4112 115.269 26.4776C116.154 29.2604 118.613 30.0565 121.079 28.5109C121.457 28.2737 123.11 26.9188 122.699 26.4776ZM115.043 25.5884C114.927 25.8412 113.961 26.5441 113.679 26.6638C110.422 28.0564 107.087 24.5639 108.982 21.5327C109.924 20.0249 113.661 18.5148 115.378 18.0647C115.067 19.5947 115.543 24.493 115.043 25.5884Z" fill="#133459"></path><path d="M157.98 24.044C157.894 23.9553 157.434 23.8954 157.209 24.0218C156.423 24.4675 155.874 25.1371 154.868 25.472C148.571 27.5763 144.521 23.0018 144.668 16.9549H157.758C157.329 6.34234 144.088 6.55743 141.18 16.0214C137.951 26.5297 148.876 34.2463 156.203 26.5829C156.398 26.3789 158.089 24.1526 157.98 24.0417V24.044ZM153.099 15.4071H144.89C145.052 8.93893 153.432 8.47327 153.099 15.4071Z" fill="#133459"></path></g><defs><clipPath id="clip0_3973_13662"><rect width="157.985" height="35.2081" fill="white" transform="translate(0 0.345703)"></rect></clipPath></defs></svg>