<svg xmlns="http://www.w3.org/2000/svg" width="108" height="36" viewBox="0 0 108 36" fill="none"><g clip-path="url(#clip0_3973_13649)"><path d="M18.5412 5.76379V30.7777L0.130859 28.0386L18.42 35.71L28.0989 32.2668V3.30245L18.5285 0.501953L0.130859 7.39499V27.7769L6.19215 25.4835L6.21129 8.70964L18.5412 5.76379Z" fill="#133459"></path><mask id="mask0_3973_13649" style="mask-type:luminance" maskUnits="userSpaceOnUse" x="0" y="0" width="108" height="36"><path d="M107.32 0.396484H0.130859V35.6046H107.32V0.396484Z" fill="white"></path></mask><g mask="url(#mask0_3973_13649)"><path d="M48.6305 28.6692C47.1886 28.6692 45.8902 28.3947 44.7354 27.8488C43.5805 27.3029 42.6012 26.5535 41.7972 25.6071C40.9933 24.6575 40.3744 23.5431 39.9406 22.2607C39.5067 20.9784 39.293 19.6024 39.293 18.1294C39.293 16.5047 39.5099 15.0156 39.9406 13.6654C40.3744 12.3152 41.0029 11.1589 41.8323 10.1963C42.6618 9.23373 43.6762 8.48435 44.8757 7.94492C46.0752 7.40872 47.4438 7.14062 48.9783 7.14062C50.3915 7.14062 51.6644 7.40549 52.7905 7.932C53.9166 8.45851 54.8737 9.19174 55.6648 10.1252C56.456 11.0587 57.0621 12.1667 57.4864 13.4426C57.9107 14.7217 58.1212 16.1106 58.1212 17.6094C58.1212 19.1857 57.9139 20.6521 57.4992 22.0023C57.0844 23.3525 56.4751 24.5218 55.6712 25.507C54.8673 26.4954 53.8752 27.2706 52.698 27.8294C51.5208 28.3915 50.165 28.6725 48.6274 28.6725M48.7837 8.89457C47.5746 8.89457 46.5027 9.1336 45.5648 9.61488C44.6301 10.0929 43.8389 10.7422 43.1977 11.5594C42.5565 12.3766 42.0684 13.336 41.7398 14.4342C41.4112 15.5324 41.239 16.7017 41.2294 17.9421C41.2198 19.1243 41.3666 20.2516 41.6696 21.3337C41.9727 22.4125 42.4289 23.3654 43.0382 24.1923C43.6475 25.0192 44.4164 25.6814 45.3479 26.1756C46.2794 26.6698 47.3672 26.9153 48.6146 26.9153C49.8619 26.9153 50.9562 26.6892 51.9036 26.2402C52.8479 25.7912 53.6359 25.1646 54.2707 24.3668C54.9024 23.5689 55.3809 22.616 55.7031 21.5146C56.0253 20.4099 56.1848 19.2051 56.1848 17.9001C56.1848 16.6791 56.0413 15.5227 55.7605 14.431C55.4766 13.336 55.0364 12.3831 54.4334 11.5626C53.8337 10.7454 53.068 10.0962 52.1365 9.61811C51.205 9.14006 50.0884 8.8978 48.7869 8.8978" fill="#133459"></path><path d="M68.2959 8.05254C67.8971 7.78121 67.3803 7.64555 66.7455 7.64555C65.0706 7.64555 64.2316 8.78254 64.2316 11.0565V13.4371H69.1572V15.0651H64.2316V28.3053H62.4452V15.0651H59.9473V13.4371H62.4452V10.9403C62.4452 10.1941 62.5345 9.51901 62.7163 8.91498C62.8982 8.31095 63.1661 7.7909 63.5202 7.3613C63.8743 6.9317 64.3178 6.599 64.8537 6.36643C65.3897 6.13386 66.0054 6.01758 66.704 6.01758C67.4026 6.01758 67.9035 6.11125 68.2959 6.29214V8.04931V8.05254Z" fill="#133459"></path><path d="M76.5127 8.05254C76.1139 7.78121 75.5971 7.64555 74.9623 7.64555C73.2874 7.64555 72.4484 8.78254 72.4484 11.0565V13.4371H76.0086V15.0651H72.4484V28.3053H70.662V15.0651H68.1641V13.4371H70.662V10.9403C70.662 10.1941 70.7513 9.51901 70.9331 8.91498C71.115 8.31095 71.3829 7.7909 71.737 7.3613C72.0911 6.9317 72.5346 6.599 73.0705 6.36643C73.6065 6.13386 74.2222 6.01758 74.9208 6.01758C75.6194 6.01758 76.1203 6.11125 76.5127 6.29214V8.04931V8.05254Z" fill="#133459"></path><path d="M78.9513 9.68061C78.6068 9.68061 78.3101 9.55463 78.0581 9.30269C77.8061 9.05074 77.6816 8.73096 77.6816 8.34335C77.6816 7.95573 77.8061 7.65211 78.0581 7.40662C78.3101 7.16113 78.6068 7.03516 78.9513 7.03516C79.1268 7.03516 79.2959 7.06746 79.4554 7.12883C79.6149 7.1902 79.7521 7.28064 79.8669 7.39693C79.9817 7.51321 80.0774 7.65211 80.1444 7.81038C80.2146 7.97189 80.2497 8.14631 80.2497 8.34012C80.2497 8.53392 80.2178 8.69866 80.1508 8.86339C80.087 9.02813 79.9913 9.17025 79.8701 9.293C79.7489 9.41251 79.6117 9.50941 79.4586 9.57724C79.3054 9.64508 79.1363 9.67738 78.9481 9.67738M78.0708 13.4404H79.8573V28.3086H78.0708V13.4404Z" fill="#133459"></path><path d="M93.7749 27.6395C92.7126 28.3081 91.4301 28.6505 89.9212 28.6699C88.8971 28.6796 87.9752 28.4955 87.1585 28.1175C86.3386 27.7396 85.64 27.2163 85.0658 26.5413C84.4884 25.8694 84.0481 25.0748 83.7387 24.1607C83.4292 23.2466 83.2793 22.2517 83.2793 21.1761C83.2793 20.1004 83.442 19.0151 83.7674 18.0332C84.0928 17.0512 84.5681 16.1952 85.1902 15.462C85.8123 14.732 86.5779 14.1538 87.4807 13.7274C88.3835 13.3011 89.4171 13.0879 90.5784 13.0879C91.7396 13.0879 92.8402 13.3237 93.8164 13.7985V15.7721C92.7732 15.055 91.6471 14.6965 90.438 14.6965C89.5894 14.6965 88.8365 14.8644 88.1762 15.1971C87.5158 15.5298 86.9607 15.9853 86.5077 16.5635C86.0579 17.1384 85.7134 17.8135 85.4741 18.5823C85.238 19.3511 85.1168 20.1683 85.1168 21.0275C85.1168 21.8221 85.2157 22.5812 85.4167 23.3079C85.6177 24.0347 85.9239 24.6743 86.3387 25.2331C86.7534 25.7886 87.2765 26.2312 87.9082 26.5606C88.5398 26.8901 89.2863 27.0548 90.1413 27.0548C91.4812 27.0548 92.6902 26.6382 93.7717 25.8048V27.633L93.7749 27.6395Z" fill="#133459"></path><path d="M97.8567 21.2078C97.8662 22.1187 97.9811 22.9359 98.2044 23.6626C98.4277 24.3894 98.7499 25.0031 99.1678 25.507C99.5857 26.0109 100.096 26.3953 100.696 26.6602C101.296 26.925 101.972 27.0607 102.728 27.0607C104.339 27.0607 105.861 26.4761 107.293 25.3035V27.1318C105.925 28.1492 104.269 28.6564 102.323 28.6564C101.366 28.6564 100.495 28.482 99.7133 28.1331C98.9318 27.7842 98.265 27.2804 97.7163 26.615C97.1676 25.9528 96.7433 25.1356 96.4466 24.1698C96.1499 23.2007 96 22.0993 96 20.8589C96 19.7445 96.1627 18.7141 96.4881 17.7677C96.8135 16.8181 97.2665 15.9976 97.8439 15.3064C98.4213 14.6151 99.104 14.0725 99.8952 13.6816C100.686 13.2908 101.551 13.0938 102.492 13.0938C103.433 13.0938 104.227 13.2617 104.936 13.5944C105.644 13.9271 106.237 14.4052 106.716 15.0254C107.194 15.6455 107.561 16.3981 107.81 17.2897C108.062 18.1812 108.186 19.176 108.186 20.2807V21.211H97.8567V21.2078ZM106.346 19.5798C106.317 18.0326 105.963 16.831 105.283 15.9782C104.604 15.1255 103.66 14.6991 102.45 14.6991C101.844 14.6991 101.286 14.8122 100.769 15.035C100.252 15.2579 99.7995 15.5809 99.4071 16.0008C99.0179 16.4208 98.6925 16.9343 98.4373 17.5416C98.1821 18.1456 98.0034 18.8272 97.9013 19.583H106.346V19.5798Z" fill="#133459"></path></g></g><defs><clipPath id="clip0_3973_13649"><rect width="107.189" height="35.2081" fill="white" transform="translate(0.130859 0.396484)"></rect></clipPath></defs></svg>