<svg xmlns="http://www.w3.org/2000/svg" width="78" height="32" viewBox="0 0 78 32" fill="none"><path d="M65.2433 0.752197C59.4603 0.752197 55.6842 4.88316 55.6842 11.7091C55.6842 20.1896 61.4661 22.612 65.6115 22.612C68.727 22.612 71.6839 21.2905 73.8234 18.9503L71.156 16.17C69.7299 17.4914 68.0933 18.2895 65.6644 18.2895C62.4431 18.2895 60.2776 16.3354 60.2776 13.6373H74.6417C74.6148 13.6102 77.1246 0.753238 65.2423 0.753238M60.2786 9.94853C60.2786 6.31391 62.9191 4.57932 65.7442 4.57932C68.5694 4.57932 71.131 6.36906 71.131 9.94853H60.2786ZM12.3573 9.59059C10.5081 9.34294 5.20218 9.56249 5.20218 7.0298C5.20218 5.54287 7.44551 4.71771 9.47928 4.71771C11.6308 4.6867 13.7432 5.31872 15.5516 6.5345L18.3239 3.67093C17.5056 2.98313 14.4699 0.753238 9.48028 0.753238C4.93773 0.752197 0.845242 3.22869 0.845242 7.19317C0.845242 13.2783 7.89458 13.2783 10.8245 13.5821C12.6207 13.7736 14.2314 13.8839 14.2314 15.7007C14.2314 17.4072 11.7496 18.3436 9.82257 18.3436C6.6801 18.3436 4.805 17.2708 2.95685 15.5363L0 18.6485C2.56067 21.2364 6.02048 22.6401 9.58406 22.613C14.8651 22.613 18.6941 20.1896 18.6941 15.3167C18.6941 12.0952 16.6084 10.1681 12.3573 9.59059ZM27.5128 0.752197C24.5707 0.73374 21.7109 1.76348 19.4066 3.67093L22.1789 6.56156C23.7242 5.35565 25.6087 4.71685 27.5387 4.74477C31.0504 4.74477 32.1062 6.20361 32.1062 7.856V9.9194H25.8492C23.5251 9.9194 18.9835 10.525 18.9835 15.8391C18.9835 19.7484 21.1231 22.6109 26.2454 22.6109C28.8061 22.6109 30.76 21.7577 32.1062 20.0782V22.1989H36.6478V8.18585C36.6478 3.28488 33.7697 0.752197 27.5128 0.752197ZM32.1332 14.5457C32.1332 18.5934 29.3609 18.3728 26.905 18.3728C24.4491 18.3728 22.8125 17.6839 22.8125 15.8672C22.8125 14.1877 24.1059 13.6092 26.7992 13.6092H32.1332V14.5457ZM50.6686 1.19339V3.53357C49.1098 1.68869 47.2617 0.752197 44.7539 0.752197C40.4499 0.752197 38.2325 3.25679 37.493 5.95492C37.2026 6.94656 37.1238 8.84556 37.1238 11.654C37.1238 14.297 37.1497 16.7194 38.0209 18.5642C39.2623 21.1521 42.2451 22.612 44.7539 22.612C47.1828 22.612 49.2426 21.6203 50.6686 19.9138V21.2353C50.6686 22.7764 50.1666 23.7951 49.2156 24.5932C48.2656 25.3923 47.0771 25.8876 45.4135 25.8876C43.9087 25.8876 42.4826 25.0344 41.6643 24.4288L38.6017 27.6222C40.5816 29.3016 42.9327 30.4306 45.4934 30.4577C47.9483 30.5128 50.3513 29.6877 52.2792 28.0623C54.1005 26.5754 55.263 23.7399 55.263 20.7671V1.19339H50.6686ZM50.6686 11.655C50.6686 13.2793 50.6416 14.4905 50.5089 15.1242C50.2195 16.4727 48.7406 18.2625 46.0482 18.2625C45.3606 18.2625 41.9288 17.8494 41.5326 14.7382C41.4229 13.7147 41.3789 12.6846 41.4009 11.655C41.4009 9.23264 41.5057 8.46055 41.6114 7.856C41.8489 6.6448 43.3808 4.82801 46.0472 4.82801C49.2955 4.82801 50.3513 7.1401 50.5099 8.0485C50.6417 9.23264 50.6945 10.4438 50.6686 11.655Z" fill="#133459"></path></svg>