<svg xmlns="http://www.w3.org/2000/svg" width="131" height="35" viewBox="0 0 131 35" fill="none"><path d="M3.18828 27.6172L3.38414 27.6825C5.75626 28.4442 8.25895 27.2255 8.99888 25.0057L11.6539 16.3442C12.3721 14.1244 11.0446 11.687 8.67244 10.9253L8.47658 10.86C6.10446 10.0984 3.60176 11.3171 2.86184 13.5368L0.185044 22.1983C-0.511358 24.4181 0.816158 26.8555 3.18828 27.6172Z" fill="#133459"></path><path d="M31.59 3.06741C32.0687 1.89223 32.9828 0.956439 34.1144 0.412375C34.1797 0.390612 34.2232 0.368849 34.2885 0.347087C34.3103 0.325324 34.3538 0.325325 34.3756 0.303562C35.2678 -0.0446387 36.2689 -0.109926 37.2265 0.194749L37.4223 0.260038C39.7945 1.02173 41.0349 3.69852 40.2079 6.24474L33.7227 28.1161C32.0252 33.1433 26.6716 35.7548 22.0362 34.449C22.0362 34.449 20.7957 34.0791 20.2734 33.7091C24.9089 32.7298 30.6759 5.28719 31.59 3.06741Z" fill="#2E79CE"></path><path d="M3.92744 30.4874L4.1233 30.5527C5.10262 30.8574 6.12546 30.9009 7.12653 30.6615C7.27887 30.6398 7.43121 30.5962 7.58355 30.531C9.47689 29.9216 11.1308 28.3765 11.8272 26.222L16.8762 9.59538C17.7031 7.07092 20.3146 5.61282 22.665 6.35275L22.8609 6.41804C25.233 7.17973 26.4734 9.85653 25.6465 12.4027C25.6465 12.4027 20.8587 28.1588 20.1841 29.4864C15.2875 38.3437 6.10369 34.013 3.49219 30.3133C3.62276 30.3786 3.7751 30.4439 3.92744 30.4874Z" fill="#1B4A80"></path><path d="M112.154 13.1419L112.176 13.0549C112.176 12.9896 112.154 12.9243 112.133 12.8808C112.002 12.6196 111.262 12.0973 110.065 11.9885C109.956 11.9885 109.847 11.9667 109.76 11.9667C108.912 11.9667 107.976 12.3149 107.78 12.6849L107.758 12.7284L102.883 24.7196L98.1827 12.6849C97.9869 12.3149 96.877 11.9232 96.05 11.9232C96.0065 11.9232 95.9194 11.9232 95.8541 11.9232C95.7236 11.9232 95.6148 11.9014 95.4842 11.9232C94.309 12.0538 93.8955 12.5543 93.7432 12.8372C93.7214 12.9025 93.6996 12.946 93.6996 13.0113V13.0984C93.8955 13.5772 100.272 29.4856 100.62 30.3561L100.642 30.3779C100.881 30.639 102.1 31.0307 102.883 31.0307C103.667 31.0307 104.82 30.7478 105.06 30.4649L105.081 30.4431L112.154 13.2072C112.133 13.1854 112.154 13.1419 112.154 13.1419ZM88.172 24.1755C88.172 25.416 87.8673 26.3083 87.3015 26.6782C86.8227 26.9611 85.9087 27.3093 84.2982 27.3093H84.1241C82.7531 27.3093 81.6867 27.0482 80.9468 26.5476C80.381 26.1559 80.0545 25.6119 80.0545 25.046C80.0545 23.3486 81.0121 23.0439 83.863 22.9786H88.172V24.1755ZM92.1327 30.3343C92.1545 30.2908 92.1763 30.2255 92.1763 30.1602V18.1038C92.1545 15.8187 91.4146 14.1865 89.9783 13.2507C88.6072 12.3585 86.7574 11.9232 84.4941 11.9232H84.1024C81.1862 11.9232 78.5529 12.9678 77.2254 14.6218C77.2036 14.6435 77.1819 14.687 77.1819 14.7306C77.0295 15.2093 77.6606 15.9493 78.3353 16.4281C78.9229 16.8415 79.5322 17.1245 79.9675 17.1245C80.0545 17.1027 80.4463 16.8415 80.5333 16.7763C80.9686 16.3628 82.1873 15.3617 83.7759 15.3399L84.4723 15.3182C85.7998 15.3182 87.0838 15.9275 87.6714 16.5151C88.0196 16.8633 88.1937 17.3203 88.172 17.9079V19.6924H82.4049C80.4027 19.7142 78.8576 20.2583 77.813 21.3246C76.7684 22.3692 76.2243 23.6968 76.2243 25.2637C76.2243 26.9176 76.8337 28.2886 78.0306 29.3333C79.2276 30.4649 81.7085 30.9872 83.6671 31.009C84.9293 31.009 85.9522 30.8566 86.6703 30.5302C87.1056 30.3561 87.4973 30.1167 87.802 29.812L88.1502 29.4638V30.1602C88.1502 30.2255 88.172 30.2908 88.1937 30.3343C88.4114 30.7913 89.3689 30.9872 90.1524 30.9872C90.9358 30.9872 91.9369 30.7913 92.1327 30.3343ZM117.094 19.1484C117.334 17.3421 117.9 16.5586 118.661 15.9275C119.467 15.2964 120.424 15.1441 121.817 15.1005C122.992 15.057 124.472 15.5576 125.147 16.2104C125.799 16.8851 126.191 17.8426 126.3 19.1048L126.322 19.3225L117.051 19.3878L117.094 19.1484ZM130.13 27.9404C130.261 27.4399 129.608 26.6782 128.955 26.1994C128.389 25.786 127.78 25.5248 127.301 25.503C127.04 25.503 126.866 25.6336 126.822 25.6771C125.669 26.7217 124.385 27.244 122.949 27.244C121.665 27.244 119.445 26.8088 118.596 25.9818C117.747 25.2201 117.225 24.0885 117.16 22.8698L117.138 22.6522H117.356C117.464 22.6522 129.347 22.8262 129.543 22.8262C129.738 22.8262 129.913 22.7392 130.043 22.5869C130.587 21.9993 130.609 20.3671 130.544 19.4966V19.4748C130.522 16.9068 129.695 14.8612 128.128 13.4031C126.496 11.9014 123.71 11.0527 120.838 11.205C119.684 11.2703 118.792 11.4227 117.965 11.7056C116.964 12.0538 116.05 12.6196 115.31 13.3595C114.526 14.1212 113.895 15.1441 113.395 16.4498C112.916 17.712 112.655 19.3442 112.655 21.2376C112.655 23.218 112.938 24.8502 113.504 26.0906C114.026 27.3964 114.722 28.441 115.549 29.1592C115.963 29.5074 116.442 29.812 116.92 30.0297C118.944 31.1178 120.838 31.2484 122.209 31.3354H122.317C122.426 31.3354 126.583 31.4442 130.021 28.0493C130.087 28.0493 130.108 28.0057 130.13 27.9404ZM70.1526 30.3779C70.5225 29.4421 75.4626 13.3378 75.615 12.8372L75.6367 12.7284C75.6367 12.6631 75.615 12.5978 75.5932 12.5543C75.5062 12.3802 74.7662 11.7273 73.4822 11.575C73.3517 11.5532 73.1993 11.5532 73.047 11.5532C72.133 11.5532 71.1536 11.8797 70.9795 12.2279L70.9578 12.2714L67.4758 24.5455L62.9709 12.2279C62.8403 11.8579 61.9481 11.5097 61.1646 11.5097C60.3594 11.5097 59.3801 11.8797 59.2495 12.2279L55.354 24.3496L51.6326 12.3585L51.6109 12.2932C51.4368 11.945 50.4575 11.5315 49.5217 11.5315C49.4346 11.5315 49.0864 11.575 48.8906 11.575L48.7164 11.5968C47.4977 11.7056 47.0625 12.2932 46.9537 12.5326C46.9319 12.5978 46.9102 12.6631 46.9102 12.7284V12.7719V12.7937L52.6772 30.3561C52.8513 30.7478 54.2877 31.009 55.2017 31.009C56.1375 31.009 57.6609 30.7696 57.9438 30.3779L61.2952 19.3007L65.2778 30.3561C65.4519 30.7478 66.8882 31.009 67.8022 31.009C68.8033 31.009 69.9785 30.7913 70.1526 30.3779Z" fill="#133459"></path></svg>