<svg xmlns="http://www.w3.org/2000/svg" width="86" height="36" viewBox="0 0 86 36" fill="none"><path fill-rule="evenodd" clip-rule="evenodd" d="M40.6662 11.8944C49.777 5.26235 59.422 1.18107 64.1483 2.06182L64.3793 2.10032L64.4563 1.90781L64.798 1.14738L64.952 0.844176L64.6488 0.728669C59.9611 -0.835499 49.4786 3.24578 39.6796 10.4121C27.5945 19.2195 20.3511 29.3169 23.1762 33.4366C23.2917 33.5906 23.4072 33.7398 23.5564 33.8939L24.0522 33.5521C22.4495 29.3987 29.7699 19.9078 40.6711 11.8992L40.6662 11.8944Z" fill="#CDD0D2"></path><path fill-rule="evenodd" clip-rule="evenodd" d="M21.7211 7.47552C22.4815 7.47552 23.3959 7.55252 24.6184 7.55252C26.1441 7.51402 26.6783 7.47552 27.5158 7.47552V8.23594C25.7639 8.38995 25.5714 8.61615 24.9986 10.0263C24.1612 12.0862 22.7895 16.5044 21.8751 19.3632C21.2253 21.3076 20.5419 23.5937 19.8152 25.8413H18.482C17.6445 22.6792 15.8542 16.4659 14.0204 10.2525C11.6958 18.3718 10.5504 21.991 9.48671 25.8413C9.10649 25.7643 8.61077 25.8413 8.15354 25.8413C7.08508 21.6493 4.45725 12.8803 3.4658 9.90599C2.93157 8.45733 2.66686 8.23113 0.910156 8.23113V7.4707C1.48289 7.4707 2.32033 7.54771 3.92302 7.54771C4.87597 7.54771 5.90593 7.4707 6.97439 7.4707L7.1284 8.23113L5.60272 8.38514C5.18399 8.42364 5.14549 8.61616 5.261 8.99637C6.55567 13.8766 8.38456 20.0129 9.30382 23.2905C11.4407 16.0857 13.4958 8.99637 13.7654 7.54771C14.2226 7.58621 14.8338 7.58621 15.214 7.54771C15.4451 8.61616 17.274 15.4022 19.6756 23.3675C21.9232 16.5429 23.4489 10.9022 23.7521 9.41509C23.9446 8.61616 23.9061 8.42364 23.2179 8.34664L21.8077 8.23113L21.7307 7.4707L21.7211 7.47552Z" fill="#133459"></path><path fill-rule="evenodd" clip-rule="evenodd" d="M32.7374 24.2495C32.0492 25.0484 30.716 25.8906 28.6946 25.8906C26.6732 25.8906 25.263 25.2024 24.3486 23.9848C23.6267 22.9933 23.2031 21.4677 23.2031 19.8698C23.2031 16.3997 25.2245 13.1992 28.8823 13.1992C32.5401 13.1992 33.3824 16.2506 33.3439 17.9254C33.3439 18.4981 33.1899 18.9169 32.6941 19.0709C32.1214 19.2634 30.6342 19.4126 28.8823 19.4126C27.8139 19.4126 26.2545 19.4511 25.1475 19.4126C25.0705 21.1259 25.5277 22.5361 26.1005 23.3398C26.7887 24.2928 27.9679 24.75 29.224 24.75C30.8989 24.75 31.8519 24.1003 32.5786 23.1088L32.9203 23.2243L32.7278 24.2543L32.7374 24.2495ZM28.6176 13.9933C26.37 13.9933 25.34 16.6211 25.2245 18.5318H28.0064C29.5706 18.5318 30.408 18.4548 30.9037 18.3393C31.284 18.2623 31.4765 17.9976 31.4765 17.4634C31.4765 15.7115 30.716 13.9933 28.6561 13.9933H28.6176Z" fill="#133459"></path><path fill-rule="evenodd" clip-rule="evenodd" d="M40.5096 17.5409C40.3941 15.481 39.4411 13.9939 37.8047 13.9939C36.5101 13.9939 35.7833 14.9468 35.7833 16.2415C35.7833 16.9634 36.048 17.5361 36.7363 17.8826C37.6122 18.3014 39.0994 18.8741 40.2449 19.3698C41.6551 19.981 42.3433 20.8955 42.3433 22.2286C42.3433 24.7072 39.8647 25.8864 37.617 25.8864C36.0914 25.8864 34.6042 25.5447 33.8438 25.1981C33.8438 24.5484 33.9208 22.6425 33.8438 21.1939L34.532 21.0014C34.609 21.6126 34.7245 22.3345 34.9507 23.0227C35.3694 24.3559 36.3994 25.0441 37.8096 25.0441C39.5615 25.0441 40.6299 24.1297 40.6299 22.7195C40.6299 21.9976 40.3989 21.4634 39.5615 21.0447C38.57 20.549 37.1983 19.9377 36.2454 19.519C35.0277 19.0233 34.1855 18.2244 34.1855 16.7757C34.1855 14.6388 35.8603 13.195 37.9973 13.195C39.1042 13.195 39.9417 13.4982 40.3219 13.8447L40.6251 12.9688L41.347 13.1613C41.193 14.5329 41.1545 16.0971 41.2315 17.3917L40.5096 17.5457V17.5409Z" fill="#133459"></path><path fill-rule="evenodd" clip-rule="evenodd" d="M50.426 13.6122L50.272 14.4496L45.8875 14.6036C45.8875 15.5566 45.8105 16.5865 45.8105 18.7956C45.8105 21.5004 45.8105 22.9876 45.9645 23.7143C46.1185 24.4747 46.5757 24.8597 47.4132 24.8597C48.7078 24.8597 49.6608 23.8298 50.0795 22.2656H50.4212L50.7629 23.2571C50.0025 24.9704 48.5153 25.8849 46.8356 25.8849C45.541 25.8849 44.8142 25.4277 44.434 24.8934C44.1693 24.4747 44.0538 24.0175 44.0538 23.1801C44.0538 20.817 44.1693 16.8127 44.1693 14.6036L42.1094 14.4496L42.2634 13.6122H44.2078C44.2078 12.7747 44.2463 11.6293 44.2848 10.5223C44.896 10.1036 45.4688 9.6464 45.8105 9.30469L46.0752 9.4202C46.0367 10.1421 45.9212 12.202 45.9597 13.6122H50.4212H50.426Z" fill="#133459"></path><path fill-rule="evenodd" clip-rule="evenodd" d="M50.5745 6.67374C52.4034 6.63524 53.6644 6.48123 54.4248 6.33203C54.3863 7.54968 54.3093 9.60957 54.3093 12.0112V19.1005C54.3093 22.1518 54.3093 23.4849 54.3478 24.0962C54.4248 24.6689 54.6895 24.7459 56.2537 24.8181L56.1767 25.5785C55.1467 25.5785 54.2323 25.5015 53.1638 25.5015C52.0184 25.463 51.0654 25.5785 50.459 25.5785V24.8181C52.1724 24.7796 52.4419 24.5871 52.4804 24.0962C52.4804 23.6005 52.5959 21.5021 52.5959 19.1005V11.8572C52.5959 9.34005 52.5959 8.61812 52.5574 7.81438C52.5189 7.47267 52.3264 7.35716 50.5745 7.39567V6.67374Z" fill="#133459"></path><path fill-rule="evenodd" clip-rule="evenodd" d="M65.75 13.4961C66.2457 13.4961 66.9677 13.5731 68.1131 13.5731C68.9891 13.5731 69.9035 13.4961 70.9335 13.4961L71.049 14.2565L69.8313 14.372C69.3356 14.372 69.2971 14.603 69.4126 15.0218C70.0623 17.1587 71.0875 20.3977 72.0067 23.4057C72.9212 20.8886 74.4469 15.8977 75.2843 13.5346C75.6645 13.5731 75.9341 13.5731 76.3528 13.4961C76.887 15.402 78.7159 20.7779 79.6304 23.4057C80.848 19.7095 81.7288 16.5811 82.032 15.248C82.1475 14.7137 82.186 14.4105 81.7288 14.372L80.3186 14.2565L80.4341 13.4961C81.3486 13.4961 82.34 13.5731 83.216 13.5731C84.2844 13.5731 84.9293 13.4961 85.4251 13.4961L85.4636 14.218C84.0534 14.372 83.7887 14.5212 83.2545 15.7437C82.34 17.9143 80.7373 22.4913 79.7074 25.7303C79.4041 25.7303 79.2501 25.7688 79.1346 25.7688C79.0191 25.7688 78.8699 25.8073 78.6389 25.8458C77.9892 23.7089 76.5405 19.5554 75.3613 16.1624C74.2544 19.5169 72.9212 23.1362 72.0452 25.8458C71.8142 25.8073 71.588 25.7688 71.434 25.7688C71.2415 25.7303 71.1308 25.7303 70.9768 25.7303C70.1008 22.4143 68.3105 17.0383 67.6222 15.325C67.2805 14.449 67.0495 14.295 65.7548 14.2565V13.4961H65.75Z" fill="#133459"></path><path fill-rule="evenodd" clip-rule="evenodd" d="M63.6895 16.3188C63.6895 15.2504 63.2322 13.9557 61.4033 13.9557C59.5744 13.9557 58.8092 15.3659 58.6985 17.1563L58.4675 17.3488C58.2365 17.3873 57.8948 17.3488 57.5915 17.2333C57.2498 17.1178 57.0573 16.8531 57.0573 16.4728C57.0573 15.0627 58.9247 13.1953 61.7066 13.1953C63.805 13.1953 64.7194 14.1868 65.0226 14.6825C65.2873 15.0627 65.3643 15.6354 65.3643 16.1311V23.1049C65.3643 24.3996 66.0141 24.8183 66.6975 24.8183C66.9622 24.8183 67.1932 24.7798 67.3858 24.7413L67.2317 25.4295C67.0007 25.6605 66.5435 25.8867 65.8986 25.8867C64.4114 25.8867 63.8002 24.9723 63.651 23.7883C62.3948 25.1215 60.8691 25.8867 59.5744 25.8867C57.476 25.8867 56.2969 24.3611 56.2969 22.5322C56.2969 21.5023 56.6386 20.6263 57.6685 20.0921C58.3568 19.6349 59.3819 19.2162 60.6044 18.7204C61.7499 18.2632 62.8135 17.8445 63.6943 17.4258V16.3188H63.6895ZM58.275 22.2675C58.275 23.7547 58.9969 24.6691 60.2964 24.6691C61.668 24.6691 62.9242 23.7162 63.5355 22.229C63.651 21.8873 63.6895 21.5071 63.6895 21.1605V18.3787C62.5825 18.7589 61.0953 19.2932 59.9162 19.9814C59.0017 20.4771 58.275 21.0113 58.275 22.229V22.2675Z" fill="#133459"></path><path fill-rule="evenodd" clip-rule="evenodd" d="M49.5834 24.895C38.947 32.6725 28.1998 35.8731 24.311 33.587C24.2725 33.587 24.234 33.5485 24.157 33.51C23.9645 33.3945 22.7468 32.5185 22.8238 32.7496C22.9778 33.1683 23.127 33.664 23.4735 34.0827C26.2939 37.856 38.6052 34.4244 50.2332 25.8865C59.8782 18.8742 69.4077 7.32339 66.8906 3.16992L66.6595 3.28543C68.3007 7.55441 60.7493 16.7036 49.5834 24.8998V24.895Z" fill="#CDD0D2"></path></svg>