<svg xmlns="http://www.w3.org/2000/svg" width="224" height="40" viewBox="0 0 224 40" fill="none"><g clip-path="url(#clip0_3717_11886)"><path d="M69.8041 0.0456283H56.0666L56.0865 6.53386C50.2738 -0.398666 42.5253 0.0124339 42.5253 0.0124339H22.4465L0 39.5317H15.1025L19.7412 31.1795L28.557 31.1692V39.5725L42.2225 39.5955C42.2225 39.5955 50.1175 39.7538 56.0369 33.0128L56.0269 39.5342H68.9056L68.9156 31.2152H70.2484C75.4703 31.6263 84.4574 26.0701 84.4176 15.3074C84.3904 6.38321 77.7587 0.0456283 69.8041 0.0456283ZM68.9354 26.4429L63.9095 26.4556L63.8996 34.79L60.7202 34.7976V26.4352H55.0962C55.0962 26.4352 52.0509 34.4734 41.8576 34.7568L33.5755 34.8002V26.3995L16.9962 26.3969L12.1465 34.7849H8.35167L25.1096 5.16012H41.7881C52.2941 5.22141 55.8185 14.3397 56.2925 17.7383H60.7227L60.7277 5.07331L69.2779 5.07586C75.7632 5.40015 79.5456 10.987 79.6573 14.7635C79.8385 20.7181 75.7806 26.1671 68.9354 26.4429Z" fill="#133459"></path><path d="M36.8485 8.54025L36.8535 13.4403H41.1348C49.5683 13.4173 49.5733 26.381 40.9089 26.3554H36.851V31.2631H40.9387C47.4959 31.2989 52.6236 26.6925 52.6137 19.4944C52.6087 15.0183 48.9007 8.53769 41.7006 8.53769L36.8485 8.54025ZM64.0876 8.57599V13.4888H68.7164C71.7021 13.6394 71.7617 18.0824 68.7462 18.0645H64.1124V23.0232C64.1124 23.0232 68.1257 23.0488 68.4955 23.0232C72.3971 23.0105 75.8966 20.2324 75.8966 15.5162C75.8966 10.846 72.3052 8.57855 68.4955 8.57855C69.1582 8.57599 64.0876 8.57599 64.0876 8.57599ZM28.7698 8.47896L33.5699 8.46875V23.0462H19.0605L21.8477 18.0466L28.7574 18.0747L28.7698 8.47896ZM75.9264 35.1469C76.1408 35.3616 76.3105 35.6191 76.4248 35.9036C76.5392 36.1881 76.5959 36.4936 76.5915 36.8015C76.5915 37.4577 76.3681 38.0118 75.9264 38.4689C75.7192 38.6921 75.4694 38.8689 75.1926 38.988C74.9158 39.107 74.6181 39.1659 74.3181 39.1608C74.018 39.1668 73.72 39.1084 73.443 38.9893C73.1661 38.8701 72.9164 38.6929 72.7098 38.4689C72.4953 38.2518 72.3261 37.9919 72.2126 37.7052C72.099 37.4185 72.0436 37.111 72.0496 36.8015C72.0496 36.1529 72.273 35.6014 72.7148 35.1469C72.921 34.9238 73.1699 34.7471 73.4459 34.628C73.7219 34.5089 74.0189 34.4499 74.3181 34.4549C74.941 34.4549 75.4846 34.6847 75.9264 35.1469ZM76.187 34.8813C75.6732 34.3502 75.0478 34.0872 74.3156 34.0872C73.5834 34.0872 72.963 34.3502 72.4492 34.8813C72.2005 35.1307 72.0038 35.4295 71.8711 35.7597C71.7384 36.0898 71.6725 36.4443 71.6773 36.8015C71.6773 37.5624 71.9305 38.2033 72.4442 38.737C72.958 39.2706 73.5834 39.5336 74.3156 39.5336C75.0478 39.5336 75.6732 39.2681 76.187 38.737C76.7057 38.2008 76.9613 37.5599 76.9613 36.8015C76.9684 36.4437 76.9032 36.0884 76.7699 35.7578C76.6366 35.4273 76.4381 35.1289 76.187 34.8813ZM74.7102 36.6764C74.5542 36.7288 74.3902 36.7513 74.2262 36.7428H73.7646V35.6601H74.1965C74.7648 35.6601 75.0056 35.7699 75.0056 36.2091C75.0056 36.4415 74.9088 36.5972 74.7102 36.6764ZM73.2509 38.2876H73.7646V37.1079H74.1667C74.4372 37.1079 74.6234 37.1462 74.735 37.2049C74.9187 37.3173 75.0056 37.5496 75.0056 37.8944V38.1318L75.0205 38.2288L75.0254 38.262C75.0304 38.2697 75.0304 38.2799 75.0304 38.2901H75.5144L75.4945 38.2544C75.4795 38.2038 75.4712 38.1514 75.4697 38.0986C75.4598 38.0195 75.4598 37.9429 75.4598 37.8765V37.6543C75.456 37.4676 75.3873 37.2885 75.2662 37.1493C75.1451 37.0102 74.9796 36.9203 74.7996 36.896C75.3133 36.8219 75.5069 36.5768 75.5069 36.1631C75.5069 35.7903 75.3555 35.5401 75.0552 35.4099C74.8008 35.3242 74.5333 35.287 74.266 35.3001H73.2484L73.2509 38.2876Z" fill="#133459"></path></g><path d="M106.507 14.6671L102.907 27.8027H100.443L97.9424 18.6151C97.8386 18.2242 97.7744 17.7968 97.75 17.3327H97.7134C97.6828 17.7662 97.6096 18.1876 97.4935 18.5968L94.9836 27.8027H92.4646L88.7914 14.6671H91.1822L93.5638 24.2852C93.6615 24.6883 93.7226 25.1096 93.747 25.5493H93.7928C93.8172 25.2379 93.9027 24.8165 94.0493 24.2852L96.7424 14.6671H98.9866L101.478 24.3585C101.564 24.6883 101.628 25.0791 101.671 25.531H101.707C101.726 25.2257 101.796 24.8226 101.918 24.3219L104.254 14.6671H106.507ZM111.774 28.0226C110.327 28.0226 109.17 27.5859 108.303 26.7127C107.441 25.8333 107.011 24.67 107.011 23.2226C107.011 21.6471 107.46 20.4166 108.357 19.5311C109.261 18.6456 110.477 18.2029 112.003 18.2029C113.469 18.2029 114.611 18.6334 115.429 19.4945C116.247 20.3555 116.657 21.5494 116.657 23.0761C116.657 24.5722 116.214 25.7722 115.328 26.676C114.449 27.5737 113.264 28.0226 111.774 28.0226ZM111.875 19.8975C111.044 19.8975 110.388 20.1876 109.906 20.7677C109.423 21.3479 109.182 22.1479 109.182 23.1677C109.182 24.1509 109.426 24.9264 109.915 25.4944C110.403 26.0562 111.057 26.3371 111.875 26.3371C112.712 26.3371 113.353 26.0592 113.799 25.5035C114.251 24.9478 114.476 24.157 114.476 23.131C114.476 22.099 114.251 21.3021 113.799 20.7402C113.353 20.1784 112.712 19.8975 111.875 19.8975ZM124.269 20.4471C124.012 20.2456 123.643 20.1448 123.16 20.1448C122.531 20.1448 122.006 20.4288 121.585 20.9967C121.163 21.5647 120.953 22.3372 120.953 23.3143V27.8027H118.828V18.4227H120.953V20.3555H120.989C121.197 19.696 121.515 19.183 121.942 18.8166C122.376 18.4441 122.858 18.2578 123.389 18.2578C123.774 18.2578 124.067 18.3159 124.269 18.4319V20.4471ZM134.281 27.8027H131.588L127.942 23.2959H127.905V27.8027H125.771V13.9159H127.905V22.7188H127.942L131.386 18.4227H133.942L130.067 22.9478L134.281 27.8027ZM140.931 15.6472C140.644 15.4823 140.317 15.3999 139.951 15.3999C138.919 15.3999 138.403 15.9831 138.403 17.1495V18.4227H140.583V20.0899H138.412V27.8027H136.287V20.0899H134.684V18.4227H136.287V16.9021C136.287 15.9128 136.611 15.1342 137.258 14.5663C137.905 13.9923 138.714 13.7052 139.685 13.7052C140.21 13.7052 140.626 13.7632 140.931 13.8793V15.6472ZM146.253 28.0226C144.806 28.0226 143.649 27.5859 142.781 26.7127C141.92 25.8333 141.49 24.67 141.49 23.2226C141.49 21.6471 141.939 20.4166 142.836 19.5311C143.74 18.6456 144.955 18.2029 146.482 18.2029C147.948 18.2029 149.09 18.6334 149.908 19.4945C150.726 20.3555 151.135 21.5494 151.135 23.0761C151.135 24.5722 150.693 25.7722 149.807 26.676C148.928 27.5737 147.743 28.0226 146.253 28.0226ZM146.354 19.8975C145.523 19.8975 144.867 20.1876 144.384 20.7677C143.902 21.3479 143.661 22.1479 143.661 23.1677C143.661 24.1509 143.905 24.9264 144.394 25.4944C144.882 26.0562 145.536 26.3371 146.354 26.3371C147.191 26.3371 147.832 26.0592 148.278 25.5035C148.729 24.9478 148.955 24.157 148.955 23.131C148.955 22.099 148.729 21.3021 148.278 20.7402C147.832 20.1784 147.191 19.8975 146.354 19.8975ZM158.748 20.4471C158.491 20.2456 158.122 20.1448 157.639 20.1448C157.01 20.1448 156.485 20.4288 156.064 20.9967C155.642 21.5647 155.432 22.3372 155.432 23.3143V27.8027H153.306V18.4227H155.432V20.3555H155.468C155.676 19.696 155.993 19.183 156.421 18.8166C156.854 18.4441 157.337 18.2578 157.868 18.2578C158.253 18.2578 158.546 18.3159 158.748 18.4319V20.4471ZM166.799 27.3722C166.048 27.8058 165.16 28.0226 164.134 28.0226C162.741 28.0226 161.618 27.589 160.763 26.7218C159.908 25.8486 159.48 24.7188 159.48 23.3326C159.48 21.7876 159.938 20.5479 160.854 19.6135C161.777 18.6731 163.007 18.2029 164.546 18.2029C165.401 18.2029 166.155 18.3525 166.809 18.6517V20.6303C166.155 20.1418 165.459 19.8975 164.72 19.8975C163.822 19.8975 163.086 20.2028 162.512 20.8135C161.938 21.4181 161.651 22.212 161.651 23.1952C161.651 24.1661 161.92 24.9325 162.457 25.4944C163.001 26.0562 163.728 26.3371 164.638 26.3371C165.401 26.3371 166.122 26.0654 166.799 25.5219V27.3722ZM176.857 23.6898H170.463C170.488 24.557 170.754 25.2257 171.26 25.6959C171.773 26.1661 172.476 26.4012 173.367 26.4012C174.369 26.4012 175.288 26.102 176.124 25.5035V27.2165C175.269 27.7539 174.14 28.0226 172.735 28.0226C171.355 28.0226 170.271 27.5982 169.483 26.7493C168.702 25.8944 168.311 24.6944 168.311 23.1494C168.311 21.6898 168.741 20.5021 169.602 19.5861C170.47 18.6639 171.544 18.2029 172.827 18.2029C174.109 18.2029 175.102 18.6151 175.804 19.4395C176.506 20.2639 176.857 21.4089 176.857 22.8746V23.6898ZM174.805 22.1875C174.799 21.4242 174.619 20.8318 174.265 20.4105C173.911 19.983 173.422 19.7693 172.799 19.7693C172.189 19.7693 171.67 19.9922 171.242 20.438C170.821 20.8838 170.561 21.4669 170.463 22.1875H174.805ZM194.976 27.8027H193.089L186.329 17.3327C186.158 17.0701 186.017 16.7953 185.907 16.5082H185.853C185.901 16.7892 185.926 17.3907 185.926 18.3128V27.8027H184.387V14.6671H186.384L192.961 24.9722C193.236 25.3997 193.413 25.6928 193.492 25.8516H193.529C193.468 25.473 193.437 24.8287 193.437 23.9188V14.6671H194.976V27.8027ZM202.139 28.0226C200.753 28.0226 199.645 27.5859 198.814 26.7127C197.99 25.8333 197.578 24.67 197.578 23.2226C197.578 21.6471 198.008 20.4166 198.869 19.5311C199.73 18.6456 200.894 18.2029 202.359 18.2029C203.758 18.2029 204.848 18.6334 205.629 19.4945C206.417 20.3555 206.811 21.5494 206.811 23.0761C206.811 24.5722 206.387 25.7722 205.538 26.676C204.695 27.5737 203.562 28.0226 202.139 28.0226ZM202.249 19.467C201.284 19.467 200.521 19.7967 199.959 20.4563C199.397 21.1097 199.116 22.0135 199.116 23.1677C199.116 24.2791 199.4 25.1554 199.968 25.7967C200.536 26.4379 201.297 26.7585 202.249 26.7585C203.22 26.7585 203.965 26.444 204.484 25.815C205.01 25.186 205.272 24.2913 205.272 23.131C205.272 21.9585 205.01 21.0547 204.484 20.4196C203.965 19.7845 203.22 19.467 202.249 19.467ZM221.028 18.4227L218.215 27.8027H216.658L214.725 21.0883C214.652 20.8318 214.603 20.5418 214.579 20.2181H214.542C214.524 20.438 214.46 20.7219 214.35 21.07L212.252 27.8027H210.75L207.91 18.4227H209.486L211.428 25.4761C211.489 25.6898 211.532 25.9707 211.556 26.3188H211.629C211.648 26.0501 211.703 25.7631 211.794 25.4577L213.956 18.4227H215.33L217.272 25.4944C217.333 25.7203 217.379 26.0012 217.409 26.3371H217.483C217.495 26.0989 217.547 25.818 217.638 25.4944L219.544 18.4227H221.028Z" fill="#133459"></path><defs><clipPath id="clip0_3717_11886"><rect width="84.4201" height="39.6045" fill="white"></rect></clipPath></defs></svg>