<svg xmlns="http://www.w3.org/2000/svg" width="49" height="49" viewBox="0 0 49 49" fill="none"><path d="M24.3483 48.6955C37.7947 48.6955 48.6955 37.7939 48.6955 24.3477C48.6955 10.8994 37.7958 0 24.3483 0C10.9007 0 0 10.8994 0 24.3477C0 37.7939 10.9007 48.6955 24.3483 48.6955Z" fill="#133459"></path><path d="M11.861 24.341L16.0077 20.1749C16.1451 20.0364 16.222 19.8502 16.222 19.6533C16.222 19.2421 15.8887 18.9088 15.4786 18.9088C15.2784 18.9088 15.0912 18.9867 14.9505 19.1306L10.806 23.2784L6.6452 19.123C6.50452 18.9845 6.3184 18.9088 6.12037 18.9088C5.70916 18.9088 5.37695 19.2421 5.37695 19.6522C5.37695 19.8524 5.45703 20.0418 5.59987 20.1824L9.74656 24.3345L5.60203 28.4899C5.45703 28.6349 5.37695 28.8232 5.37695 29.0234C5.37695 29.4346 5.71025 29.7679 6.12037 29.7679C6.3184 29.7679 6.50452 29.6921 6.6452 29.5514L10.8005 25.3939L14.9397 29.5352C15.0868 29.6867 15.2751 29.7679 15.4786 29.7679C15.8876 29.7679 16.2209 29.4346 16.2209 29.0234C16.2209 28.8253 16.1451 28.6392 16.0045 28.4985L11.8599 24.3367L11.861 24.341ZM36.5128 24.34C36.5128 25.0866 37.1188 25.6926 37.8655 25.6926C38.6078 25.6926 39.2138 25.0866 39.2138 24.34C39.2138 23.5933 38.6078 22.9873 37.8644 22.9873C37.121 22.9873 36.5161 23.5933 36.5161 24.34H36.5128ZM33.9536 24.34C33.9536 22.1811 35.7067 20.4227 37.8644 20.4227C40.0178 20.4227 41.7741 22.1811 41.7741 24.34C41.7741 26.4988 40.0189 28.2572 37.8644 28.2572C35.7077 28.2572 33.9536 26.5009 33.9536 24.34ZM32.4148 24.34C32.4148 27.3482 34.8604 29.7982 37.8644 29.7982C40.8684 29.7982 43.314 27.3504 43.314 24.341C43.314 21.3327 40.8684 18.8828 37.8644 18.8828C34.8594 18.8828 32.4148 21.3317 32.4148 24.341V24.34ZM32.0285 18.9759H31.8013C31.1141 18.9759 30.4519 19.1923 29.8989 19.6197C29.8232 19.2886 29.5245 19.0354 29.1696 19.0354C28.7616 19.0354 28.4337 19.3654 28.4337 19.7756L28.4359 28.9682C28.4359 29.3761 28.7713 29.7084 29.1771 29.7084C29.5862 29.7084 29.9195 29.3761 29.9205 28.966V23.313C29.9205 21.4301 30.0937 20.6683 31.7039 20.467C31.8554 20.4486 32.0155 20.4519 32.0177 20.4519C32.457 20.4357 32.7709 20.1316 32.7709 19.7215C32.7709 19.3102 32.4354 18.977 32.0242 18.977L32.0285 18.9759ZM17.7597 23.4429C17.7597 23.4212 17.7618 23.3996 17.7629 23.3801C18.1936 21.6704 19.7389 20.4075 21.5774 20.4075C23.4386 20.4075 24.9969 21.6996 25.4081 23.4396H17.7586L17.7597 23.4429ZM26.9285 23.3022C26.6082 21.784 25.7782 20.5363 24.5154 19.7355C22.6671 18.5603 20.228 18.6253 18.4447 19.8978C16.9881 20.9334 16.1473 22.6302 16.1473 24.3778C16.1473 24.8161 16.2014 25.2587 16.3096 25.6948C16.8593 27.859 18.7184 29.4995 20.9346 29.7711C21.5925 29.8512 22.2332 29.8144 22.8933 29.6413C23.4646 29.5006 24.0154 29.2712 24.5229 28.9444C25.0499 28.6057 25.4903 28.1577 25.9189 27.622C25.9254 27.6112 25.934 27.6036 25.9427 27.5928C26.2392 27.2249 26.184 26.699 25.8593 26.4501C25.5845 26.2391 25.1235 26.1536 24.7621 26.6189C24.6842 26.7314 24.5965 26.8461 24.5024 26.9598C24.2134 27.279 23.8553 27.5874 23.4267 27.8276C22.8792 28.1198 22.258 28.2854 21.598 28.2897C19.4359 28.2648 18.2802 26.7531 17.8679 25.6753C17.7965 25.4729 17.7413 25.2641 17.7023 25.0477L17.6915 24.934H25.4503C26.5129 24.9102 27.0843 24.1582 26.9263 23.3L26.9285 23.3022Z" fill="white"></path></svg>