<svg xmlns="http://www.w3.org/2000/svg" width="103" height="36" viewBox="0 0 103 36" fill="none"><g clip-path="url(#clip0_3973_13687)"><path d="M61.1902 11.1035H61.1829C57.3605 11.1035 54.2676 14.1951 54.2676 17.9996C54.2676 21.8114 57.3605 24.9031 61.1829 24.9031C65.0053 24.9031 68.1055 21.8187 68.1055 18.0069C68.1055 14.1951 65.0126 11.1035 61.1902 11.1035ZM64.1153 20.9312C62.4886 22.5461 59.8626 22.5389 58.2432 20.924C56.631 19.309 56.631 16.6903 58.2432 15.0753C59.8626 13.4531 62.4886 13.4531 64.1153 15.0681L64.1226 15.0753C65.7493 16.6903 65.7421 19.3163 64.1153 20.9312Z" fill="#133459"></path><path d="M52.8815 22.1838L52.1885 22.1475H45.9589L54.2675 13.8619L54.231 13.1709C54.2018 12.0579 53.3046 11.1631 52.1885 11.134L51.4955 11.0977H41.1152L41.1517 11.7887C41.2028 12.8872 42.0854 13.7746 43.1942 13.8256L43.8872 13.8619H50.1168L41.8082 22.1475L41.8447 22.8385C41.8812 23.9442 42.7784 24.839 43.8872 24.8754L44.5802 24.9117H54.9605L54.924 24.2207C54.8292 23.0786 54.0195 22.2493 52.8815 22.1838Z" fill="#133459"></path><path d="M64.1164 15.063C62.4897 13.4481 59.8637 13.4554 58.2442 15.0703C56.6321 16.6852 56.6321 19.304 58.2442 20.9189C59.8637 22.5411 62.4897 22.5411 64.1164 20.9262C65.7431 19.3113 65.7431 16.6925 64.1237 15.0703C64.1237 15.0703 64.1237 15.0703 64.1164 15.063Z" fill="white"></path><path d="M97.1817 11.1048C95.5915 11.1048 94.0815 11.7886 93.031 12.9744C91.1928 10.8939 88.0853 10.4938 85.7802 12.0505C85.2477 11.4467 84.0367 11.1048 83.3438 11.1048V24.9117L84.0367 24.8753C85.1893 24.8025 86.0355 23.9878 86.0792 22.8384L86.1157 22.1474V17.3172L86.1522 16.6261C86.1522 16.146 86.2762 15.6732 86.495 15.244C87.2537 13.9273 88.946 13.4763 90.2737 14.2401C90.6895 14.4802 91.0396 14.8293 91.2803 15.244H91.273C91.4992 15.6732 91.6159 16.146 91.6159 16.6261L91.6524 17.3172V22.1474L91.6888 22.8384C91.7326 23.9442 92.6152 24.8316 93.724 24.8753L94.417 24.9117V17.3172L94.4535 16.6261C94.4535 16.1387 94.5702 15.6659 94.7963 15.2367C95.5623 13.92 97.2619 13.469 98.5823 14.2401C98.9981 14.4802 99.3482 14.8293 99.5889 15.244C99.8078 15.6732 99.9245 16.146 99.9245 16.6261L99.961 17.3172V22.1474L99.9974 22.8384C100.034 23.9442 100.924 24.8316 102.033 24.8753L102.726 24.9117V16.6261C102.718 13.5781 100.238 11.1048 97.1817 11.1048Z" fill="#133459"></path><path d="M80.6135 13.1258C79.3151 11.831 77.5571 11.1035 75.7188 11.1035C73.8806 11.1035 72.1226 11.831 70.8241 13.1258C68.1251 15.8246 68.1251 20.1965 70.8314 22.888C73.5377 25.5796 77.9218 25.5796 80.6208 22.8808C83.3272 20.1892 83.3199 15.8173 80.6135 13.1258ZM78.6513 20.9312C77.0246 22.5461 74.3985 22.5389 72.7791 20.924C71.167 19.309 71.167 16.6903 72.7791 15.0753C74.3985 13.4531 77.0246 13.4531 78.6513 15.0681L78.6586 15.0753C80.2853 16.6903 80.278 19.3163 78.6513 20.9312Z" fill="#133459"></path><path d="M78.6535 15.063C77.0268 13.4481 74.4008 13.4554 72.7814 15.0703C71.1692 16.6852 71.1692 19.304 72.7814 20.9189C74.4008 22.5411 77.0268 22.5411 78.6535 20.9262C80.2802 19.3113 80.2802 16.6925 78.6608 15.0703C78.6608 15.0703 78.6608 15.0703 78.6535 15.063Z" fill="white"></path><mask id="mask0_3973_13687" style="mask-type:luminance" maskUnits="userSpaceOnUse" x="0" y="0" width="37" height="36"><path d="M18.6198 35.6124C28.3693 35.6124 36.2729 27.7308 36.2729 18.0083C36.2729 8.2859 28.3693 0.404297 18.6198 0.404297C8.87034 0.404297 0.966797 8.2859 0.966797 18.0083C0.966797 27.7308 8.87034 35.6124 18.6198 35.6124Z" fill="white"></path></mask><g mask="url(#mask0_3973_13687)"><path d="M0.0976562 -0.462891H37.1326V36.4692H0.0976562V-0.462891Z" fill="#133459"></path></g><mask id="mask1_3973_13687" style="mask-type:luminance" maskUnits="userSpaceOnUse" x="1" y="0" width="35" height="36"><path d="M18.6193 35.2637C28.1754 35.2637 35.9222 27.5384 35.9222 18.0088C35.9222 8.47918 28.1754 0.753906 18.6193 0.753906C9.06318 0.753906 1.31641 8.47918 1.31641 18.0088C1.31641 27.5384 9.06318 35.2637 18.6193 35.2637Z" fill="white"></path></mask><g mask="url(#mask1_3973_13687)"><path d="M0.447266 -0.113281H36.7892V36.1278H0.447266V-0.113281Z" fill="white"></path></g><mask id="mask2_3973_13687" style="mask-type:luminance" maskUnits="userSpaceOnUse" x="2" y="2" width="33" height="32"><path d="M18.6181 33.8822C27.4088 33.8822 34.535 26.7757 34.535 18.0095C34.535 9.24319 27.4088 2.13672 18.6181 2.13672C9.82742 2.13672 2.70117 9.24319 2.70117 18.0095C2.70117 26.7757 9.82742 33.8822 18.6181 33.8822Z" fill="white"></path></mask><g mask="url(#mask2_3973_13687)"><path d="M1.83203 1.26953H35.402V34.7463H1.83203V1.26953Z" fill="#133459"></path></g><mask id="mask3_3973_13687" style="mask-type:luminance" maskUnits="userSpaceOnUse" x="8" y="12" width="21" height="12"><path d="M23.4617 15.9484L27.9625 12.6677C28.3564 12.3476 28.6555 12.4203 28.6555 13.0096V23.0119C28.6555 23.6738 28.2834 23.6011 27.9625 23.3538L23.4617 20.073V15.9484ZM8.23047 13.0387V20.4877C8.23776 22.1753 9.61645 23.5356 11.3088 23.5284H22.2143C22.5207 23.5284 22.7687 23.281 22.776 22.9755V15.5192C22.7687 13.8316 21.39 12.4713 19.6976 12.4785H8.79216C8.48578 12.4858 8.23776 12.7259 8.23047 13.0387Z" fill="white"></path></mask><g mask="url(#mask3_3973_13687)"><path d="M7.36914 11.6211H29.523V24.3877H7.36914V11.6211Z" fill="white"></path></g></g><defs><clipPath id="clip0_3973_13687"><rect width="102.563" height="35.2081" fill="white" transform="translate(0.447266 0.396484)"></rect></clipPath></defs></svg>